<svg xmlns="http://www.w3.org/2000/svg" xmlns:xlink="http://www.w3.org/1999/xlink" contentStyleType="text/css" data-diagram-type="ACTIVITY" height="2214px" preserveAspectRatio="none" style="width:337px;height:2214px;background:#FFFFFF;" version="1.1" viewBox="0 0 337 2214" width="337px" zoomAndPan="magnify"><title>&#32771;&#30740;&#25191;&#34892;&#31995;&#32479;&#65288;&#23398;&#20064; / &#35760;&#24405; / &#22797;&#30424; / &#35268;&#21010;&#20998;&#31163;&#65289;</title><defs/><g><g class="title" data-source-line="1"><text fill="#000000" font-family="sans-serif" font-size="14" font-weight="bold" lengthAdjust="spacing" textLength="294.8818" x="20" y="34.5332">&#32771;&#30740;&#25191;&#34892;&#31995;&#32479;&#65288;&#23398;&#20064; / &#35760;&#24405; / &#22797;&#30424; / &#35268;&#21010;&#20998;&#31163;&#65289;</text></g><ellipse cx="167.9106" cy="58.6094" fill="#222222" rx="10" ry="10" style="stroke:#222222;stroke-width:1;"/><rect fill="none" height="202.4375" style="stroke:#000000;stroke-width:1.5;" width="152" x="91.9106" y="78.6094"/><path d="M157.9106,78.6094 L157.9106,89.2188 L147.9106,99.2188 L91.9106,99.2188" fill="none" style="stroke:#000000;stroke-width:1.5;"/><text fill="#000000" font-family="sans-serif" font-size="14" lengthAdjust="spacing" textLength="56" x="94.9106" y="94.1426">&#26089;&#26216;&#21551;&#21160;</text><rect fill="#F8F9FA" height="37.6094" rx="12.5" ry="12.5" style="stroke:#2D3436;stroke-width:0.5;" width="48" x="143.9106" y="116.2188"/><text fill="#000000" font-family="sans-serif" font-size="14" lengthAdjust="spacing" textLength="28" x="153.9106" y="140.752">&#36215;&#24202;</text><rect fill="#F8F9FA" height="37.6094" rx="12.5" ry="12.5" style="stroke:#2D3436;stroke-width:0.5;" width="132" x="101.9106" y="173.8281"/><text fill="#000000" font-family="sans-serif" font-size="14" lengthAdjust="spacing" textLength="112" x="111.9106" y="198.3613">&#31616;&#21333;&#22238;&#39038;&#20170;&#22825;&#35745;&#21010;</text><rect fill="#F8F9FA" height="37.6094" rx="12.5" ry="12.5" style="stroke:#2D3436;stroke-width:0.5;" width="104" x="115.9106" y="231.4375"/><text fill="#000000" font-family="sans-serif" font-size="14" lengthAdjust="spacing" textLength="84" x="125.9106" y="255.9707">&#36827;&#20837;&#23398;&#20064;&#27169;&#24335;</text><rect fill="none" height="372.0469" style="stroke:#000000;stroke-width:1.5;" width="269.8789" x="34.0015" y="291.0469"/><path d="M178.6147,291.0469 L178.6147,301.6563 L168.6147,311.6563 L34.0015,311.6563" fill="none" style="stroke:#000000;stroke-width:1.5;"/><text fill="#000000" font-family="sans-serif" font-size="14" lengthAdjust="spacing" textLength="134.6133" x="37.0015" y="306.5801">&#19978;&#21320;&#23398;&#20064; 7:20 - 12:00</text><rect fill="#F8F9FA" height="37.6094" rx="12.5" ry="12.5" style="stroke:#2D3436;stroke-width:0.5;" width="209.0068" x="63.4072" y="328.6563"/><text fill="#000000" font-family="sans-serif" font-size="14" lengthAdjust="spacing" textLength="189.0068" x="73.4072" y="353.1895">&#19987;&#27880;&#23398;&#20064;(&#19981;&#20570;Anki / &#19981;&#38382;GPT)</text><rect fill="#F8F9FA" height="37.6094" rx="12.5" ry="12.5" style="stroke:#2D3436;stroke-width:0.5;" width="174.0137" x="80.9038" y="430.2656"/><text fill="#000000" font-family="sans-serif" font-size="14" lengthAdjust="spacing" textLength="154.0137" x="90.9038" y="454.7988">&#36935;&#21040;&#38382;&#39064; or &#24819;&#20248;&#21270;&#26041;&#27861;?</text><polygon fill="#F8F9FA" points="155.9106,487.875,179.9106,487.875,191.9106,499.875,179.9106,511.875,155.9106,511.875,143.9106,499.875,155.9106,487.875" style="stroke:#2D3436;stroke-width:0.5;"/><text fill="#000000" font-family="sans-serif" font-size="14" lengthAdjust="spacing" textLength="14" x="160.9106" y="505.6035">&#26159;</text><text fill="#000000" font-family="sans-serif" font-size="11" lengthAdjust="spacing" textLength="22" x="121.9106" y="497.458">&#35760;&#24405;</text><text fill="#000000" font-family="sans-serif" font-size="11" lengthAdjust="spacing" textLength="11" x="191.9106" y="497.458">&#21542;</text><rect fill="#F8F9FA" height="55.2188" rx="12.5" ry="12.5" style="stroke:#2D3436;stroke-width:0.5;" width="113.9395" x="53.4561" y="521.875"/><text fill="#000000" font-family="sans-serif" font-size="14" lengthAdjust="spacing" textLength="93.9395" x="63.4561" y="546.4082">&#24555;&#36895;&#35760;&#24405;"&#29616;&#22330;"</text><text fill="#000000" font-family="sans-serif" font-size="14" lengthAdjust="spacing" textLength="65.3242" x="77.7637" y="564.0176">(&#26368;&#23567;&#24178;&#25200;)</text><rect fill="#F8F9FA" height="37.6094" rx="12.5" ry="12.5" style="stroke:#2D3436;stroke-width:0.5;" width="76" x="187.3955" y="521.875"/><text fill="#000000" font-family="sans-serif" font-size="14" lengthAdjust="spacing" textLength="56" x="197.3955" y="546.4082">&#32487;&#32493;&#23398;&#20064;</text><polygon fill="#F8F9FA" points="167.9106,583.0938,179.9106,595.0938,167.9106,607.0938,155.9106,595.0938,167.9106,583.0938" style="stroke:#2D3436;stroke-width:0.5;"/><polygon fill="#F8F9FA" points="167.9106,386.2656,179.9106,398.2656,167.9106,410.2656,155.9106,398.2656,167.9106,386.2656" style="stroke:#2D3436;stroke-width:0.5;"/><polygon fill="#F8F9FA" points="115.0176,627.0938,220.8037,627.0938,232.8037,639.0938,220.8037,651.0938,115.0176,651.0938,103.0176,639.0938,115.0176,627.0938" style="stroke:#2D3436;stroke-width:0.5;"/><text fill="#000000" font-family="sans-serif" font-size="14" lengthAdjust="spacing" textLength="105.7861" x="115.0176" y="644.8223">&#23398;&#20064;&#26102;&#38388;&#26410;&#32467;&#26463;?</text><text fill="#000000" font-family="sans-serif" font-size="11" lengthAdjust="spacing" textLength="11" x="232.8037" y="636.6768">&#26159;</text><rect fill="none" height="352.875" style="stroke:#000000;stroke-width:1.5;" width="176.3994" x="79.7109" y="673.6699"/><path d="M246.1104,673.6699 L246.1104,684.2793 L236.1104,694.2793 L79.7109,694.2793" fill="none" style="stroke:#000000;stroke-width:1.5;"/><text fill="#000000" font-family="sans-serif" font-size="14" lengthAdjust="spacing" textLength="156.3994" x="82.7109" y="689.2031">&#20013;&#21320;&#22788;&#29702;&#23618; 12:00 - 14:00</text><rect fill="#F8F9FA" height="37.6094" rx="12.5" ry="12.5" style="stroke:#2D3436;stroke-width:0.5;" width="139.417" x="98.2021" y="711.2793"/><text fill="#000000" font-family="sans-serif" font-size="14" lengthAdjust="spacing" textLength="119.417" x="108.2021" y="735.8125">&#24555;&#36895;&#22797;&#30424;(5~10min)</text><rect fill="#F8F9FA" height="55.2188" rx="12.5" ry="12.5" style="stroke:#2D3436;stroke-width:0.5;" width="136.6621" x="99.5796" y="768.8887"/><text fill="#000000" font-family="sans-serif" font-size="14" lengthAdjust="spacing" textLength="98" x="118.9106" y="793.4219">&#21482;&#20998;&#26512;&#20851;&#38190;&#38382;&#39064;</text><text fill="#000000" font-family="sans-serif" font-size="14" lengthAdjust="spacing" textLength="116.6621" x="109.5796" y="811.0313">(&#24605;&#24819; / &#34892;&#20026; / &#31574;&#30053;)</text><rect fill="#F8F9FA" height="37.6094" rx="12.5" ry="12.5" style="stroke:#2D3436;stroke-width:0.5;" width="113.9395" x="110.9409" y="844.1074"/><text fill="#000000" font-family="sans-serif" font-size="14" lengthAdjust="spacing" textLength="93.9395" x="120.9409" y="868.6406">&#25972;&#29702;"&#29616;&#22330;&#35760;&#24405;"</text><rect fill="#F8F9FA" height="37.6094" rx="12.5" ry="12.5" style="stroke:#2D3436;stroke-width:0.5;" width="89.2344" x="123.2935" y="901.7168"/><text fill="#000000" font-family="sans-serif" font-size="14" lengthAdjust="spacing" textLength="69.2344" x="133.2935" y="926.25">&#21046;&#20316;Anki&#21345;</text><rect fill="#F8F9FA" height="55.2188" rx="12.5" ry="12.5" style="stroke:#2D3436;stroke-width:0.5;" width="113.3242" x="111.2485" y="959.3262"/><text fill="#000000" font-family="sans-serif" font-size="14" lengthAdjust="spacing" textLength="84.7793" x="125.521" y="983.8594">&#24517;&#35201;&#26102;&#38382;GPT</text><text fill="#000000" font-family="sans-serif" font-size="14" lengthAdjust="spacing" textLength="93.3242" x="121.2485" y="1001.4688">(&#38598;&#20013;&#22788;&#29702;&#38382;&#39064;)</text><rect fill="none" height="354.4375" style="stroke:#000000;stroke-width:1.5;" width="259.9395" x="41.4561" y="1036.5449"/><path d="M193.8555,1036.5449 L193.8555,1047.1543 L183.8555,1057.1543 L41.4561,1057.1543" fill="none" style="stroke:#000000;stroke-width:1.5;"/><text fill="#000000" font-family="sans-serif" font-size="14" lengthAdjust="spacing" textLength="142.3994" x="44.4561" y="1052.0781">&#19979;&#21320;&#23398;&#20064; 14:00 - 20:00</text><rect fill="#F8F9FA" height="37.6094" rx="12.5" ry="12.5" style="stroke:#2D3436;stroke-width:0.5;" width="155.3242" x="90.2485" y="1074.1543"/><text fill="#000000" font-family="sans-serif" font-size="14" lengthAdjust="spacing" textLength="135.3242" x="100.2485" y="1098.6875">&#19987;&#27880;&#23398;&#20064;(&#21516;&#19978;&#21320;&#35268;&#21017;)</text><rect fill="#F8F9FA" height="37.6094" rx="12.5" ry="12.5" style="stroke:#2D3436;stroke-width:0.5;" width="83.7861" x="126.0176" y="1175.7637"/><text fill="#000000" font-family="sans-serif" font-size="14" lengthAdjust="spacing" textLength="63.7861" x="136.0176" y="1200.2969">&#36935;&#21040;&#38382;&#39064;?</text><polygon fill="#F8F9FA" points="155.9106,1233.373,179.9106,1233.373,191.9106,1245.373,179.9106,1257.373,155.9106,1257.373,143.9106,1245.373,155.9106,1233.373" style="stroke:#2D3436;stroke-width:0.5;"/><text fill="#000000" font-family="sans-serif" font-size="14" lengthAdjust="spacing" textLength="14" x="160.9106" y="1251.1016">&#26159;</text><text fill="#000000" font-family="sans-serif" font-size="11" lengthAdjust="spacing" textLength="22" x="121.9106" y="1242.9561">&#35760;&#24405;</text><text fill="#000000" font-family="sans-serif" font-size="11" lengthAdjust="spacing" textLength="11" x="191.9106" y="1242.9561">&#21542;</text><rect fill="#F8F9FA" height="37.6094" rx="12.5" ry="12.5" style="stroke:#2D3436;stroke-width:0.5;" width="104" x="60.9106" y="1267.373"/><text fill="#000000" font-family="sans-serif" font-size="14" lengthAdjust="spacing" textLength="84" x="70.9106" y="1291.9063">&#24555;&#36895;&#35760;&#24405;&#29616;&#22330;</text><rect fill="#F8F9FA" height="37.6094" rx="12.5" ry="12.5" style="stroke:#2D3436;stroke-width:0.5;" width="76" x="184.9106" y="1267.373"/><text fill="#000000" font-family="sans-serif" font-size="14" lengthAdjust="spacing" textLength="56" x="194.9106" y="1291.9063">&#32487;&#32493;&#23398;&#20064;</text><polygon fill="#F8F9FA" points="167.9106,1310.9824,179.9106,1322.9824,167.9106,1334.9824,155.9106,1322.9824,167.9106,1310.9824" style="stroke:#2D3436;stroke-width:0.5;"/><polygon fill="#F8F9FA" points="167.9106,1131.7637,179.9106,1143.7637,167.9106,1155.7637,155.9106,1143.7637,167.9106,1131.7637" style="stroke:#2D3436;stroke-width:0.5;"/><polygon fill="#F8F9FA" points="115.0176,1354.9824,220.8037,1354.9824,232.8037,1366.9824,220.8037,1378.9824,115.0176,1378.9824,103.0176,1366.9824,115.0176,1354.9824" style="stroke:#2D3436;stroke-width:0.5;"/><text fill="#000000" font-family="sans-serif" font-size="14" lengthAdjust="spacing" textLength="105.7861" x="115.0176" y="1372.7109">&#23398;&#20064;&#26102;&#38388;&#26410;&#32467;&#26463;?</text><text fill="#000000" font-family="sans-serif" font-size="11" lengthAdjust="spacing" textLength="11" x="232.8037" y="1364.5654">&#26159;</text><rect fill="none" height="202.4375" style="stroke:#000000;stroke-width:1.5;" width="176.3994" x="79.7109" y="1401.5586"/><path d="M246.1104,1401.5586 L246.1104,1412.168 L236.1104,1422.168 L79.7109,1422.168" fill="none" style="stroke:#000000;stroke-width:1.5;"/><text fill="#000000" font-family="sans-serif" font-size="14" lengthAdjust="spacing" textLength="156.3994" x="82.7109" y="1417.0918">&#26202;&#38388;&#22788;&#29702;&#23618; 20:00 - 22:00</text><rect fill="#F8F9FA" height="37.6094" rx="12.5" ry="12.5" style="stroke:#2D3436;stroke-width:0.5;" width="104" x="115.9106" y="1439.168"/><text fill="#000000" font-family="sans-serif" font-size="14" lengthAdjust="spacing" textLength="84" x="125.9106" y="1463.7012">&#25972;&#29702;&#19979;&#21320;&#35760;&#24405;</text><rect fill="#F8F9FA" height="37.6094" rx="12.5" ry="12.5" style="stroke:#2D3436;stroke-width:0.5;" width="89.2344" x="123.2935" y="1496.7773"/><text fill="#000000" font-family="sans-serif" font-size="14" lengthAdjust="spacing" textLength="69.2344" x="133.2935" y="1521.3105">&#21046;&#20316;Anki&#21345;</text><rect fill="#F8F9FA" height="37.6094" rx="12.5" ry="12.5" style="stroke:#2D3436;stroke-width:0.5;" width="142.1035" x="96.8589" y="1554.3867"/><text fill="#000000" font-family="sans-serif" font-size="14" lengthAdjust="spacing" textLength="122.1035" x="106.8589" y="1578.9199">&#34917;&#20805;&#29702;&#35299;(&#21487;&#38382;GPT)</text><rect fill="none" height="277.6563" style="stroke:#000000;stroke-width:1.5;" width="197.1104" x="69.3555" y="1613.9961"/><path d="M221.7549,1613.9961 L221.7549,1624.6055 L211.7549,1634.6055 L69.3555,1634.6055" fill="none" style="stroke:#000000;stroke-width:1.5;"/><text fill="#000000" font-family="sans-serif" font-size="14" lengthAdjust="spacing" textLength="142.3994" x="72.3555" y="1629.5293">&#22812;&#38388;&#25910;&#26463; 22:00 - 23:00</text><rect fill="#F8F9FA" height="37.6094" rx="12.5" ry="12.5" style="stroke:#2D3436;stroke-width:0.5;" width="95.4551" x="120.1831" y="1651.6055"/><text fill="#000000" font-family="sans-serif" font-size="14" lengthAdjust="spacing" textLength="75.4551" x="130.1831" y="1676.1387">&#22797;&#30424;(10min)</text><rect fill="#F8F9FA" height="37.6094" rx="12.5" ry="12.5" style="stroke:#2D3436;stroke-width:0.5;" width="147.9551" x="93.9331" y="1709.2148"/><text fill="#000000" font-family="sans-serif" font-size="14" lengthAdjust="spacing" textLength="127.9551" x="103.9331" y="1733.748">&#20998;&#26512;&#19979;&#21320; + &#20840;&#22825;&#34920;&#29616;</text><rect fill="#F8F9FA" height="37.6094" rx="12.5" ry="12.5" style="stroke:#2D3436;stroke-width:0.5;" width="177.1104" x="79.3555" y="1766.8242"/><text fill="#000000" font-family="sans-serif" font-size="14" lengthAdjust="spacing" textLength="157.1104" x="89.3555" y="1791.3574">&#35780;&#20215;&#20170;&#22825;(&#26159;&#21542;&#20559;&#31163;&#31995;&#32479;?)</text><rect fill="#F8F9FA" height="55.2188" rx="12.5" ry="12.5" style="stroke:#2D3436;stroke-width:0.5;" width="136.6484" x="99.5864" y="1824.4336"/><text fill="#000000" font-family="sans-serif" font-size="14" lengthAdjust="spacing" textLength="84" x="125.9106" y="1848.9668">&#21046;&#23450;&#26126;&#26085;&#35745;&#21010;</text><text fill="#000000" font-family="sans-serif" font-size="14" lengthAdjust="spacing" textLength="116.6484" x="109.5864" y="1866.5762">(&#21482;&#21040;&#8220;&#21487;&#25191;&#34892;&#31890;&#24230;&#8221;)</text><rect fill="none" height="260.0469" style="stroke:#000000;stroke-width:1.5;" width="191.6689" x="72.0762" y="1901.6523"/><path d="M138.0762,1901.6523 L138.0762,1912.2617 L128.0762,1922.2617 L72.0762,1922.2617" fill="none" style="stroke:#000000;stroke-width:1.5;"/><text fill="#000000" font-family="sans-serif" font-size="14" lengthAdjust="spacing" textLength="56" x="75.0762" y="1917.1855">&#38271;&#26399;&#24490;&#29615;</text><rect fill="#F8F9FA" height="37.6094" rx="12.5" ry="12.5" style="stroke:#2D3436;stroke-width:0.5;" width="76" x="129.9106" y="1939.2617"/><text fill="#000000" font-family="sans-serif" font-size="14" lengthAdjust="spacing" textLength="56" x="139.9106" y="1963.7949">&#27599;&#21608;&#22797;&#30424;</text><rect fill="#F8F9FA" height="37.6094" rx="12.5" ry="12.5" style="stroke:#2D3436;stroke-width:0.5;" width="171.6689" x="82.0762" y="1996.8711"/><text fill="#000000" font-family="sans-serif" font-size="14" lengthAdjust="spacing" textLength="151.6689" x="92.0762" y="2021.4043">&#24635;&#32467;&#38382;&#39064;&#27169;&#24335; / &#35843;&#25972;&#31574;&#30053;</text><rect fill="#F8F9FA" height="37.6094" rx="12.5" ry="12.5" style="stroke:#2D3436;stroke-width:0.5;" width="76" x="129.9106" y="2054.4805"/><text fill="#000000" font-family="sans-serif" font-size="14" lengthAdjust="spacing" textLength="56" x="139.9106" y="2079.0137">&#27599;&#26376;&#22797;&#30424;</text><rect fill="#F8F9FA" height="37.6094" rx="12.5" ry="12.5" style="stroke:#2D3436;stroke-width:0.5;" width="146" x="94.9106" y="2112.0898"/><text fill="#000000" font-family="sans-serif" font-size="14" lengthAdjust="spacing" textLength="126" x="104.9106" y="2136.623">&#35780;&#20272;&#25972;&#20307;&#26041;&#21521;&#19982;&#36827;&#24230;</text><ellipse cx="167.9106" cy="2192.6992" fill="none" rx="11" ry="11" style="stroke:#222222;stroke-width:1;"/><ellipse cx="167.9106" cy="2192.6992" fill="#222222" rx="6" ry="6" style="stroke:#222222;stroke-width:1;"/><line style="stroke:#2D3436;stroke-width:1;" x1="167.9106" x2="167.9106" y1="153.8281" y2="173.8281"/><polygon fill="#2D3436" points="163.9106,163.8281,167.9106,173.8281,171.9106,163.8281,167.9106,167.8281" style="stroke:#2D3436;stroke-width:1;"/><line style="stroke:#2D3436;stroke-width:1;" x1="167.9106" x2="167.9106" y1="211.4375" y2="231.4375"/><polygon fill="#2D3436" points="163.9106,221.4375,167.9106,231.4375,171.9106,221.4375,167.9106,225.4375" style="stroke:#2D3436;stroke-width:1;"/><line style="stroke:#2D3436;stroke-width:1;" x1="167.9106" x2="167.9106" y1="68.6094" y2="116.2188"/><polygon fill="#2D3436" points="163.9106,106.2188,167.9106,116.2188,171.9106,106.2188,167.9106,110.2188" style="stroke:#2D3436;stroke-width:1;"/><line style="stroke:#2D3436;stroke-width:1;" x1="143.9106" x2="110.4258" y1="499.875" y2="499.875"/><line style="stroke:#2D3436;stroke-width:1;" x1="110.4258" x2="110.4258" y1="499.875" y2="521.875"/><polygon fill="#2D3436" points="106.4258,511.875,110.4258,521.875,114.4258,511.875,110.4258,515.875" style="stroke:#2D3436;stroke-width:1;"/><line style="stroke:#2D3436;stroke-width:1;" x1="191.9106" x2="225.3955" y1="499.875" y2="499.875"/><line style="stroke:#2D3436;stroke-width:1;" x1="225.3955" x2="225.3955" y1="499.875" y2="521.875"/><polygon fill="#2D3436" points="221.3955,511.875,225.3955,521.875,229.3955,511.875,225.3955,515.875" style="stroke:#2D3436;stroke-width:1;"/><line style="stroke:#2D3436;stroke-width:1;" x1="110.4258" x2="110.4258" y1="577.0938" y2="595.0938"/><line style="stroke:#2D3436;stroke-width:1;" x1="110.4258" x2="155.9106" y1="595.0938" y2="595.0938"/><polygon fill="#2D3436" points="145.9106,591.0938,155.9106,595.0938,145.9106,599.0938,149.9106,595.0938" style="stroke:#2D3436;stroke-width:1;"/><line style="stroke:#2D3436;stroke-width:1;" x1="225.3955" x2="225.3955" y1="559.4844" y2="595.0938"/><line style="stroke:#2D3436;stroke-width:1;" x1="225.3955" x2="179.9106" y1="595.0938" y2="595.0938"/><polygon fill="#2D3436" points="189.9106,591.0938,179.9106,595.0938,189.9106,599.0938,185.9106,595.0938" style="stroke:#2D3436;stroke-width:1;"/><line style="stroke:#2D3436;stroke-width:1;" x1="167.9106" x2="167.9106" y1="467.875" y2="487.875"/><polygon fill="#2D3436" points="163.9106,477.875,167.9106,487.875,171.9106,477.875,167.9106,481.875" style="stroke:#2D3436;stroke-width:1;"/><line style="stroke:#2D3436;stroke-width:1;" x1="167.9106" x2="167.9106" y1="410.2656" y2="430.2656"/><polygon fill="#2D3436" points="163.9106,420.2656,167.9106,430.2656,171.9106,420.2656,167.9106,424.2656" style="stroke:#2D3436;stroke-width:1;"/><line style="stroke:#2D3436;stroke-width:1;" x1="232.8037" x2="285.3955" y1="639.0938" y2="639.0938"/><polygon fill="#2D3436" points="281.3955,521.1797,285.3955,511.1797,289.3955,521.1797,285.3955,517.1797" style="stroke:#2D3436;stroke-width:1;"/><line style="stroke:#2D3436;stroke-width:1;" x1="285.3955" x2="285.3955" y1="398.2656" y2="639.0938"/><line style="stroke:#2D3436;stroke-width:1;" x1="285.3955" x2="179.9106" y1="398.2656" y2="398.2656"/><polygon fill="#2D3436" points="189.9106,394.2656,179.9106,398.2656,189.9106,402.2656,185.9106,398.2656" style="stroke:#2D3436;stroke-width:1;"/><line style="stroke:#2D3436;stroke-width:1;" x1="167.9106" x2="167.9106" y1="607.0938" y2="627.0938"/><polygon fill="#2D3436" points="163.9106,617.0938,167.9106,627.0938,171.9106,617.0938,167.9106,621.0938" style="stroke:#2D3436;stroke-width:1;"/><line style="stroke:#2D3436;stroke-width:1;" x1="167.9106" x2="167.9106" y1="366.2656" y2="386.2656"/><polygon fill="#2D3436" points="163.9106,376.2656,167.9106,386.2656,171.9106,376.2656,167.9106,380.2656" style="stroke:#2D3436;stroke-width:1;"/><line style="stroke:#2D3436;stroke-width:1;" x1="167.9106" x2="167.9106" y1="269.0469" y2="328.6563"/><polygon fill="#2D3436" points="163.9106,318.6563,167.9106,328.6563,171.9106,318.6563,167.9106,322.6563" style="stroke:#2D3436;stroke-width:1;"/><line style="stroke:#2D3436;stroke-width:1;" x1="167.9106" x2="167.9106" y1="748.8887" y2="768.8887"/><polygon fill="#2D3436" points="163.9106,758.8887,167.9106,768.8887,171.9106,758.8887,167.9106,762.8887" style="stroke:#2D3436;stroke-width:1;"/><line style="stroke:#2D3436;stroke-width:1;" x1="167.9106" x2="167.9106" y1="824.1074" y2="844.1074"/><polygon fill="#2D3436" points="163.9106,834.1074,167.9106,844.1074,171.9106,834.1074,167.9106,838.1074" style="stroke:#2D3436;stroke-width:1;"/><line style="stroke:#2D3436;stroke-width:1;" x1="167.9106" x2="167.9106" y1="881.7168" y2="901.7168"/><polygon fill="#2D3436" points="163.9106,891.7168,167.9106,901.7168,171.9106,891.7168,167.9106,895.7168" style="stroke:#2D3436;stroke-width:1;"/><line style="stroke:#2D3436;stroke-width:1;" x1="167.9106" x2="167.9106" y1="939.3262" y2="959.3262"/><polygon fill="#2D3436" points="163.9106,949.3262,167.9106,959.3262,171.9106,949.3262,167.9106,953.3262" style="stroke:#2D3436;stroke-width:1;"/><line style="stroke:#2D3436;stroke-width:1;" x1="167.9106" x2="167.9106" y1="651.0938" y2="711.2793"/><polygon fill="#2D3436" points="163.9106,701.2793,167.9106,711.2793,171.9106,701.2793,167.9106,705.2793" style="stroke:#2D3436;stroke-width:1;"/><line style="stroke:#2D3436;stroke-width:1;" x1="143.9106" x2="112.9106" y1="1245.373" y2="1245.373"/><line style="stroke:#2D3436;stroke-width:1;" x1="112.9106" x2="112.9106" y1="1245.373" y2="1267.373"/><polygon fill="#2D3436" points="108.9106,1257.373,112.9106,1267.373,116.9106,1257.373,112.9106,1261.373" style="stroke:#2D3436;stroke-width:1;"/><line style="stroke:#2D3436;stroke-width:1;" x1="191.9106" x2="222.9106" y1="1245.373" y2="1245.373"/><line style="stroke:#2D3436;stroke-width:1;" x1="222.9106" x2="222.9106" y1="1245.373" y2="1267.373"/><polygon fill="#2D3436" points="218.9106,1257.373,222.9106,1267.373,226.9106,1257.373,222.9106,1261.373" style="stroke:#2D3436;stroke-width:1;"/><line style="stroke:#2D3436;stroke-width:1;" x1="112.9106" x2="112.9106" y1="1304.9824" y2="1322.9824"/><line style="stroke:#2D3436;stroke-width:1;" x1="112.9106" x2="155.9106" y1="1322.9824" y2="1322.9824"/><polygon fill="#2D3436" points="145.9106,1318.9824,155.9106,1322.9824,145.9106,1326.9824,149.9106,1322.9824" style="stroke:#2D3436;stroke-width:1;"/><line style="stroke:#2D3436;stroke-width:1;" x1="222.9106" x2="222.9106" y1="1304.9824" y2="1322.9824"/><line style="stroke:#2D3436;stroke-width:1;" x1="222.9106" x2="179.9106" y1="1322.9824" y2="1322.9824"/><polygon fill="#2D3436" points="189.9106,1318.9824,179.9106,1322.9824,189.9106,1326.9824,185.9106,1322.9824" style="stroke:#2D3436;stroke-width:1;"/><line style="stroke:#2D3436;stroke-width:1;" x1="167.9106" x2="167.9106" y1="1213.373" y2="1233.373"/><polygon fill="#2D3436" points="163.9106,1223.373,167.9106,1233.373,171.9106,1223.373,167.9106,1227.373" style="stroke:#2D3436;stroke-width:1;"/><line style="stroke:#2D3436;stroke-width:1;" x1="167.9106" x2="167.9106" y1="1155.7637" y2="1175.7637"/><polygon fill="#2D3436" points="163.9106,1165.7637,167.9106,1175.7637,171.9106,1165.7637,167.9106,1169.7637" style="stroke:#2D3436;stroke-width:1;"/><line style="stroke:#2D3436;stroke-width:1;" x1="232.8037" x2="282.9106" y1="1366.9824" y2="1366.9824"/><polygon fill="#2D3436" points="278.9106,1257.873,282.9106,1247.873,286.9106,1257.873,282.9106,1253.873" style="stroke:#2D3436;stroke-width:1;"/><line style="stroke:#2D3436;stroke-width:1;" x1="282.9106" x2="282.9106" y1="1143.7637" y2="1366.9824"/><line style="stroke:#2D3436;stroke-width:1;" x1="282.9106" x2="179.9106" y1="1143.7637" y2="1143.7637"/><polygon fill="#2D3436" points="189.9106,1139.7637,179.9106,1143.7637,189.9106,1147.7637,185.9106,1143.7637" style="stroke:#2D3436;stroke-width:1;"/><line style="stroke:#2D3436;stroke-width:1;" x1="167.9106" x2="167.9106" y1="1334.9824" y2="1354.9824"/><polygon fill="#2D3436" points="163.9106,1344.9824,167.9106,1354.9824,171.9106,1344.9824,167.9106,1348.9824" style="stroke:#2D3436;stroke-width:1;"/><line style="stroke:#2D3436;stroke-width:1;" x1="167.9106" x2="167.9106" y1="1111.7637" y2="1131.7637"/><polygon fill="#2D3436" points="163.9106,1121.7637,167.9106,1131.7637,171.9106,1121.7637,167.9106,1125.7637" style="stroke:#2D3436;stroke-width:1;"/><line style="stroke:#2D3436;stroke-width:1;" x1="167.9106" x2="167.9106" y1="1014.5449" y2="1074.1543"/><polygon fill="#2D3436" points="163.9106,1064.1543,167.9106,1074.1543,171.9106,1064.1543,167.9106,1068.1543" style="stroke:#2D3436;stroke-width:1;"/><line style="stroke:#2D3436;stroke-width:1;" x1="167.9106" x2="167.9106" y1="1476.7773" y2="1496.7773"/><polygon fill="#2D3436" points="163.9106,1486.7773,167.9106,1496.7773,171.9106,1486.7773,167.9106,1490.7773" style="stroke:#2D3436;stroke-width:1;"/><line style="stroke:#2D3436;stroke-width:1;" x1="167.9106" x2="167.9106" y1="1534.3867" y2="1554.3867"/><polygon fill="#2D3436" points="163.9106,1544.3867,167.9106,1554.3867,171.9106,1544.3867,167.9106,1548.3867" style="stroke:#2D3436;stroke-width:1;"/><line style="stroke:#2D3436;stroke-width:1;" x1="167.9106" x2="167.9106" y1="1378.9824" y2="1439.168"/><polygon fill="#2D3436" points="163.9106,1429.168,167.9106,1439.168,171.9106,1429.168,167.9106,1433.168" style="stroke:#2D3436;stroke-width:1;"/><line style="stroke:#2D3436;stroke-width:1;" x1="167.9106" x2="167.9106" y1="1689.2148" y2="1709.2148"/><polygon fill="#2D3436" points="163.9106,1699.2148,167.9106,1709.2148,171.9106,1699.2148,167.9106,1703.2148" style="stroke:#2D3436;stroke-width:1;"/><line style="stroke:#2D3436;stroke-width:1;" x1="167.9106" x2="167.9106" y1="1746.8242" y2="1766.8242"/><polygon fill="#2D3436" points="163.9106,1756.8242,167.9106,1766.8242,171.9106,1756.8242,167.9106,1760.8242" style="stroke:#2D3436;stroke-width:1;"/><line style="stroke:#2D3436;stroke-width:1;" x1="167.9106" x2="167.9106" y1="1804.4336" y2="1824.4336"/><polygon fill="#2D3436" points="163.9106,1814.4336,167.9106,1824.4336,171.9106,1814.4336,167.9106,1818.4336" style="stroke:#2D3436;stroke-width:1;"/><line style="stroke:#2D3436;stroke-width:1;" x1="167.9106" x2="167.9106" y1="1591.9961" y2="1651.6055"/><polygon fill="#2D3436" points="163.9106,1641.6055,167.9106,1651.6055,171.9106,1641.6055,167.9106,1645.6055" style="stroke:#2D3436;stroke-width:1;"/><line style="stroke:#2D3436;stroke-width:1;" x1="167.9106" x2="167.9106" y1="1976.8711" y2="1996.8711"/><polygon fill="#2D3436" points="163.9106,1986.8711,167.9106,1996.8711,171.9106,1986.8711,167.9106,1990.8711" style="stroke:#2D3436;stroke-width:1;"/><line style="stroke:#2D3436;stroke-width:1;" x1="167.9106" x2="167.9106" y1="2034.4805" y2="2054.4805"/><polygon fill="#2D3436" points="163.9106,2044.4805,167.9106,2054.4805,171.9106,2044.4805,167.9106,2048.4805" style="stroke:#2D3436;stroke-width:1;"/><line style="stroke:#2D3436;stroke-width:1;" x1="167.9106" x2="167.9106" y1="2092.0898" y2="2112.0898"/><polygon fill="#2D3436" points="163.9106,2102.0898,167.9106,2112.0898,171.9106,2102.0898,167.9106,2106.0898" style="stroke:#2D3436;stroke-width:1;"/><line style="stroke:#2D3436;stroke-width:1;" x1="167.9106" x2="167.9106" y1="1879.6523" y2="1939.2617"/><polygon fill="#2D3436" points="163.9106,1929.2617,167.9106,1939.2617,171.9106,1929.2617,167.9106,1933.2617" style="stroke:#2D3436;stroke-width:1;"/><line style="stroke:#2D3436;stroke-width:1;" x1="167.9106" x2="167.9106" y1="2149.6992" y2="2181.6992"/><polygon fill="#2D3436" points="163.9106,2171.6992,167.9106,2181.6992,171.9106,2171.6992,167.9106,2175.6992" style="stroke:#2D3436;stroke-width:1;"/><!--SRC=[lLHDJnfH5DtpArxi1j8qHRHVi31QOxTDwhARgOuw4MVCCDP-f0rMiMX5Q1L1nGzQHRGHg5X5GFqlPkwRcPL_eVVDGnrjqwIRRiZZtVlkFVUSCrUJjA18pF2uiJvFfxRCx8nHhXcrjVDw57Pp-j4wkKlCGWcEatY0ZPYnd6OtMnCG_GBHIIDNEwzFkKA3aZmigC8GwHJxX96WrYs-qjg3Khyy9CeQwS4VKNKvqa83GgyoAidzf4y8XaH7v8NGCzYlAYDoxsCbgAXaT43Id76XHvDUIjfhyjP5I8UYzeegJxpbwsnfRRcFj-sggepUlEouKVTMryEkHrtj6EbIPEsPz4OapQskTmXI4rJDvS9kcgH9YaoQQ6gRBkOXKOJfV9FTrs_-F8JgT80TZK8OOabONhMo9tfj6ZQspK8MsR63vkaoH3OvapIVXNeym7euYkkLQOXTSFt0x_EIEwJPv_Tw6vtqoXmjvtdShLTYCBRKBWzAA0B-iLA59q-xFG4NPghYi2XeUC17rjX7Y9OmQdrD4noMZfVrUXfc5kZ24Iqdsm9scjH7t3HTz11jG9I9cyliiKDO0qw_M-4rVjbap9OWKsrwBhjf9WobE1pjqQcIXzSHKK7YXaJkygrHsp9gknnq8qVkbVekKJ9LW-mD9oPrOANsQMR7gCtHbRKs3v527DblNEqohZOcZCGa_FZ0UM9yjJRuSbtYvbPrttlVx1sIP1ke7-8xQ5cwce18sPelS7hOIE4L98ZPEZkZLwfuC7ONZEGcvzLFa_lOhq51WmzUBtgW7sUO6X3B1XhD8sPkp1w8AOF5hUL91jl6p3koiZVd-dJb0NiO7ChdTGnrpGMGcE6kiJ_3nR_B_yzQypd_ix9qSGaJhvIrXsSa-1maS24uMHphdsHWNrrs4o8Hp3MtlhaXNhpwJAvtXOqCWpT_WDXuAzQonMacRYEdYMm7SH3aDe58ddtnsJpInYrW5YVqsY7V16nKP0_6uhWe-M9jQxWAKKDXYQPdQMgJBmmqY-tGqbauWw0RstZl2rHpP-6Ltz5RoLEQMOEJ7MEsU4bHCGwVynor3PU6iUaSjm9VGCpdfN76fMtomCKxceawth4fwYNCqe_dS6b0uhDUcMNRh9hZG4AQClmB]--></g></svg>