<svg xmlns="http://www.w3.org/2000/svg" xmlns:xlink="http://www.w3.org/1999/xlink" contentStyleType="text/css" data-diagram-type="ACTIVITY" height="1798px" preserveAspectRatio="none" style="width:492px;height:1798px;background:#FFFFFF;" version="1.1" viewBox="0 0 492 1798" width="492px" zoomAndPan="magnify"><title>&#32771;&#30740;&#25972;&#20307;&#35268;&#21010;&#36807;&#24230;&#24314;&#27169;&#26102;&#30340;&#35299;&#20915;&#27969;&#31243;&#22270;</title><defs/><g><g class="title" data-source-line="1"><text fill="#000000" font-family="sans-serif" font-size="14" font-weight="bold" lengthAdjust="spacing" textLength="245.4375" x="122.2261" y="34.5332">&#32771;&#30740;&#25972;&#20307;&#35268;&#21010;&#36807;&#24230;&#24314;&#27169;&#26102;&#30340;&#35299;&#20915;&#27969;&#31243;&#22270;</text></g><ellipse cx="225.5552" cy="58.6094" fill="#222222" rx="10" ry="10" style="stroke:#222222;stroke-width:1;"/><rect fill="#F8F9FA" height="55.2188" rx="12.5" ry="12.5" style="stroke:#2D3436;stroke-width:0.5;" width="183.3242" x="133.8931" y="88.6094"/><text fill="#000000" font-family="sans-serif" font-size="14" lengthAdjust="spacing" textLength="98" x="176.5552" y="113.1426">&#23519;&#35273;&#21040;&#33258;&#24049;&#21448;&#24819;</text><text fill="#000000" font-family="sans-serif" font-size="14" lengthAdjust="spacing" textLength="163.3242" x="143.8931" y="130.752">&#8220;&#20808;&#25226;&#25972;&#20307;&#32771;&#30740;&#31995;&#32479;&#35268;&#21010;&#22909;&#8221;</text><rect fill="#F8F9FA" height="37.6094" rx="12.5" ry="12.5" style="stroke:#2D3436;stroke-width:0.5;" width="71.3516" x="189.8794" y="163.8281"/><text fill="#000000" font-family="sans-serif" font-size="14" lengthAdjust="spacing" textLength="51.3516" x="199.8794" y="188.3613">&#20572; 10 &#31186;</text><rect fill="#F8F9FA" height="55.2188" rx="12.5" ry="12.5" style="stroke:#2D3436;stroke-width:0.5;" width="141.3242" x="154.8931" y="221.4375"/><text fill="#000000" font-family="sans-serif" font-size="14" lengthAdjust="spacing" textLength="84" x="183.5552" y="245.9707">&#21629;&#21517;&#24403;&#21069;&#29366;&#24577;</text><text fill="#000000" font-family="sans-serif" font-size="14" lengthAdjust="spacing" textLength="121.3242" x="164.8931" y="263.5801">&#8220;&#25105;&#22312;&#36861;&#27714;&#19975;&#33021;&#27169;&#22411;&#8221;</text><rect fill="none" height="266.4375" style="stroke:#000000;stroke-width:1.5;" width="408" x="28.5552" y="286.6563"/><path d="M80.5552,286.6563 L80.5552,297.2656 L70.5552,307.2656 L28.5552,307.2656" fill="none" style="stroke:#000000;stroke-width:1.5;"/><text fill="#000000" font-family="sans-serif" font-size="14" lengthAdjust="spacing" textLength="42" x="31.5552" y="302.1895">&#35268;&#21010;&#23618;</text><rect fill="#F8F9FA" height="37.6094" rx="12.5" ry="12.5" style="stroke:#2D3436;stroke-width:0.5;" width="202" x="124.5552" y="324.2656"/><text fill="#000000" font-family="sans-serif" font-size="14" lengthAdjust="spacing" textLength="182" x="134.5552" y="348.7988">&#26816;&#26597;&#24403;&#21069;&#24819;&#27861;&#26159;&#21542;&#22312;&#25193;&#24352;&#27169;&#22411;</text><polygon fill="#F8F9FA" points="151.6621,381.875,299.4482,381.875,311.4482,393.875,299.4482,405.875,151.6621,405.875,139.6621,393.875,151.6621,381.875" style="stroke:#2D3436;stroke-width:0.5;"/><text fill="#000000" font-family="sans-serif" font-size="14" lengthAdjust="spacing" textLength="147.7861" x="151.6621" y="399.6035">&#26159;&#21542;&#24050;&#36229;&#36807;&#35268;&#21010;&#26102;&#38388;&#30418;?</text><text fill="#000000" font-family="sans-serif" font-size="11" lengthAdjust="spacing" textLength="11" x="128.6621" y="391.458">&#26159;</text><text fill="#000000" font-family="sans-serif" font-size="11" lengthAdjust="spacing" textLength="11" x="311.4482" y="391.458">&#21542;</text><rect fill="#F8F9FA" height="37.6094" rx="12.5" ry="12.5" style="stroke:#2D3436;stroke-width:0.5;" width="104" x="76.5552" y="415.875"/><text fill="#000000" font-family="sans-serif" font-size="14" lengthAdjust="spacing" textLength="84" x="86.5552" y="440.4082">&#20572;&#27490;&#32487;&#32493;&#25193;&#27169;</text><rect fill="#F8F9FA" height="37.6094" rx="12.5" ry="12.5" style="stroke:#2D3436;stroke-width:0.5;" width="160" x="48.5552" y="473.4844"/><text fill="#000000" font-family="sans-serif" font-size="14" lengthAdjust="spacing" textLength="140" x="58.5552" y="498.0176">&#25226;&#35268;&#21010;&#20923;&#32467;&#20026;&#24403;&#21069;&#29256;&#26412;</text><rect fill="#F8F9FA" height="37.6094" rx="12.5" ry="12.5" style="stroke:#2D3436;stroke-width:0.5;" width="188" x="228.5552" y="415.875"/><text fill="#000000" font-family="sans-serif" font-size="14" lengthAdjust="spacing" textLength="168" x="238.5552" y="440.4082">&#32487;&#32493;&#20294;&#21482;&#20801;&#35768;&#34917;&#20805;&#24517;&#35201;&#20449;&#24687;</text><polygon fill="#F8F9FA" points="225.5552,517.0938,237.5552,529.0938,225.5552,541.0938,213.5552,529.0938,225.5552,517.0938" style="stroke:#2D3436;stroke-width:0.5;"/><rect fill="none" height="226.4375" style="stroke:#000000;stroke-width:1.5;" width="452.2275" x="29.6621" y="563.0938"/><path d="M81.6621,563.0938 L81.6621,573.7031 L71.6621,583.7031 L29.6621,583.7031" fill="none" style="stroke:#000000;stroke-width:1.5;"/><text fill="#000000" font-family="sans-serif" font-size="14" lengthAdjust="spacing" textLength="42" x="32.6621" y="578.627">&#32422;&#26463;&#23618;</text><polygon fill="#F8F9FA" points="123.6621,600.7031,327.4482,600.7031,339.4482,612.7031,327.4482,624.7031,123.6621,624.7031,111.6621,612.7031,123.6621,600.7031" style="stroke:#2D3436;stroke-width:0.5;"/><text fill="#000000" font-family="sans-serif" font-size="14" lengthAdjust="spacing" textLength="203.7861" x="123.6621" y="618.4316">&#36825;&#20010;&#35268;&#21010;&#33021;&#21542;&#30452;&#25509;&#25903;&#25345;&#20170;&#22825;&#25191;&#34892;?</text><text fill="#000000" font-family="sans-serif" font-size="11" lengthAdjust="spacing" textLength="11" x="100.6621" y="610.2861">&#33021;</text><text fill="#000000" font-family="sans-serif" font-size="11" lengthAdjust="spacing" textLength="22" x="339.4482" y="610.2861">&#19981;&#33021;</text><rect fill="#F8F9FA" height="37.6094" rx="12.5" ry="12.5" style="stroke:#2D3436;stroke-width:0.5;" width="104" x="49.6621" y="634.7031"/><text fill="#000000" font-family="sans-serif" font-size="14" lengthAdjust="spacing" textLength="84" x="59.6621" y="659.2363">&#20445;&#30041;&#24403;&#21069;&#32467;&#26500;</text><rect fill="#F8F9FA" height="37.6094" rx="12.5" ry="12.5" style="stroke:#2D3436;stroke-width:0.5;" width="160" x="269.4482" y="634.7031"/><text fill="#000000" font-family="sans-serif" font-size="14" lengthAdjust="spacing" textLength="140" x="279.4482" y="659.2363">&#21387;&#32553;&#21040;&#26368;&#23567;&#21487;&#25191;&#34892;&#32467;&#26500;</text><rect fill="#F8F9FA" height="55.2188" rx="12.5" ry="12.5" style="stroke:#2D3436;stroke-width:0.5;" width="240.8828" x="229.0068" y="692.3125"/><text fill="#000000" font-family="sans-serif" font-size="14" lengthAdjust="spacing" textLength="98" x="300.4482" y="716.8457">&#21482;&#20445;&#30041;&#32479;&#19968;&#27169;&#26495;</text><text fill="#000000" font-family="sans-serif" font-size="14" lengthAdjust="spacing" textLength="220.8828" x="239.0068" y="734.4551">(&#26469;&#28304;/&#38169;&#35823;&#28857;/&#35823;&#35299;/&#19979;&#19968;&#27493;/&#22797;&#20064;&#26102;&#38388;)</text><polygon fill="#F8F9FA" points="225.5552,753.5313,237.5552,765.5313,225.5552,777.5313,213.5552,765.5313,225.5552,753.5313" style="stroke:#2D3436;stroke-width:0.5;"/><rect fill="none" height="611.9844" style="stroke:#000000;stroke-width:1.5;" width="425.1104" x="11" y="799.5313"/><path d="M63,799.5313 L63,810.1406 L53,820.1406 L11,820.1406" fill="none" style="stroke:#000000;stroke-width:1.5;"/><text fill="#000000" font-family="sans-serif" font-size="14" lengthAdjust="spacing" textLength="42" x="14" y="815.0645">&#25191;&#34892;&#23618;</text><rect fill="#F8F9FA" height="37.6094" rx="12.5" ry="12.5" style="stroke:#2D3436;stroke-width:0.5;" width="174" x="138.5552" y="837.1406"/><text fill="#000000" font-family="sans-serif" font-size="14" lengthAdjust="spacing" textLength="154" x="148.5552" y="861.6738">&#25226;&#30446;&#26631;&#25913;&#20889;&#25104;&#20170;&#22825;&#30340;&#19968;&#27493;</text><rect fill="#F8F9FA" height="37.6094" rx="12.5" ry="12.5" style="stroke:#2D3436;stroke-width:0.5;" width="169.3516" x="140.8794" y="894.75"/><text fill="#000000" font-family="sans-serif" font-size="14" lengthAdjust="spacing" textLength="149.3516" x="150.8794" y="919.2832">&#36873;&#25321;&#19968;&#20010; 25 &#20998;&#38047;&#26102;&#38388;&#30418;</text><rect fill="#F8F9FA" height="55.2188" rx="12.5" ry="12.5" style="stroke:#2D3436;stroke-width:0.5;" width="281.3584" x="84.876" y="952.3594"/><text fill="#000000" font-family="sans-serif" font-size="14" lengthAdjust="spacing" textLength="84" x="183.5552" y="976.8926">&#24320;&#22987;&#26368;&#23567;&#21160;&#20316;</text><text fill="#000000" font-family="sans-serif" font-size="14" lengthAdjust="spacing" textLength="261.3584" x="94.876" y="994.502">(&#20363;&#22914;&#35760; 3 &#26465;&#26679;&#26412; / &#23398; 1 &#20010;&#23567;&#33410; / &#20570; 5 &#36947;&#39064;)</text><rect fill="#F8F9FA" height="37.6094" rx="12.5" ry="12.5" style="stroke:#2D3436;stroke-width:0.5;" width="132" x="159.5552" y="1071.5781"/><text fill="#000000" font-family="sans-serif" font-size="14" lengthAdjust="spacing" textLength="112" x="169.5552" y="1096.1113">&#25345;&#32493;&#25191;&#34892;&#24403;&#21069;&#21160;&#20316;</text><polygon fill="#F8F9FA" points="119,1129.1875,332.1104,1129.1875,344.1104,1141.1875,332.1104,1153.1875,119,1153.1875,107,1141.1875,119,1129.1875" style="stroke:#2D3436;stroke-width:0.5;"/><text fill="#000000" font-family="sans-serif" font-size="14" lengthAdjust="spacing" textLength="213.1104" x="119" y="1146.916">&#21448;&#20882;&#20986;&#8220;&#36824;&#35201;&#20877;&#35774;&#35745;&#19968;&#19979;&#27169;&#22411;&#8221;&#24565;&#22836;?</text><text fill="#000000" font-family="sans-serif" font-size="11" lengthAdjust="spacing" textLength="11" x="96" y="1138.7705">&#26159;</text><text fill="#000000" font-family="sans-serif" font-size="11" lengthAdjust="spacing" textLength="11" x="344.1104" y="1138.7705">&#21542;</text><rect fill="#F8F9FA" height="37.6094" rx="12.5" ry="12.5" style="stroke:#2D3436;stroke-width:0.5;" width="90" x="52" y="1163.1875"/><text fill="#000000" font-family="sans-serif" font-size="14" lengthAdjust="spacing" textLength="70" x="62" y="1187.7207">&#19981;&#23637;&#24320;&#35752;&#35770;</text><rect fill="#F8F9FA" height="37.6094" rx="12.5" ry="12.5" style="stroke:#2D3436;stroke-width:0.5;" width="132" x="31" y="1230.2969"/><text fill="#000000" font-family="sans-serif" font-size="14" lengthAdjust="spacing" textLength="112" x="41" y="1254.8301">&#21482;&#35760;&#19968;&#26465;&#24453;&#20248;&#21270;&#39033;</text><rect fill="#F8F9FA" height="37.6094" rx="12.5" ry="12.5" style="stroke:#2D3436;stroke-width:0.5;" width="104" x="45" y="1287.9063"/><text fill="#000000" font-family="sans-serif" font-size="14" lengthAdjust="spacing" textLength="84" x="55" y="1312.4395">&#22238;&#21040;&#24403;&#21069;&#21160;&#20316;</text><rect fill="#F8F9FA" height="37.6094" rx="12.5" ry="12.5" style="stroke:#2D3436;stroke-width:0.5;" width="76" x="316.1104" y="1163.1875"/><text fill="#000000" font-family="sans-serif" font-size="14" lengthAdjust="spacing" textLength="56" x="326.1104" y="1187.7207">&#32487;&#32493;&#25191;&#34892;</text><polygon fill="#F8F9FA" points="225.5552,1331.5156,237.5552,1343.5156,225.5552,1355.5156,213.5552,1343.5156,225.5552,1331.5156" style="stroke:#2D3436;stroke-width:0.5;"/><polygon fill="#F8F9FA" points="225.5552,1027.5781,237.5552,1039.5781,225.5552,1051.5781,213.5552,1039.5781,225.5552,1027.5781" style="stroke:#2D3436;stroke-width:0.5;"/><polygon fill="#F8F9FA" points="179.6621,1375.5156,271.4482,1375.5156,283.4482,1387.5156,271.4482,1399.5156,179.6621,1399.5156,167.6621,1387.5156,179.6621,1375.5156" style="stroke:#2D3436;stroke-width:0.5;"/><text fill="#000000" font-family="sans-serif" font-size="14" lengthAdjust="spacing" textLength="91.7861" x="179.6621" y="1393.2441">&#26102;&#38388;&#30418;&#26410;&#32467;&#26463;?</text><text fill="#000000" font-family="sans-serif" font-size="11" lengthAdjust="spacing" textLength="11" x="283.4482" y="1385.0986">&#26159;</text><rect fill="none" height="324.0469" style="stroke:#000000;stroke-width:1.5;" width="384.7861" x="22.6621" y="1421.5156"/><path d="M74.6621,1421.5156 L74.6621,1432.125 L64.6621,1442.125 L22.6621,1442.125" fill="none" style="stroke:#000000;stroke-width:1.5;"/><text fill="#000000" font-family="sans-serif" font-size="14" lengthAdjust="spacing" textLength="42" x="25.6621" y="1437.0488">&#22797;&#30424;&#23618;</text><rect fill="#F8F9FA" height="37.6094" rx="12.5" ry="12.5" style="stroke:#2D3436;stroke-width:0.5;" width="119.5654" x="165.7725" y="1459.125"/><text fill="#000000" font-family="sans-serif" font-size="14" lengthAdjust="spacing" textLength="99.5654" x="175.7725" y="1483.6582">&#24555;&#36895;&#22797;&#30424; 2 &#20998;&#38047;</text><polygon fill="#F8F9FA" points="151.6621,1516.7344,299.4482,1516.7344,311.4482,1528.7344,299.4482,1540.7344,151.6621,1540.7344,139.6621,1528.7344,151.6621,1516.7344" style="stroke:#2D3436;stroke-width:0.5;"/><text fill="#000000" font-family="sans-serif" font-size="14" lengthAdjust="spacing" textLength="147.7861" x="151.6621" y="1534.4629">&#24403;&#21069;&#27169;&#26495;&#30495;&#30340;&#24433;&#21709;&#25928;&#29575;?</text><text fill="#000000" font-family="sans-serif" font-size="11" lengthAdjust="spacing" textLength="11" x="128.6621" y="1526.3174">&#26159;</text><text fill="#000000" font-family="sans-serif" font-size="11" lengthAdjust="spacing" textLength="11" x="311.4482" y="1526.3174">&#21542;</text><rect fill="#F8F9FA" height="37.6094" rx="12.5" ry="12.5" style="stroke:#2D3436;stroke-width:0.5;" width="174" x="42.6621" y="1550.7344"/><text fill="#000000" font-family="sans-serif" font-size="14" lengthAdjust="spacing" textLength="154" x="52.6621" y="1575.2676">&#25226;&#25913;&#21160;&#25918;&#21040;&#21608;&#22797;&#30424;&#26102;&#22788;&#29702;</text><rect fill="#F8F9FA" height="37.6094" rx="12.5" ry="12.5" style="stroke:#2D3436;stroke-width:0.5;" width="132" x="255.4482" y="1550.7344"/><text fill="#000000" font-family="sans-serif" font-size="14" lengthAdjust="spacing" textLength="112" x="265.4482" y="1575.2676">&#20445;&#25345;&#24403;&#21069;&#27169;&#26495;&#19981;&#21464;</text><polygon fill="#F8F9FA" points="225.5552,1594.3438,237.5552,1606.3438,225.5552,1618.3438,213.5552,1606.3438,225.5552,1594.3438" style="stroke:#2D3436;stroke-width:0.5;"/><rect fill="#F8F9FA" height="37.6094" rx="12.5" ry="12.5" style="stroke:#2D3436;stroke-width:0.5;" width="132" x="159.5552" y="1638.3438"/><text fill="#000000" font-family="sans-serif" font-size="14" lengthAdjust="spacing" textLength="112" x="169.5552" y="1662.877">&#35760;&#24405;&#19968;&#26465;&#30495;&#23454;&#26679;&#26412;</text><rect fill="#F8F9FA" height="37.6094" rx="12.5" ry="12.5" style="stroke:#2D3436;stroke-width:0.5;" width="48" x="201.5552" y="1695.9531"/><text fill="#000000" font-family="sans-serif" font-size="14" lengthAdjust="spacing" textLength="28" x="211.5552" y="1720.4863">&#32467;&#26463;</text><ellipse cx="225.5552" cy="1776.5625" fill="none" rx="11" ry="11" style="stroke:#222222;stroke-width:1;"/><ellipse cx="225.5552" cy="1776.5625" fill="#222222" rx="6" ry="6" style="stroke:#222222;stroke-width:1;"/><line style="stroke:#2D3436;stroke-width:1;" x1="225.5552" x2="225.5552" y1="68.6094" y2="88.6094"/><polygon fill="#2D3436" points="221.5552,78.6094,225.5552,88.6094,229.5552,78.6094,225.5552,82.6094" style="stroke:#2D3436;stroke-width:1;"/><line style="stroke:#2D3436;stroke-width:1;" x1="225.5552" x2="225.5552" y1="143.8281" y2="163.8281"/><polygon fill="#2D3436" points="221.5552,153.8281,225.5552,163.8281,229.5552,153.8281,225.5552,157.8281" style="stroke:#2D3436;stroke-width:1;"/><line style="stroke:#2D3436;stroke-width:1;" x1="225.5552" x2="225.5552" y1="201.4375" y2="221.4375"/><polygon fill="#2D3436" points="221.5552,211.4375,225.5552,221.4375,229.5552,211.4375,225.5552,215.4375" style="stroke:#2D3436;stroke-width:1;"/><line style="stroke:#2D3436;stroke-width:1;" x1="128.5552" x2="128.5552" y1="453.4844" y2="473.4844"/><polygon fill="#2D3436" points="124.5552,463.4844,128.5552,473.4844,132.5552,463.4844,128.5552,467.4844" style="stroke:#2D3436;stroke-width:1;"/><line style="stroke:#2D3436;stroke-width:1;" x1="139.6621" x2="128.5552" y1="393.875" y2="393.875"/><line style="stroke:#2D3436;stroke-width:1;" x1="128.5552" x2="128.5552" y1="393.875" y2="415.875"/><polygon fill="#2D3436" points="124.5552,405.875,128.5552,415.875,132.5552,405.875,128.5552,409.875" style="stroke:#2D3436;stroke-width:1;"/><line style="stroke:#2D3436;stroke-width:1;" x1="311.4482" x2="322.5552" y1="393.875" y2="393.875"/><line style="stroke:#2D3436;stroke-width:1;" x1="322.5552" x2="322.5552" y1="393.875" y2="415.875"/><polygon fill="#2D3436" points="318.5552,405.875,322.5552,415.875,326.5552,405.875,322.5552,409.875" style="stroke:#2D3436;stroke-width:1;"/><line style="stroke:#2D3436;stroke-width:1;" x1="128.5552" x2="128.5552" y1="511.0938" y2="529.0938"/><line style="stroke:#2D3436;stroke-width:1;" x1="128.5552" x2="213.5552" y1="529.0938" y2="529.0938"/><polygon fill="#2D3436" points="203.5552,525.0938,213.5552,529.0938,203.5552,533.0938,207.5552,529.0938" style="stroke:#2D3436;stroke-width:1;"/><line style="stroke:#2D3436;stroke-width:1;" x1="322.5552" x2="322.5552" y1="453.4844" y2="529.0938"/><line style="stroke:#2D3436;stroke-width:1;" x1="322.5552" x2="237.5552" y1="529.0938" y2="529.0938"/><polygon fill="#2D3436" points="247.5552,525.0938,237.5552,529.0938,247.5552,533.0938,243.5552,529.0938" style="stroke:#2D3436;stroke-width:1;"/><line style="stroke:#2D3436;stroke-width:1;" x1="225.5552" x2="225.5552" y1="361.875" y2="381.875"/><polygon fill="#2D3436" points="221.5552,371.875,225.5552,381.875,229.5552,371.875,225.5552,375.875" style="stroke:#2D3436;stroke-width:1;"/><line style="stroke:#2D3436;stroke-width:1;" x1="225.5552" x2="225.5552" y1="276.6563" y2="324.2656"/><polygon fill="#2D3436" points="221.5552,314.2656,225.5552,324.2656,229.5552,314.2656,225.5552,318.2656" style="stroke:#2D3436;stroke-width:1;"/><line style="stroke:#2D3436;stroke-width:1;" x1="349.4482" x2="349.4482" y1="672.3125" y2="692.3125"/><polygon fill="#2D3436" points="345.4482,682.3125,349.4482,692.3125,353.4482,682.3125,349.4482,686.3125" style="stroke:#2D3436;stroke-width:1;"/><line style="stroke:#2D3436;stroke-width:1;" x1="111.6621" x2="101.6621" y1="612.7031" y2="612.7031"/><line style="stroke:#2D3436;stroke-width:1;" x1="101.6621" x2="101.6621" y1="612.7031" y2="634.7031"/><polygon fill="#2D3436" points="97.6621,624.7031,101.6621,634.7031,105.6621,624.7031,101.6621,628.7031" style="stroke:#2D3436;stroke-width:1;"/><line style="stroke:#2D3436;stroke-width:1;" x1="339.4482" x2="349.4482" y1="612.7031" y2="612.7031"/><line style="stroke:#2D3436;stroke-width:1;" x1="349.4482" x2="349.4482" y1="612.7031" y2="634.7031"/><polygon fill="#2D3436" points="345.4482,624.7031,349.4482,634.7031,353.4482,624.7031,349.4482,628.7031" style="stroke:#2D3436;stroke-width:1;"/><line style="stroke:#2D3436;stroke-width:1;" x1="101.6621" x2="101.6621" y1="672.3125" y2="765.5313"/><line style="stroke:#2D3436;stroke-width:1;" x1="101.6621" x2="213.5552" y1="765.5313" y2="765.5313"/><polygon fill="#2D3436" points="203.5552,761.5313,213.5552,765.5313,203.5552,769.5313,207.5552,765.5313" style="stroke:#2D3436;stroke-width:1;"/><line style="stroke:#2D3436;stroke-width:1;" x1="349.4482" x2="349.4482" y1="747.5313" y2="765.5313"/><line style="stroke:#2D3436;stroke-width:1;" x1="349.4482" x2="237.5552" y1="765.5313" y2="765.5313"/><polygon fill="#2D3436" points="247.5552,761.5313,237.5552,765.5313,247.5552,769.5313,243.5552,765.5313" style="stroke:#2D3436;stroke-width:1;"/><line style="stroke:#2D3436;stroke-width:1;" x1="225.5552" x2="225.5552" y1="541.0938" y2="600.7031"/><polygon fill="#2D3436" points="221.5552,590.7031,225.5552,600.7031,229.5552,590.7031,225.5552,594.7031" style="stroke:#2D3436;stroke-width:1;"/><line style="stroke:#2D3436;stroke-width:1;" x1="225.5552" x2="225.5552" y1="874.75" y2="894.75"/><polygon fill="#2D3436" points="221.5552,884.75,225.5552,894.75,229.5552,884.75,225.5552,888.75" style="stroke:#2D3436;stroke-width:1;"/><line style="stroke:#2D3436;stroke-width:1;" x1="225.5552" x2="225.5552" y1="932.3594" y2="952.3594"/><polygon fill="#2D3436" points="221.5552,942.3594,225.5552,952.3594,229.5552,942.3594,225.5552,946.3594" style="stroke:#2D3436;stroke-width:1;"/><line style="stroke:#2D3436;stroke-width:1;" x1="97" x2="97" y1="1200.7969" y2="1230.2969"/><polygon fill="#2D3436" points="93,1220.2969,97,1230.2969,101,1220.2969,97,1224.2969" style="stroke:#2D3436;stroke-width:1;"/><line style="stroke:#2D3436;stroke-width:1;" x1="97" x2="97" y1="1267.9063" y2="1287.9063"/><polygon fill="#2D3436" points="93,1277.9063,97,1287.9063,101,1277.9063,97,1281.9063" style="stroke:#2D3436;stroke-width:1;"/><line style="stroke:#2D3436;stroke-width:1;" x1="107" x2="97" y1="1141.1875" y2="1141.1875"/><line style="stroke:#2D3436;stroke-width:1;" x1="97" x2="97" y1="1141.1875" y2="1163.1875"/><polygon fill="#2D3436" points="93,1153.1875,97,1163.1875,101,1153.1875,97,1157.1875" style="stroke:#2D3436;stroke-width:1;"/><line style="stroke:#2D3436;stroke-width:1;" x1="344.1104" x2="354.1104" y1="1141.1875" y2="1141.1875"/><line style="stroke:#2D3436;stroke-width:1;" x1="354.1104" x2="354.1104" y1="1141.1875" y2="1163.1875"/><polygon fill="#2D3436" points="350.1104,1153.1875,354.1104,1163.1875,358.1104,1153.1875,354.1104,1157.1875" style="stroke:#2D3436;stroke-width:1;"/><line style="stroke:#2D3436;stroke-width:1;" x1="97" x2="97" y1="1325.5156" y2="1343.5156"/><line style="stroke:#2D3436;stroke-width:1;" x1="97" x2="213.5552" y1="1343.5156" y2="1343.5156"/><polygon fill="#2D3436" points="203.5552,1339.5156,213.5552,1343.5156,203.5552,1347.5156,207.5552,1343.5156" style="stroke:#2D3436;stroke-width:1;"/><line style="stroke:#2D3436;stroke-width:1;" x1="354.1104" x2="354.1104" y1="1200.7969" y2="1343.5156"/><line style="stroke:#2D3436;stroke-width:1;" x1="354.1104" x2="237.5552" y1="1343.5156" y2="1343.5156"/><polygon fill="#2D3436" points="247.5552,1339.5156,237.5552,1343.5156,247.5552,1347.5156,243.5552,1343.5156" style="stroke:#2D3436;stroke-width:1;"/><line style="stroke:#2D3436;stroke-width:1;" x1="225.5552" x2="225.5552" y1="1109.1875" y2="1129.1875"/><polygon fill="#2D3436" points="221.5552,1119.1875,225.5552,1129.1875,229.5552,1119.1875,225.5552,1123.1875" style="stroke:#2D3436;stroke-width:1;"/><line style="stroke:#2D3436;stroke-width:1;" x1="225.5552" x2="225.5552" y1="1051.5781" y2="1071.5781"/><polygon fill="#2D3436" points="221.5552,1061.5781,225.5552,1071.5781,229.5552,1061.5781,225.5552,1065.5781" style="stroke:#2D3436;stroke-width:1;"/><line style="stroke:#2D3436;stroke-width:1;" x1="283.4482" x2="414.1104" y1="1387.5156" y2="1387.5156"/><polygon fill="#2D3436" points="410.1104,1220.7969,414.1104,1210.7969,418.1104,1220.7969,414.1104,1216.7969" style="stroke:#2D3436;stroke-width:1;"/><line style="stroke:#2D3436;stroke-width:1;" x1="414.1104" x2="414.1104" y1="1039.5781" y2="1387.5156"/><line style="stroke:#2D3436;stroke-width:1;" x1="414.1104" x2="237.5552" y1="1039.5781" y2="1039.5781"/><polygon fill="#2D3436" points="247.5552,1035.5781,237.5552,1039.5781,247.5552,1043.5781,243.5552,1039.5781" style="stroke:#2D3436;stroke-width:1;"/><line style="stroke:#2D3436;stroke-width:1;" x1="225.5552" x2="225.5552" y1="1355.5156" y2="1375.5156"/><polygon fill="#2D3436" points="221.5552,1365.5156,225.5552,1375.5156,229.5552,1365.5156,225.5552,1369.5156" style="stroke:#2D3436;stroke-width:1;"/><line style="stroke:#2D3436;stroke-width:1;" x1="225.5552" x2="225.5552" y1="1007.5781" y2="1027.5781"/><polygon fill="#2D3436" points="221.5552,1017.5781,225.5552,1027.5781,229.5552,1017.5781,225.5552,1021.5781" style="stroke:#2D3436;stroke-width:1;"/><line style="stroke:#2D3436;stroke-width:1;" x1="225.5552" x2="225.5552" y1="777.5313" y2="837.1406"/><polygon fill="#2D3436" points="221.5552,827.1406,225.5552,837.1406,229.5552,827.1406,225.5552,831.1406" style="stroke:#2D3436;stroke-width:1;"/><line style="stroke:#2D3436;stroke-width:1;" x1="139.6621" x2="129.6621" y1="1528.7344" y2="1528.7344"/><line style="stroke:#2D3436;stroke-width:1;" x1="129.6621" x2="129.6621" y1="1528.7344" y2="1550.7344"/><polygon fill="#2D3436" points="125.6621,1540.7344,129.6621,1550.7344,133.6621,1540.7344,129.6621,1544.7344" style="stroke:#2D3436;stroke-width:1;"/><line style="stroke:#2D3436;stroke-width:1;" x1="311.4482" x2="321.4482" y1="1528.7344" y2="1528.7344"/><line style="stroke:#2D3436;stroke-width:1;" x1="321.4482" x2="321.4482" y1="1528.7344" y2="1550.7344"/><polygon fill="#2D3436" points="317.4482,1540.7344,321.4482,1550.7344,325.4482,1540.7344,321.4482,1544.7344" style="stroke:#2D3436;stroke-width:1;"/><line style="stroke:#2D3436;stroke-width:1;" x1="129.6621" x2="129.6621" y1="1588.3438" y2="1606.3438"/><line style="stroke:#2D3436;stroke-width:1;" x1="129.6621" x2="213.5552" y1="1606.3438" y2="1606.3438"/><polygon fill="#2D3436" points="203.5552,1602.3438,213.5552,1606.3438,203.5552,1610.3438,207.5552,1606.3438" style="stroke:#2D3436;stroke-width:1;"/><line style="stroke:#2D3436;stroke-width:1;" x1="321.4482" x2="321.4482" y1="1588.3438" y2="1606.3438"/><line style="stroke:#2D3436;stroke-width:1;" x1="321.4482" x2="237.5552" y1="1606.3438" y2="1606.3438"/><polygon fill="#2D3436" points="247.5552,1602.3438,237.5552,1606.3438,247.5552,1610.3438,243.5552,1606.3438" style="stroke:#2D3436;stroke-width:1;"/><line style="stroke:#2D3436;stroke-width:1;" x1="225.5552" x2="225.5552" y1="1496.7344" y2="1516.7344"/><polygon fill="#2D3436" points="221.5552,1506.7344,225.5552,1516.7344,229.5552,1506.7344,225.5552,1510.7344" style="stroke:#2D3436;stroke-width:1;"/><line style="stroke:#2D3436;stroke-width:1;" x1="225.5552" x2="225.5552" y1="1618.3438" y2="1638.3438"/><polygon fill="#2D3436" points="221.5552,1628.3438,225.5552,1638.3438,229.5552,1628.3438,225.5552,1632.3438" style="stroke:#2D3436;stroke-width:1;"/><line style="stroke:#2D3436;stroke-width:1;" x1="225.5552" x2="225.5552" y1="1675.9531" y2="1695.9531"/><polygon fill="#2D3436" points="221.5552,1685.9531,225.5552,1695.9531,229.5552,1685.9531,225.5552,1689.9531" style="stroke:#2D3436;stroke-width:1;"/><line style="stroke:#2D3436;stroke-width:1;" x1="225.5552" x2="225.5552" y1="1399.5156" y2="1459.125"/><polygon fill="#2D3436" points="221.5552,1449.125,225.5552,1459.125,229.5552,1449.125,225.5552,1453.125" style="stroke:#2D3436;stroke-width:1;"/><line style="stroke:#2D3436;stroke-width:1;" x1="225.5552" x2="225.5552" y1="1733.5625" y2="1765.5625"/><polygon fill="#2D3436" points="221.5552,1755.5625,225.5552,1765.5625,229.5552,1755.5625,225.5552,1759.5625" style="stroke:#2D3436;stroke-width:1;"/><!--SRC=[TLHTKnf957tdLtGbB_h4gidMhZoapARy0xkFUM5rrAcGmHedwtxKLWqetoB8Hu8111Bva5r1LgC83lDVKdDxcd-nTwP7O4tsXIcwJvy-vvvxMn4Ldq2OkcTMSpH_PMXPrjo7Q8Rf4HWqO3YWhHfzTss-tsVDZn2-f9y2PYi1nP5hvvKeRNjbxsloGjZmll4fFmc_AYi-SLDwBKWAMSCVGNRDm7QslEl-NL7Q91jUtuumi_EpT-tLfkn_8wt_uFVvPRAx9Igp-zurHVn5L7uZVxW8UUwNrmMP0nyllbXwilGjhgx8id_tuUBp1xoFLxzR_Nvr1NTM_PBoe_YxG1QUkFv4aOfNLbokPUXMM3C6qGiMQSDD3r9HkdVvKlgibY0KfV6uKo6xMkRbq1nMUBMWhdrMonua29J8mZV4R6QiFqSQf9EWPI6MDEFNL0tOL3Hw1AKMqpNQ2nhz2DlJiCPmah0PNEXO4HNHBv573dSl-CWslam_ghHIvtoeYrxcQQ4BwGQoqTWPt5KvZmUnuWQPSpPl_c7N8OoJis6MutTNPZ7pR9ueMu9am-Rn1FAZU7h-mHmspU4v4YARXs-WSqTB63rdZVx0CHMBqjBV5aZ0GCaSNkTGSH932qEg3Q40w_HPhGwX4EWXrWWOUeq6klOvQLtSi1AOiMqE6hHScTYsh33zsEYtdSxSmwespE8LFQpJN9SU18nX74xFQAp9QWSJMmXpj1XwsSmVEug7MNgoFrLiz9DJ81mcpBipJ9-MLBX8GQhBEQU7B52gpGanVAElMkDHrbzASxHSfuEqUvmxPjsk6RnrumT7nctq4nRilEw6qwHnM-K1pF-VUNxZJERnk5diq6g4vcuXV4oZQUuM1vBJMaJBOpL64sUuW5KYYqy9HCFZJ6MIjOs1EnMQ2STQl6Le9LHjZ1BG2BBE1LaYj5oZrHiCbBW9d3V80a4s1BDuq5e9l2TFoJYG7NyesEfbOLlmAaw370Jidh6rsuNcD_2QMGdYA44u0v413W3J2zW444wopeXrQhRin6G6GFy4frTVjgULP3y9lJmQOPqMwmmyz-kO2Lgmwb6kmIXat1NWuEsuTZi554ymrY-LFMZRIUDo9mx6JkdUh_KsuOCvDwajBRMj_YXNKB6uu-ZzRwOOl5aiJ3C5_Q-nMk6hPD49wtvgdV6ssyeiLJ1dq7gGJT9yr3oCV6LghMS9UoFUehcHPVAenPbH8Ppkc-dmr-OJMnWpcxtBgcsgC6rB165DGSlpig8Kw9pm_h3RYPlsyDVJl_ql]--></g></svg>