<svg xmlns="http://www.w3.org/2000/svg" xmlns:xlink="http://www.w3.org/1999/xlink" contentStyleType="text/css" data-diagram-type="CLASS" height="436px" preserveAspectRatio="none" style="width:547px;height:436px;background:#FFFFFF;" version="1.1" viewBox="0 0 547 436" width="547px" zoomAndPan="magnify"><defs/><g><!--cluster ????--><g class="cluster" data-entity="&#39064;&#30446;&#27169;&#22411;" data-source-line="8" data-uid="ent0004" id="cluster_&#39064;&#30446;&#27169;&#22411;"><rect fill="none" height="423" rx="2.5" ry="2.5" style="stroke:#181818;stroke-width:1;" width="264" x="7" y="7"/><text fill="#000000" font-family="sans-serif" font-size="14" font-weight="bold" lengthAdjust="spacing" textLength="57.75" x="110.125" y="23.5332">&#39064;&#30446;&#27169;&#22411;</text></g><!--class AbstractProblemType--><g class="entity" data-entity="AbstractProblemType" data-source-line="10" data-uid="ent0005" id="entity_AbstractProblemType"><rect fill="#F1F1F1" height="32" rx="2.5" ry="2.5" style="stroke:#181818;stroke-width:0.5;" width="166.6064" x="55.5" y="382"/><ellipse cx="70.5" cy="398" fill="#EB937F" rx="11" ry="11" style="stroke:#181818;stroke-width:1;"/><path d="M69.3594,398.7969 L69.3594,401.2969 L73.6875,401.2969 L73.6875,400.375 Q73.6875,399.7656 73.9219,399.5 Q74.1719,399.2344 74.5469,399.2344 Q74.9219,399.2344 75.1563,399.5 Q75.3906,399.7656 75.3906,400.375 L75.3906,403 L67.3906,403 Q66.7656,403 66.5,402.7656 Q66.25,402.5313 66.25,402.1406 Q66.25,401.7656 66.5156,401.5313 Q66.7813,401.2969 67.3906,401.2969 L67.6563,401.2969 L67.6563,394.6406 L67.3906,394.6406 Q66.7656,394.6406 66.5,394.4063 Q66.25,394.1719 66.25,393.7813 Q66.25,393.4063 66.5,393.1719 Q66.7656,392.9375 67.3906,392.9375 L75.0156,392.9375 L75.0156,395.5313 Q75.0156,396.1406 74.7813,396.4063 Q74.5625,396.6563 74.1719,396.6563 Q73.7969,396.6563 73.5625,396.4063 Q73.3281,396.1406 73.3281,395.5313 L73.3281,394.6406 L69.3594,394.6406 L69.3594,397.0938 L70.8438,397.0938 Q70.8438,396.4375 70.9688,396.25 Q71.2344,395.8438 71.7031,395.8438 Q72.0781,395.8438 72.3125,396.1094 Q72.5469,396.3594 72.5469,396.9688 L72.5469,398.9375 Q72.5469,399.4844 72.4219,399.6719 Q72.1563,400.0625 71.7031,400.0625 Q71.2344,400.0625 70.9688,399.6563 Q70.8438,399.4688 70.8438,398.7969 L69.3594,398.7969 Z " fill="#000000"/><text fill="#000000" font-family="sans-serif" font-size="14" lengthAdjust="spacing" textLength="134.6064" x="84.5" y="403.7285">AbstractProblemType</text></g><!--class ProblemType--><g class="entity" data-entity="ProblemType" data-source-line="13" data-uid="ent0006" id="entity_ProblemType"><rect fill="#F1F1F1" height="83.2188" rx="2.5" ry="2.5" style="stroke:#181818;stroke-width:0.5;" width="115.2549" x="81.5" y="239"/><ellipse cx="96.5" cy="255" fill="#ADD1B2" rx="11" ry="11" style="stroke:#181818;stroke-width:1;"/><path d="M99.2656,250.875 Q99.4219,250.6563 99.6094,250.5469 Q99.7969,250.4375 100.0156,250.4375 Q100.3906,250.4375 100.625,250.7031 Q100.8594,250.9531 100.8594,251.5625 L100.8594,253.0156 Q100.8594,253.625 100.625,253.8906 Q100.3906,254.1563 100.0156,254.1563 Q99.6719,254.1563 99.4688,253.9531 Q99.2656,253.7656 99.1563,253.25 Q99.1094,252.8906 98.9219,252.7031 Q98.5938,252.3281 97.9844,252.1094 Q97.375,251.8906 96.75,251.8906 Q95.9844,251.8906 95.3438,252.2188 Q94.7188,252.5469 94.2188,253.2969 Q93.7344,254.0469 93.7344,255.0781 L93.7344,256.1719 Q93.7344,257.4063 94.625,258.2344 Q95.5156,259.0469 97.1094,259.0469 Q98.0469,259.0469 98.7031,258.7969 Q99.0938,258.6406 99.5156,258.2031 Q99.7813,257.9375 99.9219,257.8594 Q100.0781,257.7813 100.2813,257.7813 Q100.6094,257.7813 100.8594,258.0469 Q101.125,258.2969 101.125,258.6406 Q101.125,258.9844 100.7813,259.3906 Q100.2813,259.9688 99.4844,260.2969 Q98.4063,260.75 97.1094,260.75 Q95.5938,260.75 94.3906,260.125 Q93.4063,259.625 92.7188,258.5625 Q92.0313,257.4844 92.0313,256.2031 L92.0313,255.0469 Q92.0313,253.7188 92.6406,252.5781 Q93.2656,251.4219 94.3594,250.8125 Q95.4531,250.1875 96.6875,250.1875 Q97.4219,250.1875 98.0625,250.3594 Q98.7188,250.5156 99.2656,250.875 Z " fill="#000000"/><text fill="#000000" font-family="sans-serif" font-size="14" lengthAdjust="spacing" textLength="83.2549" x="110.5" y="260.7285">ProblemType</text><line style="stroke:#181818;stroke-width:0.5;" x1="82.5" x2="195.7549" y1="271" y2="271"/><polygon fill="none" points="92.5,281.3047,88.5,287.3047,96.5,287.3047" style="stroke:#1963A0;stroke-width:1;"/><text fill="#000000" font-family="sans-serif" font-size="14" lengthAdjust="spacing" textLength="28" x="101.5" y="289.5332">&#21517;&#31216;</text><polygon fill="none" points="92.5,298.9141,88.5,304.9141,96.5,304.9141" style="stroke:#1963A0;stroke-width:1;"/><text fill="#000000" font-family="sans-serif" font-size="14" lengthAdjust="spacing" textLength="28" x="101.5" y="307.1426">&#23398;&#31185;</text><line style="stroke:#181818;stroke-width:0.5;" x1="82.5" x2="195.7549" y1="314.2188" y2="314.2188"/></g><!--class Problem--><g class="entity" data-entity="Problem" data-source-line="18" data-uid="ent0007" id="entity_Problem"><rect fill="#F1F1F1" height="136.0469" rx="2.5" ry="2.5" style="stroke:#181818;stroke-width:0.5;" width="230.6611" x="23.5" y="43"/><ellipse cx="108.5151" cy="59" fill="#ADD1B2" rx="11" ry="11" style="stroke:#181818;stroke-width:1;"/><path d="M111.2808,54.875 Q111.437,54.6563 111.6245,54.5469 Q111.812,54.4375 112.0308,54.4375 Q112.4058,54.4375 112.6401,54.7031 Q112.8745,54.9531 112.8745,55.5625 L112.8745,57.0156 Q112.8745,57.625 112.6401,57.8906 Q112.4058,58.1563 112.0308,58.1563 Q111.687,58.1563 111.4839,57.9531 Q111.2808,57.7656 111.1714,57.25 Q111.1245,56.8906 110.937,56.7031 Q110.6089,56.3281 109.9995,56.1094 Q109.3901,55.8906 108.7651,55.8906 Q107.9995,55.8906 107.3589,56.2188 Q106.7339,56.5469 106.2339,57.2969 Q105.7495,58.0469 105.7495,59.0781 L105.7495,60.1719 Q105.7495,61.4063 106.6401,62.2344 Q107.5308,63.0469 109.1245,63.0469 Q110.062,63.0469 110.7183,62.7969 Q111.1089,62.6406 111.5308,62.2031 Q111.7964,61.9375 111.937,61.8594 Q112.0933,61.7813 112.2964,61.7813 Q112.6245,61.7813 112.8745,62.0469 Q113.1401,62.2969 113.1401,62.6406 Q113.1401,62.9844 112.7964,63.3906 Q112.2964,63.9688 111.4995,64.2969 Q110.4214,64.75 109.1245,64.75 Q107.6089,64.75 106.4058,64.125 Q105.4214,63.625 104.7339,62.5625 Q104.0464,61.4844 104.0464,60.2031 L104.0464,59.0469 Q104.0464,57.7188 104.6558,56.5781 Q105.2808,55.4219 106.3745,54.8125 Q107.4683,54.1875 108.7026,54.1875 Q109.437,54.1875 110.0776,54.3594 Q110.7339,54.5156 111.2808,54.875 Z " fill="#000000"/><text fill="#000000" font-family="sans-serif" font-size="14" lengthAdjust="spacing" textLength="52.1309" x="129.0151" y="64.7285">Problem</text><line style="stroke:#181818;stroke-width:0.5;" x1="24.5" x2="253.1611" y1="75" y2="75"/><polygon fill="none" points="34.5,85.3047,30.5,91.3047,38.5,91.3047" style="stroke:#1963A0;stroke-width:1;"/><text fill="#000000" font-family="sans-serif" font-size="14" lengthAdjust="spacing" textLength="119.0342" x="43.5" y="93.5332">&#39064;&#22411;: ProblemType</text><polygon fill="none" points="34.5,102.9141,30.5,108.9141,38.5,108.9141" style="stroke:#1963A0;stroke-width:1;"/><text fill="#000000" font-family="sans-serif" font-size="14" lengthAdjust="spacing" textLength="204.6611" x="43.5" y="111.1426">&#20851;&#32852;&#30693;&#35782;: List&lt;KnowledgeNode&gt;</text><polygon fill="none" points="34.5,120.5234,30.5,126.5234,38.5,126.5234" style="stroke:#1963A0;stroke-width:1;"/><text fill="#000000" font-family="sans-serif" font-size="14" lengthAdjust="spacing" textLength="114.3516" x="43.5" y="128.752">&#35299;&#39064;&#36807;&#31243;: Process</text><polygon fill="none" points="34.5,138.1328,30.5,144.1328,38.5,144.1328" style="stroke:#1963A0;stroke-width:1;"/><text fill="#000000" font-family="sans-serif" font-size="14" lengthAdjust="spacing" textLength="56" x="43.5" y="146.3613">&#36755;&#20837;&#32467;&#26500;</text><polygon fill="none" points="34.5,155.7422,30.5,161.7422,38.5,161.7422" style="stroke:#1963A0;stroke-width:1;"/><text fill="#000000" font-family="sans-serif" font-size="14" lengthAdjust="spacing" textLength="56" x="43.5" y="163.9707">&#36755;&#20986;&#32467;&#26500;</text><line style="stroke:#181818;stroke-width:0.5;" x1="24.5" x2="253.1611" y1="171.0469" y2="171.0469"/></g><!--class KnowledgeNode--><g class="entity" data-entity="KnowledgeNode" data-source-line="2" data-uid="ent0002" id="entity_KnowledgeNode"><rect fill="#F1F1F1" height="32" rx="2.5" ry="2.5" style="stroke:#181818;stroke-width:0.5;" width="134.7441" x="287.5" y="264.5"/><ellipse cx="302.5" cy="280.5" fill="#ADD1B2" rx="11" ry="11" style="stroke:#181818;stroke-width:1;"/><path d="M305.2656,276.375 Q305.4219,276.1563 305.6094,276.0469 Q305.7969,275.9375 306.0156,275.9375 Q306.3906,275.9375 306.625,276.2031 Q306.8594,276.4531 306.8594,277.0625 L306.8594,278.5156 Q306.8594,279.125 306.625,279.3906 Q306.3906,279.6563 306.0156,279.6563 Q305.6719,279.6563 305.4688,279.4531 Q305.2656,279.2656 305.1563,278.75 Q305.1094,278.3906 304.9219,278.2031 Q304.5938,277.8281 303.9844,277.6094 Q303.375,277.3906 302.75,277.3906 Q301.9844,277.3906 301.3438,277.7188 Q300.7188,278.0469 300.2188,278.7969 Q299.7344,279.5469 299.7344,280.5781 L299.7344,281.6719 Q299.7344,282.9063 300.625,283.7344 Q301.5156,284.5469 303.1094,284.5469 Q304.0469,284.5469 304.7031,284.2969 Q305.0938,284.1406 305.5156,283.7031 Q305.7813,283.4375 305.9219,283.3594 Q306.0781,283.2813 306.2813,283.2813 Q306.6094,283.2813 306.8594,283.5469 Q307.125,283.7969 307.125,284.1406 Q307.125,284.4844 306.7813,284.8906 Q306.2813,285.4688 305.4844,285.7969 Q304.4063,286.25 303.1094,286.25 Q301.5938,286.25 300.3906,285.625 Q299.4063,285.125 298.7188,284.0625 Q298.0313,282.9844 298.0313,281.7031 L298.0313,280.5469 Q298.0313,279.2188 298.6406,278.0781 Q299.2656,276.9219 300.3594,276.3125 Q301.4531,275.6875 302.6875,275.6875 Q303.4219,275.6875 304.0625,275.8594 Q304.7188,276.0156 305.2656,276.375 Z " fill="#000000"/><text fill="#000000" font-family="sans-serif" font-size="14" lengthAdjust="spacing" textLength="102.7441" x="316.5" y="286.2285">KnowledgeNode</text></g><!--class Process--><g class="entity" data-entity="Process" data-source-line="3" data-uid="ent0003" id="entity_Process"><rect fill="#F1F1F1" height="32" rx="2.5" ry="2.5" style="stroke:#181818;stroke-width:0.5;" width="82.5723" x="457.5" y="264.5"/><ellipse cx="472.5" cy="280.5" fill="#ADD1B2" rx="11" ry="11" style="stroke:#181818;stroke-width:1;"/><path d="M475.2656,276.375 Q475.4219,276.1563 475.6094,276.0469 Q475.7969,275.9375 476.0156,275.9375 Q476.3906,275.9375 476.625,276.2031 Q476.8594,276.4531 476.8594,277.0625 L476.8594,278.5156 Q476.8594,279.125 476.625,279.3906 Q476.3906,279.6563 476.0156,279.6563 Q475.6719,279.6563 475.4688,279.4531 Q475.2656,279.2656 475.1563,278.75 Q475.1094,278.3906 474.9219,278.2031 Q474.5938,277.8281 473.9844,277.6094 Q473.375,277.3906 472.75,277.3906 Q471.9844,277.3906 471.3438,277.7188 Q470.7188,278.0469 470.2188,278.7969 Q469.7344,279.5469 469.7344,280.5781 L469.7344,281.6719 Q469.7344,282.9063 470.625,283.7344 Q471.5156,284.5469 473.1094,284.5469 Q474.0469,284.5469 474.7031,284.2969 Q475.0938,284.1406 475.5156,283.7031 Q475.7813,283.4375 475.9219,283.3594 Q476.0781,283.2813 476.2813,283.2813 Q476.6094,283.2813 476.8594,283.5469 Q477.125,283.7969 477.125,284.1406 Q477.125,284.4844 476.7813,284.8906 Q476.2813,285.4688 475.4844,285.7969 Q474.4063,286.25 473.1094,286.25 Q471.5938,286.25 470.3906,285.625 Q469.4063,285.125 468.7188,284.0625 Q468.0313,282.9844 468.0313,281.7031 L468.0313,280.5469 Q468.0313,279.2188 468.6406,278.0781 Q469.2656,276.9219 470.3594,276.3125 Q471.4531,275.6875 472.6875,275.6875 Q473.4219,275.6875 474.0625,275.8594 Q474.7188,276.0156 475.2656,276.375 Z " fill="#000000"/><text fill="#000000" font-family="sans-serif" font-size="14" lengthAdjust="spacing" textLength="50.5723" x="486.5" y="286.2285">Process</text></g><!--link Problem to KnowledgeNode--><g class="link" data-entity-1="Problem" data-entity-2="KnowledgeNode" data-source-line="28" data-uid="lnk8" id="link_Problem_KnowledgeNode"><path codeLine="28" d="M225.61,179.16 C265.99,210.47 305.779,241.3227 330.649,260.6127" fill="none" id="Problem-to-KnowledgeNode" style="stroke:#181818;stroke-width:1;"/><polygon fill="#181818" points="335.39,264.29,330.73,255.6134,331.4391,261.2256,325.8269,261.9347,335.39,264.29" style="stroke:#181818;stroke-width:1;"/></g><!--link Problem to Process--><g class="link" data-entity-1="Problem" data-entity-2="Process" data-source-line="29" data-uid="lnk9" id="link_Problem_Process"><path codeLine="29" d="M254.83,154.51 C311.87,177.02 380.91,206.68 440,239 C453.63,246.45 463.1563,252.7528 474.3163,260.8628" fill="none" id="Problem-to-Process" style="stroke:#181818;stroke-width:1;"/><polygon fill="#181818" points="479.17,264.39,474.2409,255.8633,475.1252,261.4507,469.5379,262.335,479.17,264.39" style="stroke:#181818;stroke-width:1;"/></g><!--link Problem to ProblemType--><g class="link" data-entity-1="Problem" data-entity-2="ProblemType" data-source-line="30" data-uid="lnk10" id="link_Problem_ProblemType"><path codeLine="30" d="M139,179.16 C139,199.37 139,214.92 139,232.84" fill="none" id="Problem-to-ProblemType" style="stroke:#181818;stroke-width:1;"/><polygon fill="#181818" points="139,238.84,143,229.84,139,233.84,135,229.84,139,238.84" style="stroke:#181818;stroke-width:1;"/></g><!--link ProblemType to AbstractProblemType--><g class="link" data-entity-1="ProblemType" data-entity-2="AbstractProblemType" data-source-line="32" data-uid="lnk11" id="link_ProblemType_AbstractProblemType"><path codeLine="32" d="M139,322.22 C139,342.87 139,360.72 139,375.82" fill="none" id="ProblemType-to-AbstractProblemType" style="stroke:#181818;stroke-width:1;"/><polygon fill="#181818" points="139,381.82,143,372.82,139,376.82,135,372.82,139,381.82" style="stroke:#181818;stroke-width:1;"/></g><!--SRC=[Iyv9B2vMyCxBByz9JKbFzSjFIULA1ei55EKdfnONSt5bPAQaegfGo4tDJKejAeP8GHN21RcAKfDB4lFISr8LNYwQyNpskcSh5ZwTrrtDnQK01AbvfRaAZad59KM9oIL0hKavgRaXbGMfrRLWQR29MAGHfeDKmLq8rmqM1e4wXQSJUfyltu0ii7RPy-KJmGArMFJ3zTQ1t0jqgHMooGZ9fwsRNpHEUJv_wOlrRLOAFfd59JOeeMA7KFfY-MAWKI_sjpzV0J4D7988wNsJdxOkVRvxyhDvBQYYxRkGH86E1IAeMnHqTUtGuWbP1cO7cXZS5rp8OGcIn1B6N000]--></g></svg>