<svg xmlns="http://www.w3.org/2000/svg" xmlns:xlink="http://www.w3.org/1999/xlink" contentStyleType="text/css" data-diagram-type="CLASS" height="420px" preserveAspectRatio="none" style="width:630px;height:420px;background:#FFFFFF;" version="1.1" viewBox="0 0 630 420" width="630px" zoomAndPan="magnify"><defs/><g><!--class KnowledgeNode--><g class="entity" data-entity="KnowledgeNode" data-source-line="2" data-uid="ent0002" id="entity_KnowledgeNode"><rect fill="#F1F1F1" height="32" rx="2.5" ry="2.5" style="stroke:#181818;stroke-width:0.5;" width="134.7441" x="7" y="263.5"/><ellipse cx="22" cy="279.5" fill="#ADD1B2" rx="11" ry="11" style="stroke:#181818;stroke-width:1;"/><path d="M24.7656,275.375 Q24.9219,275.1563 25.1094,275.0469 Q25.2969,274.9375 25.5156,274.9375 Q25.8906,274.9375 26.125,275.2031 Q26.3594,275.4531 26.3594,276.0625 L26.3594,277.5156 Q26.3594,278.125 26.125,278.3906 Q25.8906,278.6563 25.5156,278.6563 Q25.1719,278.6563 24.9688,278.4531 Q24.7656,278.2656 24.6563,277.75 Q24.6094,277.3906 24.4219,277.2031 Q24.0938,276.8281 23.4844,276.6094 Q22.875,276.3906 22.25,276.3906 Q21.4844,276.3906 20.8438,276.7188 Q20.2188,277.0469 19.7188,277.7969 Q19.2344,278.5469 19.2344,279.5781 L19.2344,280.6719 Q19.2344,281.9063 20.125,282.7344 Q21.0156,283.5469 22.6094,283.5469 Q23.5469,283.5469 24.2031,283.2969 Q24.5938,283.1406 25.0156,282.7031 Q25.2813,282.4375 25.4219,282.3594 Q25.5781,282.2813 25.7813,282.2813 Q26.1094,282.2813 26.3594,282.5469 Q26.625,282.7969 26.625,283.1406 Q26.625,283.4844 26.2813,283.8906 Q25.7813,284.4688 24.9844,284.7969 Q23.9063,285.25 22.6094,285.25 Q21.0938,285.25 19.8906,284.625 Q18.9063,284.125 18.2188,283.0625 Q17.5313,281.9844 17.5313,280.7031 L17.5313,279.5469 Q17.5313,278.2188 18.1406,277.0781 Q18.7656,275.9219 19.8594,275.3125 Q20.9531,274.6875 22.1875,274.6875 Q22.9219,274.6875 23.5625,274.8594 Q24.2188,275.0156 24.7656,275.375 Z " fill="#000000"/><text fill="#000000" font-family="sans-serif" font-size="14" lengthAdjust="spacing" textLength="102.7441" x="36" y="285.2285">KnowledgeNode</text></g><!--class Problem--><g class="entity" data-entity="Problem" data-source-line="3" data-uid="ent0003" id="entity_Problem"><rect fill="#F1F1F1" height="32" rx="2.5" ry="2.5" style="stroke:#181818;stroke-width:0.5;" width="84.1309" x="177.5" y="263.5"/><ellipse cx="192.5" cy="279.5" fill="#ADD1B2" rx="11" ry="11" style="stroke:#181818;stroke-width:1;"/><path d="M195.2656,275.375 Q195.4219,275.1563 195.6094,275.0469 Q195.7969,274.9375 196.0156,274.9375 Q196.3906,274.9375 196.625,275.2031 Q196.8594,275.4531 196.8594,276.0625 L196.8594,277.5156 Q196.8594,278.125 196.625,278.3906 Q196.3906,278.6563 196.0156,278.6563 Q195.6719,278.6563 195.4688,278.4531 Q195.2656,278.2656 195.1563,277.75 Q195.1094,277.3906 194.9219,277.2031 Q194.5938,276.8281 193.9844,276.6094 Q193.375,276.3906 192.75,276.3906 Q191.9844,276.3906 191.3438,276.7188 Q190.7188,277.0469 190.2188,277.7969 Q189.7344,278.5469 189.7344,279.5781 L189.7344,280.6719 Q189.7344,281.9063 190.625,282.7344 Q191.5156,283.5469 193.1094,283.5469 Q194.0469,283.5469 194.7031,283.2969 Q195.0938,283.1406 195.5156,282.7031 Q195.7813,282.4375 195.9219,282.3594 Q196.0781,282.2813 196.2813,282.2813 Q196.6094,282.2813 196.8594,282.5469 Q197.125,282.7969 197.125,283.1406 Q197.125,283.4844 196.7813,283.8906 Q196.2813,284.4688 195.4844,284.7969 Q194.4063,285.25 193.1094,285.25 Q191.5938,285.25 190.3906,284.625 Q189.4063,284.125 188.7188,283.0625 Q188.0313,281.9844 188.0313,280.7031 L188.0313,279.5469 Q188.0313,278.2188 188.6406,277.0781 Q189.2656,275.9219 190.3594,275.3125 Q191.4531,274.6875 192.6875,274.6875 Q193.4219,274.6875 194.0625,274.8594 Q194.7188,275.0156 195.2656,275.375 Z " fill="#000000"/><text fill="#000000" font-family="sans-serif" font-size="14" lengthAdjust="spacing" textLength="52.1309" x="206.5" y="285.2285">Problem</text></g><!--class Process--><g class="entity" data-entity="Process" data-source-line="4" data-uid="ent0004" id="entity_Process"><rect fill="#F1F1F1" height="32" rx="2.5" ry="2.5" style="stroke:#181818;stroke-width:0.5;" width="82.5723" x="297" y="263.5"/><ellipse cx="312" cy="279.5" fill="#ADD1B2" rx="11" ry="11" style="stroke:#181818;stroke-width:1;"/><path d="M314.7656,275.375 Q314.9219,275.1563 315.1094,275.0469 Q315.2969,274.9375 315.5156,274.9375 Q315.8906,274.9375 316.125,275.2031 Q316.3594,275.4531 316.3594,276.0625 L316.3594,277.5156 Q316.3594,278.125 316.125,278.3906 Q315.8906,278.6563 315.5156,278.6563 Q315.1719,278.6563 314.9688,278.4531 Q314.7656,278.2656 314.6563,277.75 Q314.6094,277.3906 314.4219,277.2031 Q314.0938,276.8281 313.4844,276.6094 Q312.875,276.3906 312.25,276.3906 Q311.4844,276.3906 310.8438,276.7188 Q310.2188,277.0469 309.7188,277.7969 Q309.2344,278.5469 309.2344,279.5781 L309.2344,280.6719 Q309.2344,281.9063 310.125,282.7344 Q311.0156,283.5469 312.6094,283.5469 Q313.5469,283.5469 314.2031,283.2969 Q314.5938,283.1406 315.0156,282.7031 Q315.2813,282.4375 315.4219,282.3594 Q315.5781,282.2813 315.7813,282.2813 Q316.1094,282.2813 316.3594,282.5469 Q316.625,282.7969 316.625,283.1406 Q316.625,283.4844 316.2813,283.8906 Q315.7813,284.4688 314.9844,284.7969 Q313.9063,285.25 312.6094,285.25 Q311.0938,285.25 309.8906,284.625 Q308.9063,284.125 308.2188,283.0625 Q307.5313,281.9844 307.5313,280.7031 L307.5313,279.5469 Q307.5313,278.2188 308.1406,277.0781 Q308.7656,275.9219 309.8594,275.3125 Q310.9531,274.6875 312.1875,274.6875 Q312.9219,274.6875 313.5625,274.8594 Q314.2188,275.0156 314.7656,275.375 Z " fill="#000000"/><text fill="#000000" font-family="sans-serif" font-size="14" lengthAdjust="spacing" textLength="50.5723" x="326" y="285.2285">Process</text></g><!--class ProcessStep--><g class="entity" data-entity="ProcessStep" data-source-line="5" data-uid="ent0005" id="entity_ProcessStep"><rect fill="#F1F1F1" height="32" rx="2.5" ry="2.5" style="stroke:#181818;stroke-width:0.5;" width="111.3721" x="432" y="381"/><ellipse cx="447" cy="397" fill="#ADD1B2" rx="11" ry="11" style="stroke:#181818;stroke-width:1;"/><path d="M449.7656,392.875 Q449.9219,392.6563 450.1094,392.5469 Q450.2969,392.4375 450.5156,392.4375 Q450.8906,392.4375 451.125,392.7031 Q451.3594,392.9531 451.3594,393.5625 L451.3594,395.0156 Q451.3594,395.625 451.125,395.8906 Q450.8906,396.1563 450.5156,396.1563 Q450.1719,396.1563 449.9688,395.9531 Q449.7656,395.7656 449.6563,395.25 Q449.6094,394.8906 449.4219,394.7031 Q449.0938,394.3281 448.4844,394.1094 Q447.875,393.8906 447.25,393.8906 Q446.4844,393.8906 445.8438,394.2188 Q445.2188,394.5469 444.7188,395.2969 Q444.2344,396.0469 444.2344,397.0781 L444.2344,398.1719 Q444.2344,399.4063 445.125,400.2344 Q446.0156,401.0469 447.6094,401.0469 Q448.5469,401.0469 449.2031,400.7969 Q449.5938,400.6406 450.0156,400.2031 Q450.2813,399.9375 450.4219,399.8594 Q450.5781,399.7813 450.7813,399.7813 Q451.1094,399.7813 451.3594,400.0469 Q451.625,400.2969 451.625,400.6406 Q451.625,400.9844 451.2813,401.3906 Q450.7813,401.9688 449.9844,402.2969 Q448.9063,402.75 447.6094,402.75 Q446.0938,402.75 444.8906,402.125 Q443.9063,401.625 443.2188,400.5625 Q442.5313,399.4844 442.5313,398.2031 L442.5313,397.0469 Q442.5313,395.7188 443.1406,394.5781 Q443.7656,393.4219 444.8594,392.8125 Q445.9531,392.1875 447.1875,392.1875 Q447.9219,392.1875 448.5625,392.3594 Q449.2188,392.5156 449.7656,392.875 Z " fill="#000000"/><text fill="#000000" font-family="sans-serif" font-size="14" lengthAdjust="spacing" textLength="79.3721" x="461" y="402.7285">ProcessStep</text></g><!--class ErrorType--><g class="entity" data-entity="ErrorType" data-source-line="12" data-uid="ent0006" id="entity_ErrorType"><rect fill="#F1F1F1" height="171.2656" rx="2.5" ry="2.5" style="stroke:#181818;stroke-width:0.5;" width="110" x="378.5" y="7"/><ellipse cx="400.5945" cy="23" fill="#EB937F" rx="11" ry="11" style="stroke:#181818;stroke-width:1;"/><path d="M399.4539,23.7969 L399.4539,26.2969 L403.782,26.2969 L403.782,25.375 Q403.782,24.7656 404.0164,24.5 Q404.2664,24.2344 404.6414,24.2344 Q405.0164,24.2344 405.2508,24.5 Q405.4852,24.7656 405.4852,25.375 L405.4852,28 L397.4852,28 Q396.8602,28 396.5945,27.7656 Q396.3445,27.5313 396.3445,27.1406 Q396.3445,26.7656 396.6102,26.5313 Q396.8758,26.2969 397.4852,26.2969 L397.7508,26.2969 L397.7508,19.6406 L397.4852,19.6406 Q396.8602,19.6406 396.5945,19.4063 Q396.3445,19.1719 396.3445,18.7813 Q396.3445,18.4063 396.5945,18.1719 Q396.8602,17.9375 397.4852,17.9375 L405.1102,17.9375 L405.1102,20.5313 Q405.1102,21.1406 404.8758,21.4063 Q404.657,21.6563 404.2664,21.6563 Q403.8914,21.6563 403.657,21.4063 Q403.4227,21.1406 403.4227,20.5313 L403.4227,19.6406 L399.4539,19.6406 L399.4539,22.0938 L400.9383,22.0938 Q400.9383,21.4375 401.0633,21.25 Q401.3289,20.8438 401.7977,20.8438 Q402.1727,20.8438 402.407,21.1094 Q402.6414,21.3594 402.6414,21.9688 L402.6414,23.9375 Q402.6414,24.4844 402.5164,24.6719 Q402.2508,25.0625 401.7977,25.0625 Q401.3289,25.0625 401.0633,24.6563 Q400.9383,24.4688 400.9383,23.7969 L399.4539,23.7969 Z " fill="#000000"/><text fill="#000000" font-family="sans-serif" font-size="14" lengthAdjust="spacing" textLength="62.2344" x="416.1711" y="28.7285">ErrorType</text><line style="stroke:#181818;stroke-width:0.5;" x1="379.5" x2="487.5" y1="39" y2="39"/><polygon fill="none" points="389.5,48.3047,393.5,52.3047,389.5,56.3047,385.5,52.3047" style="stroke:#B38D22;stroke-width:1;"/><text fill="#000000" font-family="sans-serif" font-size="14" lengthAdjust="spacing" textLength="56" x="398.5" y="57.5332">&#30693;&#35782;&#38169;&#35823;</text><polygon fill="none" points="389.5,65.9141,393.5,69.9141,389.5,73.9141,385.5,69.9141" style="stroke:#B38D22;stroke-width:1;"/><text fill="#000000" font-family="sans-serif" font-size="14" lengthAdjust="spacing" textLength="56" x="398.5" y="75.1426">&#25552;&#21462;&#38169;&#35823;</text><polygon fill="none" points="389.5,83.5234,393.5,87.5234,389.5,91.5234,385.5,87.5234" style="stroke:#B38D22;stroke-width:1;"/><text fill="#000000" font-family="sans-serif" font-size="14" lengthAdjust="spacing" textLength="84" x="398.5" y="92.752">&#39064;&#22411;&#35782;&#21035;&#38169;&#35823;</text><polygon fill="none" points="389.5,101.1328,393.5,105.1328,389.5,109.1328,385.5,105.1328" style="stroke:#B38D22;stroke-width:1;"/><text fill="#000000" font-family="sans-serif" font-size="14" lengthAdjust="spacing" textLength="84" x="398.5" y="110.3613">&#26041;&#27861;&#36873;&#25321;&#38169;&#35823;</text><polygon fill="none" points="389.5,118.7422,393.5,122.7422,389.5,126.7422,385.5,122.7422" style="stroke:#B38D22;stroke-width:1;"/><text fill="#000000" font-family="sans-serif" font-size="14" lengthAdjust="spacing" textLength="84" x="398.5" y="127.9707">&#36807;&#31243;&#25191;&#34892;&#38169;&#35823;</text><polygon fill="none" points="389.5,136.3516,393.5,140.3516,389.5,144.3516,385.5,140.3516" style="stroke:#B38D22;stroke-width:1;"/><text fill="#000000" font-family="sans-serif" font-size="14" lengthAdjust="spacing" textLength="56" x="398.5" y="145.5801">&#35745;&#31639;&#38169;&#35823;</text><polygon fill="none" points="389.5,153.9609,393.5,157.9609,389.5,161.9609,385.5,157.9609" style="stroke:#B38D22;stroke-width:1;"/><text fill="#000000" font-family="sans-serif" font-size="14" lengthAdjust="spacing" textLength="56" x="398.5" y="163.1895">&#26816;&#26597;&#36951;&#28431;</text><line style="stroke:#181818;stroke-width:0.5;" x1="379.5" x2="487.5" y1="170.2656" y2="170.2656"/></g><!--class ErrorStage--><g class="entity" data-entity="ErrorStage" data-source-line="22" data-uid="ent0007" id="entity_ErrorStage"><rect fill="#F1F1F1" height="100.8281" rx="2.5" ry="2.5" style="stroke:#181818;stroke-width:0.5;" width="99.6963" x="523.5" y="42"/><ellipse cx="538.5" cy="58" fill="#EB937F" rx="11" ry="11" style="stroke:#181818;stroke-width:1;"/><path d="M537.3594,58.7969 L537.3594,61.2969 L541.6875,61.2969 L541.6875,60.375 Q541.6875,59.7656 541.9219,59.5 Q542.1719,59.2344 542.5469,59.2344 Q542.9219,59.2344 543.1563,59.5 Q543.3906,59.7656 543.3906,60.375 L543.3906,63 L535.3906,63 Q534.7656,63 534.5,62.7656 Q534.25,62.5313 534.25,62.1406 Q534.25,61.7656 534.5156,61.5313 Q534.7813,61.2969 535.3906,61.2969 L535.6563,61.2969 L535.6563,54.6406 L535.3906,54.6406 Q534.7656,54.6406 534.5,54.4063 Q534.25,54.1719 534.25,53.7813 Q534.25,53.4063 534.5,53.1719 Q534.7656,52.9375 535.3906,52.9375 L543.0156,52.9375 L543.0156,55.5313 Q543.0156,56.1406 542.7813,56.4063 Q542.5625,56.6563 542.1719,56.6563 Q541.7969,56.6563 541.5625,56.4063 Q541.3281,56.1406 541.3281,55.5313 L541.3281,54.6406 L537.3594,54.6406 L537.3594,57.0938 L538.8438,57.0938 Q538.8438,56.4375 538.9688,56.25 Q539.2344,55.8438 539.7031,55.8438 Q540.0781,55.8438 540.3125,56.1094 Q540.5469,56.3594 540.5469,56.9688 L540.5469,58.9375 Q540.5469,59.4844 540.4219,59.6719 Q540.1563,60.0625 539.7031,60.0625 Q539.2344,60.0625 538.9688,59.6563 Q538.8438,59.4688 538.8438,58.7969 L537.3594,58.7969 Z " fill="#000000"/><text fill="#000000" font-family="sans-serif" font-size="14" lengthAdjust="spacing" textLength="67.6963" x="552.5" y="63.7285">ErrorStage</text><line style="stroke:#181818;stroke-width:0.5;" x1="524.5" x2="622.1963" y1="74" y2="74"/><polygon fill="none" points="534.5,83.3047,538.5,87.3047,534.5,91.3047,530.5,87.3047" style="stroke:#B38D22;stroke-width:1;"/><text fill="#000000" font-family="sans-serif" font-size="14" lengthAdjust="spacing" textLength="42" x="543.5" y="92.5332">&#30693;&#35782;&#23618;</text><polygon fill="none" points="534.5,100.9141,538.5,104.9141,534.5,108.9141,530.5,104.9141" style="stroke:#B38D22;stroke-width:1;"/><text fill="#000000" font-family="sans-serif" font-size="14" lengthAdjust="spacing" textLength="42" x="543.5" y="110.1426">&#39064;&#30446;&#23618;</text><polygon fill="none" points="534.5,118.5234,538.5,122.5234,534.5,126.5234,530.5,122.5234" style="stroke:#B38D22;stroke-width:1;"/><text fill="#000000" font-family="sans-serif" font-size="14" lengthAdjust="spacing" textLength="42" x="543.5" y="127.752">&#36807;&#31243;&#23618;</text><line style="stroke:#181818;stroke-width:0.5;" x1="524.5" x2="622.1963" y1="134.8281" y2="134.8281"/></g><!--class ErrorCase--><g class="entity" data-entity="ErrorCase" data-source-line="28" data-uid="ent0008" id="entity_ErrorCase"><rect fill="#F1F1F1" height="153.6563" rx="2.5" ry="2.5" style="stroke:#181818;stroke-width:0.5;" width="129.4756" x="214" y="15.5"/><ellipse cx="244.1572" cy="31.5" fill="#ADD1B2" rx="11" ry="11" style="stroke:#181818;stroke-width:1;"/><path d="M246.9228,27.375 Q247.0791,27.1563 247.2666,27.0469 Q247.4541,26.9375 247.6728,26.9375 Q248.0478,26.9375 248.2822,27.2031 Q248.5166,27.4531 248.5166,28.0625 L248.5166,29.5156 Q248.5166,30.125 248.2822,30.3906 Q248.0478,30.6563 247.6728,30.6563 Q247.3291,30.6563 247.1259,30.4531 Q246.9228,30.2656 246.8134,29.75 Q246.7666,29.3906 246.5791,29.2031 Q246.2509,28.8281 245.6416,28.6094 Q245.0322,28.3906 244.4072,28.3906 Q243.6416,28.3906 243.0009,28.7188 Q242.3759,29.0469 241.8759,29.7969 Q241.3916,30.5469 241.3916,31.5781 L241.3916,32.6719 Q241.3916,33.9063 242.2822,34.7344 Q243.1728,35.5469 244.7666,35.5469 Q245.7041,35.5469 246.3603,35.2969 Q246.7509,35.1406 247.1728,34.7031 Q247.4384,34.4375 247.5791,34.3594 Q247.7353,34.2813 247.9384,34.2813 Q248.2666,34.2813 248.5166,34.5469 Q248.7822,34.7969 248.7822,35.1406 Q248.7822,35.4844 248.4384,35.8906 Q247.9384,36.4688 247.1416,36.7969 Q246.0634,37.25 244.7666,37.25 Q243.2509,37.25 242.0478,36.625 Q241.0634,36.125 240.3759,35.0625 Q239.6884,33.9844 239.6884,32.7031 L239.6884,31.5469 Q239.6884,30.2188 240.2978,29.0781 Q240.9228,27.9219 242.0166,27.3125 Q243.1103,26.6875 244.3447,26.6875 Q245.0791,26.6875 245.7197,26.8594 Q246.3759,27.0156 246.9228,27.375 Z " fill="#000000"/><text fill="#000000" font-family="sans-serif" font-size="14" lengthAdjust="spacing" textLength="63.793" x="261.5254" y="37.2285">ErrorCase</text><line style="stroke:#181818;stroke-width:0.5;" x1="215" x2="342.4756" y1="47.5" y2="47.5"/><polygon fill="none" points="225,57.8047,221,63.8047,229,63.8047" style="stroke:#1963A0;stroke-width:1;"/><text fill="#000000" font-family="sans-serif" font-size="14" lengthAdjust="spacing" textLength="28" x="234" y="66.0332">&#25551;&#36848;</text><polygon fill="none" points="225,75.4141,221,81.4141,229,81.4141" style="stroke:#1963A0;stroke-width:1;"/><text fill="#000000" font-family="sans-serif" font-size="14" lengthAdjust="spacing" textLength="98.0137" x="234" y="83.6426">&#31867;&#22411;: ErrorType</text><polygon fill="none" points="225,93.0234,221,99.0234,229,99.0234" style="stroke:#1963A0;stroke-width:1;"/><text fill="#000000" font-family="sans-serif" font-size="14" lengthAdjust="spacing" textLength="103.4756" x="234" y="101.252">&#38454;&#27573;: ErrorStage</text><polygon fill="none" points="225,110.6328,221,116.6328,229,116.6328" style="stroke:#1963A0;stroke-width:1;"/><text fill="#000000" font-family="sans-serif" font-size="14" lengthAdjust="spacing" textLength="28" x="234" y="118.8613">&#21407;&#22240;</text><polygon fill="none" points="225,128.2422,221,134.2422,229,134.2422" style="stroke:#1963A0;stroke-width:1;"/><text fill="#000000" font-family="sans-serif" font-size="14" lengthAdjust="spacing" textLength="56" x="234" y="136.4707">&#20462;&#27491;&#26041;&#26696;</text><polygon fill="none" points="225,145.8516,221,151.8516,229,151.8516" style="stroke:#1963A0;stroke-width:1;"/><text fill="#000000" font-family="sans-serif" font-size="14" lengthAdjust="spacing" textLength="56" x="234" y="154.0801">&#22797;&#21457;&#26465;&#20214;</text><line style="stroke:#181818;stroke-width:0.5;" x1="215" x2="342.4756" y1="161.1563" y2="161.1563"/></g><!--class ErrorStep--><g class="entity" data-entity="ErrorStep" data-source-line="37" data-uid="ent0009" id="entity_ErrorStep"><rect fill="#F1F1F1" height="83.2188" rx="2.5" ry="2.5" style="stroke:#181818;stroke-width:0.5;" width="144.248" x="415.5" y="238"/><ellipse cx="454.0521" cy="254" fill="#ADD1B2" rx="11" ry="11" style="stroke:#181818;stroke-width:1;"/><path d="M456.8177,249.875 Q456.9739,249.6563 457.1614,249.5469 Q457.3489,249.4375 457.5677,249.4375 Q457.9427,249.4375 458.1771,249.7031 Q458.4114,249.9531 458.4114,250.5625 L458.4114,252.0156 Q458.4114,252.625 458.1771,252.8906 Q457.9427,253.1563 457.5677,253.1563 Q457.2239,253.1563 457.0208,252.9531 Q456.8177,252.7656 456.7083,252.25 Q456.6614,251.8906 456.4739,251.7031 Q456.1458,251.3281 455.5364,251.1094 Q454.9271,250.8906 454.3021,250.8906 Q453.5364,250.8906 452.8958,251.2188 Q452.2708,251.5469 451.7708,252.2969 Q451.2864,253.0469 451.2864,254.0781 L451.2864,255.1719 Q451.2864,256.4063 452.1771,257.2344 Q453.0677,258.0469 454.6614,258.0469 Q455.5989,258.0469 456.2552,257.7969 Q456.6458,257.6406 457.0677,257.2031 Q457.3333,256.9375 457.4739,256.8594 Q457.6302,256.7813 457.8333,256.7813 Q458.1614,256.7813 458.4114,257.0469 Q458.6771,257.2969 458.6771,257.6406 Q458.6771,257.9844 458.3333,258.3906 Q457.8333,258.9688 457.0364,259.2969 Q455.9583,259.75 454.6614,259.75 Q453.1458,259.75 451.9427,259.125 Q450.9583,258.625 450.2708,257.5625 Q449.5833,256.4844 449.5833,255.2031 L449.5833,254.0469 Q449.5833,252.7188 450.1927,251.5781 Q450.8177,250.4219 451.9114,249.8125 Q453.0052,249.1875 454.2396,249.1875 Q454.9739,249.1875 455.6146,249.3594 Q456.2708,249.5156 456.8177,249.875 Z " fill="#000000"/><text fill="#000000" font-family="sans-serif" font-size="14" lengthAdjust="spacing" textLength="59.9102" x="473.2858" y="259.7285">ErrorStep</text><line style="stroke:#181818;stroke-width:0.5;" x1="416.5" x2="558.748" y1="270" y2="270"/><polygon fill="none" points="426.5,280.3047,422.5,286.3047,430.5,286.3047" style="stroke:#1963A0;stroke-width:1;"/><text fill="#000000" font-family="sans-serif" font-size="14" lengthAdjust="spacing" textLength="56" x="435.5" y="288.5332">&#27493;&#39588;&#25551;&#36848;</text><polygon fill="none" points="426.5,297.9141,422.5,303.9141,430.5,303.9141" style="stroke:#1963A0;stroke-width:1;"/><text fill="#000000" font-family="sans-serif" font-size="14" lengthAdjust="spacing" textLength="118.248" x="435.5" y="306.1426">&#26159;&#21542;&#20851;&#38190;&#38169;&#35823;: bool</text><line style="stroke:#181818;stroke-width:0.5;" x1="416.5" x2="558.748" y1="313.2188" y2="313.2188"/></g><!--link ErrorCase to Problem--><g class="link" data-entity-1="ErrorCase" data-entity-2="Problem" data-source-line="42" data-uid="lnk10" id="link_ErrorCase_Problem"><path codeLine="42" d="M254.25,169.55 C243.12,204.43 232.7932,236.8137 226.2132,257.4437" fill="none" id="ErrorCase-to-Problem" style="stroke:#181818;stroke-width:1;"/><polygon fill="#181818" points="224.39,263.16,230.9357,255.8011,225.9094,258.3964,223.314,253.3701,224.39,263.16" style="stroke:#181818;stroke-width:1;"/></g><!--link ErrorCase to Process--><g class="link" data-entity-1="ErrorCase" data-entity-2="Process" data-source-line="43" data-uid="lnk11" id="link_ErrorCase_Process"><path codeLine="43" d="M303.16,169.55 C314.48,204.43 324.9917,236.8218 331.6717,257.4518" fill="none" id="ErrorCase-to-Process" style="stroke:#181818;stroke-width:1;"/><polygon fill="#181818" points="333.52,263.16,334.553,253.3655,331.9797,258.4032,326.942,255.8299,333.52,263.16" style="stroke:#181818;stroke-width:1;"/></g><!--link ErrorCase to KnowledgeNode--><g class="link" data-entity-1="ErrorCase" data-entity-2="KnowledgeNode" data-source-line="44" data-uid="lnk12" id="link_ErrorCase_KnowledgeNode"><path codeLine="44" d="M213.95,152.04 C171,190.99 122.1951,235.25 95.6351,259.33" fill="none" id="ErrorCase-to-KnowledgeNode" style="stroke:#181818;stroke-width:1;"/><polygon fill="#181818" points="91.19,263.36,100.5443,260.2783,94.8942,260.0016,95.1709,254.3516,91.19,263.36" style="stroke:#181818;stroke-width:1;"/></g><!--reverse link ErrorCase to ErrorStep--><g class="link" data-entity-1="ErrorCase" data-entity-2="ErrorStep" data-source-line="46" data-uid="lnk13" id="link_ErrorCase_ErrorStep"><path codeLine="46" d="M351.6411,169.0269 C357.8011,174.9769 355.39,172.49 361.5,178 C384.36,198.61 410.84,220.07 433.6,237.83" fill="none" id="ErrorCase-backto-ErrorStep" style="stroke:#181818;stroke-width:1;"/><polygon fill="#181818" points="343.01,160.69,344.5466,167.7355,351.6411,169.0269,350.1045,161.9814,343.01,160.69" style="stroke:#181818;stroke-width:1;"/></g><!--link ErrorStep to ProcessStep--><g class="link" data-entity-1="ErrorStep" data-entity-2="ProcessStep" data-source-line="47" data-uid="lnk14" id="link_ErrorStep_ProcessStep"><path codeLine="47" d="M487.5,321.22 C487.5,341.87 487.5,359.72 487.5,374.82" fill="none" id="ErrorStep-to-ProcessStep" style="stroke:#181818;stroke-width:1;"/><polygon fill="#181818" points="487.5,380.82,491.5,371.82,487.5,375.82,483.5,371.82,487.5,380.82" style="stroke:#181818;stroke-width:1;"/></g><!--SRC=[RPBTIW917CNlvoa6kWls1Rpe9heA8h0NS7MmODULNICY2WigPQirC3MaRDFj4tSJIGW3NyQPtNcBzajdHzkxSyxms_F_psIbZAR1pO9o8A5S7cqfEGIoeRUjAgA4PAQoIDDubIwX8W2xUpd44w2CP16fMXJ5e2Kp8Fnh1jXv051XNuORgggeEuT518y0zByLw7OipxcWzNlFSMAB63LiD3YBFhVme-uVn9LF_cpZXmplQBbAz7Sky2QNxfjEgg-UUSK7jkdQJHxIBPEEHK-RvDS0nycgwL8clzWL3yvOAxTjCntzCz0-9DfmI5dFQ3F8YJ-TuKs-Ok4EnlvSARQNsAUj4R6_KuaISO1lEhZz58lfn2RzRh02ipBBUzVOk2KFvdGyMcWHNiUyHT-Y7psk2savkFQ2puUqRaVhIK5HKQG0myOGXBNvarfomwV5k_oJJ8IhWi1w0TOmWGgJFm00]--></g></svg>