<svg xmlns="http://www.w3.org/2000/svg" xmlns:xlink="http://www.w3.org/1999/xlink" contentStyleType="text/css" data-diagram-type="CLASS" height="414px" preserveAspectRatio="none" style="width:226px;height:414px;background:#FFFFFF;" version="1.1" viewBox="0 0 226 414" width="226px" zoomAndPan="magnify"><defs/><g><!--class ???--><g class="entity" data-entity="&#20027;&#32447;&#31243;" data-source-line="4" data-uid="ent0002" id="entity_&#20027;&#32447;&#31243;"><rect fill="#F1F1F1" height="32" rx="2.5" ry="2.5" style="stroke:#181818;stroke-width:0.5;" width="74" x="71.5" y="7"/><ellipse cx="86.5" cy="23" fill="#A9DCDF" rx="11" ry="11" style="stroke:#181818;stroke-width:1;"/><path d="M88.6875,24.7656 L84.5469,24.7656 L84.125,25.7969 L84.5469,25.7969 Q85.1563,25.7969 85.4219,26.0313 Q85.6875,26.2656 85.6875,26.6563 Q85.6875,27.0313 85.4219,27.2656 Q85.1563,27.5 84.5469,27.5 L82.25,27.5 Q81.6406,27.5 81.3906,27.2656 Q81.125,27.0313 81.125,26.6406 Q81.125,26.2656 81.4063,26.0313 Q81.6719,25.7813 82.2969,25.7969 L84.9688,19.1406 L83.8594,19.1406 Q83.25,19.1406 82.9844,18.9063 Q82.7188,18.6719 82.7188,18.2813 Q82.7188,17.9063 82.9844,17.6719 Q83.25,17.4375 83.8594,17.4375 L87.5313,17.4375 L90.9219,25.7969 Q91.5156,25.7969 91.7031,25.9375 Q92.0938,26.2031 92.0938,26.6563 Q92.0938,27.0313 91.8281,27.2656 Q91.5781,27.5 90.9688,27.5 L88.6719,27.5 Q88.0625,27.5 87.7969,27.2656 Q87.5313,27.0313 87.5313,26.6406 Q87.5313,26.2656 87.7969,26.0313 Q88.0625,25.7969 88.6719,25.7969 L89.0938,25.7969 L88.6875,24.7656 Z M87.9688,23.0625 L86.6094,19.6875 L85.2344,23.0625 L87.9688,23.0625 Z " fill="#000000"/><text fill="#000000" font-family="sans-serif" font-size="14" font-style="italic" lengthAdjust="spacing" textLength="42" x="100.5" y="28.7285">&#20027;&#32447;&#31243;</text></g><!--class LG--><g class="entity" data-entity="LG" data-source-line="5" data-uid="ent0003" id="entity_LG"><rect fill="#F1F1F1" height="32" rx="2.5" ry="2.5" style="stroke:#181818;stroke-width:0.5;" width="50.6758" x="83" y="99"/><ellipse cx="98" cy="115" fill="#ADD1B2" rx="11" ry="11" style="stroke:#181818;stroke-width:1;"/><path d="M100.7656,110.875 Q100.9219,110.6563 101.1094,110.5469 Q101.2969,110.4375 101.5156,110.4375 Q101.8906,110.4375 102.125,110.7031 Q102.3594,110.9531 102.3594,111.5625 L102.3594,113.0156 Q102.3594,113.625 102.125,113.8906 Q101.8906,114.1563 101.5156,114.1563 Q101.1719,114.1563 100.9688,113.9531 Q100.7656,113.7656 100.6563,113.25 Q100.6094,112.8906 100.4219,112.7031 Q100.0938,112.3281 99.4844,112.1094 Q98.875,111.8906 98.25,111.8906 Q97.4844,111.8906 96.8438,112.2188 Q96.2188,112.5469 95.7188,113.2969 Q95.2344,114.0469 95.2344,115.0781 L95.2344,116.1719 Q95.2344,117.4063 96.125,118.2344 Q97.0156,119.0469 98.6094,119.0469 Q99.5469,119.0469 100.2031,118.7969 Q100.5938,118.6406 101.0156,118.2031 Q101.2813,117.9375 101.4219,117.8594 Q101.5781,117.7813 101.7813,117.7813 Q102.1094,117.7813 102.3594,118.0469 Q102.625,118.2969 102.625,118.6406 Q102.625,118.9844 102.2813,119.3906 Q101.7813,119.9688 100.9844,120.2969 Q99.9063,120.75 98.6094,120.75 Q97.0938,120.75 95.8906,120.125 Q94.9063,119.625 94.2188,118.5625 Q93.5313,117.4844 93.5313,116.2031 L93.5313,115.0469 Q93.5313,113.7188 94.1406,112.5781 Q94.7656,111.4219 95.8594,110.8125 Q96.9531,110.1875 98.1875,110.1875 Q98.9219,110.1875 99.5625,110.3594 Q100.2188,110.5156 100.7656,110.875 Z " fill="#000000"/><text fill="#000000" font-family="sans-serif" font-size="14" lengthAdjust="spacing" textLength="18.6758" x="112" y="120.7285">LG</text></g><!--class LX--><g class="entity" data-entity="LX" data-source-line="6" data-uid="ent0004" id="entity_LX"><rect fill="#F1F1F1" height="32" rx="2.5" ry="2.5" style="stroke:#181818;stroke-width:0.5;" width="49.124" x="27" y="191"/><ellipse cx="42" cy="207" fill="#ADD1B2" rx="11" ry="11" style="stroke:#181818;stroke-width:1;"/><path d="M44.7656,202.875 Q44.9219,202.6563 45.1094,202.5469 Q45.2969,202.4375 45.5156,202.4375 Q45.8906,202.4375 46.125,202.7031 Q46.3594,202.9531 46.3594,203.5625 L46.3594,205.0156 Q46.3594,205.625 46.125,205.8906 Q45.8906,206.1563 45.5156,206.1563 Q45.1719,206.1563 44.9688,205.9531 Q44.7656,205.7656 44.6563,205.25 Q44.6094,204.8906 44.4219,204.7031 Q44.0938,204.3281 43.4844,204.1094 Q42.875,203.8906 42.25,203.8906 Q41.4844,203.8906 40.8438,204.2188 Q40.2188,204.5469 39.7188,205.2969 Q39.2344,206.0469 39.2344,207.0781 L39.2344,208.1719 Q39.2344,209.4063 40.125,210.2344 Q41.0156,211.0469 42.6094,211.0469 Q43.5469,211.0469 44.2031,210.7969 Q44.5938,210.6406 45.0156,210.2031 Q45.2813,209.9375 45.4219,209.8594 Q45.5781,209.7813 45.7813,209.7813 Q46.1094,209.7813 46.3594,210.0469 Q46.625,210.2969 46.625,210.6406 Q46.625,210.9844 46.2813,211.3906 Q45.7813,211.9688 44.9844,212.2969 Q43.9063,212.75 42.6094,212.75 Q41.0938,212.75 39.8906,212.125 Q38.9063,211.625 38.2188,210.5625 Q37.5313,209.4844 37.5313,208.2031 L37.5313,207.0469 Q37.5313,205.7188 38.1406,204.5781 Q38.7656,203.4219 39.8594,202.8125 Q40.9531,202.1875 42.1875,202.1875 Q42.9219,202.1875 43.5625,202.3594 Q44.2188,202.5156 44.7656,202.875 Z " fill="#000000"/><text fill="#000000" font-family="sans-serif" font-size="14" lengthAdjust="spacing" textLength="17.124" x="56" y="212.7285">LX</text></g><!--class lua_state--><g class="entity" data-entity="lua_state" data-source-line="7" data-uid="ent0005" id="entity_lua_state"><rect fill="#F1F1F1" height="32" rx="2.5" ry="2.5" style="stroke:#181818;stroke-width:0.5;" width="88.8203" x="7" y="283"/><ellipse cx="22" cy="299" fill="#ADD1B2" rx="11" ry="11" style="stroke:#181818;stroke-width:1;"/><path d="M24.7656,294.875 Q24.9219,294.6563 25.1094,294.5469 Q25.2969,294.4375 25.5156,294.4375 Q25.8906,294.4375 26.125,294.7031 Q26.3594,294.9531 26.3594,295.5625 L26.3594,297.0156 Q26.3594,297.625 26.125,297.8906 Q25.8906,298.1563 25.5156,298.1563 Q25.1719,298.1563 24.9688,297.9531 Q24.7656,297.7656 24.6563,297.25 Q24.6094,296.8906 24.4219,296.7031 Q24.0938,296.3281 23.4844,296.1094 Q22.875,295.8906 22.25,295.8906 Q21.4844,295.8906 20.8438,296.2188 Q20.2188,296.5469 19.7188,297.2969 Q19.2344,298.0469 19.2344,299.0781 L19.2344,300.1719 Q19.2344,301.4063 20.125,302.2344 Q21.0156,303.0469 22.6094,303.0469 Q23.5469,303.0469 24.2031,302.7969 Q24.5938,302.6406 25.0156,302.2031 Q25.2813,301.9375 25.4219,301.8594 Q25.5781,301.7813 25.7813,301.7813 Q26.1094,301.7813 26.3594,302.0469 Q26.625,302.2969 26.625,302.6406 Q26.625,302.9844 26.2813,303.3906 Q25.7813,303.9688 24.9844,304.2969 Q23.9063,304.75 22.6094,304.75 Q21.0938,304.75 19.8906,304.125 Q18.9063,303.625 18.2188,302.5625 Q17.5313,301.4844 17.5313,300.2031 L17.5313,299.0469 Q17.5313,297.7188 18.1406,296.5781 Q18.7656,295.4219 19.8594,294.8125 Q20.9531,294.1875 22.1875,294.1875 Q22.9219,294.1875 23.5625,294.3594 Q24.2188,294.5156 24.7656,294.875 Z " fill="#000000"/><text fill="#000000" font-family="sans-serif" font-size="14" lengthAdjust="spacing" textLength="56.8203" x="36" y="304.7285">lua_state</text></g><!--class global_state--><g class="entity" data-entity="global_state" data-source-line="8" data-uid="ent0006" id="entity_global_state"><rect fill="#F1F1F1" height="32" rx="2.5" ry="2.5" style="stroke:#181818;stroke-width:0.5;" width="107.5029" x="111.5" y="191"/><ellipse cx="126.5" cy="207" fill="#ADD1B2" rx="11" ry="11" style="stroke:#181818;stroke-width:1;"/><path d="M129.2656,202.875 Q129.4219,202.6563 129.6094,202.5469 Q129.7969,202.4375 130.0156,202.4375 Q130.3906,202.4375 130.625,202.7031 Q130.8594,202.9531 130.8594,203.5625 L130.8594,205.0156 Q130.8594,205.625 130.625,205.8906 Q130.3906,206.1563 130.0156,206.1563 Q129.6719,206.1563 129.4688,205.9531 Q129.2656,205.7656 129.1563,205.25 Q129.1094,204.8906 128.9219,204.7031 Q128.5938,204.3281 127.9844,204.1094 Q127.375,203.8906 126.75,203.8906 Q125.9844,203.8906 125.3438,204.2188 Q124.7188,204.5469 124.2188,205.2969 Q123.7344,206.0469 123.7344,207.0781 L123.7344,208.1719 Q123.7344,209.4063 124.625,210.2344 Q125.5156,211.0469 127.1094,211.0469 Q128.0469,211.0469 128.7031,210.7969 Q129.0938,210.6406 129.5156,210.2031 Q129.7813,209.9375 129.9219,209.8594 Q130.0781,209.7813 130.2813,209.7813 Q130.6094,209.7813 130.8594,210.0469 Q131.125,210.2969 131.125,210.6406 Q131.125,210.9844 130.7813,211.3906 Q130.2813,211.9688 129.4844,212.2969 Q128.4063,212.75 127.1094,212.75 Q125.5938,212.75 124.3906,212.125 Q123.4063,211.625 122.7188,210.5625 Q122.0313,209.4844 122.0313,208.2031 L122.0313,207.0469 Q122.0313,205.7188 122.6406,204.5781 Q123.2656,203.4219 124.3594,202.8125 Q125.4531,202.1875 126.6875,202.1875 Q127.4219,202.1875 128.0625,202.3594 Q128.7188,202.5156 129.2656,202.875 Z " fill="#000000"/><text fill="#000000" font-family="sans-serif" font-size="14" lengthAdjust="spacing" textLength="75.5029" x="140.5" y="212.7285">global_state</text></g><!--class CallInfo--><g class="entity" data-entity="CallInfo" data-source-line="9" data-uid="ent0007" id="entity_CallInfo"><rect fill="#F1F1F1" height="32" rx="2.5" ry="2.5" style="stroke:#181818;stroke-width:0.5;" width="79.4688" x="12" y="375"/><ellipse cx="27" cy="391" fill="#ADD1B2" rx="11" ry="11" style="stroke:#181818;stroke-width:1;"/><path d="M29.7656,386.875 Q29.9219,386.6563 30.1094,386.5469 Q30.2969,386.4375 30.5156,386.4375 Q30.8906,386.4375 31.125,386.7031 Q31.3594,386.9531 31.3594,387.5625 L31.3594,389.0156 Q31.3594,389.625 31.125,389.8906 Q30.8906,390.1563 30.5156,390.1563 Q30.1719,390.1563 29.9688,389.9531 Q29.7656,389.7656 29.6563,389.25 Q29.6094,388.8906 29.4219,388.7031 Q29.0938,388.3281 28.4844,388.1094 Q27.875,387.8906 27.25,387.8906 Q26.4844,387.8906 25.8438,388.2188 Q25.2188,388.5469 24.7188,389.2969 Q24.2344,390.0469 24.2344,391.0781 L24.2344,392.1719 Q24.2344,393.4063 25.125,394.2344 Q26.0156,395.0469 27.6094,395.0469 Q28.5469,395.0469 29.2031,394.7969 Q29.5938,394.6406 30.0156,394.2031 Q30.2813,393.9375 30.4219,393.8594 Q30.5781,393.7813 30.7813,393.7813 Q31.1094,393.7813 31.3594,394.0469 Q31.625,394.2969 31.625,394.6406 Q31.625,394.9844 31.2813,395.3906 Q30.7813,395.9688 29.9844,396.2969 Q28.9063,396.75 27.6094,396.75 Q26.0938,396.75 24.8906,396.125 Q23.9063,395.625 23.2188,394.5625 Q22.5313,393.4844 22.5313,392.2031 L22.5313,391.0469 Q22.5313,389.7188 23.1406,388.5781 Q23.7656,387.4219 24.8594,386.8125 Q25.9531,386.1875 27.1875,386.1875 Q27.9219,386.1875 28.5625,386.3594 Q29.2188,386.5156 29.7656,386.875 Z " fill="#000000"/><text fill="#000000" font-family="sans-serif" font-size="14" lengthAdjust="spacing" textLength="47.4688" x="41" y="396.7285">CallInfo</text></g><!--reverse link ??? to LG--><g class="link" data-entity-1="&#20027;&#32447;&#31243;" data-entity-2="LG" data-source-line="11" data-uid="lnk8" id="link_&#20027;&#32447;&#31243;_LG"><path codeLine="11" d="M108.5,45.27 C108.5,61.92 108.5,82.4 108.5,98.96" fill="none" id="&#20027;&#32447;&#31243;-backto-LG" style="stroke:#181818;stroke-width:1;"/><polygon fill="#181818" points="108.5,39.27,104.5,48.27,108.5,44.27,112.5,48.27,108.5,39.27" style="stroke:#181818;stroke-width:1;"/></g><!--reverse link lua_state to CallInfo--><g class="link" data-entity-1="lua_state" data-entity-2="CallInfo" data-source-line="13" data-uid="lnk9" id="link_lua_state_CallInfo"><path codeLine="13" d="M51.5,321.27 C51.5,337.92 51.5,358.4 51.5,374.96" fill="none" id="lua_state-backto-CallInfo" style="stroke:#181818;stroke-width:1;"/><polygon fill="#181818" points="51.5,315.27,47.5,324.27,51.5,320.27,55.5,324.27,51.5,315.27" style="stroke:#181818;stroke-width:1;"/></g><!--reverse link LX to lua_state--><g class="link" data-entity-1="LX" data-entity-2="lua_state" data-source-line="14" data-uid="lnk10" id="link_LX_lua_state"><path codeLine="14" d="M51.5,229.27 C51.5,245.92 51.5,266.4 51.5,282.96" fill="none" id="LX-backto-lua_state" style="stroke:#181818;stroke-width:1;"/><polygon fill="#181818" points="51.5,223.27,47.5,232.27,51.5,228.27,55.5,232.27,51.5,223.27" style="stroke:#181818;stroke-width:1;"/></g><!--reverse link LG to LX--><g class="link" data-entity-1="LG" data-entity-2="LX" data-source-line="15" data-uid="lnk11" id="link_LG_LX"><path codeLine="15" d="M95.6208,136.3396 C85.0808,152.9896 71.51,174.4 61.03,190.96" fill="none" id="LG-backto-LX" style="stroke:#181818;stroke-width:1;"/><polygon fill="#181818" points="98.83,131.27,90.6364,136.7349,96.1556,135.4947,97.3959,141.0139,98.83,131.27" style="stroke:#181818;stroke-width:1;"/></g><!--reverse link LG to global_state--><g class="link" data-entity-1="LG" data-entity-2="global_state" data-source-line="16" data-uid="lnk12" id="link_LG_global_state"><path codeLine="16" d="M121.3792,136.3396 C131.9192,152.9896 145.49,174.4 155.97,190.96" fill="none" id="LG-backto-global_state" style="stroke:#181818;stroke-width:1;"/><polygon fill="#181818" points="118.17,131.27,119.6041,141.0139,120.8444,135.4947,126.3636,136.7349,118.17,131.27" style="stroke:#181818;stroke-width:1;"/></g><!--SRC=[LOsz3ODG38HxJ-45s21T2XI90UWY0uyVnG-ZPrCmGnR9255IP9b8h165Nz5zT_RTwQrfEmhaaPlMsT0vb62rO4ci3dG_qo2z8N4bM8W1KAOMA3VCcLJn-toFhy_ukCEiatY5T07kwQf6vXPTiMJ41-jCp9Us582j3azHz2-3BJuvssUIJdelJ-8vagvqs86wAHnwvpCNz0S0]--></g></svg>