<svg xmlns="http://www.w3.org/2000/svg" xmlns:xlink="http://www.w3.org/1999/xlink" contentStyleType="text/css" data-diagram-type="ACTIVITY" height="1481px" preserveAspectRatio="none" style="width:631px;height:1481px;background:#FFFFFF;" version="1.1" viewBox="0 0 631 1481" width="631px" zoomAndPan="magnify"><title>&#20154;&#29983;&#20915;&#31574;&#27169;&#22411;(Dynamic Programming &#24605;&#24819;)</title><defs/><g><g class="title" data-source-line="2"><text fill="#000000" font-family="sans-serif" font-size="14" font-weight="bold" lengthAdjust="spacing" textLength="281.9756" x="173.0785" y="34.5332">&#20154;&#29983;&#20915;&#31574;&#27169;&#22411;(Dynamic Programming &#24605;&#24819;)</text></g><ellipse cx="290.2971" cy="58.6094" fill="#222222" rx="10" ry="10" style="stroke:#222222;stroke-width:1;"/><rect fill="#F1F1F1" height="35.0938" rx="12.5" ry="12.5" style="stroke:#181818;stroke-width:0.5;" width="74.668" x="252.9631" y="88.6094"/><text fill="#000000" font-family="sans-serif" font-size="12" lengthAdjust="spacing" textLength="54.668" x="262.9631" y="111.0664">&#24403;&#21069;&#26102;&#21051; t</text><rect fill="#F1F1F1" height="35.0938" rx="12.5" ry="12.5" style="stroke:#181818;stroke-width:0.5;" width="94.6836" x="242.9553" y="143.7031"/><text fill="#000000" font-family="sans-serif" font-size="12" lengthAdjust="spacing" textLength="74.6836" x="252.9553" y="166.1602">&#24403;&#21069;&#29366;&#24577; dp[t]</text><path d="M392.2971,188.7969 L392.2971,287.9063 L372.2971,291.9063 L392.2971,295.9063 L392.2971,395.0156 A0,0 0 0 0 392.2971,395.0156 L619.1326,395.0156 A0,0 0 0 0 619.1326,395.0156 L619.1326,198.7969 L609.1326,188.7969 L392.2971,188.7969 A0,0 0 0 0 392.2971,188.7969" fill="#FEFFDD" style="stroke:#181818;stroke-width:0.5;"/><path d="M609.1326,188.7969 L609.1326,198.7969 L619.1326,198.7969 L609.1326,188.7969" fill="#FEFFDD" style="stroke:#181818;stroke-width:0.5;"/><text fill="#000000" font-family="sans-serif" font-size="13" lengthAdjust="spacing" textLength="140.8354" x="430.7971" y="207.292">&#22914;:&#24819;&#20599;&#25042;,&#24819;&#25302;&#24310;,&#24819;&#23089;&#20048;</text><text fill="#000000" font-family="sans-serif" font-size="13" lengthAdjust="spacing" textLength="172.6118" x="414.9089" y="223.6436">&#27442;&#26395;&#20250;&#26377;&#19968;&#32423;&#25928;&#24212;&#21644;&#20108;&#32423;&#25928;&#24212;.</text><text fill="#000000" font-family="sans-serif" font-size="13" lengthAdjust="spacing" textLength="172.6118" x="414.9089" y="239.9951">&#19968;&#32423;&#25928;&#24212;&#26159;&#25105;&#20204;&#24403;&#19979;&#21487;&#35265;&#30340;,&#32780;</text><text fill="#000000" font-family="sans-serif" font-size="13" lengthAdjust="spacing" textLength="176.2236" x="413.103" y="256.3467">&#20108;&#32423;&#25928;&#24212;&#21017;&#26159;&#26410;&#26469;&#30340;&#24433;&#21709;. &#19978;&#36848;</text><text fill="#000000" font-family="sans-serif" font-size="13" lengthAdjust="spacing" textLength="172.6118" x="414.9089" y="272.6982">&#19968;&#32423;&#25928;&#24212;&#26497;&#24230;&#36731;&#26494;,&#23545;&#24212;&#30340;&#20108;&#32423;</text><text fill="#000000" font-family="sans-serif" font-size="13" lengthAdjust="spacing" textLength="166.8354" x="417.7971" y="289.0498">&#25928;&#24212;&#21361;&#23475;&#24456;&#22823;, &#27604;&#22914;&#19978;&#36848;&#24773;&#24418;.</text><text fill="#000000" font-family="sans-serif" font-size="13" lengthAdjust="spacing" textLength="171.8945" x="415.2676" y="305.4014">&#32780;&#38203;&#28860;, &#23398;&#20064;, &#24605;&#32771;, &#20998;&#26512;, &#19968;&#32423;</text><text fill="#000000" font-family="sans-serif" font-size="13" lengthAdjust="spacing" textLength="189.2236" x="406.603" y="321.7529">&#25928;&#24212;&#21313;&#20998;&#22256;&#38590;, &#32780;&#20108;&#32423;&#25928;&#24212;&#24102;&#26469;&#30340;</text><text fill="#000000" font-family="sans-serif" font-size="13" lengthAdjust="spacing" textLength="192.8354" x="404.7971" y="338.1045">&#25910;&#30410;&#21313;&#20998;&#21487;&#35266;. &#24403;&#20320;&#22312;&#36827;&#34892;&#20915;&#31574;&#26102;,</text><text fill="#000000" font-family="sans-serif" font-size="13" lengthAdjust="spacing" textLength="205.8354" x="398.2971" y="354.4561">&#19981;&#35201;&#21482;&#36138;&#24515;&#30475;&#24403;&#19979;, &#32780;&#26159;&#35201;&#32508;&#21512;&#32771;&#34385;,</text><text fill="#000000" font-family="sans-serif" font-size="13" lengthAdjust="spacing" textLength="192.8418" x="404.7939" y="370.8076">&#26410;&#26469;&#30340;&#20320;&#26159;&#20160;&#20040;&#36523;&#20221;&#30340;&#20154;? &#36825;&#20040;&#20570;</text><text fill="#000000" font-family="sans-serif" font-size="13" lengthAdjust="spacing" textLength="150.23" x="426.0999" y="387.1592">&#26159;&#21542;&#31526;&#21512;&#26410;&#26469;&#30340;&#20320;&#30340;&#36523;&#20221;?</text><rect fill="#F1F1F1" height="35.0938" rx="12.5" ry="12.5" style="stroke:#181818;stroke-width:0.5;" width="164" x="208.2971" y="274.3594"/><text fill="#000000" font-family="sans-serif" font-size="12" lengthAdjust="spacing" textLength="144" x="218.2971" y="296.8164">&#26816;&#27979;&#26159;&#21542;&#20986;&#29616;&#34892;&#20026;&#20559;&#24046;&#35302;&#21457;</text><polygon fill="#F1F1F1" points="230.7102,415.0156,349.884,415.0156,361.884,427.0156,349.884,439.0156,230.7102,439.0156,218.7102,427.0156,230.7102,415.0156" style="stroke:#181818;stroke-width:0.5;"/><text fill="#000000" font-family="sans-serif" font-size="11" lengthAdjust="spacing" textLength="119.1738" x="230.7102" y="431.5166">&#26159;&#21542;&#20986;&#29616;&#36138;&#24515;/&#24403;&#19979;&#26368;&#20248;?</text><text fill="#000000" font-family="sans-serif" font-size="11" lengthAdjust="spacing" textLength="11" x="207.7102" y="424.5986">&#26159;</text><text fill="#000000" font-family="sans-serif" font-size="11" lengthAdjust="spacing" textLength="11" x="361.884" y="424.5986">&#21542;</text><rect fill="#F1F1F1" height="35.0938" rx="12.5" ry="12.5" style="stroke:#181818;stroke-width:0.5;" width="92" x="77.7219" y="449.0156"/><text fill="#000000" font-family="sans-serif" font-size="12" lengthAdjust="spacing" textLength="72" x="87.7219" y="471.4727">&#36827;&#20837;&#20915;&#31574;&#35780;&#20272;</text><rect fill="#F1F1F1" height="35.0938" rx="12.5" ry="12.5" style="stroke:#181818;stroke-width:0.5;" width="116" x="65.7219" y="504.1094"/><text fill="#000000" font-family="sans-serif" font-size="12" lengthAdjust="spacing" textLength="96" x="75.7219" y="526.5664">&#35782;&#21035;&#24403;&#21069;&#20914;&#21160;&#34892;&#20026;</text><rect fill="#F1F1F1" height="35.0938" rx="12.5" ry="12.5" style="stroke:#181818;stroke-width:0.5;" width="167.334" x="40.0549" y="559.2031"/><text fill="#000000" font-family="sans-serif" font-size="12" lengthAdjust="spacing" textLength="147.334" x="50.0549" y="581.6602">&#39044;&#27979;&#30701;&#26399;&#25910;&#30410;&#65288;&#24555;&#20048;/&#36731;&#26494;&#65289;</text><path d="M186.0569,610.4922 L186.0569,627.8438 L166.0569,631.8438 L186.0569,635.8438 L186.0569,653.1953 A0,0 0 0 0 186.0569,653.1953 L390.8723,653.1953 A0,0 0 0 0 390.8723,653.1953 L390.8723,620.4922 L380.8723,610.4922 L186.0569,610.4922 A0,0 0 0 0 186.0569,610.4922" fill="#FEFFDD" style="stroke:#181818;stroke-width:0.5;"/><path d="M380.8723,610.4922 L380.8723,620.4922 L390.8723,620.4922 L380.8723,610.4922" fill="#FEFFDD" style="stroke:#181818;stroke-width:0.5;"/><text fill="#000000" font-family="sans-serif" font-size="13" lengthAdjust="spacing" textLength="65" x="251.4646" y="628.9873">&#26680;&#24515;&#24605;&#24819;&#65306;</text><text fill="#000000" font-family="sans-serif" font-size="13" lengthAdjust="spacing" textLength="183.8154" x="192.0569" y="645.3389">&#24403;&#21069;&#36873;&#25321; = &#26410;&#26469;&#29366;&#24577;&#30340;&#32452;&#25104;&#37096;&#20998;</text><rect fill="#F1F1F1" height="35.0938" rx="12.5" ry="12.5" style="stroke:#181818;stroke-width:0.5;" width="84.6699" x="81.387" y="614.2969"/><text fill="#000000" font-family="sans-serif" font-size="12" lengthAdjust="spacing" textLength="64.6699" x="91.387" y="636.7539">&#20999;&#25442;DP&#35270;&#35282;</text><rect fill="#F1F1F1" height="35.0938" rx="12.5" ry="12.5" style="stroke:#181818;stroke-width:0.5;" width="92" x="77.7219" y="673.1953"/><text fill="#000000" font-family="sans-serif" font-size="12" lengthAdjust="spacing" textLength="72" x="87.7219" y="695.6523">&#35780;&#20272;&#38271;&#26399;&#24433;&#21709;</text><rect fill="#F1F1F1" height="35.0938" rx="12.5" ry="12.5" style="stroke:#181818;stroke-width:0.5;" width="149.6914" x="48.8762" y="728.2891"/><text fill="#000000" font-family="sans-serif" font-size="12" lengthAdjust="spacing" textLength="129.6914" x="58.8762" y="750.7461">&#35813;&#34892;&#20026;&#23545; dp[t+N] &#30340;&#24433;&#21709;</text><polygon fill="#F1F1F1" points="73,783.3828,174.4438,783.3828,186.4438,795.3828,174.4438,807.3828,73,807.3828,61,795.3828,73,783.3828" style="stroke:#181818;stroke-width:0.5;"/><text fill="#000000" font-family="sans-serif" font-size="11" lengthAdjust="spacing" textLength="101.4438" x="73" y="799.8838">&#26159;&#21542;&#31526;&#21512;&#8220;&#26410;&#26469;&#36523;&#20221;&#8221;?</text><text fill="#000000" font-family="sans-serif" font-size="11" lengthAdjust="spacing" textLength="11" x="50" y="792.9658">&#26159;</text><text fill="#000000" font-family="sans-serif" font-size="11" lengthAdjust="spacing" textLength="11" x="186.4438" y="792.9658">&#21542;</text><rect fill="#F1F1F1" height="35.0938" rx="12.5" ry="12.5" style="stroke:#181818;stroke-width:0.5;" width="80" x="11" y="817.3828"/><text fill="#000000" font-family="sans-serif" font-size="12" lengthAdjust="spacing" textLength="60" x="21" y="839.8398">&#25191;&#34892;&#35813;&#34892;&#20026;</text><rect fill="#F1F1F1" height="35.0938" rx="12.5" ry="12.5" style="stroke:#181818;stroke-width:0.5;" width="92" x="150.4438" y="817.3828"/><text fill="#000000" font-family="sans-serif" font-size="12" lengthAdjust="spacing" textLength="72" x="160.4438" y="839.8398">&#25298;&#32477;&#24403;&#21069;&#20914;&#21160;</text><rect fill="#F1F1F1" height="35.0938" rx="12.5" ry="12.5" style="stroke:#181818;stroke-width:0.5;" width="116" x="138.4438" y="872.4766"/><text fill="#000000" font-family="sans-serif" font-size="12" lengthAdjust="spacing" textLength="96" x="148.4438" y="894.9336">&#36873;&#25321;&#38271;&#26399;&#26368;&#20248;&#34892;&#20026;</text><polygon fill="#F1F1F1" points="123.7219,913.5703,135.7219,925.5703,123.7219,937.5703,111.7219,925.5703,123.7219,913.5703" style="stroke:#181818;stroke-width:0.5;"/><rect fill="#F1F1F1" height="35.0938" rx="12.5" ry="12.5" style="stroke:#181818;stroke-width:0.5;" width="92" x="410.8723" y="449.0156"/><text fill="#000000" font-family="sans-serif" font-size="12" lengthAdjust="spacing" textLength="72" x="420.8723" y="471.4727">&#27491;&#24120;&#25191;&#34892;&#35745;&#21010;</text><polygon fill="#F1F1F1" points="290.2971,943.5703,302.2971,955.5703,290.2971,967.5703,278.2971,955.5703,290.2971,943.5703" style="stroke:#181818;stroke-width:0.5;"/><rect fill="#F1F1F1" height="35.0938" rx="12.5" ry="12.5" style="stroke:#181818;stroke-width:0.5;" width="68" x="256.2971" y="987.5703"/><text fill="#000000" font-family="sans-serif" font-size="12" lengthAdjust="spacing" textLength="48" x="266.2971" y="1010.0273">&#29366;&#24577;&#26356;&#26032;</text><path d="M382.0315,1032.6641 L382.0315,1058.1914 L362.0315,1062.1914 L382.0315,1066.1914 L382.0315,1091.7188 A0,0 0 0 0 382.0315,1091.7188 L546.0315,1091.7188 A0,0 0 0 0 546.0315,1091.7188 L546.0315,1042.6641 L536.0315,1032.6641 L382.0315,1032.6641 A0,0 0 0 0 382.0315,1032.6641" fill="#FEFFDD" style="stroke:#181818;stroke-width:0.5;"/><path d="M536.0315,1032.6641 L536.0315,1042.6641 L546.0315,1042.6641 L536.0315,1032.6641" fill="#FEFFDD" style="stroke:#181818;stroke-width:0.5;"/><text fill="#000000" font-family="sans-serif" font-size="13" lengthAdjust="spacing" textLength="143" x="388.0315" y="1051.1592">&#27599;&#20010;&#34892;&#20026;&#37117;&#26159;&#26435;&#37325;&#36129;&#29486;&#65306;</text><text fill="#000000" font-family="sans-serif" font-size="13" lengthAdjust="spacing" textLength="120.6436" x="399.2097" y="1067.5107">+ &#27491;&#21521;&#34892;&#20026; &#8594; &#27491;&#36129;&#29486;</text><text fill="#000000" font-family="sans-serif" font-size="13" lengthAdjust="spacing" textLength="117.3809" x="400.8411" y="1083.8623">- &#36138;&#24515;&#34892;&#20026; &#8594; &#36127;&#36129;&#29486;</text><rect fill="#F1F1F1" height="35.0938" rx="12.5" ry="12.5" style="stroke:#181818;stroke-width:0.5;" width="143.4688" x="218.5627" y="1044.6445"/><text fill="#000000" font-family="sans-serif" font-size="12" lengthAdjust="spacing" textLength="123.4688" x="228.5627" y="1067.1016">dp[t+1] = &#931; f(k) * dp[t-k]</text><rect fill="#F1F1F1" height="35.0938" rx="12.5" ry="12.5" style="stroke:#181818;stroke-width:0.5;" width="92" x="244.2971" y="1111.7188"/><text fill="#000000" font-family="sans-serif" font-size="12" lengthAdjust="spacing" textLength="72" x="254.2971" y="1134.1758">&#36827;&#20837;&#19979;&#19968;&#26102;&#21051;</text><ellipse cx="290.2971" cy="1177.8125" fill="none" rx="11" ry="11" style="stroke:#222222;stroke-width:1;"/><ellipse cx="290.2971" cy="1177.8125" fill="#222222" rx="6" ry="6" style="stroke:#222222;stroke-width:1;"/><line style="stroke:#181818;stroke-width:1;" x1="290.2971" x2="290.2971" y1="68.6094" y2="88.6094"/><polygon fill="#181818" points="286.2971,78.6094,290.2971,88.6094,294.2971,78.6094,290.2971,82.6094" style="stroke:#181818;stroke-width:1;"/><line style="stroke:#181818;stroke-width:1;" x1="290.2971" x2="290.2971" y1="123.7031" y2="143.7031"/><polygon fill="#181818" points="286.2971,133.7031,290.2971,143.7031,294.2971,133.7031,290.2971,137.7031" style="stroke:#181818;stroke-width:1;"/><line style="stroke:#181818;stroke-width:1;" x1="290.2971" x2="290.2971" y1="178.7969" y2="274.3594"/><polygon fill="#181818" points="286.2971,264.3594,290.2971,274.3594,294.2971,264.3594,290.2971,268.3594" style="stroke:#181818;stroke-width:1;"/><line style="stroke:#181818;stroke-width:1;" x1="123.7219" x2="123.7219" y1="484.1094" y2="504.1094"/><polygon fill="#181818" points="119.7219,494.1094,123.7219,504.1094,127.7219,494.1094,123.7219,498.1094" style="stroke:#181818;stroke-width:1;"/><line style="stroke:#181818;stroke-width:1;" x1="123.7219" x2="123.7219" y1="539.2031" y2="559.2031"/><polygon fill="#181818" points="119.7219,549.2031,123.7219,559.2031,127.7219,549.2031,123.7219,553.2031" style="stroke:#181818;stroke-width:1;"/><line style="stroke:#181818;stroke-width:1;" x1="123.7219" x2="123.7219" y1="594.2969" y2="614.2969"/><polygon fill="#181818" points="119.7219,604.2969,123.7219,614.2969,127.7219,604.2969,123.7219,608.2969" style="stroke:#181818;stroke-width:1;"/><line style="stroke:#181818;stroke-width:1;" x1="123.7219" x2="123.7219" y1="649.3906" y2="673.1953"/><polygon fill="#181818" points="119.7219,663.1953,123.7219,673.1953,127.7219,663.1953,123.7219,667.1953" style="stroke:#181818;stroke-width:1;"/><line style="stroke:#181818;stroke-width:1;" x1="123.7219" x2="123.7219" y1="708.2891" y2="728.2891"/><polygon fill="#181818" points="119.7219,718.2891,123.7219,728.2891,127.7219,718.2891,123.7219,722.2891" style="stroke:#181818;stroke-width:1;"/><line style="stroke:#181818;stroke-width:1;" x1="196.4438" x2="196.4438" y1="852.4766" y2="872.4766"/><polygon fill="#181818" points="192.4438,862.4766,196.4438,872.4766,200.4438,862.4766,196.4438,866.4766" style="stroke:#181818;stroke-width:1;"/><line style="stroke:#181818;stroke-width:1;" x1="61" x2="51" y1="795.3828" y2="795.3828"/><line style="stroke:#181818;stroke-width:1;" x1="51" x2="51" y1="795.3828" y2="817.3828"/><polygon fill="#181818" points="47,807.3828,51,817.3828,55,807.3828,51,811.3828" style="stroke:#181818;stroke-width:1;"/><line style="stroke:#181818;stroke-width:1;" x1="186.4438" x2="196.4438" y1="795.3828" y2="795.3828"/><line style="stroke:#181818;stroke-width:1;" x1="196.4438" x2="196.4438" y1="795.3828" y2="817.3828"/><polygon fill="#181818" points="192.4438,807.3828,196.4438,817.3828,200.4438,807.3828,196.4438,811.3828" style="stroke:#181818;stroke-width:1;"/><line style="stroke:#181818;stroke-width:1;" x1="51" x2="51" y1="852.4766" y2="925.5703"/><line style="stroke:#181818;stroke-width:1;" x1="51" x2="111.7219" y1="925.5703" y2="925.5703"/><polygon fill="#181818" points="101.7219,921.5703,111.7219,925.5703,101.7219,929.5703,105.7219,925.5703" style="stroke:#181818;stroke-width:1;"/><line style="stroke:#181818;stroke-width:1;" x1="196.4438" x2="196.4438" y1="907.5703" y2="925.5703"/><line style="stroke:#181818;stroke-width:1;" x1="196.4438" x2="135.7219" y1="925.5703" y2="925.5703"/><polygon fill="#181818" points="145.7219,921.5703,135.7219,925.5703,145.7219,929.5703,141.7219,925.5703" style="stroke:#181818;stroke-width:1;"/><line style="stroke:#181818;stroke-width:1;" x1="123.7219" x2="123.7219" y1="763.3828" y2="783.3828"/><polygon fill="#181818" points="119.7219,773.3828,123.7219,783.3828,127.7219,773.3828,123.7219,777.3828" style="stroke:#181818;stroke-width:1;"/><line style="stroke:#181818;stroke-width:1;" x1="218.7102" x2="123.7219" y1="427.0156" y2="427.0156"/><line style="stroke:#181818;stroke-width:1;" x1="123.7219" x2="123.7219" y1="427.0156" y2="449.0156"/><polygon fill="#181818" points="119.7219,439.0156,123.7219,449.0156,127.7219,439.0156,123.7219,443.0156" style="stroke:#181818;stroke-width:1;"/><line style="stroke:#181818;stroke-width:1;" x1="361.884" x2="456.8723" y1="427.0156" y2="427.0156"/><line style="stroke:#181818;stroke-width:1;" x1="456.8723" x2="456.8723" y1="427.0156" y2="449.0156"/><polygon fill="#181818" points="452.8723,439.0156,456.8723,449.0156,460.8723,439.0156,456.8723,443.0156" style="stroke:#181818;stroke-width:1;"/><line style="stroke:#181818;stroke-width:1;" x1="123.7219" x2="123.7219" y1="937.5703" y2="955.5703"/><line style="stroke:#181818;stroke-width:1;" x1="123.7219" x2="278.2971" y1="955.5703" y2="955.5703"/><polygon fill="#181818" points="268.2971,951.5703,278.2971,955.5703,268.2971,959.5703,272.2971,955.5703" style="stroke:#181818;stroke-width:1;"/><line style="stroke:#181818;stroke-width:1;" x1="456.8723" x2="456.8723" y1="484.1094" y2="955.5703"/><line style="stroke:#181818;stroke-width:1;" x1="456.8723" x2="302.2971" y1="955.5703" y2="955.5703"/><polygon fill="#181818" points="312.2971,951.5703,302.2971,955.5703,312.2971,959.5703,308.2971,955.5703" style="stroke:#181818;stroke-width:1;"/><line style="stroke:#181818;stroke-width:1;" x1="290.2971" x2="290.2971" y1="309.4531" y2="415.0156"/><polygon fill="#181818" points="286.2971,405.0156,290.2971,415.0156,294.2971,405.0156,290.2971,409.0156" style="stroke:#181818;stroke-width:1;"/><line style="stroke:#181818;stroke-width:1;" x1="290.2971" x2="290.2971" y1="967.5703" y2="987.5703"/><polygon fill="#181818" points="286.2971,977.5703,290.2971,987.5703,294.2971,977.5703,290.2971,981.5703" style="stroke:#181818;stroke-width:1;"/><line style="stroke:#181818;stroke-width:1;" x1="290.2971" x2="290.2971" y1="1022.6641" y2="1044.6445"/><polygon fill="#181818" points="286.2971,1034.6445,290.2971,1044.6445,294.2971,1034.6445,290.2971,1038.6445" style="stroke:#181818;stroke-width:1;"/><line style="stroke:#181818;stroke-width:1;" x1="290.2971" x2="290.2971" y1="1079.7383" y2="1111.7188"/><polygon fill="#181818" points="286.2971,1101.7188,290.2971,1111.7188,294.2971,1101.7188,290.2971,1105.7188" style="stroke:#181818;stroke-width:1;"/><line style="stroke:#181818;stroke-width:1;" x1="290.2971" x2="290.2971" y1="1146.8125" y2="1166.8125"/><polygon fill="#181818" points="286.2971,1156.8125,290.2971,1166.8125,294.2971,1156.8125,290.2971,1160.8125" style="stroke:#181818;stroke-width:1;"/><g class="legend" data-source-line="5"><rect fill="#DDDDDD" height="256.5313" rx="7.5" ry="7.5" style="stroke:#000000;stroke-width:1;" width="481.3379" x="22" y="1199.8125"/><text fill="#000000" font-family="sans-serif" font-size="14" lengthAdjust="spacing" textLength="397.4482" x="62" y="1219.3457">&#29616;&#22312;&#21602;, &#25105;&#26399;&#26395;&#29992;&#21160;&#24577;&#35268;&#21010;&#30340;&#24605;&#24819;&#35299;&#20915;&#36825;&#20123;&#38382;&#39064;. &#24403;&#20877;&#27425;&#36935;&#21040;&#36138;&#24515;,</text><text fill="#000000" font-family="sans-serif" font-size="14" lengthAdjust="spacing" textLength="411.4482" x="55" y="1236.9551">&#26399;&#26395;&#24403;&#19979;&#26368;&#20248;&#30340;&#38382;&#39064;&#31867;&#26102;, &#37319;&#29992;&#21160;&#24577;&#35268;&#21010;&#30340;&#24605;&#24819;&#26469;&#35299;&#20915;. &#39318;&#20808;&#35201;&#26126;&#30830;,</text><text fill="#000000" font-family="sans-serif" font-size="14" lengthAdjust="spacing" textLength="419.2275" x="51.1104" y="1254.5645">&#24403;&#19979;&#19968;&#20999;&#30340;&#32467;&#26524;, &#37117;&#26159;&#20043;&#21069;&#22475;&#19979;&#30340;&#22240;. &#19981;&#35770;&#26159;&#36523;&#26448;&#36208;&#24418;, &#20160;&#20040;&#20063;&#27809;&#23398;&#20250;,</text><text fill="#000000" font-family="sans-serif" font-size="14" lengthAdjust="spacing" textLength="429.3379" x="46.0552" y="1272.1738">&#31561;&#31561;, &#37117;&#19981;&#26159;&#24403;&#19979;&#23548;&#33268;&#30340;. &#20320;&#20063;&#19981;&#20250;&#35748;&#20026;&#26159;&#21069;&#19968;&#22825;, &#22240;&#20026;&#21363;&#20351;&#21069;&#19968;&#22825;&#24178;&#20102;</text><text fill="#000000" font-family="sans-serif" font-size="14" lengthAdjust="spacing" textLength="422.3311" x="49.5586" y="1289.7832">(&#38203;&#28860;, &#23398;&#20064;), &#20063;&#19981;&#20250;&#23545;&#20170;&#22825;&#36896;&#25104;&#24433;&#21709;. &#38634;&#23849;&#26102;, &#27599;&#19968;&#20010;&#38634;&#33457;&#37117;&#26159;&#26080;&#36764;&#30340;.</text><text fill="#000000" font-family="sans-serif" font-size="14" lengthAdjust="spacing" textLength="470.7363" x="27.3008" y="1307.3926">&#23545;&#20110;&#20154;&#29983;&#30340;dp, &#24182;&#19981;&#26159;&#31616;&#21333;&#30340;dp[today] = dp[today-1] + dp[today-2], &#25105;&#35273;&#24471;&#26159;</text><text fill="#000000" font-family="sans-serif" font-size="14" lengthAdjust="spacing" textLength="440.4258" x="40.5112" y="1325.002">dp[today] = f(n)*dp[today - n] +f(m)* dp[today - m] + ... + f(j)*dp[today-j].</text><text fill="#000000" font-family="sans-serif" font-size="14" lengthAdjust="spacing" textLength="463.5586" x="30.8896" y="1342.6113">&#21069;&#38754;&#30340;&#27599;&#27425;&#21160;&#24577;&#35268;&#21010;&#25110;&#36138;&#24515;, &#36896;&#23601;&#20102;&#20170;&#22825;&#30340;&#20320;&#33258;&#24049;. &#27599;&#19968;&#20010;&#25343;&#20986;&#26469;&#30475;&#30340;&#20284;&#20046;&#37117;</text><text fill="#000000" font-family="sans-serif" font-size="14" lengthAdjust="spacing" textLength="471.3379" x="27" y="1360.2207">&#24494;&#19981;&#36275;&#36947;, &#21363;&#20351;&#26377;&#19968;&#27425;&#26159;&#24456;&#23567;&#30340;&#36127;&#25968;, &#23545;&#25972;&#20307;&#24433;&#21709;&#20063;&#19981;&#22823;, &#21487;&#26159;&#22914;&#26524;&#26159;&#35768;&#22810;&#35768;&#22810;</text><text fill="#000000" font-family="sans-serif" font-size="14" lengthAdjust="spacing" textLength="469.0479" x="28.145" y="1377.8301">&#20010;&#24456;&#23567;&#30340;&#36127;&#25968;&#30340;&#21644;,&#23545;&#25972;&#20307;&#24433;&#21709;&#23601;&#21313;&#20998;&#22320;&#22823;&#20102;. &#32780;dp[today], &#21448;&#26159;&#26080;&#25968;&#22825;&#21518;&#30340;&#37027;</text><text fill="#000000" font-family="sans-serif" font-size="14" lengthAdjust="spacing" textLength="458.8965" x="33.2207" y="1395.4395">&#20010;&#20320;&#30340;&#32452;&#25104;&#25104;&#20998;. &#24403;&#19979;&#26469;&#30475;, &#20170;&#22825;&#24949;&#25042;, &#25918;&#26494;, &#21487;&#33021;&#23545;&#26410;&#26469;&#30340;&#20320;&#24433;&#21709;&#19981;&#22823;, &#20294;&#22914;</text><text fill="#000000" font-family="sans-serif" font-size="14" lengthAdjust="spacing" textLength="471.3379" x="27" y="1413.0488">&#26524;&#20135;&#29983;&#20102;&#36825;&#26679;&#19968;&#20010;&#36235;&#21183;, &#25972;&#20307;&#19978;&#26469;&#30475;&#34429;&#28982;&#21487;&#33021;&#20250;&#19978;&#21319;, &#20294;&#31243;&#24230;&#24456;&#23567;, &#26410;&#26469;&#30340;&#37027;&#20010;</text><text fill="#000000" font-family="sans-serif" font-size="14" lengthAdjust="spacing" textLength="470.5518" x="27.3931" y="1430.6582">&#20320;&#20063;&#27880;&#23450;&#22833;&#36133;. &#25152;&#20197;&#27599;&#24403;&#26377;&#19968;&#27425;&#31574;&#30053;&#30340;&#36873;&#25321;, &#19981;&#35201;&#36873;&#26368;&#20248;&#30340;(&#26368;&#36731;&#26494;, &#23481;&#26131;&#30340;),&#32780;</text><text fill="#000000" font-family="sans-serif" font-size="14" lengthAdjust="spacing" textLength="425.4482" x="49.9448" y="1448.2676">&#26159;&#35201;&#24819;&#24819;&#26410;&#26469;&#30340;&#20320;&#26159;&#20160;&#20040;&#36523;&#20221;&#30340;&#20154;, &#20855;&#26377;&#36825;&#31181;&#36523;&#20221;&#30340;&#20154;, &#20250;&#20570;&#20160;&#20040;&#36873;&#25321;.</text></g><!--SRC=[ZLRBRbf94DtVh-Wb99WeipGQHIDbFSfYTYClh0HxI6mSsOmqsO4VS376nky7uBU1E3OFcs2UvW_c8wBRVPjLVc5ETrqmTZIQiInakgjErQawLUsv3u7Wn_7PyMdssZyn_kTKw3V_Nw5VfWAJmMb_CCJUuiC_QuG2eIa_ivfDU-k8Hs_jwnrHEE672TVhJy7nwS1RzcPsPX8Wqu7W91FXh5YuTHjp_mlQcF9F-eFls9H_8cJOgsMUAV3rKmyJvhh878bCsjugyEM224TaVf6R6_R18WMG-JEa8hlxLZFTsotsJlUyZ7SsUJGfhavwaHWtox9woRiB7cOG4cwjUa9ambPx3p3aP5TQOhVcORrOxDyYYUm51VEoNcw7Bvao5n5xg_P94T04QjN3t8p1msvjYiCCu1OwOgzaDH8ydkH7k4_WagUFlSog9sMnYKlP_2AoAVcrp3lWQxN2LiEq6aVYveHVvwps0S3jwpX-DHhSu4FHUAajOrK00grp31zSma4MpwswGaPCbT3vPmz3I9pnvAtLwGwEUUF6QaQPuUfjjUpvDgmGi77iHXPzB5vgMArbsFR2ny9CyKw5RoR1Ftt9gvzrmKHf3MXM_H9dShb2XCNkiRpFwCmC1T5S9T7WvDr7n6dKY8TT3FFajZxzFJJpRlpJ6FkPzVyUUJd6dZzy-sbCgq7cu_n-5xx6iC-4A-X-rZzW8om8rmdNjFiP6pgSLdXUhnUV4wxt3_OZxyTKdl5aBtkgkbrQWtI69I3CdRw6K0TUhg1iL1QOe_GoTidlAjw7MeX4byUQ48oTKGstscshiOhI6Fo-g1fVk-r5Db47tG-HYSCB8LNBxarUNeEBh1w9xJ9CIWsnNRKWQ5rwQWm_p-DchQGSSlCGcf9HiSxF3-ZJG0fFa9JiDbOyJ-10XISZt8poJ1cWeELbChmogAoAOb8_WQ4aarfL8pD_faA0kPRw8fIXn656zUYfuTBCbPfLaSJILn7RGFUsxaNsNcSk5pegbSobijGrTFWvvAnE5CmCKBEQUGW7cM74nV4TrLVM4dov2qJDnQelKq2vtx4NQmGFyUAS9sCQp2uaU3D7DO5RFow80CsWwH6t1LuyuESLMRr0B-DXgtM1ZeBHe4FOUFQsTWp7HG9pfPgPYwXl_NNYmb-oqoAYnOROsyIXsuEg6gfBM1dO9FWTegusX1vxh0AhrL67pIQyb-uG6BJjVFBnZHhCo07vK2PUWvQdsg76N6XyDcGOeseDnfEOKcwsMCZNFx2NQr2s7emn7yp4MLXyJIWjfN9GBPQlF5bHsoAonk-ACf_ZQ-i-8pWJyhFPmEGV8OFX1zqP1GqUkLEjLOGIExnLKt_nGiLgfBILkBh1maMwL46xcHVR9czkGOfMSsNmrQkDXmsKvinrgtNbR3gqD1y1VLr7RJpapirzPT-lQ7z9eVsoM_uH-Z02AJWjWWXnfEkgy2Xf0arMUF5MAKRfKPIsm9WGnS8ILZNbZ7GUBq-FUlTa69i2uo0EKnudzYDaFN7fSky06W728oxr7B4WXwsQdLvs75GDvcd2C2wPWkocqIZd7SOgTfWgGVArIrfO60gge0v40hHRRPuoaQFSNoUd_nJZAwOUs8O9rP635ejzbGFGiBDQDzhjbTQZqenX12QOwv6wT6OlXf_XLsuM-iCVr7PkGuSO1Js-T47qP0axjEphtvIYtFn2OkRH6sng4goFhdkdYz2pVNIjddjTmEzjatU_G9GlgEtVs_4-5fvhaJnz_KRcepA_GGXFfAu97zUHC_qVyBrzC3Yd96W6yGmvjT03DbYDlOK2sgTT7ehY456qUjju0ev8jRx-nOKpWwM67jJdluwnWRITt1_gIetu5ivGV6h1jt3sSLdxEO-AU1xeWnWKqpyrvsSkW0qR9ZRiLdQuqBw7Io9DoLCN7y45tmKc3EC9wgYuFkFrkfD0yGHlgyzmJ4UfR29T5JkgrQEQzqlrklzzXWVxWvlHQpxoOUo7TQHVtajAmFaN9BlGYoLbzSHUAVOxzfof-AbricFVeXlgW6oqmGWZSGuPuFbq31wQvsYJ_k6Z_Og4vq8p7ur_0000]--></g></svg>