<svg xmlns="http://www.w3.org/2000/svg" xmlns:xlink="http://www.w3.org/1999/xlink" contentStyleType="text/css" data-diagram-type="CLASS" height="1211px" preserveAspectRatio="none" style="width:1088px;height:1211px;background:#FFFFFF;" version="1.1" viewBox="0 0 1088 1211" width="1088px" zoomAndPan="magnify"><defs/><g><!--class ?--><g class="entity" data-entity="&#25105;" data-source-line="3" data-uid="ent0002" id="entity_&#25105;"><rect fill="#F1F1F1" height="100.8281" rx="2.5" ry="2.5" style="stroke:#181818;stroke-width:0.5;" width="129.4482" x="484.5" y="746"/><ellipse cx="537.9741" cy="762" fill="#ADD1B2" rx="11" ry="11" style="stroke:#181818;stroke-width:1;"/><path d="M540.7397,757.875 Q540.896,757.6563 541.0835,757.5469 Q541.271,757.4375 541.4897,757.4375 Q541.8647,757.4375 542.0991,757.7031 Q542.3335,757.9531 542.3335,758.5625 L542.3335,760.0156 Q542.3335,760.625 542.0991,760.8906 Q541.8647,761.1563 541.4897,761.1563 Q541.146,761.1563 540.9429,760.9531 Q540.7397,760.7656 540.6304,760.25 Q540.5835,759.8906 540.396,759.7031 Q540.0679,759.3281 539.4585,759.1094 Q538.8491,758.8906 538.2241,758.8906 Q537.4585,758.8906 536.8179,759.2188 Q536.1929,759.5469 535.6929,760.2969 Q535.2085,761.0469 535.2085,762.0781 L535.2085,763.1719 Q535.2085,764.4063 536.0991,765.2344 Q536.9897,766.0469 538.5835,766.0469 Q539.521,766.0469 540.1772,765.7969 Q540.5679,765.6406 540.9897,765.2031 Q541.2554,764.9375 541.396,764.8594 Q541.5522,764.7813 541.7554,764.7813 Q542.0835,764.7813 542.3335,765.0469 Q542.5991,765.2969 542.5991,765.6406 Q542.5991,765.9844 542.2554,766.3906 Q541.7554,766.9688 540.9585,767.2969 Q539.8804,767.75 538.5835,767.75 Q537.0679,767.75 535.8647,767.125 Q534.8804,766.625 534.1929,765.5625 Q533.5054,764.4844 533.5054,763.2031 L533.5054,762.0469 Q533.5054,760.7188 534.1147,759.5781 Q534.7397,758.4219 535.8335,757.8125 Q536.9272,757.1875 538.1616,757.1875 Q538.896,757.1875 539.5366,757.3594 Q540.1929,757.5156 540.7397,757.875 Z " fill="#000000"/><text fill="#000000" font-family="sans-serif" font-size="14" lengthAdjust="spacing" textLength="14" x="558.4741" y="767.7285">&#25105;</text><line style="stroke:#181818;stroke-width:0.5;" x1="485.5" x2="612.9482" y1="778" y2="778"/><ellipse cx="495.5" cy="792.3047" fill="none" rx="3" ry="3" style="stroke:#038048;stroke-width:1;"/><text fill="#000000" font-family="sans-serif" font-size="14" lengthAdjust="spacing" textLength="103.4482" x="504.5" y="796.5332">&#30446;&#26631;: &#21271;&#22823; / &#27993;&#22823;</text><ellipse cx="495.5" cy="809.9141" fill="none" rx="3" ry="3" style="stroke:#038048;stroke-width:1;"/><text fill="#000000" font-family="sans-serif" font-size="14" lengthAdjust="spacing" textLength="91.7793" x="504.5" y="814.1426">&#29366;&#24577;: &#26377;&#26102;&#30130;&#24811;</text><ellipse cx="495.5" cy="827.5234" fill="none" rx="3" ry="3" style="stroke:#038048;stroke-width:1;"/><text fill="#000000" font-family="sans-serif" font-size="14" lengthAdjust="spacing" textLength="91.7793" x="504.5" y="831.752">&#20219;&#21153;: &#27599;&#22825;&#32487;&#32493;</text><line style="stroke:#181818;stroke-width:0.5;" x1="485.5" x2="612.9482" y1="838.8281" y2="838.8281"/></g><!--class KD??--><g class="entity" data-entity="KD&#31934;&#31070;" data-source-line="9" data-uid="ent0003" id="entity_KD&#31934;&#31070;"><rect fill="#F1F1F1" height="118.4375" rx="2.5" ry="2.5" style="stroke:#181818;stroke-width:0.5;" width="159.7793" x="487" y="197.5"/><ellipse cx="538.9155" cy="213.5" fill="#ADD1B2" rx="11" ry="11" style="stroke:#181818;stroke-width:1;"/><path d="M541.6812,209.375 Q541.8374,209.1563 542.0249,209.0469 Q542.2124,208.9375 542.4312,208.9375 Q542.8062,208.9375 543.0405,209.2031 Q543.2749,209.4531 543.2749,210.0625 L543.2749,211.5156 Q543.2749,212.125 543.0405,212.3906 Q542.8062,212.6563 542.4312,212.6563 Q542.0874,212.6563 541.8843,212.4531 Q541.6812,212.2656 541.5718,211.75 Q541.5249,211.3906 541.3374,211.2031 Q541.0093,210.8281 540.3999,210.6094 Q539.7905,210.3906 539.1655,210.3906 Q538.3999,210.3906 537.7593,210.7188 Q537.1343,211.0469 536.6343,211.7969 Q536.1499,212.5469 536.1499,213.5781 L536.1499,214.6719 Q536.1499,215.9063 537.0405,216.7344 Q537.9312,217.5469 539.5249,217.5469 Q540.4624,217.5469 541.1187,217.2969 Q541.5093,217.1406 541.9312,216.7031 Q542.1968,216.4375 542.3374,216.3594 Q542.4937,216.2813 542.6968,216.2813 Q543.0249,216.2813 543.2749,216.5469 Q543.5405,216.7969 543.5405,217.1406 Q543.5405,217.4844 543.1968,217.8906 Q542.6968,218.4688 541.8999,218.7969 Q540.8218,219.25 539.5249,219.25 Q538.0093,219.25 536.8062,218.625 Q535.8218,218.125 535.1343,217.0625 Q534.4468,215.9844 534.4468,214.7031 L534.4468,213.5469 Q534.4468,212.2188 535.0562,211.0781 Q535.6812,209.9219 536.7749,209.3125 Q537.8687,208.6875 539.103,208.6875 Q539.8374,208.6875 540.478,208.8594 Q541.1343,209.0156 541.6812,209.375 Z " fill="#000000"/><text fill="#000000" font-family="sans-serif" font-size="14" lengthAdjust="spacing" textLength="47.4482" x="559.4155" y="219.2285">KD&#31934;&#31070;</text><line style="stroke:#181818;stroke-width:0.5;" x1="488" x2="645.7793" y1="229.5" y2="229.5"/><ellipse cx="498" cy="243.8047" fill="none" rx="3" ry="3" style="stroke:#038048;stroke-width:1;"/><text fill="#000000" font-family="sans-serif" font-size="14" lengthAdjust="spacing" textLength="91.7793" x="507" y="248.0332">&#26680;&#24515;: &#36866;&#24212;&#21464;&#21270;</text><ellipse cx="498" cy="261.4141" fill="none" rx="3" ry="3" style="stroke:#038048;stroke-width:1;"/><text fill="#000000" font-family="sans-serif" font-size="14" lengthAdjust="spacing" textLength="91.7793" x="507" y="265.6426">&#26041;&#27861;: &#37325;&#24314;&#25171;&#27861;</text><ellipse cx="498" cy="279.0234" fill="none" rx="3" ry="3" style="stroke:#038048;stroke-width:1;"/><text fill="#000000" font-family="sans-serif" font-size="14" lengthAdjust="spacing" textLength="119.7793" x="507" y="283.252">&#20449;&#24565;: &#32451;&#20064;&#22609;&#36896;&#19978;&#38480;</text><ellipse cx="498" cy="296.6328" fill="none" rx="3" ry="3" style="stroke:#038048;stroke-width:1;"/><text fill="#000000" font-family="sans-serif" font-size="14" lengthAdjust="spacing" textLength="133.7793" x="507" y="300.8613">&#21407;&#21017;: &#19981;&#22240;&#21463;&#38480;&#32780;&#20572;&#19979;</text><line style="stroke:#181818;stroke-width:0.5;" x1="488" x2="645.7793" y1="307.9375" y2="307.9375"/></g><!--class ??--><g class="entity" data-entity="&#32771;&#30740;" data-source-line="16" data-uid="ent0004" id="entity_&#32771;&#30740;"><rect fill="#F1F1F1" height="100.8281" rx="2.5" ry="2.5" style="stroke:#181818;stroke-width:0.5;" width="169.1172" x="341.5" y="1104"/><ellipse cx="407.8086" cy="1120" fill="#ADD1B2" rx="11" ry="11" style="stroke:#181818;stroke-width:1;"/><path d="M410.5742,1115.875 Q410.7305,1115.6563 410.918,1115.5469 Q411.1055,1115.4375 411.3242,1115.4375 Q411.6992,1115.4375 411.9336,1115.7031 Q412.168,1115.9531 412.168,1116.5625 L412.168,1118.0156 Q412.168,1118.625 411.9336,1118.8906 Q411.6992,1119.1563 411.3242,1119.1563 Q410.9805,1119.1563 410.7773,1118.9531 Q410.5742,1118.7656 410.4648,1118.25 Q410.418,1117.8906 410.2305,1117.7031 Q409.9023,1117.3281 409.293,1117.1094 Q408.6836,1116.8906 408.0586,1116.8906 Q407.293,1116.8906 406.6523,1117.2188 Q406.0273,1117.5469 405.5273,1118.2969 Q405.043,1119.0469 405.043,1120.0781 L405.043,1121.1719 Q405.043,1122.4063 405.9336,1123.2344 Q406.8242,1124.0469 408.418,1124.0469 Q409.3555,1124.0469 410.0117,1123.7969 Q410.4023,1123.6406 410.8242,1123.2031 Q411.0898,1122.9375 411.2305,1122.8594 Q411.3867,1122.7813 411.5898,1122.7813 Q411.918,1122.7813 412.168,1123.0469 Q412.4336,1123.2969 412.4336,1123.6406 Q412.4336,1123.9844 412.0898,1124.3906 Q411.5898,1124.9688 410.793,1125.2969 Q409.7148,1125.75 408.418,1125.75 Q406.9023,1125.75 405.6992,1125.125 Q404.7148,1124.625 404.0273,1123.5625 Q403.3398,1122.4844 403.3398,1121.2031 L403.3398,1120.0469 Q403.3398,1118.7188 403.9492,1117.5781 Q404.5742,1116.4219 405.668,1115.8125 Q406.7617,1115.1875 407.9961,1115.1875 Q408.7305,1115.1875 409.3711,1115.3594 Q410.0273,1115.5156 410.5742,1115.875 Z " fill="#000000"/><text fill="#000000" font-family="sans-serif" font-size="14" lengthAdjust="spacing" textLength="28" x="428.3086" y="1125.7285">&#32771;&#30740;</text><line style="stroke:#181818;stroke-width:0.5;" x1="342.5" x2="509.6172" y1="1136" y2="1136"/><ellipse cx="352.5" cy="1150.3047" fill="none" rx="3" ry="3" style="stroke:#038048;stroke-width:1;"/><text fill="#000000" font-family="sans-serif" font-size="14" lengthAdjust="spacing" textLength="91.7793" x="361.5" y="1154.5332">&#26412;&#36136;: &#38271;&#26399;&#25112;&#26007;</text><ellipse cx="352.5" cy="1167.9141" fill="none" rx="3" ry="3" style="stroke:#038048;stroke-width:1;"/><text fill="#000000" font-family="sans-serif" font-size="14" lengthAdjust="spacing" textLength="143.1172" x="361.5" y="1172.1426">&#22256;&#38590;: &#39640;&#21387; / &#21453;&#22797; / &#23396;&#29420;</text><ellipse cx="352.5" cy="1185.5234" fill="none" rx="3" ry="3" style="stroke:#038048;stroke-width:1;"/><text fill="#000000" font-family="sans-serif" font-size="14" lengthAdjust="spacing" textLength="119.7793" x="361.5" y="1189.752">&#22238;&#25253;: &#36827;&#20837;&#26356;&#39640;&#24179;&#21488;</text><line style="stroke:#181818;stroke-width:0.5;" x1="342.5" x2="509.6172" y1="1196.8281" y2="1196.8281"/></g><!--class ??--><g class="entity" data-entity="&#35757;&#32451;" data-source-line="22" data-uid="ent0005" id="entity_&#35757;&#32451;"><rect fill="#F1F1F1" height="100.8281" rx="2.5" ry="2.5" style="stroke:#181818;stroke-width:0.5;" width="177.6895" x="460" y="925"/><ellipse cx="530.5947" cy="941" fill="#ADD1B2" rx="11" ry="11" style="stroke:#181818;stroke-width:1;"/><path d="M533.3604,936.875 Q533.5166,936.6563 533.7041,936.5469 Q533.8916,936.4375 534.1104,936.4375 Q534.4854,936.4375 534.7197,936.7031 Q534.9541,936.9531 534.9541,937.5625 L534.9541,939.0156 Q534.9541,939.625 534.7197,939.8906 Q534.4854,940.1563 534.1104,940.1563 Q533.7666,940.1563 533.5635,939.9531 Q533.3604,939.7656 533.251,939.25 Q533.2041,938.8906 533.0166,938.7031 Q532.6885,938.3281 532.0791,938.1094 Q531.4697,937.8906 530.8447,937.8906 Q530.0791,937.8906 529.4385,938.2188 Q528.8135,938.5469 528.3135,939.2969 Q527.8291,940.0469 527.8291,941.0781 L527.8291,942.1719 Q527.8291,943.4063 528.7197,944.2344 Q529.6104,945.0469 531.2041,945.0469 Q532.1416,945.0469 532.7979,944.7969 Q533.1885,944.6406 533.6104,944.2031 Q533.876,943.9375 534.0166,943.8594 Q534.1729,943.7813 534.376,943.7813 Q534.7041,943.7813 534.9541,944.0469 Q535.2197,944.2969 535.2197,944.6406 Q535.2197,944.9844 534.876,945.3906 Q534.376,945.9688 533.5791,946.2969 Q532.501,946.75 531.2041,946.75 Q529.6885,946.75 528.4854,946.125 Q527.501,945.625 526.8135,944.5625 Q526.126,943.4844 526.126,942.2031 L526.126,941.0469 Q526.126,939.7188 526.7354,938.5781 Q527.3604,937.4219 528.4541,936.8125 Q529.5479,936.1875 530.7822,936.1875 Q531.5166,936.1875 532.1572,936.3594 Q532.8135,936.5156 533.3604,936.875 Z " fill="#000000"/><text fill="#000000" font-family="sans-serif" font-size="14" lengthAdjust="spacing" textLength="28" x="551.0947" y="946.7285">&#35757;&#32451;</text><line style="stroke:#181818;stroke-width:0.5;" x1="461" x2="636.6895" y1="957" y2="957"/><ellipse cx="471" cy="971.3047" fill="none" rx="3" ry="3" style="stroke:#038048;stroke-width:1;"/><text fill="#000000" font-family="sans-serif" font-size="14" lengthAdjust="spacing" textLength="63.7793" x="480" y="975.5332">&#36755;&#20837;: &#19987;&#27880;</text><ellipse cx="471" cy="988.9141" fill="none" rx="3" ry="3" style="stroke:#038048;stroke-width:1;"/><text fill="#000000" font-family="sans-serif" font-size="14" lengthAdjust="spacing" textLength="151.6895" x="480" y="993.1426">&#36807;&#31243;: &#22797;&#30424; + &#32416;&#38169; + &#37325;&#20570;</text><ellipse cx="471" cy="1006.5234" fill="none" rx="3" ry="3" style="stroke:#038048;stroke-width:1;"/><text fill="#000000" font-family="sans-serif" font-size="14" lengthAdjust="spacing" textLength="91.7793" x="480" y="1010.752">&#32467;&#26524;: &#31283;&#23450;&#25552;&#21319;</text><line style="stroke:#181818;stroke-width:0.5;" x1="461" x2="636.6895" y1="1017.8281" y2="1017.8281"/></g><!--class ??--><g class="entity" data-entity="&#20302;&#35895;" data-source-line="28" data-uid="ent0006" id="entity_&#20302;&#35895;"><rect fill="#F1F1F1" height="83.2188" rx="2.5" ry="2.5" style="stroke:#181818;stroke-width:0.5;" width="159.7793" x="394" y="585"/><ellipse cx="455.6396" cy="601" fill="#ADD1B2" rx="11" ry="11" style="stroke:#181818;stroke-width:1;"/><path d="M458.4053,596.875 Q458.5615,596.6563 458.749,596.5469 Q458.9365,596.4375 459.1553,596.4375 Q459.5303,596.4375 459.7646,596.7031 Q459.999,596.9531 459.999,597.5625 L459.999,599.0156 Q459.999,599.625 459.7646,599.8906 Q459.5303,600.1563 459.1553,600.1563 Q458.8115,600.1563 458.6084,599.9531 Q458.4053,599.7656 458.2959,599.25 Q458.249,598.8906 458.0615,598.7031 Q457.7334,598.3281 457.124,598.1094 Q456.5146,597.8906 455.8896,597.8906 Q455.124,597.8906 454.4834,598.2188 Q453.8584,598.5469 453.3584,599.2969 Q452.874,600.0469 452.874,601.0781 L452.874,602.1719 Q452.874,603.4063 453.7646,604.2344 Q454.6553,605.0469 456.249,605.0469 Q457.1865,605.0469 457.8428,604.7969 Q458.2334,604.6406 458.6553,604.2031 Q458.9209,603.9375 459.0615,603.8594 Q459.2178,603.7813 459.4209,603.7813 Q459.749,603.7813 459.999,604.0469 Q460.2646,604.2969 460.2646,604.6406 Q460.2646,604.9844 459.9209,605.3906 Q459.4209,605.9688 458.624,606.2969 Q457.5459,606.75 456.249,606.75 Q454.7334,606.75 453.5303,606.125 Q452.5459,605.625 451.8584,604.5625 Q451.1709,603.4844 451.1709,602.2031 L451.1709,601.0469 Q451.1709,599.7188 451.7803,598.5781 Q452.4053,597.4219 453.499,596.8125 Q454.5928,596.1875 455.8271,596.1875 Q456.5615,596.1875 457.2021,596.3594 Q457.8584,596.5156 458.4053,596.875 Z " fill="#000000"/><text fill="#000000" font-family="sans-serif" font-size="14" lengthAdjust="spacing" textLength="28" x="476.1396" y="606.7285">&#20302;&#35895;</text><line style="stroke:#181818;stroke-width:0.5;" x1="395" x2="552.7793" y1="617" y2="617"/><ellipse cx="405" cy="631.3047" fill="none" rx="3" ry="3" style="stroke:#038048;stroke-width:1;"/><text fill="#000000" font-family="sans-serif" font-size="14" lengthAdjust="spacing" textLength="77.7793" x="414" y="635.5332">&#34920;&#29616;: &#24819;&#25918;&#24323;</text><ellipse cx="405" cy="648.9141" fill="none" rx="3" ry="3" style="stroke:#038048;stroke-width:1;"/><text fill="#000000" font-family="sans-serif" font-size="14" lengthAdjust="spacing" textLength="133.7793" x="414" y="653.1426">&#22788;&#29702;: &#20808;&#22352;&#19979;&#65292;&#20877;&#31449;&#36215;</text><line style="stroke:#181818;stroke-width:0.5;" x1="395" x2="552.7793" y1="660.2188" y2="660.2188"/></g><g class="entity" data-entity="GMN13" data-source-line="41" data-uid="ent0014" id="entity_GMN13"><path d="M682.5,6 L682.5,252.5 L647.29,256.5 L682.5,260.5 L682.5,506.5469 A0,0 0 0 0 682.5,506.5469 L1081.9473,506.5469 A0,0 0 0 0 1081.9473,506.5469 L1081.9473,16 L1071.9473,6 L682.5,6 A0,0 0 0 0 682.5,6" fill="#FEFFDD" style="stroke:#181818;stroke-width:0.5;"/><path d="M1071.9473,6 L1071.9473,16 L1081.9473,16 L1071.9473,6" fill="#FEFFDD" style="stroke:#181818;stroke-width:0.5;"/><text fill="#000000" font-family="sans-serif" font-size="13" lengthAdjust="spacing" textLength="144.46" x="805.4937" y="24.4951">&#171;&#20687;&#26460;&#20848;&#29305;&#19968;&#26679;&#37325;&#24314;&#33258;&#24049;&#187;</text><text fill="#000000" font-family="sans-serif" font-size="13" lengthAdjust="spacing" textLength="3.6118" x="875.9177" y="40.8467">&#160;</text><text fill="#000000" font-family="sans-serif" font-size="13" lengthAdjust="spacing" textLength="220.124" x="767.6616" y="57.1982">&#20320;&#35201;&#35760;&#20303;&#30340;,&#19981;&#26159;"KD&#22825;&#29983;&#26377;&#22810;&#24378;",&#32780;&#26159;:</text><text fill="#000000" font-family="sans-serif" font-size="13" lengthAdjust="spacing" textLength="3.6118" x="875.9177" y="73.5498">&#160;</text><text fill="#000000" font-family="sans-serif" font-size="13" lengthAdjust="spacing" textLength="378.4473" x="688.5" y="89.9014">&#30495;&#27491;&#30340;&#24378;&#32773;,&#19981;&#26159;&#20174;&#19981;&#21464;&#21270;,&#32780;&#26159;&#22312;&#27599;&#19968;&#27425;&#21464;&#21270;&#20043;&#21518;,&#37117;&#33021;&#37325;&#26032;&#38271;&#20986;&#26469;.</text><text fill="#000000" font-family="sans-serif" font-size="13" lengthAdjust="spacing" textLength="3.6118" x="875.9177" y="106.2529">&#160;</text><text fill="#000000" font-family="sans-serif" font-size="13" lengthAdjust="spacing" textLength="172.6118" x="791.4177" y="122.6045">&#20182;&#19981;&#26159;&#19968;&#30452;&#29992;&#21516;&#19968;&#22871;&#25171;&#27861;&#36194;&#29699;.</text><text fill="#000000" font-family="sans-serif" font-size="13" lengthAdjust="spacing" textLength="265.0591" x="745.1941" y="138.9561">&#36523;&#20307;&#21464;&#20102;,&#38450;&#23432;&#21464;&#20102;,&#20260;&#30149;&#26469;&#20102;,&#26102;&#20195;&#21464;&#20102;,&#20182;&#23601;&#25913;.</text><text fill="#000000" font-family="sans-serif" font-size="13" lengthAdjust="spacing" textLength="111.2236" x="822.1118" y="155.3076">&#19981;&#26159;&#36864;&#27493;,&#32780;&#26159;&#36827;&#21270;.</text><text fill="#000000" font-family="sans-serif" font-size="13" lengthAdjust="spacing" textLength="111.2236" x="822.1118" y="171.6592">&#19981;&#26159;&#35748;&#36755;,&#32780;&#26159;&#37325;&#26500;.</text><text fill="#000000" font-family="sans-serif" font-size="13" lengthAdjust="spacing" textLength="246.6826" x="754.3823" y="188.0107">&#19981;&#26159;"&#25105;&#21482;&#33021;&#36825;&#26679;",&#32780;&#26159;"&#25105;&#36824;&#33021;&#20877;&#21319;&#32423;&#19968;&#27425;".</text><text fill="#000000" font-family="sans-serif" font-size="13" lengthAdjust="spacing" textLength="3.6118" x="875.9177" y="204.3623">&#160;</text><text fill="#000000" font-family="sans-serif" font-size="13" lengthAdjust="spacing" textLength="124.2236" x="815.6118" y="220.7139">&#20320;&#29616;&#22312;&#32771;&#30740;,&#20063;&#26159;&#19968;&#26679;.</text><text fill="#000000" font-family="sans-serif" font-size="13" lengthAdjust="spacing" textLength="3.6118" x="875.9177" y="237.0654">&#160;</text><text fill="#000000" font-family="sans-serif" font-size="13" lengthAdjust="spacing" textLength="207.8413" x="773.803" y="253.417">&#20320;&#19981;&#26159;&#22312;&#21644;"&#21035;&#20154;&#19968;&#24320;&#22987;&#26377;&#22810;&#24378;"&#31454;&#20105;,</text><text fill="#000000" font-family="sans-serif" font-size="13" lengthAdjust="spacing" textLength="207.8413" x="773.803" y="269.7686">&#20320;&#26159;&#22312;&#21644;"&#33258;&#24049;&#33021;&#19981;&#33021;&#22362;&#25345;&#21319;&#32423;"&#31454;&#20105;.</text><text fill="#000000" font-family="sans-serif" font-size="13" lengthAdjust="spacing" textLength="3.6118" x="875.9177" y="286.1201">&#160;</text><text fill="#000000" font-family="sans-serif" font-size="13" lengthAdjust="spacing" textLength="85.2236" x="835.1118" y="302.4717">&#21271;&#22823;,&#27993;&#22823;&#24456;&#38590;.</text><text fill="#000000" font-family="sans-serif" font-size="13" lengthAdjust="spacing" textLength="98.2236" x="828.6118" y="318.8232">&#38590;,&#27491;&#35828;&#26126;&#23427;&#20540;&#24471;.</text><text fill="#000000" font-family="sans-serif" font-size="13" lengthAdjust="spacing" textLength="261.4473" x="747" y="335.1748">&#20320;&#29616;&#22312;&#30340;&#22797;&#20064;,&#32972;&#35829;,&#21453;&#22797;&#38169;&#39064;,&#23849;&#28291;&#21518;&#20877;&#22352;&#22238;&#26469;,</text><text fill="#000000" font-family="sans-serif" font-size="13" lengthAdjust="spacing" textLength="184.8945" x="785.2764" y="351.5264">&#26412;&#36136;&#19978;&#37117;&#21644; KD &#20570;&#30340;&#26159;&#21516;&#19968;&#20214;&#20107;:</text><text fill="#000000" font-family="sans-serif" font-size="13" lengthAdjust="spacing" textLength="3.6118" x="875.9177" y="367.8779">&#160;</text><text fill="#000000" font-family="sans-serif" font-size="13" lengthAdjust="spacing" textLength="309.8354" x="722.8059" y="384.2295">&#25226;&#22825;&#36171;&#20132;&#32473;&#36215;&#28857;,&#25226;&#32467;&#26524;&#20132;&#32473;&#35757;&#32451;,&#25226;&#21629;&#36816;&#20132;&#32473;&#25345;&#32493;&#35843;&#25972;.</text><text fill="#000000" font-family="sans-serif" font-size="13" lengthAdjust="spacing" textLength="3.6118" x="875.9177" y="400.5811">&#160;</text><text fill="#000000" font-family="sans-serif" font-size="13" lengthAdjust="spacing" textLength="211.6118" x="771.9177" y="416.9326">&#20320;&#21487;&#20197;&#25226;&#36825;&#21477;&#35805;&#24403;&#25104;&#33258;&#24049;&#30340;&#24213;&#23618;&#20449;&#24565;:</text><text fill="#000000" font-family="sans-serif" font-size="13" lengthAdjust="spacing" textLength="3.6118" x="875.9177" y="433.2842">&#160;</text><text fill="#000000" font-family="sans-serif" font-size="13" lengthAdjust="spacing" textLength="120.6118" x="817.4177" y="449.6357">&#25105;&#19981;&#24517;&#19968;&#24320;&#22987;&#23601;&#23436;&#32654;.</text><text fill="#000000" font-family="sans-serif" font-size="13" lengthAdjust="spacing" textLength="357.5063" x="698.9705" y="465.9873">&#25105;&#21482;&#38656;&#35201;&#20687;KD&#19968;&#26679;,&#22312;&#27599;&#19968;&#27425;&#21463;&#38480;,&#27599;&#19968;&#27425;&#22833;&#35823;,&#27599;&#19968;&#27425;&#20302;&#35895;&#20043;&#21518;,</text><text fill="#000000" font-family="sans-serif" font-size="13" lengthAdjust="spacing" textLength="166.8354" x="794.3059" y="482.3389">&#37325;&#26032;&#36866;&#37197;,&#37325;&#26032;&#35757;&#32451;,&#37325;&#26032;&#21464;&#24378;.</text><text fill="#000000" font-family="sans-serif" font-size="13" lengthAdjust="spacing" textLength="293.2236" x="731.1118" y="498.6904">&#25105;&#19981;&#26159;&#38752;&#19968;&#26102;&#30340;&#29366;&#24577;&#21462;&#32988;,&#25105;&#38752;&#38271;&#26399;&#30340;&#36827;&#21270;&#25269;&#36798;&#30446;&#26631;.</text></g><g class="entity" data-entity="GMN16" data-source-line="74" data-uid="ent0017" id="entity_GMN16"><path d="M6,104.5 L6,408.8281 A0,0 0 0 0 6,408.8281 L451.6709,408.8281 A0,0 0 0 0 451.6709,408.8281 L451.6709,260.5 L486.68,256.5 L451.6709,252.5 L451.6709,114.5 L441.6709,104.5 L6,104.5 A0,0 0 0 0 6,104.5" fill="#FEFFDD" style="stroke:#181818;stroke-width:0.5;"/><path d="M441.6709,104.5 L441.6709,114.5 L451.6709,114.5 L441.6709,104.5" fill="#FEFFDD" style="stroke:#181818;stroke-width:0.5;"/><text fill="#000000" font-family="sans-serif" font-size="13" lengthAdjust="spacing" textLength="133.6118" x="155.7236" y="122.9951">&#25105;&#30340;&#20598;&#20687;&#26159;&#20975;&#25991;&#26460;&#20848;&#29305;.</text><text fill="#000000" font-family="sans-serif" font-size="13" lengthAdjust="spacing" textLength="133.6118" x="155.7236" y="139.3467">&#23427;&#30340;&#31726;&#29699;&#25216;&#26415;&#21313;&#20998;&#24378;&#21170;.</text><text fill="#000000" font-family="sans-serif" font-size="13" lengthAdjust="spacing" textLength="3.6118" x="222.5295" y="155.6982">&#160;</text><text fill="#000000" font-family="sans-serif" font-size="13" lengthAdjust="spacing" textLength="416.7427" x="14.1582" y="172.0498">15&#24180;&#29756;&#26031;&#39592;&#25240;&#21069;, &#26377;&#20182;&#30340;&#19968;&#22871;&#25171;&#27861;, &#20043;&#21518;&#20026;&#20102;&#36866;&#24212;&#36523;&#20307;, &#25913;&#21464;&#20102;&#21478;&#19968;&#22871;&#25171;&#27861;.</text><text fill="#000000" font-family="sans-serif" font-size="13" lengthAdjust="spacing" textLength="259.2954" x="92.8818" y="188.4014">19&#24180;&#36319;&#33137;&#26029;&#35010;, &#22797;&#20986;&#21518;&#21448;&#25913;&#21464;&#20102;&#25216;&#26415;&#25171;&#27861;&#31574;&#30053;.</text><text fill="#000000" font-family="sans-serif" font-size="13" lengthAdjust="spacing" textLength="3.6118" x="222.5295" y="204.7529">&#160;</text><text fill="#000000" font-family="sans-serif" font-size="13" lengthAdjust="spacing" textLength="317.0591" x="64" y="221.1045">&#30475;&#20102;&#20182;&#21508;&#20010;&#24180;&#40836;&#27573;&#30340;&#25237;&#31726;&#23039;&#21183;, &#37117;&#26159;&#19981;&#21516;&#30340;, &#33258;&#36866;&#24212;&#21464;&#21270;.</text><text fill="#000000" font-family="sans-serif" font-size="13" lengthAdjust="spacing" textLength="3.6118" x="222.5295" y="237.4561">&#160;</text><text fill="#000000" font-family="sans-serif" font-size="13" lengthAdjust="spacing" textLength="390.73" x="27.1646" y="253.8076">&#25105;&#26366;&#35748;&#20026;, &#25171;&#29699;&#21040;&#26576;&#20010;&#24180;&#40836;&#27573;, &#25216;&#25112;&#26415;, &#21160;&#20316;&#31561;&#31561;, &#23601;&#22266;&#21270;&#20102;, &#19981;&#20877;&#25913;&#21464;.</text><text fill="#000000" font-family="sans-serif" font-size="13" lengthAdjust="spacing" textLength="421.0591" x="12" y="270.1592">&#20294;&#26159;&#39030;&#32423;&#30340;&#29699;&#21592;, &#24635;&#26159;&#22312;&#21160;&#24577;&#22320;&#35843;&#25972;&#30528;&#33258;&#24049;, &#20197;&#26399;&#26395;&#22312;&#29699;&#22330;&#19978;&#26377;&#26356;&#22909;&#30340;&#34920;&#29616;.</text><text fill="#000000" font-family="sans-serif" font-size="13" lengthAdjust="spacing" textLength="3.6118" x="222.5295" y="286.5107">&#160;</text><text fill="#000000" font-family="sans-serif" font-size="13" lengthAdjust="spacing" textLength="400.8354" x="22.1118" y="302.8623">&#20182;&#26377;&#30528;&#39030;&#32423;&#30340;&#38745;&#24577;&#22825;&#36171;, &#20294;&#26159;&#38745;&#24577;&#22825;&#36171;&#19981;&#20250;&#32473;&#20320;&#21382;&#21490;&#32423;&#21035;&#30340;&#25237;&#31726;&#20934;&#30830;&#24230;.</text><text fill="#000000" font-family="sans-serif" font-size="13" lengthAdjust="spacing" textLength="317.0591" x="64" y="319.2139">&#36825;&#38656;&#35201;&#32451;&#20064;, &#26497;&#33268;&#30340;&#32451;&#20064;. &#22825;&#36171;&#19981;&#20250;&#32473;&#20320;&#21382;&#21490;&#31532;&#19968;&#30340;&#20013;&#25237;.</text><text fill="#000000" font-family="sans-serif" font-size="13" lengthAdjust="spacing" textLength="3.6118" x="222.5295" y="335.5654">&#160;</text><text fill="#000000" font-family="sans-serif" font-size="13" lengthAdjust="spacing" textLength="314.2026" x="65.4282" y="351.917">19&#20061;&#24180;&#20182;&#24378;&#34892;&#22797;&#20986;, &#25340;&#26029;&#36319;&#33137;, 21&#24180;&#36951;&#25022;&#36393;&#32447;, &#32456;&#34987;&#36870;&#36716;,</text><text fill="#000000" font-family="sans-serif" font-size="13" lengthAdjust="spacing" textLength="166.8354" x="140.9177" y="368.2686">&#22914;&#20170;&#39072;&#27803;&#27969;&#31163;, &#20173;&#22312;&#35777;&#26126;&#33258;&#24049;.</text><text fill="#000000" font-family="sans-serif" font-size="13" lengthAdjust="spacing" textLength="3.6118" x="222.5295" y="384.6201">&#160;</text><text fill="#000000" font-family="sans-serif" font-size="13" lengthAdjust="spacing" textLength="239.0718" x="104.7996" y="400.9717">&#20320;&#36935;&#21040;&#30340;&#26159;&#20160;&#20040;? &#23567;&#23567;&#30340;&#25387;&#25240;&#23601;&#38590;&#21040;&#20320;&#20102;?</text></g><g class="entity" data-entity="GMN19" data-source-line="95" data-uid="ent0020" id="entity_GMN19"><path d="M673,954 L673,996.7031 A0,0 0 0 0 673,996.7031 L837,996.7031 A0,0 0 0 0 837,996.7031 L837,964 L827,954 L735.06,954 L606.66,847.04 L727.06,954 L673,954 A0,0 0 0 0 673,954" fill="#FEFFDD" style="stroke:#181818;stroke-width:0.5;"/><path d="M827,954 L827,964 L837,964 L827,954" fill="#FEFFDD" style="stroke:#181818;stroke-width:0.5;"/><text fill="#000000" font-family="sans-serif" font-size="13" lengthAdjust="spacing" textLength="143" x="679" y="972.4951">&#25105;&#19981;&#26159;&#22312;&#35777;&#26126;&#25105;&#22825;&#29983;&#26368;&#24378;</text><text fill="#000000" font-family="sans-serif" font-size="13" lengthAdjust="spacing" textLength="143" x="679" y="988.8467">&#25105;&#26159;&#22312;&#35777;&#26126;&#25105;&#33021;&#19968;&#30452;&#21464;&#24378;</text></g><!--link ? to KD??--><g class="link" data-entity-1="&#25105;" data-entity-2="KD&#31934;&#31070;" data-source-line="33" data-uid="lnk7" id="link_&#25105;_KD&#31934;&#31070;"><path codeLine="33" d="M567.23,745.58 C570.04,735.89 572.51,725.72 574,716 C575.21,708.09 574.06,706 574,698 C572.91,560.9 570.0303,405.8288 568.3403,321.5688" fill="none" id="&#25105;-to-KD&#31934;&#31070;" style="stroke:#181818;stroke-width:1;"/><polygon fill="#181818" points="568.22,315.57,564.4013,324.6484,568.3203,320.569,572.3997,324.488,568.22,315.57" style="stroke:#181818;stroke-width:1;"/><text fill="#000000" font-family="sans-serif" font-size="13" lengthAdjust="spacing" textLength="26" x="575" y="631.9951">&#23398;&#20064;</text></g><!--link ? to ??--><g class="link" data-entity-1="&#25105;" data-entity-2="&#32771;&#30740;" data-source-line="34" data-uid="lnk8" id="link_&#25105;_&#32771;&#30740;"><path codeLine="34" d="M484.25,840.23 C457.16,862.02 428.61,891.1 414,925 C389.23,982.46 398.0716,1049.8677 409.6316,1097.7377" fill="none" id="&#25105;-to-&#32771;&#30740;" style="stroke:#181818;stroke-width:1;"/><polygon fill="#181818" points="411.04,1103.57,412.8156,1093.8825,409.8663,1098.7097,405.0391,1095.7604,411.04,1103.57" style="stroke:#181818;stroke-width:1;"/><text fill="#000000" font-family="sans-serif" font-size="13" lengthAdjust="spacing" textLength="26" x="415" y="980.9951">&#22868;&#36212;</text></g><!--link ? to ??--><g class="link" data-entity-1="&#25105;" data-entity-2="&#35757;&#32451;" data-source-line="35" data-uid="lnk9" id="link_&#25105;_&#35757;&#32451;"><path codeLine="35" d="M549,847.28 C549,871.51 549,894.57 549,918.79" fill="none" id="&#25105;-to-&#35757;&#32451;" style="stroke:#181818;stroke-width:1;"/><polygon fill="#181818" points="549,924.79,553,915.79,549,919.79,545,915.79,549,924.79" style="stroke:#181818;stroke-width:1;"/><text fill="#000000" font-family="sans-serif" font-size="13" lengthAdjust="spacing" textLength="26" x="550" y="891.4951">&#25191;&#34892;</text></g><!--link ?? to ?--><g class="link" data-entity-1="&#20302;&#35895;" data-entity-2="&#25105;" data-source-line="36" data-uid="lnk10" id="link_&#20302;&#35895;_&#25105;"><path codeLine="36" d="M492.16,668.17 C502.6,691.57 513.3648,715.6709 524.4148,740.4309" fill="none" id="&#20302;&#35895;-to-&#25105;" style="stroke:#181818;stroke-width:1;"/><polygon fill="#181818" points="526.86,745.91,526.8449,736.0612,524.8223,741.3441,519.5394,739.3215,526.86,745.91" style="stroke:#181818;stroke-width:1;"/><text fill="#000000" font-family="sans-serif" font-size="13" lengthAdjust="spacing" textLength="52" x="513" y="712.4951">&#35797;&#22270;&#20987;&#36864;</text></g><!--link KD?? to ??--><g class="link" data-entity-1="KD&#31934;&#31070;" data-entity-2="&#20302;&#35895;" data-source-line="37" data-uid="lnk11" id="link_KD&#31934;&#31070;_&#20302;&#35895;"><path codeLine="37" d="M552.26,315.81 C533.29,390.9 502.2599,513.6628 485.7499,579.0028" fill="none" id="KD&#31934;&#31070;-to-&#20302;&#35895;" style="stroke:#181818;stroke-width:1;"/><polygon fill="#181818" points="484.28,584.82,490.3629,577.0742,485.5049,579.9724,482.6067,575.1143,484.28,584.82" style="stroke:#181818;stroke-width:1;"/><text fill="#000000" font-family="sans-serif" font-size="13" lengthAdjust="spacing" textLength="52" x="496" y="551.4951">&#25552;&#20379;&#31572;&#26696;</text></g><!--link ?? to ??--><g class="link" data-entity-1="&#35757;&#32451;" data-entity-2="&#32771;&#30740;" data-source-line="38" data-uid="lnk12" id="link_&#35757;&#32451;_&#32771;&#30740;"><path codeLine="38" d="M514.41,1026.28 C497.57,1050.51 480.8052,1074.6437 463.9652,1098.8637" fill="none" id="&#35757;&#32451;-to-&#32771;&#30740;" style="stroke:#181818;stroke-width:1;"/><polygon fill="#181818" points="460.54,1103.79,468.962,1098.6841,463.3943,1099.6848,462.3936,1094.1171,460.54,1103.79" style="stroke:#181818;stroke-width:1;"/><text fill="#000000" font-family="sans-serif" font-size="13" lengthAdjust="spacing" textLength="52" x="493" y="1070.4951">&#31215;&#32047;&#32988;&#29575;</text></g><!--SRC=[TLRTJXj75BxVfrXncushLEf5K9IeKkvosnUWAKcZ9gHAg5IfghJ6O1l_9nXZi0qsiS49-0TY0zxrpylicPczwYlqEpkBJIfLiYpFcPdp-ttV-FrlhzP-NtctyiPyklfYvO_Nwp-j_hd-u-jNBzVUhAwjcy_njVhEC9w_Ndd_tXJ93-PVXcdUavMkg2UMJShiKVFK_CuKmtty2BPILyAEBfkYkYtshcJfKiJEsEwvBgKQiFVorFmitLFfTeo_Rpq_Uoelfx9rgDsB-WtDOikcRs-GKwHycJAbm5uQYQ-xi2Uov3fYUmUhmFUiGRFXiYdTc3UgK-E3RzUzcvI_N-1ToXrHSd_Pz6woLAbJVWzsPMSeMlLkqeiKb1sJzMAOGFLS3Te8j3iJrIEHB8lINk2gqlSFfh2VbIcNHjsKpr8popywJPa-rsSEHQgrRAfPXRPQeZBWmwElbE_VYTNj85STIqrtS8xJGpdjm39Bo7OQtMrcPQLitZEbK_UB-_Z1XKSFWZQxE-AmYfBRNwbx8F85oYOM_hr9JlMlG_-DjiprqVZOLr6SqZWM9DdSb8KuGcmbgLP07_uPPoYUbMVxQdZDVdZKz-y_NWm6PpidwEvy9-mNxAsY6WuMTbqR0cwVgaR627FXBJw2nlHsgJAbXElRjZ7tp_lXKLpD5xnfHNQAef4qGeVVn9IdFJdegLXLvXA6iVPsVTLyz-hbh-lcsnVpb8r7ZoYM5xKgRVNbziYxiKNzMaD79RxGzSNZnmQogwkJgEhslKbU7cnQ08aezvQUFMMG5e-0OceUqDXPiW0Px2mRXWGYEfzm66PbRuLNF3V700km6fwbQXjevxZd3RtXZT9Ko5b-RA9Y4wGYIdr0Z1AEgBKYICOjXSvkR5aPo6AR2XdyfjQU1hiQ7ij2B68evyoRxC2dvyGjltn9tMIuyCPDkRS5Txm00Jttq-sEMwB-XIYE8eOEWlQBJYlCbT6QATrkgMuJi0otEC_3pTkj9GoHyb-Glvhjew6tZM6xcfLX1uu0HkcSwigN8a6NWK7qGm_GyaP7kaeuqDlQEKxGnymI9Syyn-72npQTfXT3a6U7dhDjyON5QJrC18OF3byx49cepY2yW11QgIojKpHDWiOH0ryMHgbw0r7EKJT6zfYcUv55kZpaPXQejrGietf3I_CTPFIFonODFWidXe5onRK24x_MiWmj7gm_IEPZ1dWqGLguufI3UNhkbUUa0IMHIW5dQfZsdAPqcNjoOsJ1gkaTMWFyivK-eEa5RKMDK53LZudTWMuXvG725evXC9HlgLwD9ZiYMT3zuLASNRhO2CKoe3WZThOrRpJmGTsCdEOYXfwoNxN13h3esLCzBEjRJBEKMejryqBrUekrfdE8UIE4kxtXRsKjlGWhqmjcoDY9X6anxcfrzeD7v61JlogKBu7o5avWJsipzZHqHMgefbFzC4MCrRLVJ5Q5K1jUhxxuLXhWWXiIlMA5m5WIFL5ApAKYOXf00uVjTS4taR95jKVPA2NZI95IbpXWFFY1HWDP68jIp__I5gaoRMSjVlP0D5ozIrlBr4tmRXmmKRzgciAuK1nfWbB-vEuTX7Zm417KzP7QkX2bZlgqOV6J0BLWoEMJyviwFtrDTafojyNvoIfG5MVM5v3C5xZofvkYEsGWfdPH6PtEA3MpJC0q86CMu6G9D06OkoylEqE_H6KAMK09o7bx1ssXP5yS5UwwnWvImMjPxI7LLDkRL6Ld6n-i0AsAmn88AGgUudXM5m3ttYJEysvSWRBSTVZ-K8OpsmrPdchpzAjz3NTPipMcuGY0XnnNAqnMNAj2DLByrwCoeDQ4mH6yVbm2Ee4Dt9t7yMlxx3OW85pf9ExOaAKtFW3Nc5mv3EWIzw1DYmucuhBH9US4_a4wpHRz9mJP7qPLOi3b18Q8-RzEpyzPxnao7VWDiFNG6zNGLfuU7fb6HiyTJjDZXaA02Sly_W6tFhedubDryraw6APqa-hupBVZQd9k0SOd6vwRye_huh8YXb5vudBFigp4lIX4J_THwuSVJM2aMgSyr_P6oISOMnuVjcNE6EBz2sWcJh5YE_4d_-NPps_Nrz- -OQO1C0icpyEngeJlAYJ72M3rxNOWu_puQJcO1_WN]--></g></svg>