<svg xmlns="http://www.w3.org/2000/svg" xmlns:xlink="http://www.w3.org/1999/xlink" contentStyleType="text/css" data-diagram-type="CLASS" height="705px" preserveAspectRatio="none" style="width:1112px;height:705px;background:#FFFFFF;" version="1.1" viewBox="0 0 1112 705" width="1112px" zoomAndPan="magnify"><title>&#34892;&#20026;&#26696;&#20363;&#65288;&#27491;&#21521; vs &#21453;&#21521;&#65289;</title><defs/><g><g class="title" data-source-line="1"><text fill="#000000" font-family="sans-serif" font-size="14" font-weight="bold" lengthAdjust="spacing" textLength="167.7266" x="465.5298" y="24.5332">&#34892;&#20026;&#26696;&#20363;&#65288;&#27491;&#21521; vs &#21453;&#21521;&#65289;</text></g><!--class ??--><g class="entity" data-entity="&#22330;&#26223;" data-source-line="3" data-uid="ent0002" id="entity_&#22330;&#26223;"><rect fill="#F1F1F1" height="100.8281" rx="2.5" ry="2.5" style="stroke:#181818;stroke-width:0.5;" width="85.8896" x="412" y="232.1094"/><ellipse cx="438.6503" cy="248.1094" fill="#ADD1B2" rx="11" ry="11" style="stroke:#181818;stroke-width:1;"/><path d="M441.416,243.9844 Q441.5722,243.7656 441.7597,243.6563 Q441.9472,243.5469 442.166,243.5469 Q442.541,243.5469 442.7753,243.8125 Q443.0097,244.0625 443.0097,244.6719 L443.0097,246.125 Q443.0097,246.7344 442.7753,247 Q442.541,247.2656 442.166,247.2656 Q441.8222,247.2656 441.6191,247.0625 Q441.416,246.875 441.3066,246.3594 Q441.2597,246 441.0722,245.8125 Q440.7441,245.4375 440.1347,245.2188 Q439.5253,245 438.9003,245 Q438.1347,245 437.4941,245.3281 Q436.8691,245.6563 436.3691,246.4063 Q435.8847,247.1563 435.8847,248.1875 L435.8847,249.2813 Q435.8847,250.5156 436.7753,251.3438 Q437.666,252.1563 439.2597,252.1563 Q440.1972,252.1563 440.8535,251.9063 Q441.2441,251.75 441.666,251.3125 Q441.9316,251.0469 442.0722,250.9688 Q442.2285,250.8906 442.4316,250.8906 Q442.7597,250.8906 443.0097,251.1563 Q443.2753,251.4063 443.2753,251.75 Q443.2753,252.0938 442.9316,252.5 Q442.4316,253.0781 441.6347,253.4063 Q440.5566,253.8594 439.2597,253.8594 Q437.7441,253.8594 436.541,253.2344 Q435.5566,252.7344 434.8691,251.6719 Q434.1816,250.5938 434.1816,249.3125 L434.1816,248.1563 Q434.1816,246.8281 434.791,245.6875 Q435.416,244.5313 436.5097,243.9219 Q437.6035,243.2969 438.8378,243.2969 Q439.5722,243.2969 440.2128,243.4688 Q440.8691,243.625 441.416,243.9844 Z " fill="#000000"/><text fill="#000000" font-family="sans-serif" font-size="14" lengthAdjust="spacing" textLength="28" x="455.2393" y="253.8379">&#22330;&#26223;</text><line style="stroke:#181818;stroke-width:0.5;" x1="413" x2="496.8896" y1="264.1094" y2="264.1094"/><ellipse cx="423" cy="278.4141" fill="none" rx="3" ry="3" style="stroke:#038048;stroke-width:1;"/><text fill="#000000" font-family="sans-serif" font-size="14" lengthAdjust="spacing" textLength="56" x="432" y="282.6426">&#23454;&#39564;&#25253;&#21578;</text><ellipse cx="423" cy="296.0234" fill="none" rx="3" ry="3" style="stroke:#038048;stroke-width:1;"/><text fill="#000000" font-family="sans-serif" font-size="14" lengthAdjust="spacing" textLength="56" x="432" y="300.252">&#26085;&#24120;&#20107;&#21153;</text><ellipse cx="423" cy="313.6328" fill="none" rx="3" ry="3" style="stroke:#038048;stroke-width:1;"/><text fill="#000000" font-family="sans-serif" font-size="14" lengthAdjust="spacing" textLength="59.8896" x="432" y="317.8613">&#19978;&#24202;/&#25163;&#26426;</text><line style="stroke:#181818;stroke-width:0.5;" x1="413" x2="496.8896" y1="324.9375" y2="324.9375"/></g><!--class ????--><g class="entity" data-entity="&#36127;&#21521;&#34892;&#20026;" data-source-line="9" data-uid="ent0003" id="entity_&#36127;&#21521;&#34892;&#20026;"><rect fill="#F1F1F1" height="118.4375" rx="2.5" ry="2.5" style="stroke:#181818;stroke-width:0.5;" width="113.8896" x="669" y="45.6094"/><ellipse cx="695.6503" cy="61.6094" fill="#ADD1B2" rx="11" ry="11" style="stroke:#181818;stroke-width:1;"/><path d="M698.416,57.4844 Q698.5722,57.2656 698.7597,57.1563 Q698.9472,57.0469 699.166,57.0469 Q699.541,57.0469 699.7753,57.3125 Q700.0097,57.5625 700.0097,58.1719 L700.0097,59.625 Q700.0097,60.2344 699.7753,60.5 Q699.541,60.7656 699.166,60.7656 Q698.8222,60.7656 698.6191,60.5625 Q698.416,60.375 698.3066,59.8594 Q698.2597,59.5 698.0722,59.3125 Q697.7441,58.9375 697.1347,58.7188 Q696.5253,58.5 695.9003,58.5 Q695.1347,58.5 694.4941,58.8281 Q693.8691,59.1563 693.3691,59.9063 Q692.8847,60.6563 692.8847,61.6875 L692.8847,62.7813 Q692.8847,64.0156 693.7753,64.8438 Q694.666,65.6563 696.2597,65.6563 Q697.1972,65.6563 697.8535,65.4063 Q698.2441,65.25 698.666,64.8125 Q698.9316,64.5469 699.0722,64.4688 Q699.2285,64.3906 699.4316,64.3906 Q699.7597,64.3906 700.0097,64.6563 Q700.2753,64.9063 700.2753,65.25 Q700.2753,65.5938 699.9316,66 Q699.4316,66.5781 698.6347,66.9063 Q697.5566,67.3594 696.2597,67.3594 Q694.7441,67.3594 693.541,66.7344 Q692.5566,66.2344 691.8691,65.1719 Q691.1816,64.0938 691.1816,62.8125 L691.1816,61.6563 Q691.1816,60.3281 691.791,59.1875 Q692.416,58.0313 693.5097,57.4219 Q694.6035,56.7969 695.8378,56.7969 Q696.5722,56.7969 697.2128,56.9688 Q697.8691,57.125 698.416,57.4844 Z " fill="#000000"/><text fill="#000000" font-family="sans-serif" font-size="14" lengthAdjust="spacing" textLength="56" x="712.2393" y="67.3379">&#36127;&#21521;&#34892;&#20026;</text><line style="stroke:#181818;stroke-width:0.5;" x1="670" x2="781.8896" y1="77.6094" y2="77.6094"/><ellipse cx="680" cy="91.9141" fill="none" rx="3" ry="3" style="stroke:#038048;stroke-width:1;"/><text fill="#000000" font-family="sans-serif" font-size="14" lengthAdjust="spacing" textLength="70" x="689" y="96.1426">&#25302;&#24310;&#21040;&#26368;&#21518;</text><ellipse cx="680" cy="109.5234" fill="none" rx="3" ry="3" style="stroke:#038048;stroke-width:1;"/><text fill="#000000" font-family="sans-serif" font-size="14" lengthAdjust="spacing" textLength="84" x="689" y="113.752">&#24515;&#29702;&#36127;&#25285;&#32047;&#31215;</text><ellipse cx="680" cy="127.1328" fill="none" rx="3" ry="3" style="stroke:#038048;stroke-width:1;"/><text fill="#000000" font-family="sans-serif" font-size="14" lengthAdjust="spacing" textLength="87.8896" x="689" y="131.3613">&#21453;&#22797;&#28966;&#34385;/&#29369;&#35947;</text><ellipse cx="680" cy="144.7422" fill="none" rx="3" ry="3" style="stroke:#038048;stroke-width:1;"/><text fill="#000000" font-family="sans-serif" font-size="14" lengthAdjust="spacing" textLength="87.8896" x="689" y="148.9707">&#27785;&#36855;&#23089;&#20048;/&#25163;&#26426;</text><line style="stroke:#181818;stroke-width:0.5;" x1="670" x2="781.8896" y1="156.0469" y2="156.0469"/></g><!--class ????--><g class="entity" data-entity="&#27491;&#21521;&#34892;&#20026;" data-source-line="16" data-uid="ent0004" id="entity_&#27491;&#21521;&#34892;&#20026;"><rect fill="#F1F1F1" height="118.4375" rx="2.5" ry="2.5" style="stroke:#181818;stroke-width:0.5;" width="166" x="372" y="401.6094"/><ellipse cx="422.75" cy="417.6094" fill="#ADD1B2" rx="11" ry="11" style="stroke:#181818;stroke-width:1;"/><path d="M425.5156,413.4844 Q425.6719,413.2656 425.8594,413.1563 Q426.0469,413.0469 426.2656,413.0469 Q426.6406,413.0469 426.875,413.3125 Q427.1094,413.5625 427.1094,414.1719 L427.1094,415.625 Q427.1094,416.2344 426.875,416.5 Q426.6406,416.7656 426.2656,416.7656 Q425.9219,416.7656 425.7188,416.5625 Q425.5156,416.375 425.4063,415.8594 Q425.3594,415.5 425.1719,415.3125 Q424.8438,414.9375 424.2344,414.7188 Q423.625,414.5 423,414.5 Q422.2344,414.5 421.5938,414.8281 Q420.9688,415.1563 420.4688,415.9063 Q419.9844,416.6563 419.9844,417.6875 L419.9844,418.7813 Q419.9844,420.0156 420.875,420.8438 Q421.7656,421.6563 423.3594,421.6563 Q424.2969,421.6563 424.9531,421.4063 Q425.3438,421.25 425.7656,420.8125 Q426.0313,420.5469 426.1719,420.4688 Q426.3281,420.3906 426.5313,420.3906 Q426.8594,420.3906 427.1094,420.6563 Q427.375,420.9063 427.375,421.25 Q427.375,421.5938 427.0313,422 Q426.5313,422.5781 425.7344,422.9063 Q424.6563,423.3594 423.3594,423.3594 Q421.8438,423.3594 420.6406,422.7344 Q419.6563,422.2344 418.9688,421.1719 Q418.2813,420.0938 418.2813,418.8125 L418.2813,417.6563 Q418.2813,416.3281 418.8906,415.1875 Q419.5156,414.0313 420.6094,413.4219 Q421.7031,412.7969 422.9375,412.7969 Q423.6719,412.7969 424.3125,412.9688 Q424.9688,413.125 425.5156,413.4844 Z " fill="#000000"/><text fill="#000000" font-family="sans-serif" font-size="14" lengthAdjust="spacing" textLength="56" x="443.25" y="423.3379">&#27491;&#21521;&#34892;&#20026;</text><line style="stroke:#181818;stroke-width:0.5;" x1="373" x2="537" y1="433.6094" y2="433.6094"/><ellipse cx="383" cy="447.9141" fill="none" rx="3" ry="3" style="stroke:#038048;stroke-width:1;"/><text fill="#000000" font-family="sans-serif" font-size="14" lengthAdjust="spacing" textLength="140" x="392" y="452.1426">&#31435;&#21363;&#25191;&#34892;&#65288;&#24178;&#23601;&#23436;&#20102;&#65289;</text><ellipse cx="383" cy="465.5234" fill="none" rx="3" ry="3" style="stroke:#038048;stroke-width:1;"/><text fill="#000000" font-family="sans-serif" font-size="14" lengthAdjust="spacing" textLength="98" x="392" y="469.752">&#23567;&#20219;&#21153;&#21363;&#26102;&#28165;&#29702;</text><ellipse cx="383" cy="483.1328" fill="none" rx="3" ry="3" style="stroke:#038048;stroke-width:1;"/><text fill="#000000" font-family="sans-serif" font-size="14" lengthAdjust="spacing" textLength="126" x="392" y="487.3613">&#20999;&#25442;&#20219;&#21153;&#32780;&#19981;&#26159;&#20572;&#28382;</text><ellipse cx="383" cy="500.7422" fill="none" rx="3" ry="3" style="stroke:#038048;stroke-width:1;"/><text fill="#000000" font-family="sans-serif" font-size="14" lengthAdjust="spacing" textLength="70" x="392" y="504.9707">&#25353;&#36523;&#20221;&#34892;&#20107;</text><line style="stroke:#181818;stroke-width:0.5;" x1="373" x2="537" y1="512.0469" y2="512.0469"/></g><!--class ??_??--><g class="entity" data-entity="&#21518;&#26524;_&#36127;&#21521;" data-source-line="23" data-uid="ent0005" id="entity_&#21518;&#26524;_&#36127;&#21521;"><rect fill="#F1F1F1" height="118.4375" rx="2.5" ry="2.5" style="stroke:#181818;stroke-width:0.5;" width="96" x="533" y="223.6094"/><ellipse cx="548.0962" cy="239.6094" fill="#ADD1B2" rx="11" ry="11" style="stroke:#181818;stroke-width:1;"/><path d="M550.8619,235.4844 Q551.0181,235.2656 551.2056,235.1563 Q551.3931,235.0469 551.6119,235.0469 Q551.9869,235.0469 552.2212,235.3125 Q552.4556,235.5625 552.4556,236.1719 L552.4556,237.625 Q552.4556,238.2344 552.2212,238.5 Q551.9869,238.7656 551.6119,238.7656 Q551.2681,238.7656 551.065,238.5625 Q550.8619,238.375 550.7525,237.8594 Q550.7056,237.5 550.5181,237.3125 Q550.19,236.9375 549.5806,236.7188 Q548.9712,236.5 548.3462,236.5 Q547.5806,236.5 546.94,236.8281 Q546.315,237.1563 545.815,237.9063 Q545.3306,238.6563 545.3306,239.6875 L545.3306,240.7813 Q545.3306,242.0156 546.2212,242.8438 Q547.1119,243.6563 548.7056,243.6563 Q549.6431,243.6563 550.2994,243.4063 Q550.69,243.25 551.1119,242.8125 Q551.3775,242.5469 551.5181,242.4688 Q551.6744,242.3906 551.8775,242.3906 Q552.2056,242.3906 552.4556,242.6563 Q552.7212,242.9063 552.7212,243.25 Q552.7212,243.5938 552.3775,244 Q551.8775,244.5781 551.0806,244.9063 Q550.0025,245.3594 548.7056,245.3594 Q547.19,245.3594 545.9869,244.7344 Q545.0025,244.2344 544.315,243.1719 Q543.6275,242.0938 543.6275,240.8125 L543.6275,239.6563 Q543.6275,238.3281 544.2369,237.1875 Q544.8619,236.0313 545.9556,235.4219 Q547.0494,234.7969 548.2837,234.7969 Q549.0181,234.7969 549.6587,234.9688 Q550.315,235.125 550.8619,235.4844 Z " fill="#000000"/><text fill="#000000" font-family="sans-serif" font-size="14" lengthAdjust="spacing" textLength="63.7861" x="562.1176" y="245.3379">&#21518;&#26524;_&#36127;&#21521;</text><line style="stroke:#181818;stroke-width:0.5;" x1="534" x2="628" y1="255.6094" y2="255.6094"/><ellipse cx="544" cy="269.9141" fill="none" rx="3" ry="3" style="stroke:#038048;stroke-width:1;"/><text fill="#000000" font-family="sans-serif" font-size="14" lengthAdjust="spacing" textLength="56" x="553" y="274.1426">&#21387;&#21147;&#21472;&#21152;</text><ellipse cx="544" cy="287.5234" fill="none" rx="3" ry="3" style="stroke:#038048;stroke-width:1;"/><text fill="#000000" font-family="sans-serif" font-size="14" lengthAdjust="spacing" textLength="70" x="553" y="291.752">&#22810;&#20219;&#21153;&#29190;&#28856;</text><ellipse cx="544" cy="305.1328" fill="none" rx="3" ry="3" style="stroke:#038048;stroke-width:1;"/><text fill="#000000" font-family="sans-serif" font-size="14" lengthAdjust="spacing" textLength="56" x="553" y="309.3613">&#26102;&#38388;&#22833;&#25511;</text><ellipse cx="544" cy="322.7422" fill="none" rx="3" ry="3" style="stroke:#038048;stroke-width:1;"/><text fill="#000000" font-family="sans-serif" font-size="14" lengthAdjust="spacing" textLength="56" x="553" y="326.9707">&#33258;&#25105;&#24576;&#30097;</text><line style="stroke:#181818;stroke-width:0.5;" x1="534" x2="628" y1="334.0469" y2="334.0469"/></g><!--class ??_??--><g class="entity" data-entity="&#21518;&#26524;_&#27491;&#21521;" data-source-line="30" data-uid="ent0006" id="entity_&#21518;&#26524;_&#27491;&#21521;"><rect fill="#F1F1F1" height="118.4375" rx="2.5" ry="2.5" style="stroke:#181818;stroke-width:0.5;" width="96" x="7" y="579.6094"/><ellipse cx="22.0962" cy="595.6094" fill="#ADD1B2" rx="11" ry="11" style="stroke:#181818;stroke-width:1;"/><path d="M24.8619,591.4844 Q25.0181,591.2656 25.2056,591.1563 Q25.3931,591.0469 25.6119,591.0469 Q25.9869,591.0469 26.2212,591.3125 Q26.4556,591.5625 26.4556,592.1719 L26.4556,593.625 Q26.4556,594.2344 26.2212,594.5 Q25.9869,594.7656 25.6119,594.7656 Q25.2681,594.7656 25.065,594.5625 Q24.8619,594.375 24.7525,593.8594 Q24.7056,593.5 24.5181,593.3125 Q24.19,592.9375 23.5806,592.7188 Q22.9712,592.5 22.3462,592.5 Q21.5806,592.5 20.94,592.8281 Q20.315,593.1563 19.815,593.9063 Q19.3306,594.6563 19.3306,595.6875 L19.3306,596.7813 Q19.3306,598.0156 20.2212,598.8438 Q21.1119,599.6563 22.7056,599.6563 Q23.6431,599.6563 24.2994,599.4063 Q24.69,599.25 25.1119,598.8125 Q25.3775,598.5469 25.5181,598.4688 Q25.6744,598.3906 25.8775,598.3906 Q26.2056,598.3906 26.4556,598.6563 Q26.7212,598.9063 26.7212,599.25 Q26.7212,599.5938 26.3775,600 Q25.8775,600.5781 25.0806,600.9063 Q24.0025,601.3594 22.7056,601.3594 Q21.19,601.3594 19.9869,600.7344 Q19.0025,600.2344 18.315,599.1719 Q17.6275,598.0938 17.6275,596.8125 L17.6275,595.6563 Q17.6275,594.3281 18.2369,593.1875 Q18.8619,592.0313 19.9556,591.4219 Q21.0494,590.7969 22.2837,590.7969 Q23.0181,590.7969 23.6587,590.9688 Q24.315,591.125 24.8619,591.4844 Z " fill="#000000"/><text fill="#000000" font-family="sans-serif" font-size="14" lengthAdjust="spacing" textLength="63.7861" x="36.1176" y="601.3379">&#21518;&#26524;_&#27491;&#21521;</text><line style="stroke:#181818;stroke-width:0.5;" x1="8" x2="102" y1="611.6094" y2="611.6094"/><ellipse cx="18" cy="625.9141" fill="none" rx="3" ry="3" style="stroke:#038048;stroke-width:1;"/><text fill="#000000" font-family="sans-serif" font-size="14" lengthAdjust="spacing" textLength="56" x="27" y="630.1426">&#24515;&#29702;&#36731;&#26494;</text><ellipse cx="18" cy="643.5234" fill="none" rx="3" ry="3" style="stroke:#038048;stroke-width:1;"/><text fill="#000000" font-family="sans-serif" font-size="14" lengthAdjust="spacing" textLength="70" x="27" y="647.752">&#20219;&#21153;&#32447;&#28165;&#26224;</text><ellipse cx="18" cy="661.1328" fill="none" rx="3" ry="3" style="stroke:#038048;stroke-width:1;"/><text fill="#000000" font-family="sans-serif" font-size="14" lengthAdjust="spacing" textLength="56" x="27" y="665.3613">&#31995;&#32479;&#31283;&#23450;</text><ellipse cx="18" cy="678.7422" fill="none" rx="3" ry="3" style="stroke:#038048;stroke-width:1;"/><text fill="#000000" font-family="sans-serif" font-size="14" lengthAdjust="spacing" textLength="56" x="27" y="682.9707">&#25345;&#32493;&#25512;&#36827;</text><line style="stroke:#181818;stroke-width:0.5;" x1="8" x2="102" y1="690.0469" y2="690.0469"/></g><!--class ????--><g class="entity" data-entity="&#26680;&#24515;&#21407;&#21017;" data-source-line="37" data-uid="ent0007" id="entity_&#26680;&#24515;&#21407;&#21017;"><rect fill="#F1F1F1" height="118.4375" rx="2.5" ry="2.5" style="stroke:#181818;stroke-width:0.5;" width="124" x="138" y="579.6094"/><ellipse cx="169.2" cy="595.6094" fill="#ADD1B2" rx="11" ry="11" style="stroke:#181818;stroke-width:1;"/><path d="M171.9656,591.4844 Q172.1219,591.2656 172.3094,591.1563 Q172.4969,591.0469 172.7156,591.0469 Q173.0906,591.0469 173.325,591.3125 Q173.5594,591.5625 173.5594,592.1719 L173.5594,593.625 Q173.5594,594.2344 173.325,594.5 Q173.0906,594.7656 172.7156,594.7656 Q172.3719,594.7656 172.1688,594.5625 Q171.9656,594.375 171.8563,593.8594 Q171.8094,593.5 171.6219,593.3125 Q171.2938,592.9375 170.6844,592.7188 Q170.075,592.5 169.45,592.5 Q168.6844,592.5 168.0438,592.8281 Q167.4188,593.1563 166.9188,593.9063 Q166.4344,594.6563 166.4344,595.6875 L166.4344,596.7813 Q166.4344,598.0156 167.325,598.8438 Q168.2156,599.6563 169.8094,599.6563 Q170.7469,599.6563 171.4031,599.4063 Q171.7938,599.25 172.2156,598.8125 Q172.4813,598.5469 172.6219,598.4688 Q172.7781,598.3906 172.9813,598.3906 Q173.3094,598.3906 173.5594,598.6563 Q173.825,598.9063 173.825,599.25 Q173.825,599.5938 173.4813,600 Q172.9813,600.5781 172.1844,600.9063 Q171.1063,601.3594 169.8094,601.3594 Q168.2938,601.3594 167.0906,600.7344 Q166.1063,600.2344 165.4188,599.1719 Q164.7313,598.0938 164.7313,596.8125 L164.7313,595.6563 Q164.7313,594.3281 165.3406,593.1875 Q165.9656,592.0313 167.0594,591.4219 Q168.1531,590.7969 169.3875,590.7969 Q170.1219,590.7969 170.7625,590.9688 Q171.4188,591.125 171.9656,591.4844 Z " fill="#000000"/><text fill="#000000" font-family="sans-serif" font-size="14" lengthAdjust="spacing" textLength="56" x="186.8" y="601.3379">&#26680;&#24515;&#21407;&#21017;</text><line style="stroke:#181818;stroke-width:0.5;" x1="139" x2="261" y1="611.6094" y2="611.6094"/><ellipse cx="149" cy="625.9141" fill="none" rx="3" ry="3" style="stroke:#038048;stroke-width:1;"/><text fill="#000000" font-family="sans-serif" font-size="14" lengthAdjust="spacing" textLength="84" x="158" y="630.1426">&#19981;&#35201;&#25302;&#21040;&#26410;&#26469;</text><ellipse cx="149" cy="643.5234" fill="none" rx="3" ry="3" style="stroke:#038048;stroke-width:1;"/><text fill="#000000" font-family="sans-serif" font-size="14" lengthAdjust="spacing" textLength="70" x="158" y="647.752">&#23567;&#20107;&#31435;&#21051;&#20570;</text><ellipse cx="149" cy="661.1328" fill="none" rx="3" ry="3" style="stroke:#038048;stroke-width:1;"/><text fill="#000000" font-family="sans-serif" font-size="14" lengthAdjust="spacing" textLength="98" x="158" y="665.3613">&#19981;&#35201;&#35753;&#38382;&#39064;&#22534;&#31215;</text><ellipse cx="149" cy="678.7422" fill="none" rx="3" ry="3" style="stroke:#038048;stroke-width:1;"/><text fill="#000000" font-family="sans-serif" font-size="14" lengthAdjust="spacing" textLength="98" x="158" y="682.9707">&#29992;&#34892;&#21160;&#26367;&#20195;&#28966;&#34385;</text><line style="stroke:#181818;stroke-width:0.5;" x1="139" x2="261" y1="690.0469" y2="690.0469"/></g><!--class ????--><g class="entity" data-entity="&#36523;&#20221;&#21407;&#21017;" data-source-line="44" data-uid="ent0008" id="entity_&#36523;&#20221;&#21407;&#21017;"><rect fill="#F1F1F1" height="100.8281" rx="2.5" ry="2.5" style="stroke:#181818;stroke-width:0.5;" width="145.7861" x="297" y="588.1094"/><ellipse cx="338.0038" cy="604.1094" fill="#ADD1B2" rx="11" ry="11" style="stroke:#181818;stroke-width:1;"/><path d="M340.7694,599.9844 Q340.9256,599.7656 341.1131,599.6563 Q341.3006,599.5469 341.5194,599.5469 Q341.8944,599.5469 342.1288,599.8125 Q342.3631,600.0625 342.3631,600.6719 L342.3631,602.125 Q342.3631,602.7344 342.1288,603 Q341.8944,603.2656 341.5194,603.2656 Q341.1756,603.2656 340.9725,603.0625 Q340.7694,602.875 340.66,602.3594 Q340.6131,602 340.4256,601.8125 Q340.0975,601.4375 339.4881,601.2188 Q338.8788,601 338.2538,601 Q337.4881,601 336.8475,601.3281 Q336.2225,601.6563 335.7225,602.4063 Q335.2381,603.1563 335.2381,604.1875 L335.2381,605.2813 Q335.2381,606.5156 336.1288,607.3438 Q337.0194,608.1563 338.6131,608.1563 Q339.5506,608.1563 340.2069,607.9063 Q340.5975,607.75 341.0194,607.3125 Q341.285,607.0469 341.4256,606.9688 Q341.5819,606.8906 341.785,606.8906 Q342.1131,606.8906 342.3631,607.1563 Q342.6288,607.4063 342.6288,607.75 Q342.6288,608.0938 342.285,608.5 Q341.785,609.0781 340.9881,609.4063 Q339.91,609.8594 338.6131,609.8594 Q337.0975,609.8594 335.8944,609.2344 Q334.91,608.7344 334.2225,607.6719 Q333.535,606.5938 333.535,605.3125 L333.535,604.1563 Q333.535,602.8281 334.1444,601.6875 Q334.7694,600.5313 335.8631,599.9219 Q336.9569,599.2969 338.1913,599.2969 Q338.9256,599.2969 339.5663,599.4688 Q340.2225,599.625 340.7694,599.9844 Z " fill="#000000"/><text fill="#000000" font-family="sans-serif" font-size="14" lengthAdjust="spacing" textLength="56" x="357.7824" y="609.8379">&#36523;&#20221;&#21407;&#21017;</text><line style="stroke:#181818;stroke-width:0.5;" x1="298" x2="441.7861" y1="620.1094" y2="620.1094"/><ellipse cx="308" cy="634.4141" fill="none" rx="3" ry="3" style="stroke:#038048;stroke-width:1;"/><text fill="#000000" font-family="sans-serif" font-size="14" lengthAdjust="spacing" textLength="91.7861" x="317" y="638.6426">&#26410;&#26469;&#30340;&#25105;&#26159;&#35841;?</text><ellipse cx="308" cy="652.0234" fill="none" rx="3" ry="3" style="stroke:#038048;stroke-width:1;"/><text fill="#000000" font-family="sans-serif" font-size="14" lengthAdjust="spacing" textLength="105.7861" x="317" y="656.252">&#36825;&#31181;&#20154;&#20250;&#24590;&#20040;&#20570;?</text><ellipse cx="308" cy="669.6328" fill="none" rx="3" ry="3" style="stroke:#038048;stroke-width:1;"/><text fill="#000000" font-family="sans-serif" font-size="14" lengthAdjust="spacing" textLength="119.7861" x="317" y="673.8613">&#26159;&#21542;&#31526;&#21512;&#30446;&#26631;&#36523;&#20221;?</text><line style="stroke:#181818;stroke-width:0.5;" x1="298" x2="441.7861" y1="680.9375" y2="680.9375"/></g><!--class ??_????--><g class="entity" data-entity="&#26696;&#20363;_&#23454;&#39564;&#25302;&#24310;" data-source-line="67" data-uid="ent0015" id="entity_&#26696;&#20363;_&#23454;&#39564;&#25302;&#24310;"><rect fill="#F1F1F1" height="100.8281" rx="2.5" ry="2.5" style="stroke:#181818;stroke-width:0.5;" width="124.0068" x="664" y="232.1094"/><ellipse cx="679.0993" cy="248.1094" fill="#ADD1B2" rx="11" ry="11" style="stroke:#181818;stroke-width:1;"/><path d="M681.8649,243.9844 Q682.0212,243.7656 682.2087,243.6563 Q682.3962,243.5469 682.6149,243.5469 Q682.9899,243.5469 683.2243,243.8125 Q683.4587,244.0625 683.4587,244.6719 L683.4587,246.125 Q683.4587,246.7344 683.2243,247 Q682.9899,247.2656 682.6149,247.2656 Q682.2712,247.2656 682.0681,247.0625 Q681.8649,246.875 681.7556,246.3594 Q681.7087,246 681.5212,245.8125 Q681.1931,245.4375 680.5837,245.2188 Q679.9743,245 679.3493,245 Q678.5837,245 677.9431,245.3281 Q677.3181,245.6563 676.8181,246.4063 Q676.3337,247.1563 676.3337,248.1875 L676.3337,249.2813 Q676.3337,250.5156 677.2243,251.3438 Q678.1149,252.1563 679.7087,252.1563 Q680.6462,252.1563 681.3024,251.9063 Q681.6931,251.75 682.1149,251.3125 Q682.3806,251.0469 682.5212,250.9688 Q682.6774,250.8906 682.8806,250.8906 Q683.2087,250.8906 683.4587,251.1563 Q683.7243,251.4063 683.7243,251.75 Q683.7243,252.0938 683.3806,252.5 Q682.8806,253.0781 682.0837,253.4063 Q681.0056,253.8594 679.7087,253.8594 Q678.1931,253.8594 676.9899,253.2344 Q676.0056,252.7344 675.3181,251.6719 Q674.6306,250.5938 674.6306,249.3125 L674.6306,248.1563 Q674.6306,246.8281 675.2399,245.6875 Q675.8649,244.5313 676.9587,243.9219 Q678.0524,243.2969 679.2868,243.2969 Q680.0212,243.2969 680.6618,243.4688 Q681.3181,243.625 681.8649,243.9844 Z " fill="#000000"/><text fill="#000000" font-family="sans-serif" font-size="14" lengthAdjust="spacing" textLength="91.7861" x="693.1214" y="253.8379">&#26696;&#20363;_&#23454;&#39564;&#25302;&#24310;</text><line style="stroke:#181818;stroke-width:0.5;" x1="665" x2="787.0068" y1="264.1094" y2="264.1094"/><ellipse cx="675" cy="278.4141" fill="none" rx="3" ry="3" style="stroke:#038048;stroke-width:1;"/><text fill="#000000" font-family="sans-serif" font-size="14" lengthAdjust="spacing" textLength="98.0068" x="684" y="282.6426">&#25302;&#21040;DDL&#21069;&#19968;&#22825;</text><ellipse cx="675" cy="296.0234" fill="none" rx="3" ry="3" style="stroke:#038048;stroke-width:1;"/><text fill="#000000" font-family="sans-serif" font-size="14" lengthAdjust="spacing" textLength="70" x="684" y="300.252">&#30701;&#26102;&#38388;&#23436;&#25104;</text><ellipse cx="675" cy="313.6328" fill="none" rx="3" ry="3" style="stroke:#038048;stroke-width:1;"/><text fill="#000000" font-family="sans-serif" font-size="14" lengthAdjust="spacing" textLength="56" x="684" y="317.8613">&#36807;&#31243;&#28966;&#34385;</text><line style="stroke:#181818;stroke-width:0.5;" x1="665" x2="787.0068" y1="324.9375" y2="324.9375"/></g><!--class ??_????--><g class="entity" data-entity="&#26696;&#20363;_&#31435;&#21363;&#23436;&#25104;" data-source-line="73" data-uid="ent0016" id="entity_&#26696;&#20363;_&#31435;&#21363;&#23436;&#25104;"><rect fill="#F1F1F1" height="100.8281" rx="2.5" ry="2.5" style="stroke:#181818;stroke-width:0.5;" width="123.7861" x="478" y="588.1094"/><ellipse cx="493" cy="604.1094" fill="#ADD1B2" rx="11" ry="11" style="stroke:#181818;stroke-width:1;"/><path d="M495.7656,599.9844 Q495.9219,599.7656 496.1094,599.6563 Q496.2969,599.5469 496.5156,599.5469 Q496.8906,599.5469 497.125,599.8125 Q497.3594,600.0625 497.3594,600.6719 L497.3594,602.125 Q497.3594,602.7344 497.125,603 Q496.8906,603.2656 496.5156,603.2656 Q496.1719,603.2656 495.9688,603.0625 Q495.7656,602.875 495.6563,602.3594 Q495.6094,602 495.4219,601.8125 Q495.0938,601.4375 494.4844,601.2188 Q493.875,601 493.25,601 Q492.4844,601 491.8438,601.3281 Q491.2188,601.6563 490.7188,602.4063 Q490.2344,603.1563 490.2344,604.1875 L490.2344,605.2813 Q490.2344,606.5156 491.125,607.3438 Q492.0156,608.1563 493.6094,608.1563 Q494.5469,608.1563 495.2031,607.9063 Q495.5938,607.75 496.0156,607.3125 Q496.2813,607.0469 496.4219,606.9688 Q496.5781,606.8906 496.7813,606.8906 Q497.1094,606.8906 497.3594,607.1563 Q497.625,607.4063 497.625,607.75 Q497.625,608.0938 497.2813,608.5 Q496.7813,609.0781 495.9844,609.4063 Q494.9063,609.8594 493.6094,609.8594 Q492.0938,609.8594 490.8906,609.2344 Q489.9063,608.7344 489.2188,607.6719 Q488.5313,606.5938 488.5313,605.3125 L488.5313,604.1563 Q488.5313,602.8281 489.1406,601.6875 Q489.7656,600.5313 490.8594,599.9219 Q491.9531,599.2969 493.1875,599.2969 Q493.9219,599.2969 494.5625,599.4688 Q495.2188,599.625 495.7656,599.9844 Z " fill="#000000"/><text fill="#000000" font-family="sans-serif" font-size="14" lengthAdjust="spacing" textLength="91.7861" x="507" y="609.8379">&#26696;&#20363;_&#31435;&#21363;&#23436;&#25104;</text><line style="stroke:#181818;stroke-width:0.5;" x1="479" x2="600.7861" y1="620.1094" y2="620.1094"/><ellipse cx="489" cy="634.4141" fill="none" rx="3" ry="3" style="stroke:#038048;stroke-width:1;"/><text fill="#000000" font-family="sans-serif" font-size="14" lengthAdjust="spacing" textLength="56" x="498" y="638.6426">&#25552;&#21069;&#20570;&#23436;</text><ellipse cx="489" cy="652.0234" fill="none" rx="3" ry="3" style="stroke:#038048;stroke-width:1;"/><text fill="#000000" font-family="sans-serif" font-size="14" lengthAdjust="spacing" textLength="70" x="498" y="656.252">&#26080;&#24515;&#29702;&#36127;&#25285;</text><ellipse cx="489" cy="669.6328" fill="none" rx="3" ry="3" style="stroke:#038048;stroke-width:1;"/><text fill="#000000" font-family="sans-serif" font-size="14" lengthAdjust="spacing" textLength="56" x="498" y="673.8613">&#33410;&#22863;&#31283;&#23450;</text><line style="stroke:#181818;stroke-width:0.5;" x1="479" x2="600.7861" y1="680.9375" y2="680.9375"/></g><!--class ??_????--><g class="entity" data-entity="&#26696;&#20363;_&#26085;&#24120;&#25302;&#24310;" data-source-line="79" data-uid="ent0017" id="entity_&#26696;&#20363;_&#26085;&#24120;&#25302;&#24310;"><rect fill="#F1F1F1" height="100.8281" rx="2.5" ry="2.5" style="stroke:#181818;stroke-width:0.5;" width="123.7861" x="823" y="232.1094"/><ellipse cx="838" cy="248.1094" fill="#ADD1B2" rx="11" ry="11" style="stroke:#181818;stroke-width:1;"/><path d="M840.7656,243.9844 Q840.9219,243.7656 841.1094,243.6563 Q841.2969,243.5469 841.5156,243.5469 Q841.8906,243.5469 842.125,243.8125 Q842.3594,244.0625 842.3594,244.6719 L842.3594,246.125 Q842.3594,246.7344 842.125,247 Q841.8906,247.2656 841.5156,247.2656 Q841.1719,247.2656 840.9688,247.0625 Q840.7656,246.875 840.6563,246.3594 Q840.6094,246 840.4219,245.8125 Q840.0938,245.4375 839.4844,245.2188 Q838.875,245 838.25,245 Q837.4844,245 836.8438,245.3281 Q836.2188,245.6563 835.7188,246.4063 Q835.2344,247.1563 835.2344,248.1875 L835.2344,249.2813 Q835.2344,250.5156 836.125,251.3438 Q837.0156,252.1563 838.6094,252.1563 Q839.5469,252.1563 840.2031,251.9063 Q840.5938,251.75 841.0156,251.3125 Q841.2813,251.0469 841.4219,250.9688 Q841.5781,250.8906 841.7813,250.8906 Q842.1094,250.8906 842.3594,251.1563 Q842.625,251.4063 842.625,251.75 Q842.625,252.0938 842.2813,252.5 Q841.7813,253.0781 840.9844,253.4063 Q839.9063,253.8594 838.6094,253.8594 Q837.0938,253.8594 835.8906,253.2344 Q834.9063,252.7344 834.2188,251.6719 Q833.5313,250.5938 833.5313,249.3125 L833.5313,248.1563 Q833.5313,246.8281 834.1406,245.6875 Q834.7656,244.5313 835.8594,243.9219 Q836.9531,243.2969 838.1875,243.2969 Q838.9219,243.2969 839.5625,243.4688 Q840.2188,243.625 840.7656,243.9844 Z " fill="#000000"/><text fill="#000000" font-family="sans-serif" font-size="14" lengthAdjust="spacing" textLength="91.7861" x="852" y="253.8379">&#26696;&#20363;_&#26085;&#24120;&#25302;&#24310;</text><line style="stroke:#181818;stroke-width:0.5;" x1="824" x2="945.7861" y1="264.1094" y2="264.1094"/><ellipse cx="834" cy="278.4141" fill="none" rx="3" ry="3" style="stroke:#038048;stroke-width:1;"/><text fill="#000000" font-family="sans-serif" font-size="14" lengthAdjust="spacing" textLength="56" x="843" y="282.6426">&#34915;&#26381;&#19981;&#27927;</text><ellipse cx="834" cy="296.0234" fill="none" rx="3" ry="3" style="stroke:#038048;stroke-width:1;"/><text fill="#000000" font-family="sans-serif" font-size="14" lengthAdjust="spacing" textLength="56" x="843" y="300.252">&#22403;&#22334;&#19981;&#20498;</text><ellipse cx="834" cy="313.6328" fill="none" rx="3" ry="3" style="stroke:#038048;stroke-width:1;"/><text fill="#000000" font-family="sans-serif" font-size="14" lengthAdjust="spacing" textLength="56" x="843" y="317.8613">&#23567;&#20107;&#22534;&#31215;</text><line style="stroke:#181818;stroke-width:0.5;" x1="824" x2="945.7861" y1="324.9375" y2="324.9375"/></g><!--class ??_????--><g class="entity" data-entity="&#26696;&#20363;_&#31435;&#21363;&#34892;&#21160;" data-source-line="85" data-uid="ent0018" id="entity_&#26696;&#20363;_&#31435;&#21363;&#34892;&#21160;"><rect fill="#F1F1F1" height="83.2188" rx="2.5" ry="2.5" style="stroke:#181818;stroke-width:0.5;" width="123.7861" x="637" y="597.1094"/><ellipse cx="652" cy="613.1094" fill="#ADD1B2" rx="11" ry="11" style="stroke:#181818;stroke-width:1;"/><path d="M654.7656,608.9844 Q654.9219,608.7656 655.1094,608.6563 Q655.2969,608.5469 655.5156,608.5469 Q655.8906,608.5469 656.125,608.8125 Q656.3594,609.0625 656.3594,609.6719 L656.3594,611.125 Q656.3594,611.7344 656.125,612 Q655.8906,612.2656 655.5156,612.2656 Q655.1719,612.2656 654.9688,612.0625 Q654.7656,611.875 654.6563,611.3594 Q654.6094,611 654.4219,610.8125 Q654.0938,610.4375 653.4844,610.2188 Q652.875,610 652.25,610 Q651.4844,610 650.8438,610.3281 Q650.2188,610.6563 649.7188,611.4063 Q649.2344,612.1563 649.2344,613.1875 L649.2344,614.2813 Q649.2344,615.5156 650.125,616.3438 Q651.0156,617.1563 652.6094,617.1563 Q653.5469,617.1563 654.2031,616.9063 Q654.5938,616.75 655.0156,616.3125 Q655.2813,616.0469 655.4219,615.9688 Q655.5781,615.8906 655.7813,615.8906 Q656.1094,615.8906 656.3594,616.1563 Q656.625,616.4063 656.625,616.75 Q656.625,617.0938 656.2813,617.5 Q655.7813,618.0781 654.9844,618.4063 Q653.9063,618.8594 652.6094,618.8594 Q651.0938,618.8594 649.8906,618.2344 Q648.9063,617.7344 648.2188,616.6719 Q647.5313,615.5938 647.5313,614.3125 L647.5313,613.1563 Q647.5313,611.8281 648.1406,610.6875 Q648.7656,609.5313 649.8594,608.9219 Q650.9531,608.2969 652.1875,608.2969 Q652.9219,608.2969 653.5625,608.4688 Q654.2188,608.625 654.7656,608.9844 Z " fill="#000000"/><text fill="#000000" font-family="sans-serif" font-size="14" lengthAdjust="spacing" textLength="91.7861" x="666" y="618.8379">&#26696;&#20363;_&#31435;&#21363;&#34892;&#21160;</text><line style="stroke:#181818;stroke-width:0.5;" x1="638" x2="759.7861" y1="629.1094" y2="629.1094"/><ellipse cx="648" cy="643.4141" fill="none" rx="3" ry="3" style="stroke:#038048;stroke-width:1;"/><text fill="#000000" font-family="sans-serif" font-size="14" lengthAdjust="spacing" textLength="56" x="657" y="647.6426">&#24819;&#21040;&#23601;&#20570;</text><ellipse cx="648" cy="661.0234" fill="none" rx="3" ry="3" style="stroke:#038048;stroke-width:1;"/><text fill="#000000" font-family="sans-serif" font-size="14" lengthAdjust="spacing" textLength="56" x="657" y="665.252">&#21363;&#26102;&#28165;&#29702;</text><line style="stroke:#181818;stroke-width:0.5;" x1="638" x2="759.7861" y1="672.3281" y2="672.3281"/></g><!--class ??_????--><g class="entity" data-entity="&#26696;&#20363;_&#24202;&#19978;&#23089;&#20048;" data-source-line="90" data-uid="ent0019" id="entity_&#26696;&#20363;_&#24202;&#19978;&#23089;&#20048;"><rect fill="#F1F1F1" height="100.8281" rx="2.5" ry="2.5" style="stroke:#181818;stroke-width:0.5;" width="123.7861" x="982" y="232.1094"/><ellipse cx="997" cy="248.1094" fill="#ADD1B2" rx="11" ry="11" style="stroke:#181818;stroke-width:1;"/><path d="M999.7656,243.9844 Q999.9219,243.7656 1000.1094,243.6563 Q1000.2969,243.5469 1000.5156,243.5469 Q1000.8906,243.5469 1001.125,243.8125 Q1001.3594,244.0625 1001.3594,244.6719 L1001.3594,246.125 Q1001.3594,246.7344 1001.125,247 Q1000.8906,247.2656 1000.5156,247.2656 Q1000.1719,247.2656 999.9688,247.0625 Q999.7656,246.875 999.6563,246.3594 Q999.6094,246 999.4219,245.8125 Q999.0938,245.4375 998.4844,245.2188 Q997.875,245 997.25,245 Q996.4844,245 995.8438,245.3281 Q995.2188,245.6563 994.7188,246.4063 Q994.2344,247.1563 994.2344,248.1875 L994.2344,249.2813 Q994.2344,250.5156 995.125,251.3438 Q996.0156,252.1563 997.6094,252.1563 Q998.5469,252.1563 999.2031,251.9063 Q999.5938,251.75 1000.0156,251.3125 Q1000.2813,251.0469 1000.4219,250.9688 Q1000.5781,250.8906 1000.7813,250.8906 Q1001.1094,250.8906 1001.3594,251.1563 Q1001.625,251.4063 1001.625,251.75 Q1001.625,252.0938 1001.2813,252.5 Q1000.7813,253.0781 999.9844,253.4063 Q998.9063,253.8594 997.6094,253.8594 Q996.0938,253.8594 994.8906,253.2344 Q993.9063,252.7344 993.2188,251.6719 Q992.5313,250.5938 992.5313,249.3125 L992.5313,248.1563 Q992.5313,246.8281 993.1406,245.6875 Q993.7656,244.5313 994.8594,243.9219 Q995.9531,243.2969 997.1875,243.2969 Q997.9219,243.2969 998.5625,243.4688 Q999.2188,243.625 999.7656,243.9844 Z " fill="#000000"/><text fill="#000000" font-family="sans-serif" font-size="14" lengthAdjust="spacing" textLength="91.7861" x="1011" y="253.8379">&#26696;&#20363;_&#24202;&#19978;&#23089;&#20048;</text><line style="stroke:#181818;stroke-width:0.5;" x1="983" x2="1104.7861" y1="264.1094" y2="264.1094"/><ellipse cx="993" cy="278.4141" fill="none" rx="3" ry="3" style="stroke:#038048;stroke-width:1;"/><text fill="#000000" font-family="sans-serif" font-size="14" lengthAdjust="spacing" textLength="42" x="1002" y="282.6426">&#21047;&#25163;&#26426;</text><ellipse cx="993" cy="296.0234" fill="none" rx="3" ry="3" style="stroke:#038048;stroke-width:1;"/><text fill="#000000" font-family="sans-serif" font-size="14" lengthAdjust="spacing" textLength="56" x="1002" y="300.252">&#19979;&#36733;&#25238;&#38899;</text><ellipse cx="993" cy="313.6328" fill="none" rx="3" ry="3" style="stroke:#038048;stroke-width:1;"/><text fill="#000000" font-family="sans-serif" font-size="14" lengthAdjust="spacing" textLength="56" x="1002" y="317.8613">&#22833;&#25511;&#26102;&#38388;</text><line style="stroke:#181818;stroke-width:0.5;" x1="983" x2="1104.7861" y1="324.9375" y2="324.9375"/></g><!--class ??_????--><g class="entity" data-entity="&#26696;&#20363;_&#36523;&#20221;&#32422;&#26463;" data-source-line="96" data-uid="ent0020" id="entity_&#26696;&#20363;_&#36523;&#20221;&#32422;&#26463;"><rect fill="#F1F1F1" height="100.8281" rx="2.5" ry="2.5" style="stroke:#181818;stroke-width:0.5;" width="123.7861" x="796" y="588.1094"/><ellipse cx="811" cy="604.1094" fill="#ADD1B2" rx="11" ry="11" style="stroke:#181818;stroke-width:1;"/><path d="M813.7656,599.9844 Q813.9219,599.7656 814.1094,599.6563 Q814.2969,599.5469 814.5156,599.5469 Q814.8906,599.5469 815.125,599.8125 Q815.3594,600.0625 815.3594,600.6719 L815.3594,602.125 Q815.3594,602.7344 815.125,603 Q814.8906,603.2656 814.5156,603.2656 Q814.1719,603.2656 813.9688,603.0625 Q813.7656,602.875 813.6563,602.3594 Q813.6094,602 813.4219,601.8125 Q813.0938,601.4375 812.4844,601.2188 Q811.875,601 811.25,601 Q810.4844,601 809.8438,601.3281 Q809.2188,601.6563 808.7188,602.4063 Q808.2344,603.1563 808.2344,604.1875 L808.2344,605.2813 Q808.2344,606.5156 809.125,607.3438 Q810.0156,608.1563 811.6094,608.1563 Q812.5469,608.1563 813.2031,607.9063 Q813.5938,607.75 814.0156,607.3125 Q814.2813,607.0469 814.4219,606.9688 Q814.5781,606.8906 814.7813,606.8906 Q815.1094,606.8906 815.3594,607.1563 Q815.625,607.4063 815.625,607.75 Q815.625,608.0938 815.2813,608.5 Q814.7813,609.0781 813.9844,609.4063 Q812.9063,609.8594 811.6094,609.8594 Q810.0938,609.8594 808.8906,609.2344 Q807.9063,608.7344 807.2188,607.6719 Q806.5313,606.5938 806.5313,605.3125 L806.5313,604.1563 Q806.5313,602.8281 807.1406,601.6875 Q807.7656,600.5313 808.8594,599.9219 Q809.9531,599.2969 811.1875,599.2969 Q811.9219,599.2969 812.5625,599.4688 Q813.2188,599.625 813.7656,599.9844 Z " fill="#000000"/><text fill="#000000" font-family="sans-serif" font-size="14" lengthAdjust="spacing" textLength="91.7861" x="825" y="609.8379">&#26696;&#20363;_&#36523;&#20221;&#32422;&#26463;</text><line style="stroke:#181818;stroke-width:0.5;" x1="797" x2="918.7861" y1="620.1094" y2="620.1094"/><ellipse cx="807" cy="634.4141" fill="none" rx="3" ry="3" style="stroke:#038048;stroke-width:1;"/><text fill="#000000" font-family="sans-serif" font-size="14" lengthAdjust="spacing" textLength="70" x="816" y="638.6426">&#19981;&#19978;&#24202;&#23089;&#20048;</text><ellipse cx="807" cy="652.0234" fill="none" rx="3" ry="3" style="stroke:#038048;stroke-width:1;"/><text fill="#000000" font-family="sans-serif" font-size="14" lengthAdjust="spacing" textLength="56" x="816" y="656.252">&#20811;&#21046;&#20914;&#21160;</text><ellipse cx="807" cy="669.6328" fill="none" rx="3" ry="3" style="stroke:#038048;stroke-width:1;"/><text fill="#000000" font-family="sans-serif" font-size="14" lengthAdjust="spacing" textLength="70" x="816" y="673.8613">&#25353;&#30446;&#26631;&#34892;&#20107;</text><line style="stroke:#181818;stroke-width:0.5;" x1="797" x2="918.7861" y1="680.9375" y2="680.9375"/></g><!--reverse link ???? to ??--><g class="link" data-entity-1="&#36127;&#21521;&#34892;&#20026;" data-entity-2="&#22330;&#26223;" data-source-line="54" data-uid="lnk9" id="link_&#36127;&#21521;&#34892;&#20026;_&#22330;&#26223;"><path codeLine="54" d="M663.5673,135.1204 C619.6773,156.9404 563.84,187.3094 515,223.6094 C509.3,227.8394 503.59,232.5794 498.07,237.4794" fill="none" id="&#36127;&#21521;&#34892;&#20026;-backto-&#22330;&#26223;" style="stroke:#181818;stroke-width:1;"/><polygon fill="#181818" points="668.94,132.4494,659.1003,132.8741,664.4628,134.6752,662.6617,140.0377,668.94,132.4494" style="stroke:#181818;stroke-width:1;"/></g><!--link ?? to ????--><g class="link" data-entity-1="&#22330;&#26223;" data-entity-2="&#27491;&#21521;&#34892;&#20026;" data-source-line="55" data-uid="lnk10" id="link_&#22330;&#26223;_&#27491;&#21521;&#34892;&#20026;"><path codeLine="55" d="M455,333.5694 C455,354.7094 455,373.4794 455,395.4294" fill="none" id="&#22330;&#26223;-to-&#27491;&#21521;&#34892;&#20026;" style="stroke:#181818;stroke-width:1;"/><polygon fill="#181818" points="455,401.4294,459,392.4294,455,396.4294,451,392.4294,455,401.4294" style="stroke:#181818;stroke-width:1;"/></g><!--link ???? to ??_??--><g class="link" data-entity-1="&#36127;&#21521;&#34892;&#20026;" data-entity-2="&#21518;&#26524;_&#36127;&#21521;" data-source-line="57" data-uid="lnk11" id="link_&#36127;&#21521;&#34892;&#20026;_&#21518;&#26524;_&#36127;&#21521;"><path codeLine="57" d="M678.12,163.7294 C662.28,182.9494 648.4745,199.698 632.6445,218.918" fill="none" id="&#36127;&#21521;&#34892;&#20026;-to-&#21518;&#26524;_&#36127;&#21521;" style="stroke:#181818;stroke-width:1;"/><polygon fill="#181818" points="628.83,223.5494,637.6393,219.1453,632.0087,219.6899,631.4642,214.0593,628.83,223.5494" style="stroke:#181818;stroke-width:1;"/></g><!--link ???? to ??_??--><g class="link" data-entity-1="&#27491;&#21521;&#34892;&#20026;" data-entity-2="&#21518;&#26524;_&#27491;&#21521;" data-source-line="58" data-uid="lnk12" id="link_&#27491;&#21521;&#34892;&#20026;_&#21518;&#26524;_&#27491;&#21521;"><path codeLine="58" d="M371.92,481.1594 C301.64,499.9194 199.9,532.4094 120,579.6094 C114.27,582.9894 113.3522,583.2795 107.8722,587.4795" fill="none" id="&#27491;&#21521;&#34892;&#20026;-to-&#21518;&#26524;_&#27491;&#21521;" style="stroke:#181818;stroke-width:1;"/><polygon fill="#181818" points="103.11,591.1294,112.6865,588.8294,107.0785,588.0878,107.8201,582.4798,103.11,591.1294" style="stroke:#181818;stroke-width:1;"/></g><!--link ???? to ????--><g class="link" data-entity-1="&#27491;&#21521;&#34892;&#20026;" data-entity-2="&#26680;&#24515;&#21407;&#21017;" data-source-line="60" data-uid="lnk13" id="link_&#27491;&#21521;&#34892;&#20026;_&#26680;&#24515;&#21407;&#21017;"><path codeLine="60" d="M371.69,516.4094 C342.22,536.0694 308.96,558.5794 279,579.6094 C273.57,583.4194 272.8289,583.9131 267.2189,587.9531" fill="none" id="&#27491;&#21521;&#34892;&#20026;-to-&#26680;&#24515;&#21407;&#21017;" style="stroke:#181818;stroke-width:1;"/><polygon fill="#181818" points="262.35,591.4594,271.9908,589.4459,266.4074,588.5375,267.3158,582.954,262.35,591.4594" style="stroke:#181818;stroke-width:1;"/></g><!--link ???? to ????--><g class="link" data-entity-1="&#27491;&#21521;&#34892;&#20026;" data-entity-2="&#36523;&#20221;&#21407;&#21017;" data-source-line="61" data-uid="lnk14" id="link_&#27491;&#21521;&#34892;&#20026;_&#36523;&#20221;&#21407;&#21017;"><path codeLine="61" d="M426.93,519.7294 C416.25,541.8494 406.7898,561.4367 396.5198,582.6967" fill="none" id="&#27491;&#21521;&#34892;&#20026;-to-&#36523;&#20221;&#21407;&#21017;" style="stroke:#181818;stroke-width:1;"/><polygon fill="#181818" points="393.91,588.0994,401.4265,581.7353,396.0849,583.5972,394.223,578.2555,393.91,588.0994" style="stroke:#181818;stroke-width:1;"/></g><!--link ???? to ??_????--><g class="link" data-entity-1="&#36127;&#21521;&#34892;&#20026;" data-entity-2="&#26696;&#20363;_&#23454;&#39564;&#25302;&#24310;" data-source-line="102" data-uid="lnk21" id="link_&#36127;&#21521;&#34892;&#20026;_&#26696;&#20363;_&#23454;&#39564;&#25302;&#24310;"><path codeLine="102" d="M726,163.7294 C726,185.8494 726,204.8394 726,226.0994" fill="none" id="&#36127;&#21521;&#34892;&#20026;-to-&#26696;&#20363;_&#23454;&#39564;&#25302;&#24310;" style="stroke:#181818;stroke-width:1;"/><polygon fill="#181818" points="726,232.0994,730,223.0994,726,227.0994,722,223.0994,726,232.0994" style="stroke:#181818;stroke-width:1;"/></g><!--link ???? to ??_????--><g class="link" data-entity-1="&#27491;&#21521;&#34892;&#20026;" data-entity-2="&#26696;&#20363;_&#31435;&#21363;&#23436;&#25104;" data-source-line="103" data-uid="lnk22" id="link_&#27491;&#21521;&#34892;&#20026;_&#26696;&#20363;_&#31435;&#21363;&#23436;&#25104;"><path codeLine="103" d="M483.07,519.7294 C493.75,541.8494 503.2102,561.4367 513.4802,582.6967" fill="none" id="&#27491;&#21521;&#34892;&#20026;-to-&#26696;&#20363;_&#31435;&#21363;&#23436;&#25104;" style="stroke:#181818;stroke-width:1;"/><polygon fill="#181818" points="516.09,588.0994,515.777,578.2555,513.9151,583.5972,508.5735,581.7353,516.09,588.0994" style="stroke:#181818;stroke-width:1;"/></g><!--link ???? to ??_????--><g class="link" data-entity-1="&#36127;&#21521;&#34892;&#20026;" data-entity-2="&#26696;&#20363;_&#26085;&#24120;&#25302;&#24310;" data-source-line="105" data-uid="lnk23" id="link_&#36127;&#21521;&#34892;&#20026;_&#26696;&#20363;_&#26085;&#24120;&#25302;&#24310;"><path codeLine="105" d="M778.5,163.7294 C798.49,185.8494 817.0486,206.3865 836.2486,227.6465" fill="none" id="&#36127;&#21521;&#34892;&#20026;-to-&#26696;&#20363;_&#26085;&#24120;&#25302;&#24310;" style="stroke:#181818;stroke-width:1;"/><polygon fill="#181818" points="840.27,232.0994,837.2065,222.7391,836.9188,228.3886,831.2693,228.101,840.27,232.0994" style="stroke:#181818;stroke-width:1;"/></g><!--link ???? to ??_????--><g class="link" data-entity-1="&#27491;&#21521;&#34892;&#20026;" data-entity-2="&#26696;&#20363;_&#31435;&#21363;&#34892;&#21160;" data-source-line="106" data-uid="lnk24" id="link_&#27491;&#21521;&#34892;&#20026;_&#26696;&#20363;_&#31435;&#21363;&#34892;&#21160;"><path codeLine="106" d="M535.96,519.7694 C562.44,538.8194 591.99,560.0994 619,579.6094 C626.79,585.2294 630.1421,587.6479 638.2121,593.4979" fill="none" id="&#27491;&#21521;&#34892;&#20026;-to-&#26696;&#20363;_&#31435;&#21363;&#34892;&#21160;" style="stroke:#181818;stroke-width:1;"/><polygon fill="#181818" points="643.07,597.0194,638.1309,588.4985,639.0218,594.0848,633.4355,594.9757,643.07,597.0194" style="stroke:#181818;stroke-width:1;"/></g><!--link ???? to ??_????--><g class="link" data-entity-1="&#36127;&#21521;&#34892;&#20026;" data-entity-2="&#26696;&#20363;_&#24202;&#19978;&#23089;&#20048;" data-source-line="108" data-uid="lnk25" id="link_&#36127;&#21521;&#34892;&#20026;_&#26696;&#20363;_&#24202;&#19978;&#23089;&#20048;"><path codeLine="108" d="M783.01,130.3494 C832.38,152.5694 905.08,187.2094 965,223.6094 C970.53,226.9694 971.1742,227.2565 976.7542,231.0165" fill="none" id="&#36127;&#21521;&#34892;&#20026;-to-&#26696;&#20363;_&#24202;&#19978;&#23089;&#20048;" style="stroke:#181818;stroke-width:1;"/><polygon fill="#181818" points="981.73,234.3694,976.5016,226.0229,977.5835,231.5753,972.0311,232.6573,981.73,234.3694" style="stroke:#181818;stroke-width:1;"/></g><!--link ???? to ??_????--><g class="link" data-entity-1="&#27491;&#21521;&#34892;&#20026;" data-entity-2="&#26696;&#20363;_&#36523;&#20221;&#32422;&#26463;" data-source-line="109" data-uid="lnk26" id="link_&#27491;&#21521;&#34892;&#20026;_&#26696;&#20363;_&#36523;&#20221;&#32422;&#26463;"><path codeLine="109" d="M538.31,484.7794 C605.44,505.1294 701.14,537.9494 779,579.6094 C784.55,582.5794 785.0895,582.6757 790.5995,586.1857" fill="none" id="&#27491;&#21521;&#34892;&#20026;-to-&#26696;&#20363;_&#36523;&#20221;&#32422;&#26463;" style="stroke:#181818;stroke-width:1;"/><polygon fill="#181818" points="795.66,589.4094,790.2184,581.2003,791.443,586.723,785.9202,587.9476,795.66,589.4094" style="stroke:#181818;stroke-width:1;"/></g><!--SRC=[XLJBRjfG4DtxAzXrKQ7yGDjiikm_H5NLHQNi4dKJLJ9906DZC6q50HmU2Q-y30H4Z1t2ptZccbL-eTVSQyV6UNY5PYvdPiwSEGS_3_P-9DnstZ4jR4lEe_Bq8E7j1MYbnA_z11HL-klf8IS8t_U-xTE0Rc5rc3WK4lJx24PZTPL7kGibcKMmqWNJT2m5v3QBEAOCbho5EGLrI_Zj0xdJ9aLcXNquLCfWpq0QeIw2Lk0rbiT4oz3dgAJ9T4ZwGnwdhNLKSj9pgwKj8i_TyJL7kSkvotiOZ9sv5YlBHekM9TSAg1FCzMcOJW_pEnYDmSWxLiQRd5KR5HtRfaDvBoipDDEqAPwIigYUiwmhKc0LJuUGqj5ky8RoETUwTko5LzPIdfkXCs93tsLK19mMA7TrABP0Rl58fyRGYPGXHwPFz6nLcK9dZ8K-YxZPAvHAA8gaN8hLu2izZ72wiF7iaM-95R2MT3AiZZWn4vlOJJAOW57pHqaH-nOB0tTP3v7QCYaY59eWLVqIb0Qtb_8swgtp2i-wpqHQYaUvP4Eg5dxi6fUhYh4wFuLM9bWp-JUWj84ymFhIiI_OlaCoMXCRBStAaTg9HyVfq1sbjZb3oohfguvbEGyr50lENA8Ty9otCwr7RdgWIQHkO2lBeBUzMXyIdr_vQ0hI4qhKMs-4YDW_9PFyZ0H-JSdabuWmD_xWfIDI4I8g3gLPN8ZdmnkAPyCalZlilRFuovo2s1d8bzySdEjZ_NoNkyNwoCCdBursThv2JdLC4JgNVEtDMwvm8u-IvkylImRAfWGuEhjYzZn0BseKbowPXlspQOKDXUFAHz0jSfrluZ97YtRjjYzGLxrBdrQuh1l7e3_I28X_maBdKdwvMIRieDdZ2QN2inx_B29Uimb1JTMprhND1NSjtNF3usUbk8i5okLLS-9RYUSNZDaO8fC1iNfurWoTCJDmLeYZfEdrpY1pHxiFB8uVJM1nCGc_e88NX1fVvkjGuTMy0yMeVgEh49klGeK94lu3]--></g></svg>