<svg xmlns="http://www.w3.org/2000/svg" xmlns:xlink="http://www.w3.org/1999/xlink" contentStyleType="text/css" data-diagram-type="CLASS" height="493px" preserveAspectRatio="none" style="width:1025px;height:493px;background:#FFFFFF;" version="1.1" viewBox="0 0 1025 493" width="1025px" zoomAndPan="magnify"><title>&#34892;&#20026;&#20559;&#24046;&#20998;&#31867;&#27169;&#22411;</title><defs/><g><g class="title" data-source-line="2"><text fill="#000000" font-family="sans-serif" font-size="14" font-weight="bold" lengthAdjust="spacing" textLength="115.5" x="448.0293" y="24.5332">&#34892;&#20026;&#20559;&#24046;&#20998;&#31867;&#27169;&#22411;</text></g><!--class ????--><g class="entity" data-entity="&#34892;&#20026;&#20559;&#24046;" data-source-line="4" data-uid="ent0002" id="entity_&#34892;&#20026;&#20559;&#24046;"><rect fill="#F1F1F1" height="100.8281" rx="2.5" ry="2.5" style="stroke:#181818;stroke-width:0.5;" width="88" x="466" y="206.6094"/><ellipse cx="481" cy="222.6094" fill="#ADD1B2" rx="11" ry="11" style="stroke:#181818;stroke-width:1;"/><path d="M483.7656,218.4844 Q483.9219,218.2656 484.1094,218.1563 Q484.2969,218.0469 484.5156,218.0469 Q484.8906,218.0469 485.125,218.3125 Q485.3594,218.5625 485.3594,219.1719 L485.3594,220.625 Q485.3594,221.2344 485.125,221.5 Q484.8906,221.7656 484.5156,221.7656 Q484.1719,221.7656 483.9688,221.5625 Q483.7656,221.375 483.6563,220.8594 Q483.6094,220.5 483.4219,220.3125 Q483.0938,219.9375 482.4844,219.7188 Q481.875,219.5 481.25,219.5 Q480.4844,219.5 479.8438,219.8281 Q479.2188,220.1563 478.7188,220.9063 Q478.2344,221.6563 478.2344,222.6875 L478.2344,223.7813 Q478.2344,225.0156 479.125,225.8438 Q480.0156,226.6563 481.6094,226.6563 Q482.5469,226.6563 483.2031,226.4063 Q483.5938,226.25 484.0156,225.8125 Q484.2813,225.5469 484.4219,225.4688 Q484.5781,225.3906 484.7813,225.3906 Q485.1094,225.3906 485.3594,225.6563 Q485.625,225.9063 485.625,226.25 Q485.625,226.5938 485.2813,227 Q484.7813,227.5781 483.9844,227.9063 Q482.9063,228.3594 481.6094,228.3594 Q480.0938,228.3594 478.8906,227.7344 Q477.9063,227.2344 477.2188,226.1719 Q476.5313,225.0938 476.5313,223.8125 L476.5313,222.6563 Q476.5313,221.3281 477.1406,220.1875 Q477.7656,219.0313 478.8594,218.4219 Q479.9531,217.7969 481.1875,217.7969 Q481.9219,217.7969 482.5625,217.9688 Q483.2188,218.125 483.7656,218.4844 Z " fill="#000000"/><text fill="#000000" font-family="sans-serif" font-size="14" lengthAdjust="spacing" textLength="56" x="495" y="228.3379">&#34892;&#20026;&#20559;&#24046;</text><line style="stroke:#181818;stroke-width:0.5;" x1="467" x2="553" y1="238.6094" y2="238.6094"/><ellipse cx="477" cy="252.9141" fill="none" rx="3" ry="3" style="stroke:#038048;stroke-width:1;"/><text fill="#000000" font-family="sans-serif" font-size="14" lengthAdjust="spacing" textLength="56" x="486" y="257.1426">&#35302;&#21457;&#22330;&#26223;</text><ellipse cx="477" cy="270.5234" fill="none" rx="3" ry="3" style="stroke:#038048;stroke-width:1;"/><text fill="#000000" font-family="sans-serif" font-size="14" lengthAdjust="spacing" textLength="56" x="486" y="274.752">&#21363;&#26102;&#24819;&#27861;</text><ellipse cx="477" cy="288.1328" fill="none" rx="3" ry="3" style="stroke:#038048;stroke-width:1;"/><text fill="#000000" font-family="sans-serif" font-size="14" lengthAdjust="spacing" textLength="56" x="486" y="292.3613">&#38271;&#26399;&#24433;&#21709;</text><line style="stroke:#181818;stroke-width:0.5;" x1="467" x2="553" y1="299.4375" y2="299.4375"/></g><!--class ??????--><g class="entity" data-entity="&#21363;&#26102;&#22870;&#21169;&#20559;&#24046;" data-source-line="10" data-uid="ent0003" id="entity_&#21363;&#26102;&#22870;&#21169;&#20559;&#24046;"><rect fill="#F1F1F1" height="83.2188" rx="2.5" ry="2.5" style="stroke:#181818;stroke-width:0.5;" width="153.5586" x="7" y="54.6094"/><ellipse cx="38.9014" cy="70.6094" fill="#ADD1B2" rx="11" ry="11" style="stroke:#181818;stroke-width:1;"/><path d="M41.667,66.4844 Q41.8232,66.2656 42.0107,66.1563 Q42.1982,66.0469 42.417,66.0469 Q42.792,66.0469 43.0264,66.3125 Q43.2607,66.5625 43.2607,67.1719 L43.2607,68.625 Q43.2607,69.2344 43.0264,69.5 Q42.792,69.7656 42.417,69.7656 Q42.0732,69.7656 41.8701,69.5625 Q41.667,69.375 41.5576,68.8594 Q41.5107,68.5 41.3232,68.3125 Q40.9951,67.9375 40.3857,67.7188 Q39.7764,67.5 39.1514,67.5 Q38.3857,67.5 37.7451,67.8281 Q37.1201,68.1563 36.6201,68.9063 Q36.1357,69.6563 36.1357,70.6875 L36.1357,71.7813 Q36.1357,73.0156 37.0264,73.8438 Q37.917,74.6563 39.5107,74.6563 Q40.4482,74.6563 41.1045,74.4063 Q41.4951,74.25 41.917,73.8125 Q42.1826,73.5469 42.3232,73.4688 Q42.4795,73.3906 42.6826,73.3906 Q43.0107,73.3906 43.2607,73.6563 Q43.5264,73.9063 43.5264,74.25 Q43.5264,74.5938 43.1826,75 Q42.6826,75.5781 41.8857,75.9063 Q40.8076,76.3594 39.5107,76.3594 Q37.9951,76.3594 36.792,75.7344 Q35.8076,75.2344 35.1201,74.1719 Q34.4326,73.0938 34.4326,71.8125 L34.4326,70.6563 Q34.4326,69.3281 35.042,68.1875 Q35.667,67.0313 36.7607,66.4219 Q37.8545,65.7969 39.0889,65.7969 Q39.8232,65.7969 40.4639,65.9688 Q41.1201,66.125 41.667,66.4844 Z " fill="#000000"/><text fill="#000000" font-family="sans-serif" font-size="14" lengthAdjust="spacing" textLength="84" x="56.6572" y="76.3379">&#21363;&#26102;&#22870;&#21169;&#20559;&#24046;</text><line style="stroke:#181818;stroke-width:0.5;" x1="8" x2="159.5586" y1="86.6094" y2="86.6094"/><ellipse cx="18" cy="100.9141" fill="none" rx="3" ry="3" style="stroke:#038048;stroke-width:1;"/><text fill="#000000" font-family="sans-serif" font-size="14" lengthAdjust="spacing" textLength="127.5586" x="27" y="105.1426">&#34920;&#29616;: &#21507;&#22909;/&#28216;&#25103;/&#20241;&#24687;</text><ellipse cx="18" cy="118.5234" fill="none" rx="3" ry="3" style="stroke:#038048;stroke-width:1;"/><text fill="#000000" font-family="sans-serif" font-size="14" lengthAdjust="spacing" textLength="119.7793" x="27" y="122.752">&#29305;&#24449;: &#36861;&#27714;&#24403;&#19979;&#26368;&#20248;</text><line style="stroke:#181818;stroke-width:0.5;" x1="8" x2="159.5586" y1="129.8281" y2="129.8281"/></g><!--class ????--><g class="entity" data-entity="&#25302;&#24310;&#20559;&#24046;" data-source-line="15" data-uid="ent0004" id="entity_&#25302;&#24310;&#20559;&#24046;"><rect fill="#F1F1F1" height="100.8281" rx="2.5" ry="2.5" style="stroke:#181818;stroke-width:0.5;" width="177.6689" x="196" y="45.6094"/><ellipse cx="252.5845" cy="61.6094" fill="#ADD1B2" rx="11" ry="11" style="stroke:#181818;stroke-width:1;"/><path d="M255.3501,57.4844 Q255.5063,57.2656 255.6938,57.1563 Q255.8813,57.0469 256.1001,57.0469 Q256.4751,57.0469 256.7095,57.3125 Q256.9438,57.5625 256.9438,58.1719 L256.9438,59.625 Q256.9438,60.2344 256.7095,60.5 Q256.4751,60.7656 256.1001,60.7656 Q255.7563,60.7656 255.5532,60.5625 Q255.3501,60.375 255.2407,59.8594 Q255.1938,59.5 255.0063,59.3125 Q254.6782,58.9375 254.0688,58.7188 Q253.4595,58.5 252.8345,58.5 Q252.0688,58.5 251.4282,58.8281 Q250.8032,59.1563 250.3032,59.9063 Q249.8188,60.6563 249.8188,61.6875 L249.8188,62.7813 Q249.8188,64.0156 250.7095,64.8438 Q251.6001,65.6563 253.1938,65.6563 Q254.1313,65.6563 254.7876,65.4063 Q255.1782,65.25 255.6001,64.8125 Q255.8657,64.5469 256.0063,64.4688 Q256.1626,64.3906 256.3657,64.3906 Q256.6938,64.3906 256.9438,64.6563 Q257.2095,64.9063 257.2095,65.25 Q257.2095,65.5938 256.8657,66 Q256.3657,66.5781 255.5688,66.9063 Q254.4907,67.3594 253.1938,67.3594 Q251.6782,67.3594 250.4751,66.7344 Q249.4907,66.2344 248.8032,65.1719 Q248.1157,64.0938 248.1157,62.8125 L248.1157,61.6563 Q248.1157,60.3281 248.7251,59.1875 Q249.3501,58.0313 250.4438,57.4219 Q251.5376,56.7969 252.772,56.7969 Q253.5063,56.7969 254.147,56.9688 Q254.8032,57.125 255.3501,57.4844 Z " fill="#000000"/><text fill="#000000" font-family="sans-serif" font-size="14" lengthAdjust="spacing" textLength="56" x="273.0845" y="67.3379">&#25302;&#24310;&#20559;&#24046;</text><line style="stroke:#181818;stroke-width:0.5;" x1="197" x2="372.6689" y1="77.6094" y2="77.6094"/><ellipse cx="207" cy="91.9141" fill="none" rx="3" ry="3" style="stroke:#038048;stroke-width:1;"/><text fill="#000000" font-family="sans-serif" font-size="14" lengthAdjust="spacing" textLength="151.6689" x="216" y="96.1426">&#34920;&#29616;: &#20316;&#19994;&#25302;&#24310;/&#23454;&#39564;&#25302;&#24310;</text><text fill="#000000" font-family="sans-serif" font-size="14" lengthAdjust="spacing" textLength="73.8896" x="216" y="113.752">/&#22823;&#20219;&#21153;&#25302;&#24310;</text><ellipse cx="207" cy="127.1328" fill="none" rx="3" ry="3" style="stroke:#038048;stroke-width:1;"/><text fill="#000000" font-family="sans-serif" font-size="14" lengthAdjust="spacing" textLength="91.7793" x="216" y="131.3613">&#29305;&#24449;: &#24310;&#36831;&#25104;&#26412;</text><line style="stroke:#181818;stroke-width:0.5;" x1="197" x2="372.6689" y1="138.4375" y2="138.4375"/></g><!--class ????--><g class="entity" data-entity="&#33258;&#25511;&#22833;&#25928;" data-source-line="21" data-uid="ent0005" id="entity_&#33258;&#25511;&#22833;&#25928;"><rect fill="#F1F1F1" height="100.8281" rx="2.5" ry="2.5" style="stroke:#181818;stroke-width:0.5;" width="201.7793" x="409" y="45.6094"/><ellipse cx="477.6396" cy="61.6094" fill="#ADD1B2" rx="11" ry="11" style="stroke:#181818;stroke-width:1;"/><path d="M480.4053,57.4844 Q480.5615,57.2656 480.749,57.1563 Q480.9365,57.0469 481.1553,57.0469 Q481.5303,57.0469 481.7646,57.3125 Q481.999,57.5625 481.999,58.1719 L481.999,59.625 Q481.999,60.2344 481.7646,60.5 Q481.5303,60.7656 481.1553,60.7656 Q480.8115,60.7656 480.6084,60.5625 Q480.4053,60.375 480.2959,59.8594 Q480.249,59.5 480.0615,59.3125 Q479.7334,58.9375 479.124,58.7188 Q478.5146,58.5 477.8896,58.5 Q477.124,58.5 476.4834,58.8281 Q475.8584,59.1563 475.3584,59.9063 Q474.874,60.6563 474.874,61.6875 L474.874,62.7813 Q474.874,64.0156 475.7646,64.8438 Q476.6553,65.6563 478.249,65.6563 Q479.1865,65.6563 479.8428,65.4063 Q480.2334,65.25 480.6553,64.8125 Q480.9209,64.5469 481.0615,64.4688 Q481.2178,64.3906 481.4209,64.3906 Q481.749,64.3906 481.999,64.6563 Q482.2646,64.9063 482.2646,65.25 Q482.2646,65.5938 481.9209,66 Q481.4209,66.5781 480.624,66.9063 Q479.5459,67.3594 478.249,67.3594 Q476.7334,67.3594 475.5303,66.7344 Q474.5459,66.2344 473.8584,65.1719 Q473.1709,64.0938 473.1709,62.8125 L473.1709,61.6563 Q473.1709,60.3281 473.7803,59.1875 Q474.4053,58.0313 475.499,57.4219 Q476.5928,56.7969 477.8271,56.7969 Q478.5615,56.7969 479.2021,56.9688 Q479.8584,57.125 480.4053,57.4844 Z " fill="#000000"/><text fill="#000000" font-family="sans-serif" font-size="14" lengthAdjust="spacing" textLength="56" x="498.1396" y="67.3379">&#33258;&#25511;&#22833;&#25928;</text><line style="stroke:#181818;stroke-width:0.5;" x1="410" x2="609.7793" y1="77.6094" y2="77.6094"/><ellipse cx="420" cy="91.9141" fill="none" rx="3" ry="3" style="stroke:#038048;stroke-width:1;"/><text fill="#000000" font-family="sans-serif" font-size="14" lengthAdjust="spacing" textLength="175.7793" x="429" y="96.1426">&#34920;&#29616;: &#37325;&#26032;&#19979;&#36733;&#25238;&#38899;&#31561;&#30701;&#35270;&#39057;</text><text fill="#000000" font-family="sans-serif" font-size="14" lengthAdjust="spacing" textLength="169.5586" x="429" y="113.752">&#24179;&#21488;, &#21363;&#26102;&#23089;&#20048;, &#21482;&#26159;&#30475;&#19968;&#20250;</text><ellipse cx="420" cy="127.1328" fill="none" rx="3" ry="3" style="stroke:#038048;stroke-width:1;"/><text fill="#000000" font-family="sans-serif" font-size="14" lengthAdjust="spacing" textLength="105.7793" x="429" y="131.3613">&#29305;&#24449;: &#29615;&#22659;&#21453;&#25511;&#21046;</text><line style="stroke:#181818;stroke-width:0.5;" x1="410" x2="609.7793" y1="138.4375" y2="138.4375"/></g><!--class ????--><g class="entity" data-entity="&#35748;&#30693;&#27450;&#39575;" data-source-line="27" data-uid="ent0006" id="entity_&#35748;&#30693;&#27450;&#39575;"><rect fill="#F1F1F1" height="83.2188" rx="2.5" ry="2.5" style="stroke:#181818;stroke-width:0.5;" width="183.5479" x="646" y="54.6094"/><ellipse cx="705.5239" cy="70.6094" fill="#ADD1B2" rx="11" ry="11" style="stroke:#181818;stroke-width:1;"/><path d="M708.2896,66.4844 Q708.4458,66.2656 708.6333,66.1563 Q708.8208,66.0469 709.0396,66.0469 Q709.4146,66.0469 709.6489,66.3125 Q709.8833,66.5625 709.8833,67.1719 L709.8833,68.625 Q709.8833,69.2344 709.6489,69.5 Q709.4146,69.7656 709.0396,69.7656 Q708.6958,69.7656 708.4927,69.5625 Q708.2896,69.375 708.1802,68.8594 Q708.1333,68.5 707.9458,68.3125 Q707.6177,67.9375 707.0083,67.7188 Q706.3989,67.5 705.7739,67.5 Q705.0083,67.5 704.3677,67.8281 Q703.7427,68.1563 703.2427,68.9063 Q702.7583,69.6563 702.7583,70.6875 L702.7583,71.7813 Q702.7583,73.0156 703.6489,73.8438 Q704.5396,74.6563 706.1333,74.6563 Q707.0708,74.6563 707.7271,74.4063 Q708.1177,74.25 708.5396,73.8125 Q708.8052,73.5469 708.9458,73.4688 Q709.1021,73.3906 709.3052,73.3906 Q709.6333,73.3906 709.8833,73.6563 Q710.1489,73.9063 710.1489,74.25 Q710.1489,74.5938 709.8052,75 Q709.3052,75.5781 708.5083,75.9063 Q707.4302,76.3594 706.1333,76.3594 Q704.6177,76.3594 703.4146,75.7344 Q702.4302,75.2344 701.7427,74.1719 Q701.0552,73.0938 701.0552,71.8125 L701.0552,70.6563 Q701.0552,69.3281 701.6646,68.1875 Q702.2896,67.0313 703.3833,66.4219 Q704.4771,65.7969 705.7114,65.7969 Q706.4458,65.7969 707.0864,65.9688 Q707.7427,66.125 708.2896,66.4844 Z " fill="#000000"/><text fill="#000000" font-family="sans-serif" font-size="14" lengthAdjust="spacing" textLength="56" x="726.0239" y="76.3379">&#35748;&#30693;&#27450;&#39575;</text><line style="stroke:#181818;stroke-width:0.5;" x1="647" x2="828.5479" y1="86.6094" y2="86.6094"/><ellipse cx="657" cy="100.9141" fill="none" rx="3" ry="3" style="stroke:#038048;stroke-width:1;"/><text fill="#000000" font-family="sans-serif" font-size="14" lengthAdjust="spacing" textLength="157.5479" x="666" y="105.1426">&#34920;&#29616;: "&#23601;&#19968;&#20250;"/"&#20197;&#21518;&#20877;&#20570;"</text><ellipse cx="657" cy="118.5234" fill="none" rx="3" ry="3" style="stroke:#038048;stroke-width:1;"/><text fill="#000000" font-family="sans-serif" font-size="14" lengthAdjust="spacing" textLength="105.7793" x="666" y="122.752">&#29305;&#24449;: &#21512;&#29702;&#21270;&#20511;&#21475;</text><line style="stroke:#181818;stroke-width:0.5;" x1="647" x2="828.5479" y1="129.8281" y2="129.8281"/></g><!--class ????--><g class="entity" data-entity="&#25042;&#24816;&#24605;&#24819;" data-source-line="32" data-uid="ent0007" id="entity_&#25042;&#24816;&#24605;&#24819;"><rect fill="#F1F1F1" height="100.8281" rx="2.5" ry="2.5" style="stroke:#181818;stroke-width:0.5;" width="153.5586" x="865" y="45.6094"/><ellipse cx="909.5293" cy="61.6094" fill="#ADD1B2" rx="11" ry="11" style="stroke:#181818;stroke-width:1;"/><path d="M912.2949,57.4844 Q912.4512,57.2656 912.6387,57.1563 Q912.8262,57.0469 913.0449,57.0469 Q913.4199,57.0469 913.6543,57.3125 Q913.8887,57.5625 913.8887,58.1719 L913.8887,59.625 Q913.8887,60.2344 913.6543,60.5 Q913.4199,60.7656 913.0449,60.7656 Q912.7012,60.7656 912.498,60.5625 Q912.2949,60.375 912.1855,59.8594 Q912.1387,59.5 911.9512,59.3125 Q911.623,58.9375 911.0137,58.7188 Q910.4043,58.5 909.7793,58.5 Q909.0137,58.5 908.373,58.8281 Q907.748,59.1563 907.248,59.9063 Q906.7637,60.6563 906.7637,61.6875 L906.7637,62.7813 Q906.7637,64.0156 907.6543,64.8438 Q908.5449,65.6563 910.1387,65.6563 Q911.0762,65.6563 911.7324,65.4063 Q912.123,65.25 912.5449,64.8125 Q912.8105,64.5469 912.9512,64.4688 Q913.1074,64.3906 913.3105,64.3906 Q913.6387,64.3906 913.8887,64.6563 Q914.1543,64.9063 914.1543,65.25 Q914.1543,65.5938 913.8105,66 Q913.3105,66.5781 912.5137,66.9063 Q911.4355,67.3594 910.1387,67.3594 Q908.623,67.3594 907.4199,66.7344 Q906.4355,66.2344 905.748,65.1719 Q905.0605,64.0938 905.0605,62.8125 L905.0605,61.6563 Q905.0605,60.3281 905.6699,59.1875 Q906.2949,58.0313 907.3887,57.4219 Q908.4824,56.7969 909.7168,56.7969 Q910.4512,56.7969 911.0918,56.9688 Q911.748,57.125 912.2949,57.4844 Z " fill="#000000"/><text fill="#000000" font-family="sans-serif" font-size="14" lengthAdjust="spacing" textLength="56" x="930.0293" y="67.3379">&#25042;&#24816;&#24605;&#24819;</text><line style="stroke:#181818;stroke-width:0.5;" x1="866" x2="1017.5586" y1="77.6094" y2="77.6094"/><ellipse cx="876" cy="91.9141" fill="none" rx="3" ry="3" style="stroke:#038048;stroke-width:1;"/><text fill="#000000" font-family="sans-serif" font-size="14" lengthAdjust="spacing" textLength="127.5586" x="885" y="96.1426">&#34920;&#29616;: &#24949;&#25042;/&#19981;&#24819;&#36215;&#24202;/</text><text fill="#000000" font-family="sans-serif" font-size="14" lengthAdjust="spacing" textLength="87.8896" x="885" y="113.752">&#24819;&#20241;&#24687;/&#25042;&#24471;&#24178;</text><ellipse cx="876" cy="127.1328" fill="none" rx="3" ry="3" style="stroke:#038048;stroke-width:1;"/><text fill="#000000" font-family="sans-serif" font-size="14" lengthAdjust="spacing" textLength="91.7793" x="885" y="131.3613">&#29305;&#24449;: &#26469;&#26085;&#26041;&#38271;</text><line style="stroke:#181818;stroke-width:0.5;" x1="866" x2="1017.5586" y1="138.4375" y2="138.4375"/></g><!--class ????--><g class="entity" data-entity="&#35302;&#21457;&#22330;&#26223;" data-source-line="44" data-uid="ent0013" id="entity_&#35302;&#21457;&#22330;&#26223;"><rect fill="#F1F1F1" height="118.4375" rx="2.5" ry="2.5" style="stroke:#181818;stroke-width:0.5;" width="124" x="378" y="367.6094"/><ellipse cx="409.2" cy="383.6094" fill="#ADD1B2" rx="11" ry="11" style="stroke:#181818;stroke-width:1;"/><path d="M411.9656,379.4844 Q412.1219,379.2656 412.3094,379.1563 Q412.4969,379.0469 412.7156,379.0469 Q413.0906,379.0469 413.325,379.3125 Q413.5594,379.5625 413.5594,380.1719 L413.5594,381.625 Q413.5594,382.2344 413.325,382.5 Q413.0906,382.7656 412.7156,382.7656 Q412.3719,382.7656 412.1688,382.5625 Q411.9656,382.375 411.8563,381.8594 Q411.8094,381.5 411.6219,381.3125 Q411.2938,380.9375 410.6844,380.7188 Q410.075,380.5 409.45,380.5 Q408.6844,380.5 408.0438,380.8281 Q407.4188,381.1563 406.9188,381.9063 Q406.4344,382.6563 406.4344,383.6875 L406.4344,384.7813 Q406.4344,386.0156 407.325,386.8438 Q408.2156,387.6563 409.8094,387.6563 Q410.7469,387.6563 411.4031,387.4063 Q411.7938,387.25 412.2156,386.8125 Q412.4813,386.5469 412.6219,386.4688 Q412.7781,386.3906 412.9813,386.3906 Q413.3094,386.3906 413.5594,386.6563 Q413.825,386.9063 413.825,387.25 Q413.825,387.5938 413.4813,388 Q412.9813,388.5781 412.1844,388.9063 Q411.1063,389.3594 409.8094,389.3594 Q408.2938,389.3594 407.0906,388.7344 Q406.1063,388.2344 405.4188,387.1719 Q404.7313,386.0938 404.7313,384.8125 L404.7313,383.6563 Q404.7313,382.3281 405.3406,381.1875 Q405.9656,380.0313 407.0594,379.4219 Q408.1531,378.7969 409.3875,378.7969 Q410.1219,378.7969 410.7625,378.9688 Q411.4188,379.125 411.9656,379.4844 Z " fill="#000000"/><text fill="#000000" font-family="sans-serif" font-size="14" lengthAdjust="spacing" textLength="56" x="426.8" y="389.3379">&#35302;&#21457;&#22330;&#26223;</text><line style="stroke:#181818;stroke-width:0.5;" x1="379" x2="501" y1="399.6094" y2="399.6094"/><ellipse cx="389" cy="413.9141" fill="none" rx="3" ry="3" style="stroke:#038048;stroke-width:1;"/><text fill="#000000" font-family="sans-serif" font-size="14" lengthAdjust="spacing" textLength="42" x="398" y="418.1426">&#32771;&#35797;&#21518;</text><ellipse cx="389" cy="431.5234" fill="none" rx="3" ry="3" style="stroke:#038048;stroke-width:1;"/><text fill="#000000" font-family="sans-serif" font-size="14" lengthAdjust="spacing" textLength="42" x="398" y="435.752">&#21507;&#39277;&#26102;</text><ellipse cx="389" cy="449.1328" fill="none" rx="3" ry="3" style="stroke:#038048;stroke-width:1;"/><text fill="#000000" font-family="sans-serif" font-size="14" lengthAdjust="spacing" textLength="56" x="398" y="453.3613">&#20241;&#24687;&#21069;&#21518;</text><ellipse cx="389" cy="466.7422" fill="none" rx="3" ry="3" style="stroke:#038048;stroke-width:1;"/><text fill="#000000" font-family="sans-serif" font-size="14" lengthAdjust="spacing" textLength="98" x="398" y="470.9707">&#26377;&#20219;&#21153;&#20294;&#19981;&#32039;&#24613;</text><line style="stroke:#181818;stroke-width:0.5;" x1="379" x2="501" y1="478.0469" y2="478.0469"/></g><!--class ????--><g class="entity" data-entity="&#34892;&#20026;&#32467;&#26524;" data-source-line="51" data-uid="ent0014" id="entity_&#34892;&#20026;&#32467;&#26524;"><rect fill="#F1F1F1" height="100.8281" rx="2.5" ry="2.5" style="stroke:#181818;stroke-width:0.5;" width="88" x="537" y="376.1094"/><ellipse cx="552" cy="392.1094" fill="#ADD1B2" rx="11" ry="11" style="stroke:#181818;stroke-width:1;"/><path d="M554.7656,387.9844 Q554.9219,387.7656 555.1094,387.6563 Q555.2969,387.5469 555.5156,387.5469 Q555.8906,387.5469 556.125,387.8125 Q556.3594,388.0625 556.3594,388.6719 L556.3594,390.125 Q556.3594,390.7344 556.125,391 Q555.8906,391.2656 555.5156,391.2656 Q555.1719,391.2656 554.9688,391.0625 Q554.7656,390.875 554.6563,390.3594 Q554.6094,390 554.4219,389.8125 Q554.0938,389.4375 553.4844,389.2188 Q552.875,389 552.25,389 Q551.4844,389 550.8438,389.3281 Q550.2188,389.6563 549.7188,390.4063 Q549.2344,391.1563 549.2344,392.1875 L549.2344,393.2813 Q549.2344,394.5156 550.125,395.3438 Q551.0156,396.1563 552.6094,396.1563 Q553.5469,396.1563 554.2031,395.9063 Q554.5938,395.75 555.0156,395.3125 Q555.2813,395.0469 555.4219,394.9688 Q555.5781,394.8906 555.7813,394.8906 Q556.1094,394.8906 556.3594,395.1563 Q556.625,395.4063 556.625,395.75 Q556.625,396.0938 556.2813,396.5 Q555.7813,397.0781 554.9844,397.4063 Q553.9063,397.8594 552.6094,397.8594 Q551.0938,397.8594 549.8906,397.2344 Q548.9063,396.7344 548.2188,395.6719 Q547.5313,394.5938 547.5313,393.3125 L547.5313,392.1563 Q547.5313,390.8281 548.1406,389.6875 Q548.7656,388.5313 549.8594,387.9219 Q550.9531,387.2969 552.1875,387.2969 Q552.9219,387.2969 553.5625,387.4688 Q554.2188,387.625 554.7656,387.9844 Z " fill="#000000"/><text fill="#000000" font-family="sans-serif" font-size="14" lengthAdjust="spacing" textLength="56" x="566" y="397.8379">&#34892;&#20026;&#32467;&#26524;</text><line style="stroke:#181818;stroke-width:0.5;" x1="538" x2="624" y1="408.1094" y2="408.1094"/><ellipse cx="548" cy="422.4141" fill="none" rx="3" ry="3" style="stroke:#038048;stroke-width:1;"/><text fill="#000000" font-family="sans-serif" font-size="14" lengthAdjust="spacing" textLength="56" x="557" y="426.6426">&#26102;&#38388;&#28010;&#36153;</text><ellipse cx="548" cy="440.0234" fill="none" rx="3" ry="3" style="stroke:#038048;stroke-width:1;"/><text fill="#000000" font-family="sans-serif" font-size="14" lengthAdjust="spacing" textLength="56" x="557" y="444.252">&#20219;&#21153;&#22534;&#31215;</text><ellipse cx="548" cy="457.6328" fill="none" rx="3" ry="3" style="stroke:#038048;stroke-width:1;"/><text fill="#000000" font-family="sans-serif" font-size="14" lengthAdjust="spacing" textLength="56" x="557" y="461.8613">&#35745;&#21010;&#22833;&#25928;</text><line style="stroke:#181818;stroke-width:0.5;" x1="538" x2="624" y1="468.9375" y2="468.9375"/></g><!--link ?????? to ????--><g class="link" data-entity-1="&#21363;&#26102;&#22870;&#21169;&#20559;&#24046;" data-entity-2="&#34892;&#20026;&#20559;&#24046;" data-source-line="38" data-uid="lnk8" id="link_&#21363;&#26102;&#22870;&#21169;&#20559;&#24046;_&#34892;&#20026;&#20559;&#24046;"><path codeLine="38" d="M158.37,137.6994 C164.94,140.8494 171.55,143.8694 178,146.6094 C278.41,189.2594 384.1712,221.1298 448.5812,239.2298" fill="none" id="&#21363;&#26102;&#22870;&#21169;&#20559;&#24046;-to-&#34892;&#20026;&#20559;&#24046;" style="stroke:#181818;stroke-width:1;"/><polygon fill="none" points="465.91,244.0994,450.2044,233.4535,446.958,245.006,465.91,244.0994" style="stroke:#181818;stroke-width:1;"/></g><!--link ???? to ????--><g class="link" data-entity-1="&#25302;&#24310;&#20559;&#24046;" data-entity-2="&#34892;&#20026;&#20559;&#24046;" data-source-line="39" data-uid="lnk9" id="link_&#25302;&#24310;&#20559;&#24046;_&#34892;&#20026;&#20559;&#24046;"><path codeLine="39" d="M355.27,146.7594 C391.37,172.2794 419.5596,192.2019 451.0196,214.4319" fill="none" id="&#25302;&#24310;&#20559;&#24046;-to-&#34892;&#20026;&#20559;&#24046;" style="stroke:#181818;stroke-width:1;"/><polygon fill="none" points="465.72,224.8194,454.4821,209.5318,447.5571,219.332,465.72,224.8194" style="stroke:#181818;stroke-width:1;"/></g><!--link ???? to ????--><g class="link" data-entity-1="&#33258;&#25511;&#22833;&#25928;" data-entity-2="&#34892;&#20026;&#20559;&#24046;" data-source-line="40" data-uid="lnk10" id="link_&#33258;&#25511;&#22833;&#25928;_&#34892;&#20026;&#20559;&#24046;"><path codeLine="40" d="M510,146.9794 C510,165.9294 510,169.4894 510,188.4094" fill="none" id="&#33258;&#25511;&#22833;&#25928;-to-&#34892;&#20026;&#20559;&#24046;" style="stroke:#181818;stroke-width:1;"/><polygon fill="none" points="510,206.4094,516,188.4094,504,188.4094,510,206.4094" style="stroke:#181818;stroke-width:1;"/></g><!--link ???? to ????--><g class="link" data-entity-1="&#35748;&#30693;&#27450;&#39575;" data-entity-2="&#34892;&#20026;&#20559;&#24046;" data-source-line="41" data-uid="lnk11" id="link_&#35748;&#30693;&#27450;&#39575;_&#34892;&#20026;&#20559;&#24046;"><path codeLine="41" d="M679.88,137.6394 C640.82,164.8794 604.9149,189.9239 569.1049,214.8939" fill="none" id="&#35748;&#30693;&#27450;&#39575;-to-&#34892;&#20026;&#20559;&#24046;" style="stroke:#181818;stroke-width:1;"/><polygon fill="none" points="554.34,225.1894,572.5368,219.8156,565.6731,209.9723,554.34,225.1894" style="stroke:#181818;stroke-width:1;"/></g><!--link ???? to ????--><g class="link" data-entity-1="&#25042;&#24816;&#24605;&#24819;" data-entity-2="&#34892;&#20026;&#20559;&#24046;" data-source-line="42" data-uid="lnk12" id="link_&#25042;&#24816;&#24605;&#24819;_&#34892;&#20026;&#20559;&#24046;"><path codeLine="42" d="M864.79,139.0894 C859.16,141.7494 853.52,144.2794 848,146.6094 C745.41,189.8594 636.8121,221.8098 571.4521,239.6898" fill="none" id="&#25042;&#24816;&#24605;&#24819;-to-&#34892;&#20026;&#20559;&#24046;" style="stroke:#181818;stroke-width:1;"/><polygon fill="none" points="554.09,244.4394,573.0353,245.4771,569.8689,233.9024,554.09,244.4394" style="stroke:#181818;stroke-width:1;"/></g><!--link ???? to ????--><g class="link" data-entity-1="&#34892;&#20026;&#20559;&#24046;" data-entity-2="&#35302;&#21457;&#22330;&#26223;" data-source-line="57" data-uid="lnk15" id="link_&#34892;&#20026;&#20559;&#24046;_&#35302;&#21457;&#22330;&#26223;"><path codeLine="57" d="M489.19,307.9094 C481.37,326.6194 474.7217,342.5126 466.6217,361.9126" fill="none" id="&#34892;&#20026;&#20559;&#24046;-to-&#35302;&#21457;&#22330;&#26223;" style="stroke:#181818;stroke-width:1;"/><polygon fill="#181818" points="464.31,367.4494,471.4688,360.6854,466.2365,362.8354,464.0864,357.6031,464.31,367.4494" style="stroke:#181818;stroke-width:1;"/></g><!--link ???? to ????--><g class="link" data-entity-1="&#34892;&#20026;&#20559;&#24046;" data-entity-2="&#34892;&#20026;&#32467;&#26524;" data-source-line="58" data-uid="lnk16" id="link_&#34892;&#20026;&#20559;&#24046;_&#34892;&#20026;&#32467;&#26524;"><path codeLine="58" d="M531.11,307.9094 C540.23,329.4194 548.5173,348.9956 557.6273,370.4756" fill="none" id="&#34892;&#20026;&#20559;&#24046;-to-&#34892;&#20026;&#32467;&#26524;" style="stroke:#181818;stroke-width:1;"/><polygon fill="#181818" points="559.97,375.9994,560.1384,366.152,558.0177,371.3963,552.7734,369.2756,559.97,375.9994" style="stroke:#181818;stroke-width:1;"/></g><!--SRC=[RLFBRjfG4DtxAoosBV8-YqYL-Wdz0HJH2fMWAb2fKbi9QjMOXx49mgJ8WPBW6g7mS7d4G1n-vixO_ejUC12RueMbcJCwP-RCtFJ7HEfJx2fsoRwDluzzJcRUnRzatYGJ7rANyLI6lQ2_-1MJIMIISTRjb8crX9mCZqCG1STSOQy3hHB3N2HZwNG8PxyoBFrUkSOVaAkWBV7NoC-0DC767Fa9Jkf-ngklKMk3RK9DOhxlsVmwq5KecaUSdPvJ6P-neF2WsnnQ5eeoHvwgcDjfE8K5FEVEM7Tje_a3x1gnIgXboTFD2p-ML5ZDJpCJMoDMqw_WODZo-cK_s9Pnq3N8QWN5JY1vqAG9Tzr6KK7juKNDpVUnOa3NnBfuhERb9LJ7j4NNjh6eUks9CoWuxO5h2DvTTLiBYmd8uzTxKtecMIWqaljuCtAq4h7eRCrm7qvb17SyoD96Lvm7MXbsdRQE3qkltpXk9G9ZqoUBS16oqa6fW211hXav6b8H7KM0iWhPDiZt0LVpryYFCNjB5tp4ZJzd5EM89L7CdJt2iiXjAsZeBu-ZE3mtOF4th8QtEZPqL1VqKZPI9quZ6lrs7Zf09hJV_-7GGax0GPDEa0V6F07ldGuS_y7fBE-EwjJNtMjGU4yVq6dyqFS12jAX0BM2Vsl45gXrpjJ0h1vOvbRMMTMmfUqbA9lNcEAixquNEzej0_mM76FtGjnX1yHhV_mDM-ZjHgFdeTvFe05PvXy0]--></g></svg>