<svg xmlns="http://www.w3.org/2000/svg" xmlns:xlink="http://www.w3.org/1999/xlink" contentStyleType="text/css" data-diagram-type="CLASS" height="532px" preserveAspectRatio="none" style="width:577px;height:532px;background:#FFFFFF;" version="1.1" viewBox="0 0 577 532" width="577px" zoomAndPan="magnify"><defs/><g><!--cluster ????--><g class="cluster" data-entity="&#30693;&#35782;&#27169;&#22411;" data-source-line="2" data-uid="ent0002" id="cluster_&#30693;&#35782;&#27169;&#22411;"><rect fill="none" height="299" rx="2.5" ry="2.5" style="stroke:#181818;stroke-width:1;" width="564" x="7" y="227"/><text fill="#000000" font-family="sans-serif" font-size="14" font-weight="bold" lengthAdjust="spacing" textLength="57.75" x="260.125" y="243.5332">&#30693;&#35782;&#27169;&#22411;</text></g><!--cluster ????--><g class="cluster" data-entity="&#20851;&#31995;&#27169;&#22411;" data-source-line="34" data-uid="ent0008" id="cluster_&#20851;&#31995;&#27169;&#22411;"><rect fill="none" height="170" rx="2.5" ry="2.5" style="stroke:#181818;stroke-width:1;" width="375" x="48" y="7"/><text fill="#000000" font-family="sans-serif" font-size="14" font-weight="bold" lengthAdjust="spacing" textLength="57.75" x="206.625" y="23.5332">&#20851;&#31995;&#27169;&#22411;</text></g><!--class KnowledgeContent--><g class="entity" data-entity="KnowledgeContent" data-source-line="4" data-uid="ent0003" id="entity_KnowledgeContent"><rect fill="#F1F1F1" height="32" rx="2.5" ry="2.5" style="stroke:#181818;stroke-width:0.5;" width="150.3096" x="45" y="478"/><ellipse cx="60" cy="494" fill="#ADD1B2" rx="11" ry="11" style="stroke:#181818;stroke-width:1;"/><path d="M62.7656,489.875 Q62.9219,489.6563 63.1094,489.5469 Q63.2969,489.4375 63.5156,489.4375 Q63.8906,489.4375 64.125,489.7031 Q64.3594,489.9531 64.3594,490.5625 L64.3594,492.0156 Q64.3594,492.625 64.125,492.8906 Q63.8906,493.1563 63.5156,493.1563 Q63.1719,493.1563 62.9688,492.9531 Q62.7656,492.7656 62.6563,492.25 Q62.6094,491.8906 62.4219,491.7031 Q62.0938,491.3281 61.4844,491.1094 Q60.875,490.8906 60.25,490.8906 Q59.4844,490.8906 58.8438,491.2188 Q58.2188,491.5469 57.7188,492.2969 Q57.2344,493.0469 57.2344,494.0781 L57.2344,495.1719 Q57.2344,496.4063 58.125,497.2344 Q59.0156,498.0469 60.6094,498.0469 Q61.5469,498.0469 62.2031,497.7969 Q62.5938,497.6406 63.0156,497.2031 Q63.2813,496.9375 63.4219,496.8594 Q63.5781,496.7813 63.7813,496.7813 Q64.1094,496.7813 64.3594,497.0469 Q64.625,497.2969 64.625,497.6406 Q64.625,497.9844 64.2813,498.3906 Q63.7813,498.9688 62.9844,499.2969 Q61.9063,499.75 60.6094,499.75 Q59.0938,499.75 57.8906,499.125 Q56.9063,498.625 56.2188,497.5625 Q55.5313,496.4844 55.5313,495.2031 L55.5313,494.0469 Q55.5313,492.7188 56.1406,491.5781 Q56.7656,490.4219 57.8594,489.8125 Q58.9531,489.1875 60.1875,489.1875 Q60.9219,489.1875 61.5625,489.3594 Q62.2188,489.5156 62.7656,489.875 Z " fill="#000000"/><text fill="#000000" font-family="sans-serif" font-size="14" lengthAdjust="spacing" textLength="118.3096" x="74" y="499.7285">KnowledgeContent</text></g><!--class KnowledgeType--><g class="entity" data-entity="KnowledgeType" data-source-line="6" data-uid="ent0004" id="entity_KnowledgeType"><rect fill="#F1F1F1" height="153.6563" rx="2.5" ry="2.5" style="stroke:#181818;stroke-width:0.5;" width="132.3994" x="423" y="263"/><ellipse cx="438" cy="279" fill="#EB937F" rx="11" ry="11" style="stroke:#181818;stroke-width:1;"/><path d="M436.8594,279.7969 L436.8594,282.2969 L441.1875,282.2969 L441.1875,281.375 Q441.1875,280.7656 441.4219,280.5 Q441.6719,280.2344 442.0469,280.2344 Q442.4219,280.2344 442.6563,280.5 Q442.8906,280.7656 442.8906,281.375 L442.8906,284 L434.8906,284 Q434.2656,284 434,283.7656 Q433.75,283.5313 433.75,283.1406 Q433.75,282.7656 434.0156,282.5313 Q434.2813,282.2969 434.8906,282.2969 L435.1563,282.2969 L435.1563,275.6406 L434.8906,275.6406 Q434.2656,275.6406 434,275.4063 Q433.75,275.1719 433.75,274.7813 Q433.75,274.4063 434,274.1719 Q434.2656,273.9375 434.8906,273.9375 L442.5156,273.9375 L442.5156,276.5313 Q442.5156,277.1406 442.2813,277.4063 Q442.0625,277.6563 441.6719,277.6563 Q441.2969,277.6563 441.0625,277.4063 Q440.8281,277.1406 440.8281,276.5313 L440.8281,275.6406 L436.8594,275.6406 L436.8594,278.0938 L438.3438,278.0938 Q438.3438,277.4375 438.4688,277.25 Q438.7344,276.8438 439.2031,276.8438 Q439.5781,276.8438 439.8125,277.1094 Q440.0469,277.3594 440.0469,277.9688 L440.0469,279.9375 Q440.0469,280.4844 439.9219,280.6719 Q439.6563,281.0625 439.2031,281.0625 Q438.7344,281.0625 438.4688,280.6563 Q438.3438,280.4688 438.3438,279.7969 L436.8594,279.7969 Z " fill="#000000"/><text fill="#000000" font-family="sans-serif" font-size="14" lengthAdjust="spacing" textLength="100.3994" x="452" y="284.7285">KnowledgeType</text><line style="stroke:#181818;stroke-width:0.5;" x1="424" x2="554.3994" y1="295" y2="295"/><polygon fill="none" points="434,304.3047,438,308.3047,434,312.3047,430,308.3047" style="stroke:#B38D22;stroke-width:1;"/><text fill="#000000" font-family="sans-serif" font-size="14" lengthAdjust="spacing" textLength="28" x="443" y="313.5332">&#23450;&#20041;</text><polygon fill="none" points="434,321.9141,438,325.9141,434,329.9141,430,325.9141" style="stroke:#B38D22;stroke-width:1;"/><text fill="#000000" font-family="sans-serif" font-size="14" lengthAdjust="spacing" textLength="28" x="443" y="331.1426">&#24615;&#36136;</text><polygon fill="none" points="434,339.5234,438,343.5234,434,347.5234,430,343.5234" style="stroke:#B38D22;stroke-width:1;"/><text fill="#000000" font-family="sans-serif" font-size="14" lengthAdjust="spacing" textLength="28" x="443" y="348.752">&#23450;&#29702;</text><polygon fill="none" points="434,357.1328,438,361.1328,434,365.1328,430,361.1328" style="stroke:#B38D22;stroke-width:1;"/><text fill="#000000" font-family="sans-serif" font-size="14" lengthAdjust="spacing" textLength="28" x="443" y="366.3613">&#27169;&#22411;</text><polygon fill="none" points="434,374.7422,438,378.7422,434,382.7422,430,378.7422" style="stroke:#B38D22;stroke-width:1;"/><text fill="#000000" font-family="sans-serif" font-size="14" lengthAdjust="spacing" textLength="28" x="443" y="383.9707">&#26041;&#27861;</text><polygon fill="none" points="434,392.3516,438,396.3516,434,400.3516,430,396.3516" style="stroke:#B38D22;stroke-width:1;"/><text fill="#000000" font-family="sans-serif" font-size="14" lengthAdjust="spacing" textLength="28" x="443" y="401.5801">&#32467;&#35770;</text><line style="stroke:#181818;stroke-width:0.5;" x1="424" x2="554.3994" y1="408.6563" y2="408.6563"/></g><!--class AbstractionLevel--><g class="entity" data-entity="AbstractionLevel" data-source-line="15" data-uid="ent0005" id="entity_AbstractionLevel"><rect fill="#F1F1F1" height="136.0469" rx="2.5" ry="2.5" style="stroke:#181818;stroke-width:0.5;" width="135.5029" x="252" y="272"/><ellipse cx="267" cy="288" fill="#EB937F" rx="11" ry="11" style="stroke:#181818;stroke-width:1;"/><path d="M265.8594,288.7969 L265.8594,291.2969 L270.1875,291.2969 L270.1875,290.375 Q270.1875,289.7656 270.4219,289.5 Q270.6719,289.2344 271.0469,289.2344 Q271.4219,289.2344 271.6563,289.5 Q271.8906,289.7656 271.8906,290.375 L271.8906,293 L263.8906,293 Q263.2656,293 263,292.7656 Q262.75,292.5313 262.75,292.1406 Q262.75,291.7656 263.0156,291.5313 Q263.2813,291.2969 263.8906,291.2969 L264.1563,291.2969 L264.1563,284.6406 L263.8906,284.6406 Q263.2656,284.6406 263,284.4063 Q262.75,284.1719 262.75,283.7813 Q262.75,283.4063 263,283.1719 Q263.2656,282.9375 263.8906,282.9375 L271.5156,282.9375 L271.5156,285.5313 Q271.5156,286.1406 271.2813,286.4063 Q271.0625,286.6563 270.6719,286.6563 Q270.2969,286.6563 270.0625,286.4063 Q269.8281,286.1406 269.8281,285.5313 L269.8281,284.6406 L265.8594,284.6406 L265.8594,287.0938 L267.3438,287.0938 Q267.3438,286.4375 267.4688,286.25 Q267.7344,285.8438 268.2031,285.8438 Q268.5781,285.8438 268.8125,286.1094 Q269.0469,286.3594 269.0469,286.9688 L269.0469,288.9375 Q269.0469,289.4844 268.9219,289.6719 Q268.6563,290.0625 268.2031,290.0625 Q267.7344,290.0625 267.4688,289.6563 Q267.3438,289.4688 267.3438,288.7969 L265.8594,288.7969 Z " fill="#000000"/><text fill="#000000" font-family="sans-serif" font-size="14" lengthAdjust="spacing" textLength="103.5029" x="281" y="293.7285">AbstractionLevel</text><line style="stroke:#181818;stroke-width:0.5;" x1="253" x2="386.5029" y1="304" y2="304"/><polygon fill="none" points="263,313.3047,267,317.3047,263,321.3047,259,317.3047" style="stroke:#B38D22;stroke-width:1;"/><text fill="#000000" font-family="sans-serif" font-size="14" lengthAdjust="spacing" textLength="79.3584" x="272" y="322.5332">L1_&#20855;&#20307;&#35745;&#31639;</text><polygon fill="none" points="263,330.9141,267,334.9141,263,338.9141,259,334.9141" style="stroke:#B38D22;stroke-width:1;"/><text fill="#000000" font-family="sans-serif" font-size="14" lengthAdjust="spacing" textLength="79.3584" x="272" y="340.1426">L2_&#22522;&#26412;&#27010;&#24565;</text><polygon fill="none" points="263,348.5234,267,352.5234,263,356.5234,259,352.5234" style="stroke:#B38D22;stroke-width:1;"/><text fill="#000000" font-family="sans-serif" font-size="14" lengthAdjust="spacing" textLength="79.3584" x="272" y="357.752">L3_&#24615;&#36136;&#23450;&#29702;</text><polygon fill="none" points="263,366.1328,267,370.1328,263,374.1328,259,370.1328" style="stroke:#B38D22;stroke-width:1;"/><text fill="#000000" font-family="sans-serif" font-size="14" lengthAdjust="spacing" textLength="79.3584" x="272" y="375.3613">L4_&#32467;&#26500;&#27010;&#24565;</text><polygon fill="none" points="263,383.7422,267,387.7422,263,391.7422,259,387.7422" style="stroke:#B38D22;stroke-width:1;"/><text fill="#000000" font-family="sans-serif" font-size="14" lengthAdjust="spacing" textLength="79.3584" x="272" y="392.9707">L5_&#23398;&#31185;&#26694;&#26550;</text><line style="stroke:#181818;stroke-width:0.5;" x1="253" x2="386.5029" y1="400.0469" y2="400.0469"/></g><!--class KnowledgeNode--><g class="entity" data-entity="KnowledgeNode" data-source-line="23" data-uid="ent0006" id="entity_KnowledgeNode"><rect fill="#F1F1F1" height="118.4375" rx="2.5" ry="2.5" style="stroke:#181818;stroke-width:0.5;" width="194.123" x="23" y="281"/><ellipse cx="64.7205" cy="297" fill="#ADD1B2" rx="11" ry="11" style="stroke:#181818;stroke-width:1;"/><path d="M67.4861,292.875 Q67.6424,292.6563 67.8299,292.5469 Q68.0174,292.4375 68.2361,292.4375 Q68.6111,292.4375 68.8455,292.7031 Q69.0799,292.9531 69.0799,293.5625 L69.0799,295.0156 Q69.0799,295.625 68.8455,295.8906 Q68.6111,296.1563 68.2361,296.1563 Q67.8924,296.1563 67.6893,295.9531 Q67.4861,295.7656 67.3768,295.25 Q67.3299,294.8906 67.1424,294.7031 Q66.8143,294.3281 66.2049,294.1094 Q65.5955,293.8906 64.9705,293.8906 Q64.2049,293.8906 63.5643,294.2188 Q62.9393,294.5469 62.4393,295.2969 Q61.9549,296.0469 61.9549,297.0781 L61.9549,298.1719 Q61.9549,299.4063 62.8455,300.2344 Q63.7361,301.0469 65.3299,301.0469 Q66.2674,301.0469 66.9236,300.7969 Q67.3143,300.6406 67.7361,300.2031 Q68.0018,299.9375 68.1424,299.8594 Q68.2986,299.7813 68.5018,299.7813 Q68.8299,299.7813 69.0799,300.0469 Q69.3455,300.2969 69.3455,300.6406 Q69.3455,300.9844 69.0018,301.3906 Q68.5018,301.9688 67.7049,302.2969 Q66.6268,302.75 65.3299,302.75 Q63.8143,302.75 62.6111,302.125 Q61.6268,301.625 60.9393,300.5625 Q60.2518,299.4844 60.2518,298.2031 L60.2518,297.0469 Q60.2518,295.7188 60.8611,294.5781 Q61.4861,293.4219 62.5799,292.8125 Q63.6736,292.1875 64.908,292.1875 Q65.6424,292.1875 66.283,292.3594 Q66.9393,292.5156 67.4861,292.875 Z " fill="#000000"/><text fill="#000000" font-family="sans-serif" font-size="14" lengthAdjust="spacing" textLength="102.7441" x="84.6584" y="302.7285">KnowledgeNode</text><line style="stroke:#181818;stroke-width:0.5;" x1="24" x2="216.123" y1="313" y2="313"/><polygon fill="none" points="34,323.3047,30,329.3047,38,329.3047" style="stroke:#1963A0;stroke-width:1;"/><text fill="#000000" font-family="sans-serif" font-size="14" lengthAdjust="spacing" textLength="35.0205" x="43" y="331.5332">name</text><polygon fill="none" points="34,340.9141,30,346.9141,38,346.9141" style="stroke:#1963A0;stroke-width:1;"/><text fill="#000000" font-family="sans-serif" font-size="14" lengthAdjust="spacing" textLength="134.6406" x="43" y="349.1426">type: KnowledgeType</text><polygon fill="none" points="34,358.5234,30,364.5234,38,364.5234" style="stroke:#1963A0;stroke-width:1;"/><text fill="#000000" font-family="sans-serif" font-size="14" lengthAdjust="spacing" textLength="140.0752" x="43" y="366.752">level: AbstractionLevel</text><polygon fill="none" points="34,376.1328,30,382.1328,38,382.1328" style="stroke:#1963A0;stroke-width:1;"/><text fill="#000000" font-family="sans-serif" font-size="14" lengthAdjust="spacing" textLength="168.123" x="43" y="384.3613">content:KnowledgeContent</text><line style="stroke:#181818;stroke-width:0.5;" x1="24" x2="216.123" y1="391.4375" y2="391.4375"/></g><!--class RelationshipType--><g class="entity" data-entity="RelationshipType" data-source-line="36" data-uid="ent0009" id="entity_RelationshipType"><rect fill="#F1F1F1" height="118.4375" rx="2.5" ry="2.5" style="stroke:#181818;stroke-width:0.5;" width="140.1719" x="267" y="43"/><ellipse cx="282" cy="59" fill="#EB937F" rx="11" ry="11" style="stroke:#181818;stroke-width:1;"/><path d="M280.8594,59.7969 L280.8594,62.2969 L285.1875,62.2969 L285.1875,61.375 Q285.1875,60.7656 285.4219,60.5 Q285.6719,60.2344 286.0469,60.2344 Q286.4219,60.2344 286.6563,60.5 Q286.8906,60.7656 286.8906,61.375 L286.8906,64 L278.8906,64 Q278.2656,64 278,63.7656 Q277.75,63.5313 277.75,63.1406 Q277.75,62.7656 278.0156,62.5313 Q278.2813,62.2969 278.8906,62.2969 L279.1563,62.2969 L279.1563,55.6406 L278.8906,55.6406 Q278.2656,55.6406 278,55.4063 Q277.75,55.1719 277.75,54.7813 Q277.75,54.4063 278,54.1719 Q278.2656,53.9375 278.8906,53.9375 L286.5156,53.9375 L286.5156,56.5313 Q286.5156,57.1406 286.2813,57.4063 Q286.0625,57.6563 285.6719,57.6563 Q285.2969,57.6563 285.0625,57.4063 Q284.8281,57.1406 284.8281,56.5313 L284.8281,55.6406 L280.8594,55.6406 L280.8594,58.0938 L282.3438,58.0938 Q282.3438,57.4375 282.4688,57.25 Q282.7344,56.8438 283.2031,56.8438 Q283.5781,56.8438 283.8125,57.1094 Q284.0469,57.3594 284.0469,57.9688 L284.0469,59.9375 Q284.0469,60.4844 283.9219,60.6719 Q283.6563,61.0625 283.2031,61.0625 Q282.7344,61.0625 282.4688,60.6563 Q282.3438,60.4688 282.3438,59.7969 L280.8594,59.7969 Z " fill="#000000"/><text fill="#000000" font-family="sans-serif" font-size="14" lengthAdjust="spacing" textLength="108.1719" x="296" y="64.7285">RelationshipType</text><line style="stroke:#181818;stroke-width:0.5;" x1="268" x2="406.1719" y1="75" y2="75"/><polygon fill="none" points="278,84.3047,282,88.3047,278,92.3047,274,88.3047" style="stroke:#B38D22;stroke-width:1;"/><text fill="#000000" font-family="sans-serif" font-size="14" lengthAdjust="spacing" textLength="28" x="287" y="93.5332">&#29983;&#25104;</text><polygon fill="none" points="278,101.9141,282,105.9141,278,109.9141,274,105.9141" style="stroke:#B38D22;stroke-width:1;"/><text fill="#000000" font-family="sans-serif" font-size="14" lengthAdjust="spacing" textLength="28" x="287" y="111.1426">&#32422;&#26463;</text><polygon fill="none" points="278,119.5234,282,123.5234,278,127.5234,274,123.5234" style="stroke:#B38D22;stroke-width:1;"/><text fill="#000000" font-family="sans-serif" font-size="14" lengthAdjust="spacing" textLength="28" x="287" y="128.752">&#31561;&#20215;</text><polygon fill="none" points="278,137.1328,282,141.1328,278,145.1328,274,141.1328" style="stroke:#B38D22;stroke-width:1;"/><text fill="#000000" font-family="sans-serif" font-size="14" lengthAdjust="spacing" textLength="28" x="287" y="146.3613">&#20381;&#36182;</text><line style="stroke:#181818;stroke-width:0.5;" x1="268" x2="406.1719" y1="153.4375" y2="153.4375"/></g><!--class KnowledgeEdge--><g class="entity" data-entity="KnowledgeEdge" data-source-line="43" data-uid="ent0010" id="entity_KnowledgeEdge"><rect fill="#F1F1F1" height="100.8281" rx="2.5" ry="2.5" style="stroke:#181818;stroke-width:0.5;" width="168.4131" x="64" y="51.5"/><ellipse cx="94.4986" cy="67.5" fill="#ADD1B2" rx="11" ry="11" style="stroke:#181818;stroke-width:1;"/><path d="M97.2643,63.375 Q97.4205,63.1563 97.608,63.0469 Q97.7955,62.9375 98.0143,62.9375 Q98.3893,62.9375 98.6236,63.2031 Q98.858,63.4531 98.858,64.0625 L98.858,65.5156 Q98.858,66.125 98.6236,66.3906 Q98.3893,66.6563 98.0143,66.6563 Q97.6705,66.6563 97.4674,66.4531 Q97.2643,66.2656 97.1549,65.75 Q97.108,65.3906 96.9205,65.2031 Q96.5924,64.8281 95.983,64.6094 Q95.3736,64.3906 94.7486,64.3906 Q93.983,64.3906 93.3424,64.7188 Q92.7174,65.0469 92.2174,65.7969 Q91.733,66.5469 91.733,67.5781 L91.733,68.6719 Q91.733,69.9063 92.6236,70.7344 Q93.5143,71.5469 95.108,71.5469 Q96.0455,71.5469 96.7018,71.2969 Q97.0924,71.1406 97.5143,70.7031 Q97.7799,70.4375 97.9205,70.3594 Q98.0768,70.2813 98.2799,70.2813 Q98.608,70.2813 98.858,70.5469 Q99.1236,70.7969 99.1236,71.1406 Q99.1236,71.4844 98.7799,71.8906 Q98.2799,72.4688 97.483,72.7969 Q96.4049,73.25 95.108,73.25 Q93.5924,73.25 92.3893,72.625 Q91.4049,72.125 90.7174,71.0625 Q90.0299,69.9844 90.0299,68.7031 L90.0299,67.5469 Q90.0299,66.2188 90.6393,65.0781 Q91.2643,63.9219 92.358,63.3125 Q93.4518,62.6875 94.6861,62.6875 Q95.4205,62.6875 96.0611,62.8594 Q96.7174,63.0156 97.2643,63.375 Z " fill="#000000"/><text fill="#000000" font-family="sans-serif" font-size="14" lengthAdjust="spacing" textLength="101.9717" x="111.9428" y="73.2285">KnowledgeEdge</text><line style="stroke:#181818;stroke-width:0.5;" x1="65" x2="231.4131" y1="83.5" y2="83.5"/><polygon fill="none" points="75,93.8047,71,99.8047,79,99.8047" style="stroke:#1963A0;stroke-width:1;"/><text fill="#000000" font-family="sans-serif" font-size="14" lengthAdjust="spacing" textLength="138.5234" x="84" y="102.0332">from: KnowledgeNode</text><polygon fill="none" points="75,111.4141,71,117.4141,79,117.4141" style="stroke:#1963A0;stroke-width:1;"/><text fill="#000000" font-family="sans-serif" font-size="14" lengthAdjust="spacing" textLength="122.1992" x="84" y="119.6426">to: KnowledgeNode</text><polygon fill="none" points="75,129.0234,71,135.0234,79,135.0234" style="stroke:#1963A0;stroke-width:1;"/><text fill="#000000" font-family="sans-serif" font-size="14" lengthAdjust="spacing" textLength="142.4131" x="84" y="137.252">type: RelationshipType</text><line style="stroke:#181818;stroke-width:0.5;" x1="65" x2="231.4131" y1="144.3281" y2="144.3281"/></g><!--reverse link KnowledgeNode to KnowledgeContent--><g class="link" data-entity-1="KnowledgeNode" data-entity-2="KnowledgeContent" data-source-line="31" data-uid="lnk7" id="link_KnowledgeNode_KnowledgeContent"><path codeLine="31" d="M120,411.33 C120,439.63 120,459.39 120,477.7" fill="none" id="KnowledgeNode-backto-KnowledgeContent" style="stroke:#181818;stroke-width:1;"/><polygon fill="#181818" points="120,399.33,116,405.33,120,411.33,124,405.33,120,399.33" style="stroke:#181818;stroke-width:1;"/></g><!--link KnowledgeEdge to KnowledgeNode--><g class="link" data-entity-1="KnowledgeEdge" data-entity-2="KnowledgeNode" data-source-line="51" data-uid="lnk11" id="link_KnowledgeEdge_KnowledgeNode"><path codeLine="51" d="M103.8,152.76 C95.27,165.11 87.57,178.88 83,193 C73.75,221.61 78.1966,248.3533 88.1866,275.3333" fill="none" id="KnowledgeEdge-to-KnowledgeNode" style="stroke:#181818;stroke-width:1;"/><polygon fill="#181818" points="90.27,280.96,90.896,271.1311,88.5338,276.2711,83.3938,273.9089,90.27,280.96" style="stroke:#181818;stroke-width:1;"/><text fill="#000000" font-family="sans-serif" font-size="13" lengthAdjust="spacing" textLength="26" x="84" y="207.4951">from</text></g><!--link KnowledgeEdge to KnowledgeNode--><g class="link" data-entity-1="KnowledgeEdge" data-entity-2="KnowledgeNode" data-source-line="52" data-uid="lnk12" id="link_KnowledgeEdge_KnowledgeNode"><path codeLine="52" d="M142.1,152.76 C137.65,190.22 132.2575,235.7019 127.5875,275.0319" fill="none" id="KnowledgeEdge-to-KnowledgeNode-1" style="stroke:#181818;stroke-width:1;"/><polygon fill="#181818" points="126.88,280.99,131.9133,272.5244,127.4696,276.0249,123.9691,271.5811,126.88,280.99" style="stroke:#181818;stroke-width:1;"/><text fill="#000000" font-family="sans-serif" font-size="13" lengthAdjust="spacing" textLength="10.8418" x="137" y="207.4951">to</text></g><!--SRC=[ZLBBIiD05DttAmRS2LduscGXYBYok13t8Kt7jf1aIZ8g8eg8BHOt5RM2s8OkRBkmTL5hQOlwCybCFiDfwkDE0kAGB7BEcTnppxqEDgXkvqoCkFSOFfTPfnaqBj5HAeN4CKpTTT6cJGvCdCtXTM9JRDCPX-qzwvVQEInYSGjzdJaKzExzKGK0xBGTldHa1Q-MeIAg3O7QYFLl0S0drs5l7077mCLQngMERj02iTDu7vkIaVI25fI6_fkusUIzEyWiQe4tPWzFh7KMV0mWiwJDx2OyffSrOO8rpfDtLhIWs-BjAzOiiyOhD1cBSOjaOLOdoDOj33wfo5ALemMiEUrGJVGC5CPiJ6fYRi1IlY0yn0N8mbO6EswaaEtEAqfo3yI_d9_z2Kfztf_8-nDDPnkR-jIccoyK4sl2RpnsKON0kCNg7WIw5Nyo183_NWy7jJ_otH2lbE-kGonLRWZ6JVxWeb74E_YkBHwvgAAind9Je-B_a56I-WG0]--></g></svg>