<svg xmlns="http://www.w3.org/2000/svg" xmlns:xlink="http://www.w3.org/1999/xlink" contentStyleType="text/css" data-diagram-type="CLASS" height="259px" preserveAspectRatio="none" style="width:166px;height:259px;background:#FFFFFF;" version="1.1" viewBox="0 0 166 259" width="166px" zoomAndPan="magnify"><defs/><g><!--class KnowledgeNode--><g class="entity" data-entity="KnowledgeNode" data-source-line="2" data-uid="ent0002" id="entity_KnowledgeNode"><rect fill="#F1F1F1" height="32" rx="2.5" ry="2.5" style="stroke:#181818;stroke-width:0.5;" width="134.7441" x="16.5" y="7"/><ellipse cx="31.5" cy="23" fill="#ADD1B2" rx="11" ry="11" style="stroke:#181818;stroke-width:1;"/><path d="M34.2656,18.875 Q34.4219,18.6563 34.6094,18.5469 Q34.7969,18.4375 35.0156,18.4375 Q35.3906,18.4375 35.625,18.7031 Q35.8594,18.9531 35.8594,19.5625 L35.8594,21.0156 Q35.8594,21.625 35.625,21.8906 Q35.3906,22.1563 35.0156,22.1563 Q34.6719,22.1563 34.4688,21.9531 Q34.2656,21.7656 34.1563,21.25 Q34.1094,20.8906 33.9219,20.7031 Q33.5938,20.3281 32.9844,20.1094 Q32.375,19.8906 31.75,19.8906 Q30.9844,19.8906 30.3438,20.2188 Q29.7188,20.5469 29.2188,21.2969 Q28.7344,22.0469 28.7344,23.0781 L28.7344,24.1719 Q28.7344,25.4063 29.625,26.2344 Q30.5156,27.0469 32.1094,27.0469 Q33.0469,27.0469 33.7031,26.7969 Q34.0938,26.6406 34.5156,26.2031 Q34.7813,25.9375 34.9219,25.8594 Q35.0781,25.7813 35.2813,25.7813 Q35.6094,25.7813 35.8594,26.0469 Q36.125,26.2969 36.125,26.6406 Q36.125,26.9844 35.7813,27.3906 Q35.2813,27.9688 34.4844,28.2969 Q33.4063,28.75 32.1094,28.75 Q30.5938,28.75 29.3906,28.125 Q28.4063,27.625 27.7188,26.5625 Q27.0313,25.4844 27.0313,24.2031 L27.0313,23.0469 Q27.0313,21.7188 27.6406,20.5781 Q28.2656,19.4219 29.3594,18.8125 Q30.4531,18.1875 31.6875,18.1875 Q32.4219,18.1875 33.0625,18.3594 Q33.7188,18.5156 34.2656,18.875 Z " fill="#000000"/><text fill="#000000" font-family="sans-serif" font-size="14" lengthAdjust="spacing" textLength="102.7441" x="45.5" y="28.7285">KnowledgeNode</text></g><!--class KnowledgeContent--><g class="entity" data-entity="KnowledgeContent" data-source-line="4" data-uid="ent0003" id="entity_KnowledgeContent"><rect fill="#F1F1F1" height="153.6563" rx="2.5" ry="2.5" style="stroke:#181818;stroke-width:0.5;" width="150.3096" x="9" y="99"/><ellipse cx="24" cy="115" fill="#ADD1B2" rx="11" ry="11" style="stroke:#181818;stroke-width:1;"/><path d="M26.7656,110.875 Q26.9219,110.6563 27.1094,110.5469 Q27.2969,110.4375 27.5156,110.4375 Q27.8906,110.4375 28.125,110.7031 Q28.3594,110.9531 28.3594,111.5625 L28.3594,113.0156 Q28.3594,113.625 28.125,113.8906 Q27.8906,114.1563 27.5156,114.1563 Q27.1719,114.1563 26.9688,113.9531 Q26.7656,113.7656 26.6563,113.25 Q26.6094,112.8906 26.4219,112.7031 Q26.0938,112.3281 25.4844,112.1094 Q24.875,111.8906 24.25,111.8906 Q23.4844,111.8906 22.8438,112.2188 Q22.2188,112.5469 21.7188,113.2969 Q21.2344,114.0469 21.2344,115.0781 L21.2344,116.1719 Q21.2344,117.4063 22.125,118.2344 Q23.0156,119.0469 24.6094,119.0469 Q25.5469,119.0469 26.2031,118.7969 Q26.5938,118.6406 27.0156,118.2031 Q27.2813,117.9375 27.4219,117.8594 Q27.5781,117.7813 27.7813,117.7813 Q28.1094,117.7813 28.3594,118.0469 Q28.625,118.2969 28.625,118.6406 Q28.625,118.9844 28.2813,119.3906 Q27.7813,119.9688 26.9844,120.2969 Q25.9063,120.75 24.6094,120.75 Q23.0938,120.75 21.8906,120.125 Q20.9063,119.625 20.2188,118.5625 Q19.5313,117.4844 19.5313,116.2031 L19.5313,115.0469 Q19.5313,113.7188 20.1406,112.5781 Q20.7656,111.4219 21.8594,110.8125 Q22.9531,110.1875 24.1875,110.1875 Q24.9219,110.1875 25.5625,110.3594 Q26.2188,110.5156 26.7656,110.875 Z " fill="#000000"/><text fill="#000000" font-family="sans-serif" font-size="14" lengthAdjust="spacing" textLength="118.3096" x="38" y="120.7285">KnowledgeContent</text><line style="stroke:#181818;stroke-width:0.5;" x1="10" x2="158.3096" y1="131" y2="131"/><polygon fill="none" points="20,141.3047,16,147.3047,24,147.3047" style="stroke:#1963A0;stroke-width:1;"/><text fill="#000000" font-family="sans-serif" font-size="14" lengthAdjust="spacing" textLength="28" x="29" y="149.5332">&#23450;&#20041;</text><polygon fill="none" points="20,158.9141,16,164.9141,24,164.9141" style="stroke:#1963A0;stroke-width:1;"/><text fill="#000000" font-family="sans-serif" font-size="14" lengthAdjust="spacing" textLength="28" x="29" y="167.1426">&#30452;&#35273;</text><polygon fill="none" points="20,176.5234,16,182.5234,24,182.5234" style="stroke:#1963A0;stroke-width:1;"/><text fill="#000000" font-family="sans-serif" font-size="14" lengthAdjust="spacing" textLength="28" x="29" y="184.752">&#32467;&#26500;</text><polygon fill="none" points="20,194.1328,16,200.1328,24,200.1328" style="stroke:#1963A0;stroke-width:1;"/><text fill="#000000" font-family="sans-serif" font-size="14" lengthAdjust="spacing" textLength="28" x="29" y="202.3613">&#24615;&#36136;</text><polygon fill="none" points="20,211.7422,16,217.7422,24,217.7422" style="stroke:#1963A0;stroke-width:1;"/><text fill="#000000" font-family="sans-serif" font-size="14" lengthAdjust="spacing" textLength="28" x="29" y="219.9707">&#20851;&#31995;</text><polygon fill="none" points="20,229.3516,16,235.3516,24,235.3516" style="stroke:#1963A0;stroke-width:1;"/><text fill="#000000" font-family="sans-serif" font-size="14" lengthAdjust="spacing" textLength="28" x="29" y="237.5801">&#26131;&#38169;</text><line style="stroke:#181818;stroke-width:0.5;" x1="10" x2="158.3096" y1="244.6563" y2="244.6563"/></g><!--reverse link KnowledgeNode to KnowledgeContent--><g class="link" data-entity-1="KnowledgeNode" data-entity-2="KnowledgeContent" data-source-line="15" data-uid="lnk4" id="link_KnowledgeNode_KnowledgeContent"><path codeLine="15" d="M84,51.03 C84,65.35 84,76.05 84,98.84" fill="none" id="KnowledgeNode-backto-KnowledgeContent" style="stroke:#181818;stroke-width:1;"/><polygon fill="#181818" points="84,39.03,80,45.03,84,51.03,88,45.03,84,39.03" style="stroke:#181818;stroke-width:1;"/></g><!--SRC=[Iyv9B2vMyCxBByz9JKbFzSjFIUNYIaOLTCxFAqdDAwdcKW22EeMdwsOzsTa9vJoVlUN5SZXdz-HdyrgWd6SDorziMG7Jqxhv-URTC9aParzEcSbLoyMLaPcIYcgvGcvgRb9gKJ4N5wgmbgukXeC0]--></g></svg>