<svg xmlns="http://www.w3.org/2000/svg" xmlns:xlink="http://www.w3.org/1999/xlink" contentStyleType="text/css" data-diagram-type="CLASS" height="436px" preserveAspectRatio="none" style="width:593px;height:436px;background:#FFFFFF;" version="1.1" viewBox="0 0 593 436" width="593px" zoomAndPan="magnify"><defs/><g><!--class Mapping--><g class="entity" data-entity="Mapping" data-source-line="2" data-uid="ent0002" id="entity_Mapping"><rect fill="#F1F1F1" height="65.6094" rx="2.5" ry="2.5" style="stroke:#181818;stroke-width:0.5;" width="99.8896" x="240.5" y="7"/><ellipse cx="261.8839" cy="23" fill="#ADD1B2" rx="11" ry="11" style="stroke:#181818;stroke-width:1;"/><path d="M264.6496,18.875 Q264.8058,18.6563 264.9933,18.5469 Q265.1808,18.4375 265.3996,18.4375 Q265.7746,18.4375 266.0089,18.7031 Q266.2433,18.9531 266.2433,19.5625 L266.2433,21.0156 Q266.2433,21.625 266.0089,21.8906 Q265.7746,22.1563 265.3996,22.1563 Q265.0558,22.1563 264.8527,21.9531 Q264.6496,21.7656 264.5402,21.25 Q264.4933,20.8906 264.3058,20.7031 Q263.9777,20.3281 263.3683,20.1094 Q262.7589,19.8906 262.1339,19.8906 Q261.3683,19.8906 260.7277,20.2188 Q260.1027,20.5469 259.6027,21.2969 Q259.1183,22.0469 259.1183,23.0781 L259.1183,24.1719 Q259.1183,25.4063 260.0089,26.2344 Q260.8996,27.0469 262.4933,27.0469 Q263.4308,27.0469 264.0871,26.7969 Q264.4777,26.6406 264.8996,26.2031 Q265.1652,25.9375 265.3058,25.8594 Q265.4621,25.7813 265.6652,25.7813 Q265.9933,25.7813 266.2433,26.0469 Q266.5089,26.2969 266.5089,26.6406 Q266.5089,26.9844 266.1652,27.3906 Q265.6652,27.9688 264.8683,28.2969 Q263.7902,28.75 262.4933,28.75 Q260.9777,28.75 259.7746,28.125 Q258.7902,27.625 258.1027,26.5625 Q257.4152,25.4844 257.4152,24.2031 L257.4152,23.0469 Q257.4152,21.7188 258.0246,20.5781 Q258.6496,19.4219 259.7433,18.8125 Q260.8371,18.1875 262.0714,18.1875 Q262.8058,18.1875 263.4464,18.3594 Q264.1027,18.5156 264.6496,18.875 Z " fill="#000000"/><text fill="#000000" font-family="sans-serif" font-size="14" lengthAdjust="spacing" textLength="53.7031" x="277.3026" y="28.7285">Mapping</text><line style="stroke:#181818;stroke-width:0.5;" x1="241.5" x2="339.3896" y1="39" y2="39"/><ellipse cx="251.5" cy="53.3047" fill="none" rx="3" ry="3" style="stroke:#038048;stroke-width:1;"/><text fill="#000000" font-family="sans-serif" font-size="14" lengthAdjust="spacing" textLength="73.8896" x="260.5" y="57.5332">KN-ID: &#20027;&#38190;</text><line style="stroke:#181818;stroke-width:0.5;" x1="241.5" x2="339.3896" y1="64.6094" y2="64.6094"/></g><!--class AnkiKnowledge--><g class="entity" data-entity="AnkiKnowledge" data-source-line="6" data-uid="ent0003" id="entity_AnkiKnowledge"><rect fill="#F1F1F1" height="65.6094" rx="2.5" ry="2.5" style="stroke:#181818;stroke-width:0.5;" width="128.5098" x="7" y="337"/><ellipse cx="22" cy="353" fill="#ADD1B2" rx="11" ry="11" style="stroke:#181818;stroke-width:1;"/><path d="M24.7656,348.875 Q24.9219,348.6563 25.1094,348.5469 Q25.2969,348.4375 25.5156,348.4375 Q25.8906,348.4375 26.125,348.7031 Q26.3594,348.9531 26.3594,349.5625 L26.3594,351.0156 Q26.3594,351.625 26.125,351.8906 Q25.8906,352.1563 25.5156,352.1563 Q25.1719,352.1563 24.9688,351.9531 Q24.7656,351.7656 24.6563,351.25 Q24.6094,350.8906 24.4219,350.7031 Q24.0938,350.3281 23.4844,350.1094 Q22.875,349.8906 22.25,349.8906 Q21.4844,349.8906 20.8438,350.2188 Q20.2188,350.5469 19.7188,351.2969 Q19.2344,352.0469 19.2344,353.0781 L19.2344,354.1719 Q19.2344,355.4063 20.125,356.2344 Q21.0156,357.0469 22.6094,357.0469 Q23.5469,357.0469 24.2031,356.7969 Q24.5938,356.6406 25.0156,356.2031 Q25.2813,355.9375 25.4219,355.8594 Q25.5781,355.7813 25.7813,355.7813 Q26.1094,355.7813 26.3594,356.0469 Q26.625,356.2969 26.625,356.6406 Q26.625,356.9844 26.2813,357.3906 Q25.7813,357.9688 24.9844,358.2969 Q23.9063,358.75 22.6094,358.75 Q21.0938,358.75 19.8906,358.125 Q18.9063,357.625 18.2188,356.5625 Q17.5313,355.4844 17.5313,354.2031 L17.5313,353.0469 Q17.5313,351.7188 18.1406,350.5781 Q18.7656,349.4219 19.8594,348.8125 Q20.9531,348.1875 22.1875,348.1875 Q22.9219,348.1875 23.5625,348.3594 Q24.2188,348.5156 24.7656,348.875 Z " fill="#000000"/><text fill="#000000" font-family="sans-serif" font-size="14" lengthAdjust="spacing" textLength="96.5098" x="36" y="358.7285">AnkiKnowledge</text><line style="stroke:#181818;stroke-width:0.5;" x1="8" x2="134.5098" y1="369" y2="369"/><ellipse cx="18" cy="383.3047" fill="none" rx="3" ry="3" style="stroke:#038048;stroke-width:1;"/><text fill="#000000" font-family="sans-serif" font-size="14" lengthAdjust="spacing" textLength="70" x="27" y="387.5332">KN-ID:&#20027;&#38190;</text><line style="stroke:#181818;stroke-width:0.5;" x1="8" x2="134.5098" y1="394.6094" y2="394.6094"/></g><!--class AnkiProblem--><g class="entity" data-entity="AnkiProblem" data-source-line="10" data-uid="ent0004" id="entity_AnkiProblem"><rect fill="#F1F1F1" height="100.8281" rx="2.5" ry="2.5" style="stroke:#181818;stroke-width:0.5;" width="111.3652" x="171" y="319.5"/><ellipse cx="186" cy="335.5" fill="#ADD1B2" rx="11" ry="11" style="stroke:#181818;stroke-width:1;"/><path d="M188.7656,331.375 Q188.9219,331.1563 189.1094,331.0469 Q189.2969,330.9375 189.5156,330.9375 Q189.8906,330.9375 190.125,331.2031 Q190.3594,331.4531 190.3594,332.0625 L190.3594,333.5156 Q190.3594,334.125 190.125,334.3906 Q189.8906,334.6563 189.5156,334.6563 Q189.1719,334.6563 188.9688,334.4531 Q188.7656,334.2656 188.6563,333.75 Q188.6094,333.3906 188.4219,333.2031 Q188.0938,332.8281 187.4844,332.6094 Q186.875,332.3906 186.25,332.3906 Q185.4844,332.3906 184.8438,332.7188 Q184.2188,333.0469 183.7188,333.7969 Q183.2344,334.5469 183.2344,335.5781 L183.2344,336.6719 Q183.2344,337.9063 184.125,338.7344 Q185.0156,339.5469 186.6094,339.5469 Q187.5469,339.5469 188.2031,339.2969 Q188.5938,339.1406 189.0156,338.7031 Q189.2813,338.4375 189.4219,338.3594 Q189.5781,338.2813 189.7813,338.2813 Q190.1094,338.2813 190.3594,338.5469 Q190.625,338.7969 190.625,339.1406 Q190.625,339.4844 190.2813,339.8906 Q189.7813,340.4688 188.9844,340.7969 Q187.9063,341.25 186.6094,341.25 Q185.0938,341.25 183.8906,340.625 Q182.9063,340.125 182.2188,339.0625 Q181.5313,337.9844 181.5313,336.7031 L181.5313,335.5469 Q181.5313,334.2188 182.1406,333.0781 Q182.7656,331.9219 183.8594,331.3125 Q184.9531,330.6875 186.1875,330.6875 Q186.9219,330.6875 187.5625,330.8594 Q188.2188,331.0156 188.7656,331.375 Z " fill="#000000"/><text fill="#000000" font-family="sans-serif" font-size="14" lengthAdjust="spacing" textLength="79.3652" x="200" y="341.2285">AnkiProblem</text><line style="stroke:#181818;stroke-width:0.5;" x1="172" x2="281.3652" y1="351.5" y2="351.5"/><ellipse cx="182" cy="365.8047" fill="none" rx="3" ry="3" style="stroke:#038048;stroke-width:1;"/><text fill="#000000" font-family="sans-serif" font-size="14" lengthAdjust="spacing" textLength="70" x="191" y="370.0332">PR-ID:&#20027;&#38190;</text><ellipse cx="182" cy="383.4141" fill="none" rx="3" ry="3" style="stroke:#038048;stroke-width:1;"/><text fill="#000000" font-family="sans-serif" font-size="14" lengthAdjust="spacing" textLength="52.8896" x="191" y="387.6426">KN-IDs[]</text><ellipse cx="182" cy="401.0234" fill="none" rx="3" ry="3" style="stroke:#038048;stroke-width:1;"/><text fill="#000000" font-family="sans-serif" font-size="14" lengthAdjust="spacing" textLength="37.3379" x="191" y="405.252">PS-ID</text><line style="stroke:#181818;stroke-width:0.5;" x1="172" x2="281.3652" y1="412.3281" y2="412.3281"/></g><!--class AnkiProcess--><g class="entity" data-entity="AnkiProcess" data-source-line="16" data-uid="ent0005" id="entity_AnkiProcess"><rect fill="#F1F1F1" height="83.2188" rx="2.5" ry="2.5" style="stroke:#181818;stroke-width:0.5;" width="109.8066" x="317.5" y="328.5"/><ellipse cx="332.5" cy="344.5" fill="#ADD1B2" rx="11" ry="11" style="stroke:#181818;stroke-width:1;"/><path d="M335.2656,340.375 Q335.4219,340.1563 335.6094,340.0469 Q335.7969,339.9375 336.0156,339.9375 Q336.3906,339.9375 336.625,340.2031 Q336.8594,340.4531 336.8594,341.0625 L336.8594,342.5156 Q336.8594,343.125 336.625,343.3906 Q336.3906,343.6563 336.0156,343.6563 Q335.6719,343.6563 335.4688,343.4531 Q335.2656,343.2656 335.1563,342.75 Q335.1094,342.3906 334.9219,342.2031 Q334.5938,341.8281 333.9844,341.6094 Q333.375,341.3906 332.75,341.3906 Q331.9844,341.3906 331.3438,341.7188 Q330.7188,342.0469 330.2188,342.7969 Q329.7344,343.5469 329.7344,344.5781 L329.7344,345.6719 Q329.7344,346.9063 330.625,347.7344 Q331.5156,348.5469 333.1094,348.5469 Q334.0469,348.5469 334.7031,348.2969 Q335.0938,348.1406 335.5156,347.7031 Q335.7813,347.4375 335.9219,347.3594 Q336.0781,347.2813 336.2813,347.2813 Q336.6094,347.2813 336.8594,347.5469 Q337.125,347.7969 337.125,348.1406 Q337.125,348.4844 336.7813,348.8906 Q336.2813,349.4688 335.4844,349.7969 Q334.4063,350.25 333.1094,350.25 Q331.5938,350.25 330.3906,349.625 Q329.4063,349.125 328.7188,348.0625 Q328.0313,346.9844 328.0313,345.7031 L328.0313,344.5469 Q328.0313,343.2188 328.6406,342.0781 Q329.2656,340.9219 330.3594,340.3125 Q331.4531,339.6875 332.6875,339.6875 Q333.4219,339.6875 334.0625,339.8594 Q334.7188,340.0156 335.2656,340.375 Z " fill="#000000"/><text fill="#000000" font-family="sans-serif" font-size="14" lengthAdjust="spacing" textLength="77.8066" x="346.5" y="350.2285">AnkiProcess</text><line style="stroke:#181818;stroke-width:0.5;" x1="318.5" x2="426.3066" y1="360.5" y2="360.5"/><ellipse cx="328.5" cy="374.8047" fill="none" rx="3" ry="3" style="stroke:#038048;stroke-width:1;"/><text fill="#000000" font-family="sans-serif" font-size="14" lengthAdjust="spacing" textLength="69.2275" x="337.5" y="379.0332">PS-ID:&#20027;&#38190;</text><ellipse cx="328.5" cy="392.4141" fill="none" rx="3" ry="3" style="stroke:#038048;stroke-width:1;"/><text fill="#000000" font-family="sans-serif" font-size="14" lengthAdjust="spacing" textLength="52.8896" x="337.5" y="396.6426">KN-IDs[]</text><line style="stroke:#181818;stroke-width:0.5;" x1="318.5" x2="426.3066" y1="403.7188" y2="403.7188"/></g><!--class AnkiErrorCase--><g class="entity" data-entity="AnkiErrorCase" data-source-line="21" data-uid="ent0006" id="entity_AnkiErrorCase"><rect fill="#F1F1F1" height="118.4375" rx="2.5" ry="2.5" style="stroke:#181818;stroke-width:0.5;" width="123.0273" x="463" y="311"/><ellipse cx="478" cy="327" fill="#ADD1B2" rx="11" ry="11" style="stroke:#181818;stroke-width:1;"/><path d="M480.7656,322.875 Q480.9219,322.6563 481.1094,322.5469 Q481.2969,322.4375 481.5156,322.4375 Q481.8906,322.4375 482.125,322.7031 Q482.3594,322.9531 482.3594,323.5625 L482.3594,325.0156 Q482.3594,325.625 482.125,325.8906 Q481.8906,326.1563 481.5156,326.1563 Q481.1719,326.1563 480.9688,325.9531 Q480.7656,325.7656 480.6563,325.25 Q480.6094,324.8906 480.4219,324.7031 Q480.0938,324.3281 479.4844,324.1094 Q478.875,323.8906 478.25,323.8906 Q477.4844,323.8906 476.8438,324.2188 Q476.2188,324.5469 475.7188,325.2969 Q475.2344,326.0469 475.2344,327.0781 L475.2344,328.1719 Q475.2344,329.4063 476.125,330.2344 Q477.0156,331.0469 478.6094,331.0469 Q479.5469,331.0469 480.2031,330.7969 Q480.5938,330.6406 481.0156,330.2031 Q481.2813,329.9375 481.4219,329.8594 Q481.5781,329.7813 481.7813,329.7813 Q482.1094,329.7813 482.3594,330.0469 Q482.625,330.2969 482.625,330.6406 Q482.625,330.9844 482.2813,331.3906 Q481.7813,331.9688 480.9844,332.2969 Q479.9063,332.75 478.6094,332.75 Q477.0938,332.75 475.8906,332.125 Q474.9063,331.625 474.2188,330.5625 Q473.5313,329.4844 473.5313,328.2031 L473.5313,327.0469 Q473.5313,325.7188 474.1406,324.5781 Q474.7656,323.4219 475.8594,322.8125 Q476.9531,322.1875 478.1875,322.1875 Q478.9219,322.1875 479.5625,322.3594 Q480.2188,322.5156 480.7656,322.875 Z " fill="#000000"/><text fill="#000000" font-family="sans-serif" font-size="14" lengthAdjust="spacing" textLength="91.0273" x="492" y="332.7285">AnkiErrorCase</text><line style="stroke:#181818;stroke-width:0.5;" x1="464" x2="585.0273" y1="343" y2="343"/><ellipse cx="474" cy="357.3047" fill="none" rx="3" ry="3" style="stroke:#038048;stroke-width:1;"/><text fill="#000000" font-family="sans-serif" font-size="14" lengthAdjust="spacing" textLength="73.8896" x="483" y="361.5332">ER-ID: &#20027;&#38190;</text><ellipse cx="474" cy="374.9141" fill="none" rx="3" ry="3" style="stroke:#038048;stroke-width:1;"/><text fill="#000000" font-family="sans-serif" font-size="14" lengthAdjust="spacing" textLength="52.8896" x="483" y="379.1426">KN-IDs[]</text><ellipse cx="474" cy="392.5234" fill="none" rx="3" ry="3" style="stroke:#038048;stroke-width:1;"/><text fill="#000000" font-family="sans-serif" font-size="14" lengthAdjust="spacing" textLength="38.1104" x="483" y="396.752">PR-ID</text><ellipse cx="474" cy="410.1328" fill="none" rx="3" ry="3" style="stroke:#038048;stroke-width:1;"/><text fill="#000000" font-family="sans-serif" font-size="14" lengthAdjust="spacing" textLength="37.3379" x="483" y="414.3613">PS-ID</text><line style="stroke:#181818;stroke-width:0.5;" x1="464" x2="585.0273" y1="421.4375" y2="421.4375"/></g><!--class Adjacency--><g class="entity" data-entity="Adjacency" data-source-line="28" data-uid="ent0007" id="entity_Adjacency"><rect fill="#F1F1F1" height="118.4375" rx="2.5" ry="2.5" style="stroke:#181818;stroke-width:0.5;" width="96.5928" x="242" y="133"/><ellipse cx="257" cy="149" fill="#ADD1B2" rx="11" ry="11" style="stroke:#181818;stroke-width:1;"/><path d="M259.7656,144.875 Q259.9219,144.6563 260.1094,144.5469 Q260.2969,144.4375 260.5156,144.4375 Q260.8906,144.4375 261.125,144.7031 Q261.3594,144.9531 261.3594,145.5625 L261.3594,147.0156 Q261.3594,147.625 261.125,147.8906 Q260.8906,148.1563 260.5156,148.1563 Q260.1719,148.1563 259.9688,147.9531 Q259.7656,147.7656 259.6563,147.25 Q259.6094,146.8906 259.4219,146.7031 Q259.0938,146.3281 258.4844,146.1094 Q257.875,145.8906 257.25,145.8906 Q256.4844,145.8906 255.8438,146.2188 Q255.2188,146.5469 254.7188,147.2969 Q254.2344,148.0469 254.2344,149.0781 L254.2344,150.1719 Q254.2344,151.4063 255.125,152.2344 Q256.0156,153.0469 257.6094,153.0469 Q258.5469,153.0469 259.2031,152.7969 Q259.5938,152.6406 260.0156,152.2031 Q260.2813,151.9375 260.4219,151.8594 Q260.5781,151.7813 260.7813,151.7813 Q261.1094,151.7813 261.3594,152.0469 Q261.625,152.2969 261.625,152.6406 Q261.625,152.9844 261.2813,153.3906 Q260.7813,153.9688 259.9844,154.2969 Q258.9063,154.75 257.6094,154.75 Q256.0938,154.75 254.8906,154.125 Q253.9063,153.625 253.2188,152.5625 Q252.5313,151.4844 252.5313,150.2031 L252.5313,149.0469 Q252.5313,147.7188 253.1406,146.5781 Q253.7656,145.4219 254.8594,144.8125 Q255.9531,144.1875 257.1875,144.1875 Q257.9219,144.1875 258.5625,144.3594 Q259.2188,144.5156 259.7656,144.875 Z " fill="#000000"/><text fill="#000000" font-family="sans-serif" font-size="14" lengthAdjust="spacing" textLength="64.5928" x="271" y="154.7285">Adjacency</text><line style="stroke:#181818;stroke-width:0.5;" x1="243" x2="337.5928" y1="165" y2="165"/><ellipse cx="253" cy="179.3047" fill="none" rx="3" ry="3" style="stroke:#038048;stroke-width:1;"/><text fill="#000000" font-family="sans-serif" font-size="14" lengthAdjust="spacing" textLength="52.8896" x="262" y="183.5332">KN-IDs[]</text><ellipse cx="253" cy="196.9141" fill="none" rx="3" ry="3" style="stroke:#038048;stroke-width:1;"/><text fill="#000000" font-family="sans-serif" font-size="14" lengthAdjust="spacing" textLength="52.8896" x="262" y="201.1426">PR-IDs[]</text><ellipse cx="253" cy="214.5234" fill="none" rx="3" ry="3" style="stroke:#038048;stroke-width:1;"/><text fill="#000000" font-family="sans-serif" font-size="14" lengthAdjust="spacing" textLength="52.1172" x="262" y="218.752">PS-IDs[]</text><ellipse cx="253" cy="232.1328" fill="none" rx="3" ry="3" style="stroke:#038048;stroke-width:1;"/><text fill="#000000" font-family="sans-serif" font-size="14" lengthAdjust="spacing" textLength="52.8896" x="262" y="236.3613">ER-IDs[]</text><line style="stroke:#181818;stroke-width:0.5;" x1="243" x2="337.5928" y1="243.4375" y2="243.4375"/></g><!--link AnkiKnowledge to Mapping--><g class="link" data-entity-1="AnkiKnowledge" data-entity-2="Mapping" data-source-line="35" data-uid="lnk8" id="link_AnkiKnowledge_Mapping"><path codeLine="35" d="M86.26,336.95 C108.53,290.11 153.46,201.09 203.5,133 C219.12,111.74 234.9611,94.4364 251.9011,77.5464" fill="none" id="AnkiKnowledge-to-Mapping" style="stroke:#181818;stroke-width:1;"/><polygon fill="#181818" points="256.15,73.31,246.9524,76.8319,252.6092,76.8403,252.6009,82.4972,256.15,73.31" style="stroke:#181818;stroke-width:1;"/></g><!--link AnkiProblem to Mapping--><g class="link" data-entity-1="AnkiProblem" data-entity-2="Mapping" data-source-line="36" data-uid="lnk9" id="link_AnkiProblem_Mapping"><path codeLine="36" d="M217.2,319.28 C210.12,270.56 204.62,194.82 224.5,133 C231.6,110.92 242.3582,94.2754 256.0082,77.7554" fill="none" id="AnkiProblem-to-Mapping" style="stroke:#181818;stroke-width:1;"/><polygon fill="#181818" points="259.83,73.13,251.0137,77.5202,256.6452,76.9845,257.1809,82.6159,259.83,73.13" style="stroke:#181818;stroke-width:1;"/></g><!--link AnkiProcess to Mapping--><g class="link" data-entity-1="AnkiProcess" data-entity-2="Mapping" data-source-line="37" data-uid="lnk10" id="link_AnkiProcess_Mapping"><path codeLine="37" d="M376.34,328.39 C379.43,280.24 379.97,198.31 356.5,133 C348.66,111.17 337.8098,94.5716 324.3098,78.0016" fill="none" id="AnkiProcess-to-Mapping" style="stroke:#181818;stroke-width:1;"/><polygon fill="#181818" points="320.52,73.35,323.1036,82.8539,323.6782,77.2263,329.3058,77.8009,320.52,73.35" style="stroke:#181818;stroke-width:1;"/></g><!--link AnkiErrorCase to Mapping--><g class="link" data-entity-1="AnkiErrorCase" data-entity-2="Mapping" data-source-line="38" data-uid="lnk11" id="link_AnkiErrorCase_Mapping"><path codeLine="38" d="M498.99,310.85 C475.56,260.93 437.82,188.46 393.5,133 C375.84,110.9 357.1913,93.4567 337.2413,76.9367" fill="none" id="AnkiErrorCase-to-Mapping" style="stroke:#181818;stroke-width:1;"/><polygon fill="#181818" points="332.62,73.11,337.0007,81.9309,336.4711,76.2989,342.1031,75.7693,332.62,73.11" style="stroke:#181818;stroke-width:1;"/></g><!--link Mapping to Adjacency--><g class="link" data-entity-1="Mapping" data-entity-2="Adjacency" data-source-line="39" data-uid="lnk12" id="link_Mapping_Adjacency"><path codeLine="39" d="M290.5,73.18 C290.5,90.57 290.5,106.58 290.5,126.85" fill="none" id="Mapping-to-Adjacency" style="stroke:#181818;stroke-width:1;"/><polygon fill="#181818" points="290.5,132.85,294.5,123.85,290.5,127.85,286.5,123.85,290.5,132.85" style="stroke:#181818;stroke-width:1;"/></g><!--link Adjacency to AnkiKnowledge--><g class="link" data-entity-1="Adjacency" data-entity-2="AnkiKnowledge" data-source-line="41" data-uid="lnk13" id="link_Adjacency_AnkiKnowledge"><path codeLine="41" d="M241.9,232.06 C202.71,263.56 152.9369,303.5514 116.2169,333.0614" fill="none" id="Adjacency-to-AnkiKnowledge" style="stroke:#181818;stroke-width:1;stroke-dasharray:7.0,7.0;"/><polygon fill="#181818" points="111.54,336.82,121.061,334.3001,115.4374,333.6879,116.0496,328.0642,111.54,336.82" style="stroke:#181818;stroke-width:1;"/></g><!--link Adjacency to AnkiProblem--><g class="link" data-entity-1="Adjacency" data-entity-2="AnkiProblem" data-source-line="42" data-uid="lnk14" id="link_Adjacency_AnkiProblem"><path codeLine="42" d="M269.37,251.12 C261.32,273.24 254.2802,292.5912 246.5502,313.8512" fill="none" id="Adjacency-to-AnkiProblem" style="stroke:#181818;stroke-width:1;stroke-dasharray:7.0,7.0;"/><polygon fill="#181818" points="244.5,319.49,251.3346,312.3986,246.2085,314.791,243.8161,309.6649,244.5,319.49" style="stroke:#181818;stroke-width:1;"/></g><!--link Adjacency to AnkiProcess--><g class="link" data-entity-1="Adjacency" data-entity-2="AnkiProcess" data-source-line="43" data-uid="lnk15" id="link_Adjacency_AnkiProcess"><path codeLine="43" d="M317.58,251.12 C329.38,276.45 340.3957,300.0915 351.0857,323.0315" fill="none" id="Adjacency-to-AnkiProcess" style="stroke:#181818;stroke-width:1;stroke-dasharray:7.0,7.0;"/><polygon fill="#181818" points="353.62,328.47,353.4442,318.6227,351.5081,323.9379,346.1928,322.0018,353.62,328.47" style="stroke:#181818;stroke-width:1;"/></g><!--link Adjacency to AnkiErrorCase--><g class="link" data-entity-1="Adjacency" data-entity-2="AnkiErrorCase" data-source-line="44" data-uid="lnk16" id="link_Adjacency_AnkiErrorCase"><path codeLine="44" d="M339.27,229.68 C375.17,256.68 419.4345,289.984 458.0545,319.024" fill="none" id="Adjacency-to-AnkiErrorCase" style="stroke:#181818;stroke-width:1;stroke-dasharray:7.0,7.0;"/><polygon fill="#181818" points="462.85,322.63,458.0607,314.024,458.8537,319.625,453.2527,320.4181,462.85,322.63" style="stroke:#181818;stroke-width:1;"/></g><!--SRC=[Iyv9B2vMy4qiACZCIw_cKW02RGLlFrrF5ok59pjslvooZgkMYoiPhCenBplJEo-_F2Sr9JqLLIqsfG55-KavgRamXG51I0gHz1P7ny9K10Ev66OafnONLoEhm646YZxNegBy8kV4OhWpNOEGlOJTUf0I74v9oKfCJirBhgp6enND8mYkQn32YIXXgA2hQmSBUowa8CCc3We6376uDr5ae3HO3EvoeDKmfeAUdXrgP6AHWpe5kmp8CLXauCxX0W00]--></g></svg>