<svg xmlns="http://www.w3.org/2000/svg" xmlns:xlink="http://www.w3.org/1999/xlink" contentStyleType="text/css" data-diagram-type="CLASS" height="547px" preserveAspectRatio="none" style="width:307px;height:547px;background:#FFFFFF;" version="1.1" viewBox="0 0 307 547" width="307px" zoomAndPan="magnify"><defs/><g><!--class Process--><g class="entity" data-entity="Process" data-source-line="2" data-uid="ent0002" id="entity_Process"><rect fill="#F1F1F1" height="32" rx="2.5" ry="2.5" style="stroke:#181818;stroke-width:0.5;" width="82.5723" x="86.5" y="59"/><ellipse cx="101.5" cy="75" fill="#ADD1B2" rx="11" ry="11" style="stroke:#181818;stroke-width:1;"/><path d="M104.2656,70.875 Q104.4219,70.6563 104.6094,70.5469 Q104.7969,70.4375 105.0156,70.4375 Q105.3906,70.4375 105.625,70.7031 Q105.8594,70.9531 105.8594,71.5625 L105.8594,73.0156 Q105.8594,73.625 105.625,73.8906 Q105.3906,74.1563 105.0156,74.1563 Q104.6719,74.1563 104.4688,73.9531 Q104.2656,73.7656 104.1563,73.25 Q104.1094,72.8906 103.9219,72.7031 Q103.5938,72.3281 102.9844,72.1094 Q102.375,71.8906 101.75,71.8906 Q100.9844,71.8906 100.3438,72.2188 Q99.7188,72.5469 99.2188,73.2969 Q98.7344,74.0469 98.7344,75.0781 L98.7344,76.1719 Q98.7344,77.4063 99.625,78.2344 Q100.5156,79.0469 102.1094,79.0469 Q103.0469,79.0469 103.7031,78.7969 Q104.0938,78.6406 104.5156,78.2031 Q104.7813,77.9375 104.9219,77.8594 Q105.0781,77.7813 105.2813,77.7813 Q105.6094,77.7813 105.8594,78.0469 Q106.125,78.2969 106.125,78.6406 Q106.125,78.9844 105.7813,79.3906 Q105.2813,79.9688 104.4844,80.2969 Q103.4063,80.75 102.1094,80.75 Q100.5938,80.75 99.3906,80.125 Q98.4063,79.625 97.7188,78.5625 Q97.0313,77.4844 97.0313,76.2031 L97.0313,75.0469 Q97.0313,73.7188 97.6406,72.5781 Q98.2656,71.4219 99.3594,70.8125 Q100.4531,70.1875 101.6875,70.1875 Q102.4219,70.1875 103.0625,70.3594 Q103.7188,70.5156 104.2656,70.875 Z " fill="#000000"/><text fill="#000000" font-family="sans-serif" font-size="14" lengthAdjust="spacing" textLength="50.5723" x="115.5" y="80.7285">Process</text></g><!--class ProcessStep--><g class="entity" data-entity="ProcessStep" data-source-line="3" data-uid="ent0003" id="entity_ProcessStep"><rect fill="#F1F1F1" height="32" rx="2.5" ry="2.5" style="stroke:#181818;stroke-width:0.5;" width="111.3721" x="72.5" y="204"/><ellipse cx="87.5" cy="220" fill="#ADD1B2" rx="11" ry="11" style="stroke:#181818;stroke-width:1;"/><path d="M90.2656,215.875 Q90.4219,215.6563 90.6094,215.5469 Q90.7969,215.4375 91.0156,215.4375 Q91.3906,215.4375 91.625,215.7031 Q91.8594,215.9531 91.8594,216.5625 L91.8594,218.0156 Q91.8594,218.625 91.625,218.8906 Q91.3906,219.1563 91.0156,219.1563 Q90.6719,219.1563 90.4688,218.9531 Q90.2656,218.7656 90.1563,218.25 Q90.1094,217.8906 89.9219,217.7031 Q89.5938,217.3281 88.9844,217.1094 Q88.375,216.8906 87.75,216.8906 Q86.9844,216.8906 86.3438,217.2188 Q85.7188,217.5469 85.2188,218.2969 Q84.7344,219.0469 84.7344,220.0781 L84.7344,221.1719 Q84.7344,222.4063 85.625,223.2344 Q86.5156,224.0469 88.1094,224.0469 Q89.0469,224.0469 89.7031,223.7969 Q90.0938,223.6406 90.5156,223.2031 Q90.7813,222.9375 90.9219,222.8594 Q91.0781,222.7813 91.2813,222.7813 Q91.6094,222.7813 91.8594,223.0469 Q92.125,223.2969 92.125,223.6406 Q92.125,223.9844 91.7813,224.3906 Q91.2813,224.9688 90.4844,225.2969 Q89.4063,225.75 88.1094,225.75 Q86.5938,225.75 85.3906,225.125 Q84.4063,224.625 83.7188,223.5625 Q83.0313,222.4844 83.0313,221.2031 L83.0313,220.0469 Q83.0313,218.7188 83.6406,217.5781 Q84.2656,216.4219 85.3594,215.8125 Q86.4531,215.1875 87.6875,215.1875 Q88.4219,215.1875 89.0625,215.3594 Q89.7188,215.5156 90.2656,215.875 Z " fill="#000000"/><text fill="#000000" font-family="sans-serif" font-size="14" lengthAdjust="spacing" textLength="79.3721" x="101.5" y="225.7285">ProcessStep</text></g><!--class StateType--><g class="entity" data-entity="StateType" data-source-line="8" data-uid="ent0004" id="entity_StateType"><rect fill="#F1F1F1" height="136.0469" rx="2.5" ry="2.5" style="stroke:#181818;stroke-width:0.5;" width="95.8135" x="205" y="7"/><ellipse cx="220" cy="23" fill="#EB937F" rx="11" ry="11" style="stroke:#181818;stroke-width:1;"/><path d="M218.8594,23.7969 L218.8594,26.2969 L223.1875,26.2969 L223.1875,25.375 Q223.1875,24.7656 223.4219,24.5 Q223.6719,24.2344 224.0469,24.2344 Q224.4219,24.2344 224.6563,24.5 Q224.8906,24.7656 224.8906,25.375 L224.8906,28 L216.8906,28 Q216.2656,28 216,27.7656 Q215.75,27.5313 215.75,27.1406 Q215.75,26.7656 216.0156,26.5313 Q216.2813,26.2969 216.8906,26.2969 L217.1563,26.2969 L217.1563,19.6406 L216.8906,19.6406 Q216.2656,19.6406 216,19.4063 Q215.75,19.1719 215.75,18.7813 Q215.75,18.4063 216,18.1719 Q216.2656,17.9375 216.8906,17.9375 L224.5156,17.9375 L224.5156,20.5313 Q224.5156,21.1406 224.2813,21.4063 Q224.0625,21.6563 223.6719,21.6563 Q223.2969,21.6563 223.0625,21.4063 Q222.8281,21.1406 222.8281,20.5313 L222.8281,19.6406 L218.8594,19.6406 L218.8594,22.0938 L220.3438,22.0938 Q220.3438,21.4375 220.4688,21.25 Q220.7344,20.8438 221.2031,20.8438 Q221.5781,20.8438 221.8125,21.1094 Q222.0469,21.3594 222.0469,21.9688 L222.0469,23.9375 Q222.0469,24.4844 221.9219,24.6719 Q221.6563,25.0625 221.2031,25.0625 Q220.7344,25.0625 220.4688,24.6563 Q220.3438,24.4688 220.3438,23.7969 L218.8594,23.7969 Z " fill="#000000"/><text fill="#000000" font-family="sans-serif" font-size="14" lengthAdjust="spacing" textLength="63.8135" x="234" y="28.7285">StateType</text><line style="stroke:#181818;stroke-width:0.5;" x1="206" x2="299.8135" y1="39" y2="39"/><polygon fill="none" points="216,48.3047,220,52.3047,216,56.3047,212,52.3047" style="stroke:#B38D22;stroke-width:1;"/><text fill="#000000" font-family="sans-serif" font-size="14" lengthAdjust="spacing" textLength="42" x="225" y="57.5332">&#34920;&#36798;&#24335;</text><polygon fill="none" points="216,65.9141,220,69.9141,216,73.9141,212,69.9141" style="stroke:#B38D22;stroke-width:1;"/><text fill="#000000" font-family="sans-serif" font-size="14" lengthAdjust="spacing" textLength="28" x="225" y="75.1426">&#30697;&#38453;</text><polygon fill="none" points="216,83.5234,220,87.5234,216,91.5234,212,87.5234" style="stroke:#B38D22;stroke-width:1;"/><text fill="#000000" font-family="sans-serif" font-size="14" lengthAdjust="spacing" textLength="42" x="225" y="92.752">&#21521;&#37327;&#32452;</text><polygon fill="none" points="216,101.1328,220,105.1328,216,109.1328,212,105.1328" style="stroke:#B38D22;stroke-width:1;"/><text fill="#000000" font-family="sans-serif" font-size="14" lengthAdjust="spacing" textLength="56" x="225" y="110.3613">&#25968;&#20540;&#32467;&#26524;</text><polygon fill="none" points="216,118.7422,220,122.7422,216,126.7422,212,122.7422" style="stroke:#B38D22;stroke-width:1;"/><text fill="#000000" font-family="sans-serif" font-size="14" lengthAdjust="spacing" textLength="56" x="225" y="127.9707">&#32467;&#26500;&#23545;&#35937;</text><line style="stroke:#181818;stroke-width:0.5;" x1="206" x2="299.8135" y1="135.0469" y2="135.0469"/></g><!--class State--><g class="entity" data-entity="State" data-source-line="16" data-uid="ent0005" id="entity_State"><rect fill="#F1F1F1" height="83.2188" rx="2.5" ry="2.5" style="stroke:#181818;stroke-width:0.5;" width="125.5928" x="9" y="314"/><ellipse cx="51.4065" cy="330" fill="#ADD1B2" rx="11" ry="11" style="stroke:#181818;stroke-width:1;"/><path d="M54.1721,325.875 Q54.3284,325.6563 54.5159,325.5469 Q54.7034,325.4375 54.9221,325.4375 Q55.2971,325.4375 55.5315,325.7031 Q55.7659,325.9531 55.7659,326.5625 L55.7659,328.0156 Q55.7659,328.625 55.5315,328.8906 Q55.2971,329.1563 54.9221,329.1563 Q54.5784,329.1563 54.3752,328.9531 Q54.1721,328.7656 54.0627,328.25 Q54.0159,327.8906 53.8284,327.7031 Q53.5002,327.3281 52.8909,327.1094 Q52.2815,326.8906 51.6565,326.8906 Q50.8909,326.8906 50.2502,327.2188 Q49.6252,327.5469 49.1252,328.2969 Q48.6409,329.0469 48.6409,330.0781 L48.6409,331.1719 Q48.6409,332.4063 49.5315,333.2344 Q50.4221,334.0469 52.0159,334.0469 Q52.9534,334.0469 53.6096,333.7969 Q54.0002,333.6406 54.4221,333.2031 Q54.6877,332.9375 54.8284,332.8594 Q54.9846,332.7813 55.1877,332.7813 Q55.5159,332.7813 55.7659,333.0469 Q56.0315,333.2969 56.0315,333.6406 Q56.0315,333.9844 55.6877,334.3906 Q55.1877,334.9688 54.3909,335.2969 Q53.3127,335.75 52.0159,335.75 Q50.5002,335.75 49.2971,335.125 Q48.3127,334.625 47.6252,333.5625 Q46.9377,332.4844 46.9377,331.2031 L46.9377,330.0469 Q46.9377,328.7188 47.5471,327.5781 Q48.1721,326.4219 49.2659,325.8125 Q50.3596,325.1875 51.594,325.1875 Q52.3284,325.1875 52.969,325.3594 Q53.6252,325.5156 54.1721,325.875 Z " fill="#000000"/><text fill="#000000" font-family="sans-serif" font-size="14" lengthAdjust="spacing" textLength="32.6895" x="71.4968" y="335.7285">State</text><line style="stroke:#181818;stroke-width:0.5;" x1="10" x2="133.5928" y1="346" y2="346"/><polygon fill="none" points="20,356.3047,16,362.3047,24,362.3047" style="stroke:#1963A0;stroke-width:1;"/><text fill="#000000" font-family="sans-serif" font-size="14" lengthAdjust="spacing" textLength="28" x="29" y="364.5332">&#25551;&#36848;</text><polygon fill="none" points="20,373.9141,16,379.9141,24,379.9141" style="stroke:#1963A0;stroke-width:1;"/><text fill="#000000" font-family="sans-serif" font-size="14" lengthAdjust="spacing" textLength="99.5928" x="29" y="382.1426">&#31867;&#22411;: StateType</text><line style="stroke:#181818;stroke-width:0.5;" x1="10" x2="133.5928" y1="389.2188" y2="389.2188"/></g><!--class Transition--><g class="entity" data-entity="Transition" data-source-line="21" data-uid="ent0006" id="entity_Transition"><rect fill="#F1F1F1" height="65.6094" rx="2.5" ry="2.5" style="stroke:#181818;stroke-width:0.5;" width="93.4688" x="93.5" y="475"/><ellipse cx="108.5" cy="491" fill="#ADD1B2" rx="11" ry="11" style="stroke:#181818;stroke-width:1;"/><path d="M111.2656,486.875 Q111.4219,486.6563 111.6094,486.5469 Q111.7969,486.4375 112.0156,486.4375 Q112.3906,486.4375 112.625,486.7031 Q112.8594,486.9531 112.8594,487.5625 L112.8594,489.0156 Q112.8594,489.625 112.625,489.8906 Q112.3906,490.1563 112.0156,490.1563 Q111.6719,490.1563 111.4688,489.9531 Q111.2656,489.7656 111.1563,489.25 Q111.1094,488.8906 110.9219,488.7031 Q110.5938,488.3281 109.9844,488.1094 Q109.375,487.8906 108.75,487.8906 Q107.9844,487.8906 107.3438,488.2188 Q106.7188,488.5469 106.2188,489.2969 Q105.7344,490.0469 105.7344,491.0781 L105.7344,492.1719 Q105.7344,493.4063 106.625,494.2344 Q107.5156,495.0469 109.1094,495.0469 Q110.0469,495.0469 110.7031,494.7969 Q111.0938,494.6406 111.5156,494.2031 Q111.7813,493.9375 111.9219,493.8594 Q112.0781,493.7813 112.2813,493.7813 Q112.6094,493.7813 112.8594,494.0469 Q113.125,494.2969 113.125,494.6406 Q113.125,494.9844 112.7813,495.3906 Q112.2813,495.9688 111.4844,496.2969 Q110.4063,496.75 109.1094,496.75 Q107.5938,496.75 106.3906,496.125 Q105.4063,495.625 104.7188,494.5625 Q104.0313,493.4844 104.0313,492.2031 L104.0313,491.0469 Q104.0313,489.7188 104.6406,488.5781 Q105.2656,487.4219 106.3594,486.8125 Q107.4531,486.1875 108.6875,486.1875 Q109.4219,486.1875 110.0625,486.3594 Q110.7188,486.5156 111.2656,486.875 Z " fill="#000000"/><text fill="#000000" font-family="sans-serif" font-size="14" lengthAdjust="spacing" textLength="61.4688" x="122.5" y="496.7285">Transition</text><line style="stroke:#181818;stroke-width:0.5;" x1="94.5" x2="185.9688" y1="507" y2="507"/><polygon fill="none" points="104.5,517.3047,100.5,523.3047,108.5,523.3047" style="stroke:#1963A0;stroke-width:1;"/><text fill="#000000" font-family="sans-serif" font-size="14" lengthAdjust="spacing" textLength="28" x="113.5" y="525.5332">&#21160;&#20316;</text><line style="stroke:#181818;stroke-width:0.5;" x1="94.5" x2="185.9688" y1="532.6094" y2="532.6094"/></g><!--link State to Transition--><g class="link" data-entity-1="State" data-entity-2="Transition" data-source-line="25" data-uid="lnk7" id="link_State_Transition"><path codeLine="25" d="M63.13,397.21 C61.63,412.77 62.32,430.3 69,445 C74.42,456.92 78.9309,463.4144 88.7009,472.2544" fill="none" id="State-to-Transition" style="stroke:#181818;stroke-width:1;"/><polygon fill="#181818" points="93.15,476.28,89.1601,467.2755,89.4424,472.9253,83.7926,473.2077,93.15,476.28" style="stroke:#181818;stroke-width:1;"/><text fill="#000000" font-family="sans-serif" font-size="13" lengthAdjust="spacing" textLength="26" x="70" y="441.4951">&#36755;&#20837;</text></g><!--link Transition to State--><g class="link" data-entity-1="Transition" data-entity-2="State" data-source-line="26" data-uid="lnk8" id="link_Transition_State"><path codeLine="26" d="M125.46,474.82 C115.22,452.15 103.8922,427.067 92.8722,402.697" fill="none" id="Transition-to-State" style="stroke:#181818;stroke-width:1;"/><polygon fill="#181818" points="90.4,397.23,90.4636,407.0787,92.4601,401.7859,97.7529,403.7824,90.4,397.23" style="stroke:#181818;stroke-width:1;"/><text fill="#000000" font-family="sans-serif" font-size="13" lengthAdjust="spacing" textLength="26" x="112" y="441.4951">&#36755;&#20986;</text></g><!--link ProcessStep to State--><g class="link" data-entity-1="ProcessStep" data-entity-2="State" data-source-line="28" data-uid="lnk9" id="link_ProcessStep_State"><path codeLine="28" d="M72.42,234.37 C56.3,241.11 40.49,251.14 31,266 C21.52,280.84 23.4186,293.0877 32.6886,308.5077" fill="none" id="ProcessStep-to-State" style="stroke:#181818;stroke-width:1;"/><polygon fill="#181818" points="35.78,313.65,34.5711,303.8756,33.2038,309.3647,27.7147,307.9975,35.78,313.65" style="stroke:#181818;stroke-width:1;"/><text fill="#000000" font-family="sans-serif" font-size="13" lengthAdjust="spacing" textLength="52" x="32" y="280.4951">&#36755;&#20837;&#29366;&#24577;</text></g><!--link ProcessStep to State--><g class="link" data-entity-1="ProcessStep" data-entity-2="State" data-source-line="29" data-uid="lnk10" id="link_ProcessStep_State"><path codeLine="29" d="M121.68,236.05 C113.82,254.81 102.3908,282.057 91.3508,308.377" fill="none" id="ProcessStep-to-State-1" style="stroke:#181818;stroke-width:1;"/><polygon fill="#181818" points="89.03,313.91,96.1999,307.1578,90.964,309.2992,88.8226,304.0633,89.03,313.91" style="stroke:#181818;stroke-width:1;"/><text fill="#000000" font-family="sans-serif" font-size="13" lengthAdjust="spacing" textLength="52" x="110" y="280.4951">&#36755;&#20986;&#29366;&#24577;</text></g><!--link ProcessStep to Transition--><g class="link" data-entity-1="ProcessStep" data-entity-2="Transition" data-source-line="31" data-uid="lnk11" id="link_ProcessStep_Transition"><path codeLine="31" d="M148.33,236.22 C157.07,244.04 166.34,254.37 171,266 C199.34,336.67 174.4715,421.9067 156.0615,469.3267" fill="none" id="ProcessStep-to-Transition" style="stroke:#181818;stroke-width:1;"/><polygon fill="#181818" points="153.89,474.92,160.8761,467.9778,155.6996,470.2589,153.4184,465.0824,153.89,474.92" style="stroke:#181818;stroke-width:1;"/><text fill="#000000" font-family="sans-serif" font-size="13" lengthAdjust="spacing" textLength="52" x="185" y="360.9951">&#25191;&#34892;&#21160;&#20316;</text></g><!--reverse link Process to ProcessStep--><g class="link" data-entity-1="Process" data-entity-2="ProcessStep" data-source-line="33" data-uid="lnk12" id="link_Process_ProcessStep"><path codeLine="33" d="M128,103.03 C128,130.43 128,176.18 128,203.74" fill="none" id="Process-backto-ProcessStep" style="stroke:#181818;stroke-width:1;"/><polygon fill="#181818" points="128,91.03,124,97.03,128,103.03,132,97.03,128,91.03" style="stroke:#181818;stroke-width:1;"/></g><!--SRC=[Iyv9B2vM22ZAJqujBkPAHkO5bwGMS75bPAQamaGKSbDparABYb44GShW4bofUQMv2i4bYIMf8PK5gGhLN0eAoWel5gvuiM_VqptzODxp-IjVpjWAPZwTCF5bU__ptIrWthEf6vusx7c-U_ApUNCWAa7CbgVhTxxOk92hbWlgFB3fO9Fh59xrzx_Olm7CVBvnzzDvtLO8on4wGeeIyuepIpBpyw3QddQjUB9t3aW1n31TNJjaHLOAB_PDVjgwb0j93AG4eXWYsxwBYmiv1D3bMvS-xzhshA4HhwBsNL156AfGNFEiS_cBXJrGHyEKAcZfwg945G00]--></g></svg>