<svg xmlns="http://www.w3.org/2000/svg" xmlns:xlink="http://www.w3.org/1999/xlink" contentStyleType="text/css" data-diagram-type="CLASS" height="665px" preserveAspectRatio="none" style="width:380px;height:665px;background:#FFFFFF;" version="1.1" viewBox="0 0 380 665" width="380px" zoomAndPan="magnify"><defs/><g><!--cluster ??????--><g class="cluster" data-entity="&#35299;&#39064;&#36807;&#31243;&#27169;&#22411;" data-source-line="5" data-uid="ent0003" id="cluster_&#35299;&#39064;&#36807;&#31243;&#27169;&#22411;"><rect fill="none" height="573" rx="2.5" ry="2.5" style="stroke:#181818;stroke-width:1;" width="245" x="7" y="86"/><text fill="#000000" font-family="sans-serif" font-size="14" font-weight="bold" lengthAdjust="spacing" textLength="86.625" x="86.1875" y="102.5332">&#35299;&#39064;&#36807;&#31243;&#27169;&#22411;</text></g><!--cluster ???--><g class="cluster" data-entity="&#29366;&#24577;&#23618;" data-source-line="31" data-uid="ent0009" id="cluster_&#29366;&#24577;&#23618;"><rect fill="none" height="118" rx="2.5" ry="2.5" style="stroke:#181818;stroke-width:1;" width="98" x="276" y="541"/><text fill="#000000" font-family="sans-serif" font-size="14" font-weight="bold" lengthAdjust="spacing" textLength="43.3125" x="303.3438" y="557.5332">&#29366;&#24577;&#23618;</text></g><!--class Condition--><g class="entity" data-entity="Condition" data-source-line="7" data-uid="ent0004" id="entity_Condition"><rect fill="#F1F1F1" height="100.8281" rx="2.5" ry="2.5" style="stroke:#181818;stroke-width:0.5;" width="91.1514" x="80.5" y="122"/><ellipse cx="95.5" cy="138" fill="#ADD1B2" rx="11" ry="11" style="stroke:#181818;stroke-width:1;"/><path d="M98.2656,133.875 Q98.4219,133.6563 98.6094,133.5469 Q98.7969,133.4375 99.0156,133.4375 Q99.3906,133.4375 99.625,133.7031 Q99.8594,133.9531 99.8594,134.5625 L99.8594,136.0156 Q99.8594,136.625 99.625,136.8906 Q99.3906,137.1563 99.0156,137.1563 Q98.6719,137.1563 98.4688,136.9531 Q98.2656,136.7656 98.1563,136.25 Q98.1094,135.8906 97.9219,135.7031 Q97.5938,135.3281 96.9844,135.1094 Q96.375,134.8906 95.75,134.8906 Q94.9844,134.8906 94.3438,135.2188 Q93.7188,135.5469 93.2188,136.2969 Q92.7344,137.0469 92.7344,138.0781 L92.7344,139.1719 Q92.7344,140.4063 93.625,141.2344 Q94.5156,142.0469 96.1094,142.0469 Q97.0469,142.0469 97.7031,141.7969 Q98.0938,141.6406 98.5156,141.2031 Q98.7813,140.9375 98.9219,140.8594 Q99.0781,140.7813 99.2813,140.7813 Q99.6094,140.7813 99.8594,141.0469 Q100.125,141.2969 100.125,141.6406 Q100.125,141.9844 99.7813,142.3906 Q99.2813,142.9688 98.4844,143.2969 Q97.4063,143.75 96.1094,143.75 Q94.5938,143.75 93.3906,143.125 Q92.4063,142.625 91.7188,141.5625 Q91.0313,140.4844 91.0313,139.2031 L91.0313,138.0469 Q91.0313,136.7188 91.6406,135.5781 Q92.2656,134.4219 93.3594,133.8125 Q94.4531,133.1875 95.6875,133.1875 Q96.4219,133.1875 97.0625,133.3594 Q97.7188,133.5156 98.2656,133.875 Z " fill="#000000"/><text fill="#000000" font-family="sans-serif" font-size="14" lengthAdjust="spacing" textLength="59.1514" x="109.5" y="143.7285">Condition</text><line style="stroke:#181818;stroke-width:0.5;" x1="81.5" x2="170.6514" y1="154" y2="154"/><polygon fill="none" points="91.5,164.3047,87.5,170.3047,95.5,170.3047" style="stroke:#1963A0;stroke-width:1;"/><text fill="#000000" font-family="sans-serif" font-size="14" lengthAdjust="spacing" textLength="28" x="100.5" y="172.5332">&#39064;&#22411;</text><polygon fill="none" points="91.5,181.9141,87.5,187.9141,95.5,187.9141" style="stroke:#1963A0;stroke-width:1;"/><text fill="#000000" font-family="sans-serif" font-size="14" lengthAdjust="spacing" textLength="56" x="100.5" y="190.1426">&#32467;&#26500;&#29305;&#24449;</text><polygon fill="none" points="91.5,199.5234,87.5,205.5234,95.5,205.5234" style="stroke:#1963A0;stroke-width:1;"/><text fill="#000000" font-family="sans-serif" font-size="14" lengthAdjust="spacing" textLength="56" x="100.5" y="207.752">&#27714;&#35299;&#30446;&#26631;</text><line style="stroke:#181818;stroke-width:0.5;" x1="81.5" x2="170.6514" y1="214.8281" y2="214.8281"/></g><!--class Process--><g class="entity" data-entity="Process" data-source-line="13" data-uid="ent0005" id="entity_Process"><rect fill="#F1F1F1" height="65.6094" rx="2.5" ry="2.5" style="stroke:#181818;stroke-width:0.5;" width="145.041" x="53.5" y="284"/><ellipse cx="96.6109" cy="300" fill="#ADD1B2" rx="11" ry="11" style="stroke:#181818;stroke-width:1;"/><path d="M99.3766,295.875 Q99.5328,295.6563 99.7203,295.5469 Q99.9078,295.4375 100.1266,295.4375 Q100.5016,295.4375 100.7359,295.7031 Q100.9703,295.9531 100.9703,296.5625 L100.9703,298.0156 Q100.9703,298.625 100.7359,298.8906 Q100.5016,299.1563 100.1266,299.1563 Q99.7828,299.1563 99.5797,298.9531 Q99.3766,298.7656 99.2672,298.25 Q99.2203,297.8906 99.0328,297.7031 Q98.7047,297.3281 98.0953,297.1094 Q97.4859,296.8906 96.8609,296.8906 Q96.0953,296.8906 95.4547,297.2188 Q94.8297,297.5469 94.3297,298.2969 Q93.8453,299.0469 93.8453,300.0781 L93.8453,301.1719 Q93.8453,302.4063 94.7359,303.2344 Q95.6266,304.0469 97.2203,304.0469 Q98.1578,304.0469 98.8141,303.7969 Q99.2047,303.6406 99.6266,303.2031 Q99.8922,302.9375 100.0328,302.8594 Q100.1891,302.7813 100.3922,302.7813 Q100.7203,302.7813 100.9703,303.0469 Q101.2359,303.2969 101.2359,303.6406 Q101.2359,303.9844 100.8922,304.3906 Q100.3922,304.9688 99.5953,305.2969 Q98.5172,305.75 97.2203,305.75 Q95.7047,305.75 94.5016,305.125 Q93.5172,304.625 92.8297,303.5625 Q92.1422,302.4844 92.1422,301.2031 L92.1422,300.0469 Q92.1422,298.7188 92.7516,297.5781 Q93.3766,296.4219 94.4703,295.8125 Q95.5641,295.1875 96.7984,295.1875 Q97.5328,295.1875 98.1734,295.3594 Q98.8297,295.5156 99.3766,295.875 Z " fill="#000000"/><text fill="#000000" font-family="sans-serif" font-size="14" lengthAdjust="spacing" textLength="50.5723" x="116.8578" y="305.7285">Process</text><line style="stroke:#181818;stroke-width:0.5;" x1="54.5" x2="197.541" y1="316" y2="316"/><polygon fill="none" points="64.5,326.3047,60.5,332.3047,68.5,332.3047" style="stroke:#1963A0;stroke-width:1;"/><text fill="#000000" font-family="sans-serif" font-size="14" lengthAdjust="spacing" textLength="119.041" x="73.5" y="334.5332">&#20837;&#21475;&#26465;&#20214;:Condition</text><line style="stroke:#181818;stroke-width:0.5;" x1="54.5" x2="197.541" y1="341.6094" y2="341.6094"/></g><!--class ProcessStep--><g class="entity" data-entity="ProcessStep" data-source-line="17" data-uid="ent0006" id="entity_ProcessStep"><rect fill="#F1F1F1" height="65.6094" rx="2.5" ry="2.5" style="stroke:#181818;stroke-width:0.5;" width="111.3721" x="70.5" y="411"/><ellipse cx="85.5" cy="427" fill="#ADD1B2" rx="11" ry="11" style="stroke:#181818;stroke-width:1;"/><path d="M88.2656,422.875 Q88.4219,422.6563 88.6094,422.5469 Q88.7969,422.4375 89.0156,422.4375 Q89.3906,422.4375 89.625,422.7031 Q89.8594,422.9531 89.8594,423.5625 L89.8594,425.0156 Q89.8594,425.625 89.625,425.8906 Q89.3906,426.1563 89.0156,426.1563 Q88.6719,426.1563 88.4688,425.9531 Q88.2656,425.7656 88.1563,425.25 Q88.1094,424.8906 87.9219,424.7031 Q87.5938,424.3281 86.9844,424.1094 Q86.375,423.8906 85.75,423.8906 Q84.9844,423.8906 84.3438,424.2188 Q83.7188,424.5469 83.2188,425.2969 Q82.7344,426.0469 82.7344,427.0781 L82.7344,428.1719 Q82.7344,429.4063 83.625,430.2344 Q84.5156,431.0469 86.1094,431.0469 Q87.0469,431.0469 87.7031,430.7969 Q88.0938,430.6406 88.5156,430.2031 Q88.7813,429.9375 88.9219,429.8594 Q89.0781,429.7813 89.2813,429.7813 Q89.6094,429.7813 89.8594,430.0469 Q90.125,430.2969 90.125,430.6406 Q90.125,430.9844 89.7813,431.3906 Q89.2813,431.9688 88.4844,432.2969 Q87.4063,432.75 86.1094,432.75 Q84.5938,432.75 83.3906,432.125 Q82.4063,431.625 81.7188,430.5625 Q81.0313,429.4844 81.0313,428.2031 L81.0313,427.0469 Q81.0313,425.7188 81.6406,424.5781 Q82.2656,423.4219 83.3594,422.8125 Q84.4531,422.1875 85.6875,422.1875 Q86.4219,422.1875 87.0625,422.3594 Q87.7188,422.5156 88.2656,422.875 Z " fill="#000000"/><text fill="#000000" font-family="sans-serif" font-size="14" lengthAdjust="spacing" textLength="79.3721" x="99.5" y="432.7285">ProcessStep</text><line style="stroke:#181818;stroke-width:0.5;" x1="71.5" x2="180.8721" y1="443" y2="443"/><polygon fill="none" points="81.5,453.3047,77.5,459.3047,85.5,459.3047" style="stroke:#1963A0;stroke-width:1;"/><text fill="#000000" font-family="sans-serif" font-size="14" lengthAdjust="spacing" textLength="28" x="90.5" y="461.5332">&#21160;&#20316;</text><line style="stroke:#181818;stroke-width:0.5;" x1="71.5" x2="180.8721" y1="468.6094" y2="468.6094"/></g><!--class Branch--><g class="entity" data-entity="Branch" data-source-line="21" data-uid="ent0007" id="entity_Branch"><rect fill="#F1F1F1" height="65.6094" rx="2.5" ry="2.5" style="stroke:#181818;stroke-width:0.5;" width="76.3584" x="23" y="577"/><ellipse cx="38" cy="593" fill="#ADD1B2" rx="11" ry="11" style="stroke:#181818;stroke-width:1;"/><path d="M40.7656,588.875 Q40.9219,588.6563 41.1094,588.5469 Q41.2969,588.4375 41.5156,588.4375 Q41.8906,588.4375 42.125,588.7031 Q42.3594,588.9531 42.3594,589.5625 L42.3594,591.0156 Q42.3594,591.625 42.125,591.8906 Q41.8906,592.1563 41.5156,592.1563 Q41.1719,592.1563 40.9688,591.9531 Q40.7656,591.7656 40.6563,591.25 Q40.6094,590.8906 40.4219,590.7031 Q40.0938,590.3281 39.4844,590.1094 Q38.875,589.8906 38.25,589.8906 Q37.4844,589.8906 36.8438,590.2188 Q36.2188,590.5469 35.7188,591.2969 Q35.2344,592.0469 35.2344,593.0781 L35.2344,594.1719 Q35.2344,595.4063 36.125,596.2344 Q37.0156,597.0469 38.6094,597.0469 Q39.5469,597.0469 40.2031,596.7969 Q40.5938,596.6406 41.0156,596.2031 Q41.2813,595.9375 41.4219,595.8594 Q41.5781,595.7813 41.7813,595.7813 Q42.1094,595.7813 42.3594,596.0469 Q42.625,596.2969 42.625,596.6406 Q42.625,596.9844 42.2813,597.3906 Q41.7813,597.9688 40.9844,598.2969 Q39.9063,598.75 38.6094,598.75 Q37.0938,598.75 35.8906,598.125 Q34.9063,597.625 34.2188,596.5625 Q33.5313,595.4844 33.5313,594.2031 L33.5313,593.0469 Q33.5313,591.7188 34.1406,590.5781 Q34.7656,589.4219 35.8594,588.8125 Q36.9531,588.1875 38.1875,588.1875 Q38.9219,588.1875 39.5625,588.3594 Q40.2188,588.5156 40.7656,588.875 Z " fill="#000000"/><text fill="#000000" font-family="sans-serif" font-size="14" lengthAdjust="spacing" textLength="44.3584" x="52" y="598.7285">Branch</text><line style="stroke:#181818;stroke-width:0.5;" x1="24" x2="98.3584" y1="609" y2="609"/><polygon fill="none" points="34,619.3047,30,625.3047,38,625.3047" style="stroke:#1963A0;stroke-width:1;"/><text fill="#000000" font-family="sans-serif" font-size="14" lengthAdjust="spacing" textLength="28" x="43" y="627.5332">&#26465;&#20214;</text><line style="stroke:#181818;stroke-width:0.5;" x1="24" x2="98.3584" y1="634.6094" y2="634.6094"/></g><!--class Checkpoint--><g class="entity" data-entity="Checkpoint" data-source-line="25" data-uid="ent0008" id="entity_Checkpoint"><rect fill="#F1F1F1" height="65.6094" rx="2.5" ry="2.5" style="stroke:#181818;stroke-width:0.5;" width="102.041" x="134" y="577"/><ellipse cx="149" cy="593" fill="#ADD1B2" rx="11" ry="11" style="stroke:#181818;stroke-width:1;"/><path d="M151.7656,588.875 Q151.9219,588.6563 152.1094,588.5469 Q152.2969,588.4375 152.5156,588.4375 Q152.8906,588.4375 153.125,588.7031 Q153.3594,588.9531 153.3594,589.5625 L153.3594,591.0156 Q153.3594,591.625 153.125,591.8906 Q152.8906,592.1563 152.5156,592.1563 Q152.1719,592.1563 151.9688,591.9531 Q151.7656,591.7656 151.6563,591.25 Q151.6094,590.8906 151.4219,590.7031 Q151.0938,590.3281 150.4844,590.1094 Q149.875,589.8906 149.25,589.8906 Q148.4844,589.8906 147.8438,590.2188 Q147.2188,590.5469 146.7188,591.2969 Q146.2344,592.0469 146.2344,593.0781 L146.2344,594.1719 Q146.2344,595.4063 147.125,596.2344 Q148.0156,597.0469 149.6094,597.0469 Q150.5469,597.0469 151.2031,596.7969 Q151.5938,596.6406 152.0156,596.2031 Q152.2813,595.9375 152.4219,595.8594 Q152.5781,595.7813 152.7813,595.7813 Q153.1094,595.7813 153.3594,596.0469 Q153.625,596.2969 153.625,596.6406 Q153.625,596.9844 153.2813,597.3906 Q152.7813,597.9688 151.9844,598.2969 Q150.9063,598.75 149.6094,598.75 Q148.0938,598.75 146.8906,598.125 Q145.9063,597.625 145.2188,596.5625 Q144.5313,595.4844 144.5313,594.2031 L144.5313,593.0469 Q144.5313,591.7188 145.1406,590.5781 Q145.7656,589.4219 146.8594,588.8125 Q147.9531,588.1875 149.1875,588.1875 Q149.9219,588.1875 150.5625,588.3594 Q151.2188,588.5156 151.7656,588.875 Z " fill="#000000"/><text fill="#000000" font-family="sans-serif" font-size="14" lengthAdjust="spacing" textLength="70.041" x="163" y="598.7285">Checkpoint</text><line style="stroke:#181818;stroke-width:0.5;" x1="135" x2="235.041" y1="609" y2="609"/><polygon fill="none" points="145,619.3047,141,625.3047,149,625.3047" style="stroke:#1963A0;stroke-width:1;"/><text fill="#000000" font-family="sans-serif" font-size="14" lengthAdjust="spacing" textLength="56" x="154" y="627.5332">&#26816;&#26597;&#20869;&#23481;</text><line style="stroke:#181818;stroke-width:0.5;" x1="135" x2="235.041" y1="634.6094" y2="634.6094"/></g><!--class State--><g class="entity" data-entity="State" data-source-line="33" data-uid="ent0010" id="entity_State"><rect fill="#F1F1F1" height="65.6094" rx="2.5" ry="2.5" style="stroke:#181818;stroke-width:0.5;" width="64.6895" x="292.5" y="577"/><ellipse cx="307.5" cy="593" fill="#ADD1B2" rx="11" ry="11" style="stroke:#181818;stroke-width:1;"/><path d="M310.2656,588.875 Q310.4219,588.6563 310.6094,588.5469 Q310.7969,588.4375 311.0156,588.4375 Q311.3906,588.4375 311.625,588.7031 Q311.8594,588.9531 311.8594,589.5625 L311.8594,591.0156 Q311.8594,591.625 311.625,591.8906 Q311.3906,592.1563 311.0156,592.1563 Q310.6719,592.1563 310.4688,591.9531 Q310.2656,591.7656 310.1563,591.25 Q310.1094,590.8906 309.9219,590.7031 Q309.5938,590.3281 308.9844,590.1094 Q308.375,589.8906 307.75,589.8906 Q306.9844,589.8906 306.3438,590.2188 Q305.7188,590.5469 305.2188,591.2969 Q304.7344,592.0469 304.7344,593.0781 L304.7344,594.1719 Q304.7344,595.4063 305.625,596.2344 Q306.5156,597.0469 308.1094,597.0469 Q309.0469,597.0469 309.7031,596.7969 Q310.0938,596.6406 310.5156,596.2031 Q310.7813,595.9375 310.9219,595.8594 Q311.0781,595.7813 311.2813,595.7813 Q311.6094,595.7813 311.8594,596.0469 Q312.125,596.2969 312.125,596.6406 Q312.125,596.9844 311.7813,597.3906 Q311.2813,597.9688 310.4844,598.2969 Q309.4063,598.75 308.1094,598.75 Q306.5938,598.75 305.3906,598.125 Q304.4063,597.625 303.7188,596.5625 Q303.0313,595.4844 303.0313,594.2031 L303.0313,593.0469 Q303.0313,591.7188 303.6406,590.5781 Q304.2656,589.4219 305.3594,588.8125 Q306.4531,588.1875 307.6875,588.1875 Q308.4219,588.1875 309.0625,588.3594 Q309.7188,588.5156 310.2656,588.875 Z " fill="#000000"/><text fill="#000000" font-family="sans-serif" font-size="14" lengthAdjust="spacing" textLength="32.6895" x="321.5" y="598.7285">State</text><line style="stroke:#181818;stroke-width:0.5;" x1="293.5" x2="356.1895" y1="609" y2="609"/><polygon fill="none" points="303.5,619.3047,299.5,625.3047,307.5,625.3047" style="stroke:#1963A0;stroke-width:1;"/><text fill="#000000" font-family="sans-serif" font-size="14" lengthAdjust="spacing" textLength="28" x="312.5" y="627.5332">&#25551;&#36848;</text><line style="stroke:#181818;stroke-width:0.5;" x1="293.5" x2="356.1895" y1="634.6094" y2="634.6094"/></g><!--class Problem--><g class="entity" data-entity="Problem" data-source-line="2" data-uid="ent0002" id="entity_Problem"><rect fill="#F1F1F1" height="32" rx="2.5" ry="2.5" style="stroke:#181818;stroke-width:0.5;" width="84.1309" x="84" y="7"/><ellipse cx="99" cy="23" fill="#ADD1B2" rx="11" ry="11" style="stroke:#181818;stroke-width:1;"/><path d="M101.7656,18.875 Q101.9219,18.6563 102.1094,18.5469 Q102.2969,18.4375 102.5156,18.4375 Q102.8906,18.4375 103.125,18.7031 Q103.3594,18.9531 103.3594,19.5625 L103.3594,21.0156 Q103.3594,21.625 103.125,21.8906 Q102.8906,22.1563 102.5156,22.1563 Q102.1719,22.1563 101.9688,21.9531 Q101.7656,21.7656 101.6563,21.25 Q101.6094,20.8906 101.4219,20.7031 Q101.0938,20.3281 100.4844,20.1094 Q99.875,19.8906 99.25,19.8906 Q98.4844,19.8906 97.8438,20.2188 Q97.2188,20.5469 96.7188,21.2969 Q96.2344,22.0469 96.2344,23.0781 L96.2344,24.1719 Q96.2344,25.4063 97.125,26.2344 Q98.0156,27.0469 99.6094,27.0469 Q100.5469,27.0469 101.2031,26.7969 Q101.5938,26.6406 102.0156,26.2031 Q102.2813,25.9375 102.4219,25.8594 Q102.5781,25.7813 102.7813,25.7813 Q103.1094,25.7813 103.3594,26.0469 Q103.625,26.2969 103.625,26.6406 Q103.625,26.9844 103.2813,27.3906 Q102.7813,27.9688 101.9844,28.2969 Q100.9063,28.75 99.6094,28.75 Q98.0938,28.75 96.8906,28.125 Q95.9063,27.625 95.2188,26.5625 Q94.5313,25.4844 94.5313,24.2031 L94.5313,23.0469 Q94.5313,21.7188 95.1406,20.5781 Q95.7656,19.4219 96.8594,18.8125 Q97.9531,18.1875 99.1875,18.1875 Q99.9219,18.1875 100.5625,18.3594 Q101.2188,18.5156 101.7656,18.875 Z " fill="#000000"/><text fill="#000000" font-family="sans-serif" font-size="14" lengthAdjust="spacing" textLength="52.1309" x="113" y="28.7285">Problem</text></g><!--reverse link Process to ProcessStep--><g class="link" data-entity-1="Process" data-entity-2="ProcessStep" data-source-line="39" data-uid="lnk11" id="link_Process_ProcessStep"><path codeLine="39" d="M126,362.19 C126,380.85 126,392.27 126,410.92" fill="none" id="Process-backto-ProcessStep" style="stroke:#181818;stroke-width:1;"/><polygon fill="#181818" points="126,350.19,122,356.19,126,362.19,130,356.19,126,350.19" style="stroke:#181818;stroke-width:1;"/></g><!--link ProcessStep to ProcessStep--><g class="link" data-entity-1="ProcessStep" data-entity-2="ProcessStep" data-source-line="41" data-uid="lnk12" id="link_ProcessStep_ProcessStep"><path codeLine="41" d="M181.68,432.38 C200.94,432.25 216.5,436.13 216.5,444 C216.5,451.87 206.9399,455.7905 187.6799,455.6605" fill="none" id="ProcessStep-to-ProcessStep" style="stroke:#181818;stroke-width:1;"/><polygon fill="#181818" points="181.68,455.62,190.6528,459.6807,186.6799,455.6537,190.7068,451.6808,181.68,455.62" style="stroke:#181818;stroke-width:1;"/><text fill="#000000" font-family="sans-serif" font-size="13" lengthAdjust="spacing" textLength="24.5718" x="222.5" y="449.4951">next</text></g><!--link ProcessStep to Branch--><g class="link" data-entity-1="ProcessStep" data-entity-2="Branch" data-source-line="42" data-uid="lnk13" id="link_ProcessStep_Branch"><path codeLine="42" d="M113.31,477.01 C101.9,505.81 87.421,542.3522 75.981,571.2122" fill="none" id="ProcessStep-to-Branch" style="stroke:#181818;stroke-width:1;"/><polygon fill="#181818" points="73.77,576.79,80.805,569.8974,75.6125,572.1419,73.368,566.9493,73.77,576.79" style="stroke:#181818;stroke-width:1;"/></g><!--link ProcessStep to Checkpoint--><g class="link" data-entity-1="ProcessStep" data-entity-2="Checkpoint" data-source-line="43" data-uid="lnk14" id="link_ProcessStep_Checkpoint"><path codeLine="43" d="M137.52,477.01 C147.88,505.81 160.9993,542.2841 171.3793,571.1441" fill="none" id="ProcessStep-to-Checkpoint" style="stroke:#181818;stroke-width:1;"/><polygon fill="#181818" points="173.41,576.79,174.128,566.9673,171.7178,572.0851,166.6001,569.6749,173.41,576.79" style="stroke:#181818;stroke-width:1;"/></g><!--link ProcessStep to State--><g class="link" data-entity-1="ProcessStep" data-entity-2="State" data-source-line="45" data-uid="lnk15" id="link_ProcessStep_State"><path codeLine="45" d="M174.01,477.11 C203.51,497.11 238.21,521.21 252,533 C267.71,546.44 279.696,558.4151 292.746,572.5251" fill="none" id="ProcessStep-to-State" style="stroke:#181818;stroke-width:1;"/><polygon fill="#181818" points="296.82,576.93,293.6456,567.6067,293.425,573.2593,287.7725,573.0387,296.82,576.93" style="stroke:#181818;stroke-width:1;"/><text fill="#000000" font-family="sans-serif" font-size="13" lengthAdjust="spacing" textLength="26" x="240" y="521.4951">&#36755;&#20837;</text></g><!--link ProcessStep to State--><g class="link" data-entity-1="ProcessStep" data-entity-2="State" data-source-line="46" data-uid="lnk16" id="link_ProcessStep_State"><path codeLine="46" d="M181.54,458.07 C211.82,467.51 248.26,482.93 274,507 C294.24,525.93 305.5731,549.0127 313.5231,571.1627" fill="none" id="ProcessStep-to-State-1" style="stroke:#181818;stroke-width:1;"/><polygon fill="#181818" points="315.55,576.81,316.2745,566.9878,313.8609,572.1039,308.7448,569.6904,315.55,576.81" style="stroke:#181818;stroke-width:1;"/><text fill="#000000" font-family="sans-serif" font-size="13" lengthAdjust="spacing" textLength="26" x="289" y="521.4951">&#36755;&#20986;</text></g><!--link Problem to Condition--><g class="link" data-entity-1="Problem" data-entity-2="Condition" data-source-line="47" data-uid="lnk17" id="link_Problem_Condition"><path codeLine="47" d="M126,39.23 C126,58.59 126,86.96 126,115.81" fill="none" id="Problem-to-Condition" style="stroke:#181818;stroke-width:1;"/><polygon fill="#181818" points="126,121.81,130,112.81,126,116.81,122,112.81,126,121.81" style="stroke:#181818;stroke-width:1;"/></g><!--link Condition to Process--><g class="link" data-entity-1="Condition" data-entity-2="Process" data-source-line="48" data-uid="lnk18" id="link_Condition_Process"><path codeLine="48" d="M126,223.34 C126,243.4 126,259.97 126,277.8" fill="none" id="Condition-to-Process" style="stroke:#181818;stroke-width:1;"/><polygon fill="#181818" points="126,283.8,130,274.8,126,278.8,122,274.8,126,283.8" style="stroke:#181818;stroke-width:1;"/></g><!--SRC=[Iyv9B2vM22ZAJyf9pUNAo4n9XN4KSbDparABYhcuYbAJInBpqdDI5LuiN_noqOmN-zkVh-X-jcBXqtdTrLnS2a2G33R6EJyl9RCaCp-l6Ym80dKAG0r0TKW2ptTFVZQlvNddpgVx6f64dsri0Xh_VFQwPmlQmSAro4O37PMSMboCRF3JrgLF-nS_cxlmoUvjLd2hSMeDBaajGD7UjUB9tZcOofsA4lEICv1LGgp0LEcSaPgSNP2VcLU2edfnmxFvIv-sjJvTjnEcfnOv49ztRNlMqFXqOnDAs0MN99QaefZJt_zY_mOa4w3-KD3IrKNs4rm2n57GrRL3bbImKiXBhIZ1K0Bn98OmmaUOfe8T23JlnRx9m937Azs-YmkMYC2cmkC6pa9s9nS0]--></g></svg>