<svg xmlns="http://www.w3.org/2000/svg" xmlns:xlink="http://www.w3.org/1999/xlink" contentStyleType="text/css" data-diagram-type="CLASS" height="401px" preserveAspectRatio="none" style="width:865px;height:401px;background:#FFFFFF;" version="1.1" viewBox="0 0 865 401" width="865px" zoomAndPan="magnify"><defs/><g><!--class ??--><g class="entity" data-entity="&#22522;&#30707;" data-source-line="4" data-uid="ent0002" id="entity_&#22522;&#30707;"><rect fill="#F1F1F1" height="100.8281" rx="2.5" ry="2.5" style="stroke:#181818;stroke-width:0.5;" width="91.3789" x="347.5" y="7"/><ellipse cx="376.6205" cy="23" fill="#ADD1B2" rx="11" ry="11" style="stroke:#181818;stroke-width:1;"/><path d="M379.3861,18.875 Q379.5424,18.6563 379.7299,18.5469 Q379.9174,18.4375 380.1361,18.4375 Q380.5111,18.4375 380.7455,18.7031 Q380.9799,18.9531 380.9799,19.5625 L380.9799,21.0156 Q380.9799,21.625 380.7455,21.8906 Q380.5111,22.1563 380.1361,22.1563 Q379.7924,22.1563 379.5893,21.9531 Q379.3861,21.7656 379.2768,21.25 Q379.2299,20.8906 379.0424,20.7031 Q378.7143,20.3281 378.1049,20.1094 Q377.4955,19.8906 376.8705,19.8906 Q376.1049,19.8906 375.4643,20.2188 Q374.8393,20.5469 374.3393,21.2969 Q373.8549,22.0469 373.8549,23.0781 L373.8549,24.1719 Q373.8549,25.4063 374.7455,26.2344 Q375.6361,27.0469 377.2299,27.0469 Q378.1674,27.0469 378.8236,26.7969 Q379.2143,26.6406 379.6361,26.2031 Q379.9018,25.9375 380.0424,25.8594 Q380.1986,25.7813 380.4018,25.7813 Q380.7299,25.7813 380.9799,26.0469 Q381.2455,26.2969 381.2455,26.6406 Q381.2455,26.9844 380.9018,27.3906 Q380.4018,27.9688 379.6049,28.2969 Q378.5268,28.75 377.2299,28.75 Q375.7143,28.75 374.5111,28.125 Q373.5268,27.625 372.8393,26.5625 Q372.1518,25.4844 372.1518,24.2031 L372.1518,23.0469 Q372.1518,21.7188 372.7611,20.5781 Q373.3861,19.4219 374.4799,18.8125 Q375.5736,18.1875 376.808,18.1875 Q377.5424,18.1875 378.183,18.3594 Q378.8393,18.5156 379.3861,18.875 Z " fill="#000000"/><text fill="#000000" font-family="sans-serif" font-size="14" lengthAdjust="spacing" textLength="28" x="393.7584" y="28.7285">&#22522;&#30707;</text><line style="stroke:#181818;stroke-width:0.5;" x1="348.5" x2="437.8789" y1="39" y2="39"/><ellipse cx="358.5" cy="53.3047" fill="none" rx="3" ry="3" style="stroke:#038048;stroke-width:1;"/><text fill="#000000" font-family="sans-serif" font-size="14" lengthAdjust="spacing" textLength="9.3379" x="367.5" y="57.5332">S</text><ellipse cx="358.5" cy="70.9141" fill="none" rx="3" ry="3" style="stroke:#038048;stroke-width:1;"/><text fill="#000000" font-family="sans-serif" font-size="14" lengthAdjust="spacing" textLength="65.3789" x="367.5" y="75.1426">operations</text><ellipse cx="358.5" cy="88.5234" fill="none" rx="3" ry="3" style="stroke:#038048;stroke-width:1;"/><text fill="#000000" font-family="sans-serif" font-size="14" lengthAdjust="spacing" textLength="44.3447" x="367.5" y="92.752">axioms</text><line style="stroke:#181818;stroke-width:0.5;" x1="348.5" x2="437.8789" y1="99.8281" y2="99.8281"/></g><!--class ??--><g class="entity" data-entity="&#22797;&#25968;" data-source-line="10" data-uid="ent0003" id="entity_&#22797;&#25968;"><rect fill="#F1F1F1" height="100.8281" rx="2.5" ry="2.5" style="stroke:#181818;stroke-width:0.5;" width="228.2344" x="201" y="168"/><ellipse cx="296.8672" cy="184" fill="#ADD1B2" rx="11" ry="11" style="stroke:#181818;stroke-width:1;"/><path d="M299.6328,179.875 Q299.7891,179.6563 299.9766,179.5469 Q300.1641,179.4375 300.3828,179.4375 Q300.7578,179.4375 300.9922,179.7031 Q301.2266,179.9531 301.2266,180.5625 L301.2266,182.0156 Q301.2266,182.625 300.9922,182.8906 Q300.7578,183.1563 300.3828,183.1563 Q300.0391,183.1563 299.8359,182.9531 Q299.6328,182.7656 299.5234,182.25 Q299.4766,181.8906 299.2891,181.7031 Q298.9609,181.3281 298.3516,181.1094 Q297.7422,180.8906 297.1172,180.8906 Q296.3516,180.8906 295.7109,181.2188 Q295.0859,181.5469 294.5859,182.2969 Q294.1016,183.0469 294.1016,184.0781 L294.1016,185.1719 Q294.1016,186.4063 294.9922,187.2344 Q295.8828,188.0469 297.4766,188.0469 Q298.4141,188.0469 299.0703,187.7969 Q299.4609,187.6406 299.8828,187.2031 Q300.1484,186.9375 300.2891,186.8594 Q300.4453,186.7813 300.6484,186.7813 Q300.9766,186.7813 301.2266,187.0469 Q301.4922,187.2969 301.4922,187.6406 Q301.4922,187.9844 301.1484,188.3906 Q300.6484,188.9688 299.8516,189.2969 Q298.7734,189.75 297.4766,189.75 Q295.9609,189.75 294.7578,189.125 Q293.7734,188.625 293.0859,187.5625 Q292.3984,186.4844 292.3984,185.2031 L292.3984,184.0469 Q292.3984,182.7188 293.0078,181.5781 Q293.6328,180.4219 294.7266,179.8125 Q295.8203,179.1875 297.0547,179.1875 Q297.7891,179.1875 298.4297,179.3594 Q299.0859,179.5156 299.6328,179.875 Z " fill="#000000"/><text fill="#000000" font-family="sans-serif" font-size="14" lengthAdjust="spacing" textLength="28" x="317.3672" y="189.7285">&#22797;&#25968;</text><line style="stroke:#181818;stroke-width:0.5;" x1="202" x2="428.2344" y1="200" y2="200"/><ellipse cx="212" cy="214.3047" fill="none" rx="3" ry="3" style="stroke:#038048;stroke-width:1;"/><text fill="#000000" font-family="sans-serif" font-size="14" lengthAdjust="spacing" textLength="130.3477" x="221" y="218.5332">S:{a + bi : a,b&#23646;&#20110;R}.</text><ellipse cx="212" cy="231.9141" fill="none" rx="3" ry="3" style="stroke:#038048;stroke-width:1;"/><text fill="#000000" font-family="sans-serif" font-size="14" lengthAdjust="spacing" textLength="125.2686" x="221" y="236.1426">operations:&#21152;&#27861;&#20056;&#27861;</text><ellipse cx="212" cy="249.5234" fill="none" rx="3" ry="3" style="stroke:#038048;stroke-width:1;"/><text fill="#000000" font-family="sans-serif" font-size="14" lengthAdjust="spacing" textLength="202.2344" x="221" y="253.752">axioms:&#20132;&#25442;&#32467;&#21512;&#21333;&#20301;&#20803;&#36870;&#20803;&#20998;&#37197;</text><line style="stroke:#181818;stroke-width:0.5;" x1="202" x2="428.2344" y1="260.8281" y2="260.8281"/></g><g class="entity" data-entity="GMN4" data-source-line="17" data-uid="ent0005" id="entity_GMN4"><path d="M6,181 L6,256.4063 A0,0 0 0 0 6,256.4063 L166.4009,256.4063 A0,0 0 0 0 166.4009,256.4063 L166.4009,222.5 L200.97,218.5 L166.4009,214.5 L166.4009,191 L156.4009,181 L6,181 A0,0 0 0 0 6,181" fill="#FEFFDD" style="stroke:#181818;stroke-width:0.5;"/><path d="M156.4009,181 L156.4009,191 L166.4009,191 L156.4009,181" fill="#FEFFDD" style="stroke:#181818;stroke-width:0.5;"/><text fill="#000000" font-family="sans-serif" font-size="13" lengthAdjust="spacing" textLength="113.4009" x="25" y="199.4951">&#20803;&#32032;&#20026;&#26631;&#37327;, axioms</text><text fill="#000000" font-family="sans-serif" font-size="13" lengthAdjust="spacing" textLength="135.7891" x="12" y="215.8467">&#21487;&#20197;&#32454;&#20998;&#20026;&#21152;&#27861;axioms,</text><text fill="#000000" font-family="sans-serif" font-size="13" lengthAdjust="spacing" textLength="109.7891" x="26.8059" y="232.1982">&#20056;&#27861;axioms.&#20026;&#20102;&#36319;</text><text fill="#000000" font-family="sans-serif" font-size="13" lengthAdjust="spacing" textLength="91.3301" x="36.0354" y="248.5498">R^n&#30456;&#20851;&#30340;&#21306;&#20998;.</text></g><!--class ??--><g class="entity" data-entity="&#26631;&#37327;" data-source-line="23" data-uid="ent0007" id="entity_&#26631;&#37327;"><rect fill="#F1F1F1" height="65.6094" rx="2.5" ry="2.5" style="stroke:#181818;stroke-width:0.5;" width="132.5518" x="248.5" y="329"/><ellipse cx="296.5259" cy="345" fill="#ADD1B2" rx="11" ry="11" style="stroke:#181818;stroke-width:1;"/><path d="M299.2915,340.875 Q299.4478,340.6563 299.6353,340.5469 Q299.8228,340.4375 300.0415,340.4375 Q300.4165,340.4375 300.6509,340.7031 Q300.8853,340.9531 300.8853,341.5625 L300.8853,343.0156 Q300.8853,343.625 300.6509,343.8906 Q300.4165,344.1563 300.0415,344.1563 Q299.6978,344.1563 299.4946,343.9531 Q299.2915,343.7656 299.1821,343.25 Q299.1353,342.8906 298.9478,342.7031 Q298.6196,342.3281 298.0103,342.1094 Q297.4009,341.8906 296.7759,341.8906 Q296.0103,341.8906 295.3696,342.2188 Q294.7446,342.5469 294.2446,343.2969 Q293.7603,344.0469 293.7603,345.0781 L293.7603,346.1719 Q293.7603,347.4063 294.6509,348.2344 Q295.5415,349.0469 297.1353,349.0469 Q298.0728,349.0469 298.729,348.7969 Q299.1196,348.6406 299.5415,348.2031 Q299.8071,347.9375 299.9478,347.8594 Q300.104,347.7813 300.3071,347.7813 Q300.6353,347.7813 300.8853,348.0469 Q301.1509,348.2969 301.1509,348.6406 Q301.1509,348.9844 300.8071,349.3906 Q300.3071,349.9688 299.5103,350.2969 Q298.4321,350.75 297.1353,350.75 Q295.6196,350.75 294.4165,350.125 Q293.4321,349.625 292.7446,348.5625 Q292.0571,347.4844 292.0571,346.2031 L292.0571,345.0469 Q292.0571,343.7188 292.6665,342.5781 Q293.2915,341.4219 294.3853,340.8125 Q295.479,340.1875 296.7134,340.1875 Q297.4478,340.1875 298.0884,340.3594 Q298.7446,340.5156 299.2915,340.875 Z " fill="#000000"/><text fill="#000000" font-family="sans-serif" font-size="14" lengthAdjust="spacing" textLength="28" x="317.0259" y="350.7285">&#26631;&#37327;</text><line style="stroke:#181818;stroke-width:0.5;" x1="249.5" x2="380.0518" y1="361" y2="361"/><ellipse cx="259.5" cy="375.3047" fill="none" rx="3" ry="3" style="stroke:#038048;stroke-width:1;"/><text fill="#000000" font-family="sans-serif" font-size="14" lengthAdjust="spacing" textLength="106.5518" x="268.5" y="379.5332">F&#20869;&#30340;&#20803;&#32032;&#26159;&#26631;&#37327;</text><line style="stroke:#181818;stroke-width:0.5;" x1="249.5" x2="380.0518" y1="386.6094" y2="386.6094"/></g><!--class ?--><g class="entity" data-entity="&#32452;" data-source-line="27" data-uid="ent0008" id="entity_&#32452;"><rect fill="#F1F1F1" height="65.6094" rx="2.5" ry="2.5" style="stroke:#181818;stroke-width:0.5;" width="53.2139" x="551.5" y="24.5"/><ellipse cx="569.7462" cy="40.5" fill="#ADD1B2" rx="11" ry="11" style="stroke:#181818;stroke-width:1;"/><path d="M572.5119,36.375 Q572.6681,36.1563 572.8556,36.0469 Q573.0431,35.9375 573.2619,35.9375 Q573.6369,35.9375 573.8712,36.2031 Q574.1056,36.4531 574.1056,37.0625 L574.1056,38.5156 Q574.1056,39.125 573.8712,39.3906 Q573.6369,39.6563 573.2619,39.6563 Q572.9181,39.6563 572.715,39.4531 Q572.5119,39.2656 572.4025,38.75 Q572.3556,38.3906 572.1681,38.2031 Q571.84,37.8281 571.2306,37.6094 Q570.6212,37.3906 569.9962,37.3906 Q569.2306,37.3906 568.59,37.7188 Q567.965,38.0469 567.465,38.7969 Q566.9806,39.5469 566.9806,40.5781 L566.9806,41.6719 Q566.9806,42.9063 567.8712,43.7344 Q568.7619,44.5469 570.3556,44.5469 Q571.2931,44.5469 571.9494,44.2969 Q572.34,44.1406 572.7619,43.7031 Q573.0275,43.4375 573.1681,43.3594 Q573.3244,43.2813 573.5275,43.2813 Q573.8556,43.2813 574.1056,43.5469 Q574.3712,43.7969 574.3712,44.1406 Q574.3712,44.4844 574.0275,44.8906 Q573.5275,45.4688 572.7306,45.7969 Q571.6525,46.25 570.3556,46.25 Q568.84,46.25 567.6369,45.625 Q566.6525,45.125 565.965,44.0625 Q565.2775,42.9844 565.2775,41.7031 L565.2775,40.5469 Q565.2775,39.2188 565.8869,38.0781 Q566.5119,36.9219 567.6056,36.3125 Q568.6994,35.6875 569.9337,35.6875 Q570.6681,35.6875 571.3087,35.8594 Q571.965,36.0156 572.5119,36.375 Z " fill="#000000"/><text fill="#000000" font-family="sans-serif" font-size="14" lengthAdjust="spacing" textLength="14" x="584.4676" y="46.2285">&#32452;</text><line style="stroke:#181818;stroke-width:0.5;" x1="552.5" x2="603.7139" y1="56.5" y2="56.5"/><line style="stroke:#181818;stroke-width:0.5;" x1="552.5" x2="603.7139" y1="64.5" y2="64.5"/><ellipse cx="562.5" cy="78.8047" fill="#84BE84" rx="3" ry="3" style="stroke:#038048;stroke-width:1;"/><text fill="#000000" font-family="sans-serif" font-size="14" lengthAdjust="spacing" textLength="27.2139" x="571.5" y="83.0332">(x,y)</text></g><!--class Fn--><g class="entity" data-entity="Fn" data-source-line="31" data-uid="ent0009" id="entity_Fn"><rect fill="#F1F1F1" height="100.8281" rx="2.5" ry="2.5" style="stroke:#181818;stroke-width:0.5;" width="228.2344" x="464" y="168"/><ellipse cx="565.6982" cy="184" fill="#ADD1B2" rx="11" ry="11" style="stroke:#181818;stroke-width:1;"/><path d="M568.4639,179.875 Q568.6201,179.6563 568.8076,179.5469 Q568.9951,179.4375 569.2139,179.4375 Q569.5889,179.4375 569.8232,179.7031 Q570.0576,179.9531 570.0576,180.5625 L570.0576,182.0156 Q570.0576,182.625 569.8232,182.8906 Q569.5889,183.1563 569.2139,183.1563 Q568.8701,183.1563 568.667,182.9531 Q568.4639,182.7656 568.3545,182.25 Q568.3076,181.8906 568.1201,181.7031 Q567.792,181.3281 567.1826,181.1094 Q566.5732,180.8906 565.9482,180.8906 Q565.1826,180.8906 564.542,181.2188 Q563.917,181.5469 563.417,182.2969 Q562.9326,183.0469 562.9326,184.0781 L562.9326,185.1719 Q562.9326,186.4063 563.8232,187.2344 Q564.7139,188.0469 566.3076,188.0469 Q567.2451,188.0469 567.9014,187.7969 Q568.292,187.6406 568.7139,187.2031 Q568.9795,186.9375 569.1201,186.8594 Q569.2764,186.7813 569.4795,186.7813 Q569.8076,186.7813 570.0576,187.0469 Q570.3232,187.2969 570.3232,187.6406 Q570.3232,187.9844 569.9795,188.3906 Q569.4795,188.9688 568.6826,189.2969 Q567.6045,189.75 566.3076,189.75 Q564.792,189.75 563.5889,189.125 Q562.6045,188.625 561.917,187.5625 Q561.2295,186.4844 561.2295,185.2031 L561.2295,184.0469 Q561.2295,182.7188 561.8389,181.5781 Q562.4639,180.4219 563.5576,179.8125 Q564.6514,179.1875 565.8857,179.1875 Q566.6201,179.1875 567.2607,179.3594 Q567.917,179.5156 568.4639,179.875 Z " fill="#000000"/><text fill="#000000" font-family="sans-serif" font-size="14" lengthAdjust="spacing" textLength="16.3379" x="586.1982" y="189.7285">Fn</text><line style="stroke:#181818;stroke-width:0.5;" x1="465" x2="691.2344" y1="200" y2="200"/><ellipse cx="475" cy="214.3047" fill="none" rx="3" ry="3" style="stroke:#038048;stroke-width:1;"/><text fill="#000000" font-family="sans-serif" font-size="14" lengthAdjust="spacing" textLength="125.2686" x="484" y="218.5332">operations:&#21152;&#27861;&#25968;&#20056;</text><ellipse cx="475" cy="231.9141" fill="none" rx="3" ry="3" style="stroke:#038048;stroke-width:1;"/><text fill="#000000" font-family="sans-serif" font-size="14" lengthAdjust="spacing" textLength="202.2344" x="484" y="236.1426">axioms:&#20132;&#25442;&#32467;&#21512;&#21333;&#20301;&#20803;&#36870;&#20803;&#20998;&#37197;</text><line style="stroke:#181818;stroke-width:0.5;" x1="465" x2="691.2344" y1="243.2188" y2="243.2188"/><ellipse cx="475" cy="257.5234" fill="#84BE84" rx="3" ry="3" style="stroke:#038048;stroke-width:1;"/><text fill="#000000" font-family="sans-serif" font-size="14" lengthAdjust="spacing" textLength="173.8926" x="484" y="261.752">S:{(x1...xn):xk&#23646;&#20110;F,k=1...n}</text></g><g class="entity" data-entity="GMN10" data-source-line="38" data-uid="ent0011" id="entity_GMN10"><path d="M727.5,189 L727.5,214.5 L692.22,218.5 L727.5,222.5 L727.5,248.0547 A0,0 0 0 0 727.5,248.0547 L858.2827,248.0547 A0,0 0 0 0 858.2827,248.0547 L858.2827,199 L848.2827,189 L727.5,189 A0,0 0 0 0 727.5,189" fill="#FEFFDD" style="stroke:#181818;stroke-width:0.5;"/><path d="M848.2827,189 L848.2827,199 L858.2827,199 L848.2827,189" fill="#FEFFDD" style="stroke:#181818;stroke-width:0.5;"/><text fill="#000000" font-family="sans-serif" font-size="13" lengthAdjust="spacing" textLength="109.7827" x="733.5" y="207.4951">Fn&#20063;&#26159;&#36981;&#24490;&#22522;&#30707;&#30340;.</text><text fill="#000000" font-family="sans-serif" font-size="13" lengthAdjust="spacing" textLength="104" x="736.3914" y="223.8467">&#20294;&#26159;&#23545;&#20110;&#25968;&#20056;&#32780;&#35328;</text><text fill="#000000" font-family="sans-serif" font-size="13" lengthAdjust="spacing" textLength="68.6118" x="754.0854" y="240.1982">&#27809;&#26377;&#20132;&#25442;&#24615;.</text></g><!--link ?? to ??--><g class="link" data-entity-1="&#22522;&#30707;" data-entity-2="&#22797;&#25968;" data-source-line="43" data-uid="lnk13" id="link_&#22522;&#30707;_&#22797;&#25968;"><path codeLine="43" d="M368.53,108.37 C359.24,127.32 356.5866,132.7193 347.3066,151.6393" fill="none" id="&#22522;&#30707;-to-&#22797;&#25968;" style="stroke:#181818;stroke-width:1;"/><polygon fill="none" points="339.38,167.8,352.6935,154.2815,341.9197,148.9971,339.38,167.8" style="stroke:#181818;stroke-width:1;"/></g><!--link ?? to ??--><g class="link" data-entity-1="&#22797;&#25968;" data-entity-2="&#26631;&#37327;" data-source-line="44" data-uid="lnk14" id="link_&#22797;&#25968;_&#26631;&#37327;"><path codeLine="44" d="M315,269.39 C315,289.12 315,293.23 315,310.79" fill="none" id="&#22797;&#25968;-to-&#26631;&#37327;" style="stroke:#181818;stroke-width:1;"/><polygon fill="none" points="315,328.79,321,310.79,309,310.79,315,328.79" style="stroke:#181818;stroke-width:1;"/></g><!--link ?? to Fn--><g class="link" data-entity-1="&#22522;&#30707;" data-entity-2="Fn" data-source-line="45" data-uid="lnk15" id="link_&#22522;&#30707;_Fn"><path codeLine="45" d="M438.73,97.8 C463.34,118.95 480.2862,133.5308 506.5362,156.0808" fill="none" id="&#22522;&#30707;-to-Fn" style="stroke:#181818;stroke-width:1;"/><polygon fill="none" points="520.19,167.81,510.446,151.5295,502.6265,160.632,520.19,167.81" style="stroke:#181818;stroke-width:1;"/></g><!--link ? to Fn--><g class="link" data-entity-1="&#32452;" data-entity-2="Fn" data-source-line="46" data-uid="lnk16" id="link_&#32452;_Fn"><path codeLine="46" d="M578,90.68 C578,112.82 578,124.66 578,149.83" fill="none" id="&#32452;-to-Fn" style="stroke:#181818;stroke-width:1;"/><polygon fill="none" points="578,167.83,584,149.83,572,149.83,578,167.83" style="stroke:#181818;stroke-width:1;"/></g><!--SRC=[dLBHIW9157sVhvZ7f7MXruM28FO3hETWjTKMTLRS3JPCCDBLmiqW1Ab82wFenSeYNR6lcTdLl-Zgk6f4Byt3dTrxxvbpxfanaXh9A5abZRVKk7AGCdTKoznCQGcILec9On3KB4Anb68Oc3LTlzdD8Gnh5M_FTZsZPXLJquanIoYMfgSDb9_3sevNVy5pd9HJO8jgMCAA46MljzGzZ-J5NyT9xApbTUkqtu3uuso9kctFkVS7b-oYmfmw7JgiT38ks11PnHwNd0axqKqLfzIuYVNuJ0I21l-zHNkkrogFopKX4Cjg7Jfuy0SsmA7AcNbDm8XBuByYbAbhZpwRAB9B_EiUAtNzgoAhkW0LaKhsy8Gu69xp1BFBp2vDcgSgl4Q7LnTM-ODYqBfY2OUXHKKcI_wjM6kYA5ea95b9xfyi9DSdEPB_oqQO7iRuhurPBR4_zL4cI2QqtmJnu-CFzlNC7mKC9I8wj27DEdqGnEb6XUhegO2yjpllvfIpUON7PPSu78V3HnlpE-BlPPgQ6RJS1Gh0fk3x6m00]--></g></svg>