<svg xmlns="http://www.w3.org/2000/svg" xmlns:xlink="http://www.w3.org/1999/xlink" contentStyleType="text/css" data-diagram-type="ACTIVITY" height="860px" preserveAspectRatio="none" style="width:518px;height:860px;background:#FFFFFF;" version="1.1" viewBox="0 0 518 860" width="518px" zoomAndPan="magnify"><title>&#22797;&#20064;&#23618;&#38754;&#31574;&#30053;&#27963;&#21160;&#22270;</title><defs/><g><g class="title" data-source-line="2"><text fill="#000000" font-family="sans-serif" font-size="14" font-weight="bold" lengthAdjust="spacing" textLength="129.9375" x="192.6239" y="34.5332">&#22797;&#20064;&#23618;&#38754;&#31574;&#30053;&#27963;&#21160;&#22270;</text></g><rect fill="none" height="799.5469" style="stroke:#000000;stroke-width:1.5;" width="496.1853" x="11" y="49.6094"/><text fill="#000000" font-family="sans-serif" font-size="14" lengthAdjust="spacing" textLength="70" x="224.0927" y="66.1426">&#20027;&#35201;&#22797;&#20064;&#22270;</text><ellipse cx="242.4575" cy="97.2188" fill="#222222" rx="10" ry="10" style="stroke:#222222;stroke-width:1;"/><path d="M21,217.9609 L21,260.6641 A0,0 0 0 0 21,260.6641 L169.1245,260.6641 A0,0 0 0 0 169.1245,260.6641 L169.1245,243.3125 L189.1245,239.3125 L169.1245,235.3125 L169.1245,227.9609 L159.1245,217.9609 L21,217.9609 A0,0 0 0 0 21,217.9609" fill="#FEFFDD" style="stroke:#181818;stroke-width:0.5;"/><path d="M159.1245,217.9609 L159.1245,227.9609 L169.1245,227.9609 L159.1245,217.9609" fill="#FEFFDD" style="stroke:#181818;stroke-width:0.5;"/><text fill="#000000" font-family="sans-serif" font-size="13" lengthAdjust="spacing" textLength="127.1245" x="27" y="236.4561">&#22312;./&#30693;&#35782;&#22797;&#20064;/Anki&#22797;&#20064;</text><text fill="#000000" font-family="sans-serif" font-size="13" lengthAdjust="spacing" textLength="100.4009" x="40.3618" y="252.8076">/&#20309;&#26102;&#22797;&#20064;.puml&#20013;</text><rect fill="#F1F1F1" height="50.1875" rx="12.5" ry="12.5" style="stroke:#181818;stroke-width:0.5;" width="106.666" x="189.1245" y="214.2188"/><text fill="#000000" font-family="sans-serif" font-size="12" lengthAdjust="spacing" textLength="47.3438" x="218.7856" y="236.6758">Anki&#22797;&#20064;</text><text fill="#000000" font-family="sans-serif" font-size="12" lengthAdjust="spacing" textLength="86.666" x="199.1245" y="251.7695">(&#20160;&#20040;&#26102;&#20505;&#22797;&#20064;?)</text><polygon fill="#F1F1F1" points="217.3987,299.4063,267.5164,299.4063,279.5164,311.4063,267.5164,323.4063,217.3987,323.4063,205.3987,311.4063,217.3987,299.4063" style="stroke:#181818;stroke-width:0.5;"/><text fill="#000000" font-family="sans-serif" font-size="11" lengthAdjust="spacing" textLength="50.1177" x="217.3987" y="315.9072">&#26159;&#21542;&#35760;&#20303;?</text><text fill="#000000" font-family="sans-serif" font-size="11" lengthAdjust="spacing" textLength="11" x="194.3987" y="308.9893">&#26159;</text><text fill="#000000" font-family="sans-serif" font-size="11" lengthAdjust="spacing" textLength="42.1685" x="279.5164" y="308.9893">&#21542; / &#36951;&#24536;</text><rect fill="#F1F1F1" height="35.0938" rx="12.5" ry="12.5" style="stroke:#181818;stroke-width:0.5;" width="92" x="52.7288" y="333.4063"/><text fill="#000000" font-family="sans-serif" font-size="12" lengthAdjust="spacing" textLength="72" x="62.7288" y="355.8633">&#27491;&#24120;&#38388;&#38548;&#22797;&#20064;</text><rect fill="#F1F1F1" height="35.0938" rx="12.5" ry="12.5" style="stroke:#181818;stroke-width:0.5;" width="137.3809" x="317.4958" y="333.4063"/><text fill="#000000" font-family="sans-serif" font-size="12" lengthAdjust="spacing" textLength="117.3809" x="327.4958" y="355.8633">&#21435; GitHub &#26597; Mapping</text><rect fill="#F1F1F1" height="50.1875" rx="12.5" ry="12.5" style="stroke:#181818;stroke-width:0.5;" width="153.998" x="309.1873" y="403.5"/><text fill="#000000" font-family="sans-serif" font-size="12" lengthAdjust="spacing" textLength="92.0156" x="340.1785" y="425.957">&#26597;&#25214; GitHub &#20179;&#24211;</text><text fill="#000000" font-family="sans-serif" font-size="12" lengthAdjust="spacing" textLength="133.998" x="319.1873" y="441.0508">(&#30693;&#35782; \ &#29702;&#35299; \ &#38169;&#39064; \ &#39064;&#30446;)</text><path d="M164.7288,492.4297 L164.7288,535.1328 A0,0 0 0 0 164.7288,535.1328 L312.8533,535.1328 A0,0 0 0 0 312.8533,535.1328 L312.8533,517.7813 L332.8533,513.7813 L312.8533,509.7813 L312.8533,502.4297 L302.8533,492.4297 L164.7288,492.4297 A0,0 0 0 0 164.7288,492.4297" fill="#FEFFDD" style="stroke:#181818;stroke-width:0.5;"/><path d="M302.8533,492.4297 L302.8533,502.4297 L312.8533,502.4297 L302.8533,492.4297" fill="#FEFFDD" style="stroke:#181818;stroke-width:0.5;"/><text fill="#000000" font-family="sans-serif" font-size="13" lengthAdjust="spacing" textLength="127.1245" x="170.7288" y="510.9248">&#22312;./&#30693;&#35782;&#22797;&#20064;/Anki&#22797;&#20064;</text><text fill="#000000" font-family="sans-serif" font-size="13" lengthAdjust="spacing" textLength="100.4009" x="184.0906" y="527.2764">/&#22238;&#39038;&#30693;&#35782;.puml&#20013;</text><rect fill="#F1F1F1" height="50.1875" rx="12.5" ry="12.5" style="stroke:#181818;stroke-width:0.5;" width="106.666" x="332.8533" y="488.6875"/><text fill="#000000" font-family="sans-serif" font-size="12" lengthAdjust="spacing" textLength="72" x="350.1863" y="511.1445">&#22238;&#39038;&#30693;&#35782;&#20869;&#23481;</text><text fill="#000000" font-family="sans-serif" font-size="12" lengthAdjust="spacing" textLength="86.666" x="342.8533" y="526.2383">(&#20855;&#20307;&#24590;&#20040;&#22238;&#39038;?)</text><path d="M164.7288,577.6172 L164.7288,620.3203 A0,0 0 0 0 164.7288,620.3203 L312.8533,620.3203 A0,0 0 0 0 312.8533,620.3203 L312.8533,602.9688 L332.8533,598.9688 L312.8533,594.9688 L312.8533,587.6172 L302.8533,577.6172 L164.7288,577.6172 A0,0 0 0 0 164.7288,577.6172" fill="#FEFFDD" style="stroke:#181818;stroke-width:0.5;"/><path d="M302.8533,577.6172 L302.8533,587.6172 L312.8533,587.6172 L302.8533,577.6172" fill="#FEFFDD" style="stroke:#181818;stroke-width:0.5;"/><text fill="#000000" font-family="sans-serif" font-size="13" lengthAdjust="spacing" textLength="127.1245" x="170.7288" y="596.1123">&#22312;./&#30693;&#35782;&#22797;&#20064;/Anki&#22797;&#20064;</text><text fill="#000000" font-family="sans-serif" font-size="13" lengthAdjust="spacing" textLength="100.4009" x="184.0906" y="612.4639">/&#29702;&#35299;&#30693;&#35782;.puml&#20013;</text><rect fill="#F1F1F1" height="50.1875" rx="12.5" ry="12.5" style="stroke:#181818;stroke-width:0.5;" width="106.666" x="332.8533" y="573.875"/><text fill="#000000" font-family="sans-serif" font-size="12" lengthAdjust="spacing" textLength="48" x="362.1863" y="596.332">&#37325;&#26032;&#29702;&#35299;</text><text fill="#000000" font-family="sans-serif" font-size="12" lengthAdjust="spacing" textLength="86.666" x="342.8533" y="611.4258">(&#20855;&#20307;&#24590;&#20040;&#29702;&#35299;?)</text><rect fill="#F1F1F1" height="35.0938" rx="12.5" ry="12.5" style="stroke:#181818;stroke-width:0.5;" width="132.0137" x="320.1794" y="659.0625"/><text fill="#000000" font-family="sans-serif" font-size="12" lengthAdjust="spacing" textLength="112.0137" x="330.1794" y="681.5195">&#26356;&#26032; / &#26032;&#22686; Anki &#21345;&#29255;</text><ellipse cx="386.1863" cy="740.1563" fill="none" rx="11" ry="11" style="stroke:#222222;stroke-width:1;"/><ellipse cx="386.1863" cy="740.1563" fill="#222222" rx="6" ry="6" style="stroke:#222222;stroke-width:1;"/><polygon fill="#F1F1F1" points="242.4575,142.2188,254.4575,154.2188,242.4575,166.2188,230.4575,154.2188,242.4575,142.2188" style="stroke:#181818;stroke-width:0.5;"/><polygon fill="#F1F1F1" points="217.3987,805.1563,267.5164,805.1563,279.5164,817.1563,267.5164,829.1563,217.3987,829.1563,205.3987,817.1563,217.3987,805.1563" style="stroke:#181818;stroke-width:0.5;"/><text fill="#000000" font-family="sans-serif" font-size="11" lengthAdjust="spacing" textLength="50.1177" x="217.3987" y="821.6572">&#32487;&#32493;&#22797;&#20064;?</text><text fill="#000000" font-family="sans-serif" font-size="11" lengthAdjust="spacing" textLength="11" x="279.5164" y="814.7393">&#26159;</text><line style="stroke:#181818;stroke-width:1;" x1="386.1863" x2="386.1863" y1="368.5" y2="403.5"/><polygon fill="#181818" points="382.1863,393.5,386.1863,403.5,390.1863,393.5,386.1863,397.5" style="stroke:#181818;stroke-width:1;"/><line style="stroke:#181818;stroke-width:1;" x1="386.1863" x2="386.1863" y1="453.6875" y2="488.6875"/><polygon fill="#181818" points="382.1863,478.6875,386.1863,488.6875,390.1863,478.6875,386.1863,482.6875" style="stroke:#181818;stroke-width:1;"/><line style="stroke:#181818;stroke-width:1;" x1="386.1863" x2="386.1863" y1="538.875" y2="573.875"/><polygon fill="#181818" points="382.1863,563.875,386.1863,573.875,390.1863,563.875,386.1863,567.875" style="stroke:#181818;stroke-width:1;"/><line style="stroke:#181818;stroke-width:1;" x1="386.1863" x2="386.1863" y1="624.0625" y2="659.0625"/><polygon fill="#181818" points="382.1863,649.0625,386.1863,659.0625,390.1863,649.0625,386.1863,653.0625" style="stroke:#181818;stroke-width:1;"/><line style="stroke:#181818;stroke-width:1;" x1="386.1863" x2="386.1863" y1="694.1563" y2="729.1563"/><polygon fill="#181818" points="382.1863,719.1563,386.1863,729.1563,390.1863,719.1563,386.1863,723.1563" style="stroke:#181818;stroke-width:1;"/><line style="stroke:#181818;stroke-width:1;" x1="205.3987" x2="98.7288" y1="311.4063" y2="311.4063"/><line style="stroke:#181818;stroke-width:1;" x1="98.7288" x2="98.7288" y1="311.4063" y2="333.4063"/><polygon fill="#181818" points="94.7288,323.4063,98.7288,333.4063,102.7288,323.4063,98.7288,327.4063" style="stroke:#181818;stroke-width:1;"/><line style="stroke:#181818;stroke-width:1;" x1="279.5164" x2="386.1863" y1="311.4063" y2="311.4063"/><line style="stroke:#181818;stroke-width:1;" x1="386.1863" x2="386.1863" y1="311.4063" y2="333.4063"/><polygon fill="#181818" points="382.1863,323.4063,386.1863,333.4063,390.1863,323.4063,386.1863,327.4063" style="stroke:#181818;stroke-width:1;"/><line style="stroke:#181818;stroke-width:1;" x1="98.7288" x2="98.7288" y1="368.5" y2="757.1563"/><line style="stroke:#181818;stroke-width:1;" x1="98.7288" x2="242.4575" y1="757.1563" y2="757.1563"/><line style="stroke:#181818;stroke-width:1;" x1="242.4575" x2="242.4575" y1="757.1563" y2="805.1563"/><polygon fill="#181818" points="238.4575,795.1563,242.4575,805.1563,246.4575,795.1563,242.4575,799.1563" style="stroke:#181818;stroke-width:1;"/><line style="stroke:#181818;stroke-width:1;" x1="242.4575" x2="242.4575" y1="264.4063" y2="299.4063"/><polygon fill="#181818" points="238.4575,289.4063,242.4575,299.4063,246.4575,289.4063,242.4575,293.4063" style="stroke:#181818;stroke-width:1;"/><line style="stroke:#181818;stroke-width:1;" x1="242.4575" x2="242.4575" y1="166.2188" y2="214.2188"/><polygon fill="#181818" points="238.4575,204.2188,242.4575,214.2188,246.4575,204.2188,242.4575,208.2188" style="stroke:#181818;stroke-width:1;"/><line style="stroke:#181818;stroke-width:1;" x1="279.5164" x2="485.1853" y1="817.1563" y2="817.1563"/><polygon fill="#181818" points="481.1853,495.6875,485.1853,485.6875,489.1853,495.6875,485.1853,491.6875" style="stroke:#181818;stroke-width:1;"/><line style="stroke:#181818;stroke-width:1;" x1="485.1853" x2="485.1853" y1="154.2188" y2="817.1563"/><line style="stroke:#181818;stroke-width:1;" x1="485.1853" x2="254.4575" y1="154.2188" y2="154.2188"/><polygon fill="#181818" points="264.4575,150.2188,254.4575,154.2188,264.4575,158.2188,260.4575,154.2188" style="stroke:#181818;stroke-width:1;"/><line style="stroke:#181818;stroke-width:1;" x1="242.4575" x2="242.4575" y1="107.2188" y2="142.2188"/><polygon fill="#181818" points="238.4575,132.2188,242.4575,142.2188,246.4575,132.2188,242.4575,136.2188" style="stroke:#181818;stroke-width:1;"/><!--SRC=[dLBFIm915BxxLxoZNlAk1mc2kdJhw6MpqORMQLb72YBG8Fi1Lc2bjPMb-UFYZq1AMxH_PcRM_IyQTrQA88BsCBnvyttVU-_Rbzd2nD1CBGrBAAbbTRg6TkcYZbCaZGY5X3oG6Q2OwWZuSv6D7ldBWNjVSphNpbL336n-skRM910mKO9g92LXR6XFctaVR4ts0Y2_3DLCwaKcCf2cmiWYsS8A62T1PkVOw5YKNtdkHYLZeQY78ziKWOwIYiNlsWjXfzgOzWeA5lwIyG1XDhwQoNYP1IERrjcmuxqWik69UHUSXA2ezFX5Szhji_5vB0Hq4n4l6LBzYKwT3uTkUU3UNYevrH3ICmY2aWbXSFDb_b7n2VpCXcLCLxBh8AeDMDKC0vDKr5UhDiJ9PFxEx19_BycvrIWG1-UYC6tLPU1UthYroYoeLHohwxiGuTQ3-pJn9oySykv8ildX6nkNHEvCUgS0_tNjk_plhaNSewAuxgjUVzHNoV_ML-m_wmjh8EjBu-N9Qmymam5UV79EZgB-gcqRSnvEVjivsDd4EWewTiknE_CD0vpn__Z-9m00]--></g></svg>