<svg xmlns="http://www.w3.org/2000/svg" xmlns:xlink="http://www.w3.org/1999/xlink" contentStyleType="text/css" data-diagram-type="ACTIVITY" height="731px" preserveAspectRatio="none" style="width:1208px;height:731px;background:#FFFFFF;" version="1.1" viewBox="0 0 1208 731" width="1208px" zoomAndPan="magnify"><title>&#31354;&#20313;&#26102;&#38388; + &#22797;&#20064;&#35302;&#21457;&#31995;&#32479;</title><defs/><g><g class="title" data-source-line="2"><text fill="#000000" font-family="sans-serif" font-size="14" font-weight="bold" lengthAdjust="spacing" textLength="160.3301" x="522.7213" y="34.5332">&#31354;&#20313;&#26102;&#38388; + &#22797;&#20064;&#35302;&#21457;&#31995;&#32479;</text></g><rect fill="none" height="671.2578" style="stroke:#000000;stroke-width:1.5;" width="1186.7727" x="11" y="49.6094"/><text fill="#000000" font-family="sans-serif" font-size="14" lengthAdjust="spacing" textLength="56" x="576.3864" y="66.1426">&#20309;&#26102;&#22797;&#20064;</text><ellipse cx="791.3627" cy="97.2188" fill="#222222" rx="10" ry="10" style="stroke:#222222;stroke-width:1;"/><rect fill="#F1F1F1" height="35.0938" rx="12.5" ry="12.5" style="stroke:#181818;stroke-width:0.5;" width="116" x="733.3627" y="142.2188"/><text fill="#000000" font-family="sans-serif" font-size="12" lengthAdjust="spacing" textLength="96" x="743.3627" y="164.6758">&#26816;&#27979;&#24403;&#21069;&#26102;&#38388;&#29366;&#24577;</text><polygon fill="#F1F1F1" points="755.3039,212.3125,827.4216,212.3125,839.4216,224.3125,827.4216,236.3125,755.3039,236.3125,743.3039,224.3125,755.3039,212.3125" style="stroke:#181818;stroke-width:0.5;"/><text fill="#000000" font-family="sans-serif" font-size="11" lengthAdjust="spacing" textLength="72.1177" x="755.3039" y="228.8135">&#26159;&#21542;&#31354;&#20313;&#26102;&#38388;?</text><text fill="#000000" font-family="sans-serif" font-size="11" lengthAdjust="spacing" textLength="11" x="732.3039" y="221.8955">&#26159;</text><text fill="#000000" font-family="sans-serif" font-size="11" lengthAdjust="spacing" textLength="11" x="839.4216" y="221.8955">&#21542;</text><rect fill="#F1F1F1" height="35.0938" rx="12.5" ry="12.5" style="stroke:#181818;stroke-width:0.5;" width="104" x="419.4635" y="246.3125"/><text fill="#000000" font-family="sans-serif" font-size="12" lengthAdjust="spacing" textLength="84" x="429.4635" y="268.7695">&#21028;&#26029;&#24403;&#21069;&#26102;&#38388;&#27573;</text><polygon fill="#F1F1F1" points="415.8485,316.4063,527.0785,316.4063,539.0785,328.4063,527.0785,340.4063,415.8485,340.4063,403.8485,328.4063,415.8485,316.4063" style="stroke:#181818;stroke-width:0.5;"/><text fill="#000000" font-family="sans-serif" font-size="11" lengthAdjust="spacing" textLength="111.23" x="415.8485" y="332.9072">&#26159;&#21542;&#20026;&#30561;&#21069;/&#21320;&#20241;/&#26202;&#38388;?</text><text fill="#000000" font-family="sans-serif" font-size="11" lengthAdjust="spacing" textLength="11" x="392.8485" y="325.9893">&#26159;</text><text fill="#000000" font-family="sans-serif" font-size="11" lengthAdjust="spacing" textLength="11" x="539.0785" y="325.9893">&#21542;</text><rect fill="#F1F1F1" height="35.0938" rx="12.5" ry="12.5" style="stroke:#181818;stroke-width:0.5;" width="140" x="98.1758" y="350.4063"/><text fill="#000000" font-family="sans-serif" font-size="12" lengthAdjust="spacing" textLength="120" x="108.1758" y="372.8633">&#26816;&#26597;&#26159;&#21542;&#26377;&#21487;&#22797;&#20064;&#21345;&#29255;</text><polygon fill="#F1F1F1" points="137.6169,420.5,198.7346,420.5,210.7346,432.5,198.7346,444.5,137.6169,444.5,125.6169,432.5,137.6169,420.5" style="stroke:#181818;stroke-width:0.5;"/><text fill="#000000" font-family="sans-serif" font-size="11" lengthAdjust="spacing" textLength="61.1177" x="137.6169" y="437.001">&#26377;&#31354;&#20313;&#21345;&#29255;?</text><text fill="#000000" font-family="sans-serif" font-size="11" lengthAdjust="spacing" textLength="11" x="114.6169" y="430.083">&#26159;</text><text fill="#000000" font-family="sans-serif" font-size="11" lengthAdjust="spacing" textLength="11" x="210.7346" y="430.083">&#21542;</text><rect fill="#F1F1F1" height="35.0938" rx="12.5" ry="12.5" style="stroke:#181818;stroke-width:0.5;" width="98.0117" x="51" y="454.5"/><text fill="#000000" font-family="sans-serif" font-size="12" lengthAdjust="spacing" textLength="78.0117" x="61" y="476.957">&#36827;&#20837; Anki &#22797;&#20064;</text><path d="M323.6797,458.2422 L323.6797,475.5938 L303.6797,479.5938 L323.6797,483.5938 L323.6797,500.9453 A0,0 0 0 0 323.6797,500.9453 L441.4688,500.9453 A0,0 0 0 0 441.4688,500.9453 L441.4688,468.2422 L431.4688,458.2422 L323.6797,458.2422 A0,0 0 0 0 323.6797,458.2422" fill="#FEFFDD" style="stroke:#181818;stroke-width:0.5;"/><path d="M431.4688,458.2422 L431.4688,468.2422 L441.4688,468.2422 L431.4688,458.2422" fill="#FEFFDD" style="stroke:#181818;stroke-width:0.5;"/><text fill="#000000" font-family="sans-serif" font-size="13" lengthAdjust="spacing" textLength="75.8354" x="340.1565" y="476.7373">&#22312;./&#20241;&#24687;/&#26202;&#38388;</text><text fill="#000000" font-family="sans-serif" font-size="13" lengthAdjust="spacing" textLength="96.7891" x="329.6797" y="493.0889">&#20241;&#24687;&#31574;&#30053;.puml&#20013;</text><rect fill="#F1F1F1" height="50.1875" rx="12.5" ry="12.5" style="stroke:#181818;stroke-width:0.5;" width="134.668" x="169.0117" y="454.5"/><text fill="#000000" font-family="sans-serif" font-size="12" lengthAdjust="spacing" textLength="114.668" x="179.0117" y="476.957">&#30561;&#35273;&#20241;&#24687;, &#19981;&#20934;&#29609;&#25163;&#26426;</text><text fill="#000000" font-family="sans-serif" font-size="12" lengthAdjust="spacing" textLength="74.666" x="199.0127" y="492.0508">(&#20855;&#20307;&#24590;&#20040;&#24178;?)</text><polygon fill="#F1F1F1" points="168.1758,510.6875,180.1758,522.6875,168.1758,534.6875,156.1758,522.6875,168.1758,510.6875" style="stroke:#181818;stroke-width:0.5;"/><path d="M876.7512,350.4063 L876.7512,384.1094 L856.7512,388.1094 L876.7512,392.1094 L876.7512,425.8125 A0,0 0 0 0 876.7512,425.8125 L1014.7512,425.8125 A0,0 0 0 0 1014.7512,425.8125 L1014.7512,360.4063 L1004.7512,350.4063 L876.7512,350.4063 A0,0 0 0 0 876.7512,350.4063" fill="#FEFFDD" style="stroke:#181818;stroke-width:0.5;"/><path d="M1004.7512,350.4063 L1004.7512,360.4063 L1014.7512,360.4063 L1004.7512,350.4063" fill="#FEFFDD" style="stroke:#181818;stroke-width:0.5;"/><text fill="#000000" font-family="sans-serif" font-size="13" lengthAdjust="spacing" textLength="117" x="882.7512" y="368.9014">&#39640;&#20248;&#20808;&#32423;&#20219;&#21153;&#25351;&#30340;&#26159;</text><text fill="#000000" font-family="sans-serif" font-size="13" lengthAdjust="spacing" textLength="101.8354" x="888.5276" y="385.2529">&#20316;&#19994;, &#23454;&#39564;&#25253;&#21578;&#31561;,</text><text fill="#000000" font-family="sans-serif" font-size="13" lengthAdjust="spacing" textLength="107.6118" x="885.6394" y="401.6045">&#20248;&#20808;&#23436;&#25104;&#36825;&#20123;&#20043;&#21518;,</text><text fill="#000000" font-family="sans-serif" font-size="13" lengthAdjust="spacing" textLength="93.9009" x="894.3008" y="417.9561">&#20877;&#21435;&#22797;&#20064;Anki&#21345;.</text><rect fill="#F1F1F1" height="35.0938" rx="12.5" ry="12.5" style="stroke:#181818;stroke-width:0.5;" width="164" x="692.7512" y="370.5625"/><text fill="#000000" font-family="sans-serif" font-size="12" lengthAdjust="spacing" textLength="144" x="702.7512" y="393.0195">&#26816;&#26597;&#26159;&#21542;&#26377;&#26356;&#39640;&#20248;&#20808;&#32423;&#20219;&#21153;</text><polygon fill="#F1F1F1" points="727.6924,460.8125,821.8101,460.8125,833.8101,472.8125,821.8101,484.8125,727.6924,484.8125,715.6924,472.8125,727.6924,460.8125" style="stroke:#181818;stroke-width:0.5;"/><text fill="#000000" font-family="sans-serif" font-size="11" lengthAdjust="spacing" textLength="94.1177" x="727.6924" y="477.3135">&#26377;&#26356;&#39640;&#20248;&#20808;&#32423;&#20219;&#21153;?</text><text fill="#000000" font-family="sans-serif" font-size="11" lengthAdjust="spacing" textLength="11" x="704.6924" y="470.3955">&#26159;</text><text fill="#000000" font-family="sans-serif" font-size="11" lengthAdjust="spacing" textLength="11" x="833.8101" y="470.3955">&#21542;</text><path d="M481.4688,494.8125 L481.4688,553.8672 A0,0 0 0 0 481.4688,553.8672 L639.6924,553.8672 A0,0 0 0 0 639.6924,553.8672 L639.6924,528.3398 L659.6924,524.3398 L639.6924,520.3398 L639.6924,504.8125 L629.6924,494.8125 L481.4688,494.8125 A0,0 0 0 0 481.4688,494.8125" fill="#FEFFDD" style="stroke:#181818;stroke-width:0.5;"/><path d="M629.6924,494.8125 L629.6924,504.8125 L639.6924,504.8125 L629.6924,494.8125" fill="#FEFFDD" style="stroke:#181818;stroke-width:0.5;"/><text fill="#000000" font-family="sans-serif" font-size="13" lengthAdjust="spacing" textLength="127.8354" x="492.1628" y="513.3076">&#24178;&#23601;&#23436;&#20102;, &#21035;&#32771;&#34385;&#22826;&#22810;,</text><text fill="#000000" font-family="sans-serif" font-size="13" lengthAdjust="spacing" textLength="137.2236" x="487.4688" y="529.6592">&#19982;&#20854;&#25285;&#24515;&#24590;&#26679;&#34987;&#24433;&#21709;, &#19981;</text><text fill="#000000" font-family="sans-serif" font-size="13" lengthAdjust="spacing" textLength="114.8354" x="498.6628" y="546.0107">&#22914;&#25552;&#21069;&#24324;&#23436;, &#26356;&#30465;&#24515;.</text><rect fill="#F1F1F1" height="35.0938" rx="12.5" ry="12.5" style="stroke:#181818;stroke-width:0.5;" width="92" x="659.6924" y="506.793"/><text fill="#000000" font-family="sans-serif" font-size="12" lengthAdjust="spacing" textLength="72" x="669.6924" y="529.25">&#25191;&#34892;&#20854;&#20182;&#20219;&#21153;</text><rect fill="#F1F1F1" height="35.0938" rx="12.5" ry="12.5" style="stroke:#181818;stroke-width:0.5;" width="91.3438" x="798.1382" y="494.8125"/><text fill="#000000" font-family="sans-serif" font-size="12" lengthAdjust="spacing" textLength="71.3438" x="808.1382" y="517.2695">&#36827;&#20837;Anki&#22797;&#20064;</text><polygon fill="#F1F1F1" points="774.7512,559.8672,786.7512,571.8672,774.7512,583.8672,762.7512,571.8672,774.7512,559.8672" style="stroke:#181818;stroke-width:0.5;"/><polygon fill="#F1F1F1" points="471.4635,589.8672,483.4635,601.8672,471.4635,613.8672,459.4635,601.8672,471.4635,589.8672" style="stroke:#181818;stroke-width:0.5;"/><rect fill="#F1F1F1" height="50.1875" rx="12.5" ry="12.5" style="stroke:#181818;stroke-width:0.5;" width="133.0215" x="1044.7512" y="246.3125"/><text fill="#000000" font-family="sans-serif" font-size="12" lengthAdjust="spacing" textLength="113.0215" x="1054.7512" y="268.7695">&#38750;&#31354;&#20313;&#26102;&#38388; &#8594; &#19981;&#22797;&#20064;</text><text fill="#000000" font-family="sans-serif" font-size="12" lengthAdjust="spacing" textLength="87.334" x="1067.595" y="283.8633">&#35748;&#30495;&#25630;&#22909;&#24403;&#19979;&#30340;.</text><polygon fill="#F1F1F1" points="791.3627,619.8672,803.3627,631.8672,791.3627,643.8672,779.3627,631.8672,791.3627,619.8672" style="stroke:#181818;stroke-width:0.5;"/><ellipse cx="791.3627" cy="689.8672" fill="none" rx="11" ry="11" style="stroke:#222222;stroke-width:1;"/><ellipse cx="791.3627" cy="689.8672" fill="#222222" rx="6" ry="6" style="stroke:#222222;stroke-width:1;"/><line style="stroke:#181818;stroke-width:1;" x1="791.3627" x2="791.3627" y1="107.2188" y2="142.2188"/><polygon fill="#181818" points="787.3627,132.2188,791.3627,142.2188,795.3627,132.2188,791.3627,136.2188" style="stroke:#181818;stroke-width:1;"/><line style="stroke:#181818;stroke-width:1;" x1="125.6169" x2="100.0059" y1="432.5" y2="432.5"/><line style="stroke:#181818;stroke-width:1;" x1="100.0059" x2="100.0059" y1="432.5" y2="454.5"/><polygon fill="#181818" points="96.0059,444.5,100.0059,454.5,104.0059,444.5,100.0059,448.5" style="stroke:#181818;stroke-width:1;"/><line style="stroke:#181818;stroke-width:1;" x1="210.7346" x2="236.3457" y1="432.5" y2="432.5"/><line style="stroke:#181818;stroke-width:1;" x1="236.3457" x2="236.3457" y1="432.5" y2="454.5"/><polygon fill="#181818" points="232.3457,444.5,236.3457,454.5,240.3457,444.5,236.3457,448.5" style="stroke:#181818;stroke-width:1;"/><line style="stroke:#181818;stroke-width:1;" x1="100.0059" x2="100.0059" y1="489.5938" y2="522.6875"/><line style="stroke:#181818;stroke-width:1;" x1="100.0059" x2="156.1758" y1="522.6875" y2="522.6875"/><polygon fill="#181818" points="146.1758,518.6875,156.1758,522.6875,146.1758,526.6875,150.1758,522.6875" style="stroke:#181818;stroke-width:1;"/><line style="stroke:#181818;stroke-width:1;" x1="236.3457" x2="236.3457" y1="504.6875" y2="522.6875"/><line style="stroke:#181818;stroke-width:1;" x1="236.3457" x2="180.1758" y1="522.6875" y2="522.6875"/><polygon fill="#181818" points="190.1758,518.6875,180.1758,522.6875,190.1758,526.6875,186.1758,522.6875" style="stroke:#181818;stroke-width:1;"/><line style="stroke:#181818;stroke-width:1;" x1="168.1758" x2="168.1758" y1="385.5" y2="420.5"/><polygon fill="#181818" points="164.1758,410.5,168.1758,420.5,172.1758,410.5,168.1758,414.5" style="stroke:#181818;stroke-width:1;"/><line style="stroke:#181818;stroke-width:1;" x1="715.6924" x2="705.6924" y1="472.8125" y2="472.8125"/><line style="stroke:#181818;stroke-width:1;" x1="705.6924" x2="705.6924" y1="472.8125" y2="506.793"/><polygon fill="#181818" points="701.6924,496.793,705.6924,506.793,709.6924,496.793,705.6924,500.793" style="stroke:#181818;stroke-width:1;"/><line style="stroke:#181818;stroke-width:1;" x1="833.8101" x2="843.8101" y1="472.8125" y2="472.8125"/><line style="stroke:#181818;stroke-width:1;" x1="843.8101" x2="843.8101" y1="472.8125" y2="494.8125"/><polygon fill="#181818" points="839.8101,484.8125,843.8101,494.8125,847.8101,484.8125,843.8101,488.8125" style="stroke:#181818;stroke-width:1;"/><line style="stroke:#181818;stroke-width:1;" x1="705.6924" x2="705.6924" y1="541.8867" y2="571.8672"/><line style="stroke:#181818;stroke-width:1;" x1="705.6924" x2="762.7512" y1="571.8672" y2="571.8672"/><polygon fill="#181818" points="752.7512,567.8672,762.7512,571.8672,752.7512,575.8672,756.7512,571.8672" style="stroke:#181818;stroke-width:1;"/><line style="stroke:#181818;stroke-width:1;" x1="843.8101" x2="843.8101" y1="529.9063" y2="571.8672"/><line style="stroke:#181818;stroke-width:1;" x1="843.8101" x2="786.7512" y1="571.8672" y2="571.8672"/><polygon fill="#181818" points="796.7512,567.8672,786.7512,571.8672,796.7512,575.8672,792.7512,571.8672" style="stroke:#181818;stroke-width:1;"/><line style="stroke:#181818;stroke-width:1;" x1="774.7512" x2="774.7512" y1="405.6563" y2="460.8125"/><polygon fill="#181818" points="770.7512,450.8125,774.7512,460.8125,778.7512,450.8125,774.7512,454.8125" style="stroke:#181818;stroke-width:1;"/><line style="stroke:#181818;stroke-width:1;" x1="403.8485" x2="168.1758" y1="328.4063" y2="328.4063"/><line style="stroke:#181818;stroke-width:1;" x1="168.1758" x2="168.1758" y1="328.4063" y2="350.4063"/><polygon fill="#181818" points="164.1758,340.4063,168.1758,350.4063,172.1758,340.4063,168.1758,344.4063" style="stroke:#181818;stroke-width:1;"/><line style="stroke:#181818;stroke-width:1;" x1="539.0785" x2="774.7512" y1="328.4063" y2="328.4063"/><line style="stroke:#181818;stroke-width:1;" x1="774.7512" x2="774.7512" y1="328.4063" y2="370.5625"/><polygon fill="#181818" points="770.7512,360.5625,774.7512,370.5625,778.7512,360.5625,774.7512,364.5625" style="stroke:#181818;stroke-width:1;"/><line style="stroke:#181818;stroke-width:1;" x1="168.1758" x2="168.1758" y1="534.6875" y2="601.8672"/><line style="stroke:#181818;stroke-width:1;" x1="168.1758" x2="459.4635" y1="601.8672" y2="601.8672"/><polygon fill="#181818" points="449.4635,597.8672,459.4635,601.8672,449.4635,605.8672,453.4635,601.8672" style="stroke:#181818;stroke-width:1;"/><line style="stroke:#181818;stroke-width:1;" x1="774.7512" x2="774.7512" y1="583.8672" y2="601.8672"/><line style="stroke:#181818;stroke-width:1;" x1="774.7512" x2="483.4635" y1="601.8672" y2="601.8672"/><polygon fill="#181818" points="493.4635,597.8672,483.4635,601.8672,493.4635,605.8672,489.4635,601.8672" style="stroke:#181818;stroke-width:1;"/><line style="stroke:#181818;stroke-width:1;" x1="471.4635" x2="471.4635" y1="281.4063" y2="316.4063"/><polygon fill="#181818" points="467.4635,306.4063,471.4635,316.4063,475.4635,306.4063,471.4635,310.4063" style="stroke:#181818;stroke-width:1;"/><line style="stroke:#181818;stroke-width:1;" x1="743.3039" x2="471.4635" y1="224.3125" y2="224.3125"/><line style="stroke:#181818;stroke-width:1;" x1="471.4635" x2="471.4635" y1="224.3125" y2="246.3125"/><polygon fill="#181818" points="467.4635,236.3125,471.4635,246.3125,475.4635,236.3125,471.4635,240.3125" style="stroke:#181818;stroke-width:1;"/><line style="stroke:#181818;stroke-width:1;" x1="839.4216" x2="1111.262" y1="224.3125" y2="224.3125"/><line style="stroke:#181818;stroke-width:1;" x1="1111.262" x2="1111.262" y1="224.3125" y2="246.3125"/><polygon fill="#181818" points="1107.262,236.3125,1111.262,246.3125,1115.262,236.3125,1111.262,240.3125" style="stroke:#181818;stroke-width:1;"/><line style="stroke:#181818;stroke-width:1;" x1="471.4635" x2="471.4635" y1="613.8672" y2="631.8672"/><line style="stroke:#181818;stroke-width:1;" x1="471.4635" x2="779.3627" y1="631.8672" y2="631.8672"/><polygon fill="#181818" points="769.3627,627.8672,779.3627,631.8672,769.3627,635.8672,773.3627,631.8672" style="stroke:#181818;stroke-width:1;"/><line style="stroke:#181818;stroke-width:1;" x1="1111.262" x2="1111.262" y1="296.5" y2="631.8672"/><line style="stroke:#181818;stroke-width:1;" x1="1111.262" x2="803.3627" y1="631.8672" y2="631.8672"/><polygon fill="#181818" points="813.3627,627.8672,803.3627,631.8672,813.3627,635.8672,809.3627,631.8672" style="stroke:#181818;stroke-width:1;"/><line style="stroke:#181818;stroke-width:1;" x1="791.3627" x2="791.3627" y1="177.3125" y2="212.3125"/><polygon fill="#181818" points="787.3627,202.3125,791.3627,212.3125,795.3627,202.3125,791.3627,206.3125" style="stroke:#181818;stroke-width:1;"/><line style="stroke:#181818;stroke-width:1;" x1="791.3627" x2="791.3627" y1="643.8672" y2="678.8672"/><polygon fill="#181818" points="787.3627,668.8672,791.3627,678.8672,795.3627,668.8672,791.3627,672.8672" style="stroke:#181818;stroke-width:1;"/><!--SRC=[XPJTJXf15CVlvodc4bE2zt9XJFe8lVI6s4KtucfWJ9eqJQ0Aii0Yb8Y2AqhBHzM0rVe1ksvybsREpF8M7NQDiWksUx4NSyxvpV-S-SyarcLbAnAFRE3tKZIo7ICVf4zaAIQlAXkIGl2A-4bnH6GIap0_DwXLOuVteyDR_0v3IwF3CxlRWVqo_sroynIXkBH28iggIARMWSXqSpwZ18d42LfWFvBiBWzM1LJDvV3SFKkcmaYEuW0xke9IPtANnJbCrYJ52SqXBBu5oBPOjJU9OFsxi1DxPT21mK-Q8cCUj2nzBC-pMdqcpa6ELPsstKgcgx1_vSe6hSdLlV1BeiFNLLUW6vnDTAZsqp6astX9MPUVH_LAac892GV4ThuQ8Thkga8mIrq5CHrei9VXnNEcvfbkB2i1I3zGgyAIHJhCml1cSIxigLSsYOJZykeQyIo3_ZCqxqAV1-49kn7Ug_A3TcXhUoD61prFWgHyTD1eOa6E8lH69_vvikFRqUKHVJo2T9ORNMgQa6k-2dz3z7G9A-pn-gx0UjLREXtKWnZwZT55WUNQKCxndXh4lXx7AEWNMBPaFzMeSKo7UIWLVMcGqQ1ekgSrFZXno24qDGQ_8MOs-0zdCBLhDmkGlgTcrJ-Dbud4f2ZnYdC43c_WrxNeWnePqNFsqaxksBKoj2wWLGzEfTD1KMp3ycbusX6kOMSFzlTBiAwXeZdsckPtlhBzahWuyBWhTWbYqHlNKw8yz1zBpF21UmESEVhzxnXemag-yeNHISFpslp9V7EkWyDPLkn-Y-kdhDI0jYMU0Zh82sU4miYb9SZc5lho5m00]--></g></svg>