<svg xmlns="http://www.w3.org/2000/svg" xmlns:xlink="http://www.w3.org/1999/xlink" contentStyleType="text/css" data-diagram-type="ACTIVITY" height="1446px" preserveAspectRatio="none" style="width:339px;height:1446px;background:#FFFFFF;" version="1.1" viewBox="0 0 339 1446" width="339px" zoomAndPan="magnify"><title>&#22238;&#39038;&#30693;&#35782;</title><defs/><g><g class="title" data-source-line="2"><text fill="#000000" font-family="sans-serif" font-size="14" font-weight="bold" lengthAdjust="spacing" textLength="57.75" x="139.125" y="34.5332">&#22238;&#39038;&#30693;&#35782;</text></g><ellipse cx="158" cy="58.6094" fill="#222222" rx="10" ry="10" style="stroke:#222222;stroke-width:1;"/><rect fill="#F1F1F1" height="35.0938" rx="12.5" ry="12.5" style="stroke:#181818;stroke-width:0.5;" width="197.3809" x="59.3096" y="88.6094"/><text fill="#000000" font-family="sans-serif" font-size="12" lengthAdjust="spacing" textLength="177.3809" x="69.3096" y="111.0664">&#20174; GitHub Mapping &#23450;&#20301;&#23545;&#24212;&#26465;&#30446;</text><rect fill="#F1F1F1" height="95.4688" rx="12.5" ry="12.5" style="stroke:#181818;stroke-width:0.5;" width="99.3301" x="108.335" y="143.7031"/><text fill="#000000" font-family="sans-serif" font-size="12" lengthAdjust="spacing" textLength="72" x="122" y="166.1602">&#25552;&#21462;&#20851;&#32852;&#20869;&#23481;</text><text fill="#000000" font-family="sans-serif" font-size="12" lengthAdjust="spacing" textLength="43.3301" x="136.335" y="181.2539">- &#30693;&#35782;&#28857;</text><text fill="#000000" font-family="sans-serif" font-size="12" lengthAdjust="spacing" textLength="75.3223" x="120.3389" y="196.3477">- &#39064;&#30446;(&#22914;&#26524;&#26377;)</text><text fill="#000000" font-family="sans-serif" font-size="12" lengthAdjust="spacing" textLength="75.3223" x="120.3389" y="211.4414">- &#38169;&#39064;(&#22914;&#26524;&#26377;)</text><text fill="#000000" font-family="sans-serif" font-size="12" lengthAdjust="spacing" textLength="79.3301" x="118.335" y="226.5352">- &#21407;&#26377;&#29702;&#35299;&#35760;&#24405;</text><rect fill="#F1F1F1" height="35.0938" rx="12.5" ry="12.5" style="stroke:#181818;stroke-width:0.5;" width="92" x="112" y="259.1719"/><text fill="#000000" font-family="sans-serif" font-size="12" lengthAdjust="spacing" textLength="72" x="122" y="281.6289">&#21028;&#26029;&#36951;&#24536;&#31243;&#24230;</text><rect fill="#F1F1F1" height="35.0938" rx="12.5" ry="12.5" style="stroke:#181818;stroke-width:0.5;" width="116" x="100" y="314.2656"/><text fill="#000000" font-family="sans-serif" font-size="12" lengthAdjust="spacing" textLength="96" x="110" y="336.7227">&#21028;&#26029;&#22238;&#24518;&#24674;&#22797;&#31243;&#24230;</text><rect fill="#F1F1F1" height="35.0938" rx="12.5" ry="12.5" style="stroke:#181818;stroke-width:0.5;" width="150.002" x="82.999" y="413.3594"/><text fill="#000000" font-family="sans-serif" font-size="12" lengthAdjust="spacing" textLength="130.002" x="92.999" y="435.8164">&#20180;&#32454;&#38405;&#35835;&#20070;&#26412; / &#21407;&#22987;&#36164;&#26009;</text><rect fill="#F1F1F1" height="35.0938" rx="12.5" ry="12.5" style="stroke:#181818;stroke-width:0.5;" width="104" x="106" y="468.4531"/><text fill="#000000" font-family="sans-serif" font-size="12" lengthAdjust="spacing" textLength="84" x="116" y="490.9102">&#26816;&#26597;&#26159;&#21542;&#26377;&#36951;&#28431;</text><rect fill="#F1F1F1" height="35.0938" rx="12.5" ry="12.5" style="stroke:#181818;stroke-width:0.5;" width="164" x="76" y="523.5469"/><text fill="#000000" font-family="sans-serif" font-size="12" lengthAdjust="spacing" textLength="144" x="86" y="546.0039">&#23450;&#20301;&#23548;&#33268;&#36951;&#24536;&#30340;&#20851;&#38190;&#30693;&#35782;&#28857;</text><rect fill="#F1F1F1" height="35.0938" rx="12.5" ry="12.5" style="stroke:#181818;stroke-width:0.5;" width="99.9922" x="108.0039" y="578.6406"/><text fill="#000000" font-family="sans-serif" font-size="12" lengthAdjust="spacing" textLength="79.9922" x="118.0039" y="601.0977">&#36827;&#20837;&#8220;&#25945;&#24072;&#27169;&#24335;&#8221;</text><rect fill="#F1F1F1" height="35.0938" rx="12.5" ry="12.5" style="stroke:#181818;stroke-width:0.5;" width="140" x="88" y="633.7344"/><text fill="#000000" font-family="sans-serif" font-size="12" lengthAdjust="spacing" textLength="120" x="98" y="656.1914">&#23581;&#35797;&#25226;&#20869;&#23481;&#35762;&#32473;&#21035;&#20154;&#21548;</text><rect fill="#F1F1F1" height="35.0938" rx="12.5" ry="12.5" style="stroke:#181818;stroke-width:0.5;" width="128" x="94" y="699.375"/><text fill="#000000" font-family="sans-serif" font-size="12" lengthAdjust="spacing" textLength="108" x="104" y="721.832">&#22312;&#32456;&#31471;&#20013;&#32467;&#26500;&#21270;&#22797;&#36848;</text><rect fill="#F1F1F1" height="35.0938" rx="12.5" ry="12.5" style="stroke:#181818;stroke-width:0.5;" width="138.002" x="88.999" y="754.4688"/><text fill="#000000" font-family="sans-serif" font-size="12" lengthAdjust="spacing" textLength="118.002" x="98.999" y="776.9258">&#22312;&#32440;&#19978;&#25163;&#20889;&#25512;&#23548; / &#22797;&#36848;</text><polygon fill="#F1F1F1" points="121.9412,809.5625,194.0588,809.5625,206.0588,821.5625,194.0588,833.5625,121.9412,833.5625,109.9412,821.5625,121.9412,809.5625" style="stroke:#181818;stroke-width:0.5;"/><text fill="#000000" font-family="sans-serif" font-size="11" lengthAdjust="spacing" textLength="72.1177" x="121.9412" y="826.0635">&#29702;&#35299;&#20173;&#19981;&#23436;&#25972;?</text><text fill="#000000" font-family="sans-serif" font-size="11" lengthAdjust="spacing" textLength="11" x="98.9412" y="819.1455">&#26159;</text><text fill="#000000" font-family="sans-serif" font-size="11" lengthAdjust="spacing" textLength="11" x="206.0588" y="819.1455">&#21542;</text><rect fill="#F1F1F1" height="35.0938" rx="12.5" ry="12.5" style="stroke:#181818;stroke-width:0.5;" width="140" x="11" y="843.5625"/><text fill="#000000" font-family="sans-serif" font-size="12" lengthAdjust="spacing" textLength="120" x="21" y="866.0195">&#32487;&#32493;&#36861;&#38382;&#33258;&#24049;&#21738;&#37324;&#26029;&#38142;</text><rect fill="#F1F1F1" height="35.0938" rx="12.5" ry="12.5" style="stroke:#181818;stroke-width:0.5;" width="92" x="35" y="898.6563"/><text fill="#000000" font-family="sans-serif" font-size="12" lengthAdjust="spacing" textLength="72" x="45" y="921.1133">&#34917;&#35835;&#30456;&#20851;&#20869;&#23481;</text><rect fill="#F1F1F1" height="35.0938" rx="12.5" ry="12.5" style="stroke:#181818;stroke-width:0.5;" width="128" x="171" y="843.5625"/><text fill="#000000" font-family="sans-serif" font-size="12" lengthAdjust="spacing" textLength="108" x="181" y="866.0195">&#24418;&#25104;&#21487;&#35762;&#28165;&#26970;&#30340;&#35299;&#37322;</text><polygon fill="#F1F1F1" points="158,939.75,170,951.75,158,963.75,146,951.75,158,939.75" style="stroke:#181818;stroke-width:0.5;"/><polygon fill="#F1F1F1" points="158,369.3594,170,381.3594,158,393.3594,146,381.3594,158,369.3594" style="stroke:#181818;stroke-width:0.5;"/><polygon fill="#F1F1F1" points="127.4412,983.75,188.5588,983.75,200.5588,995.75,188.5588,1007.75,127.4412,1007.75,115.4412,995.75,127.4412,983.75" style="stroke:#181818;stroke-width:0.5;"/><text fill="#000000" font-family="sans-serif" font-size="11" lengthAdjust="spacing" textLength="61.1177" x="127.4412" y="1000.251">&#20173;&#26377;&#27169;&#31946;&#28857;?</text><text fill="#000000" font-family="sans-serif" font-size="11" lengthAdjust="spacing" textLength="11" x="200.5588" y="993.333">&#26159;</text><rect fill="#F1F1F1" height="35.0938" rx="12.5" ry="12.5" style="stroke:#181818;stroke-width:0.5;" width="104" x="106" y="1027.75"/><text fill="#000000" font-family="sans-serif" font-size="12" lengthAdjust="spacing" textLength="84" x="116" y="1050.207">&#34917;&#20805;&#33258;&#24049;&#30340;&#29702;&#35299;</text><rect fill="#F1F1F1" height="35.0938" rx="12.5" ry="12.5" style="stroke:#181818;stroke-width:0.5;" width="98.0117" x="108.9941" y="1082.8438"/><text fill="#000000" font-family="sans-serif" font-size="12" lengthAdjust="spacing" textLength="78.0117" x="118.9941" y="1105.3008">&#26356;&#26032; Anki &#21345;&#29255;</text><rect fill="#F1F1F1" height="35.0938" rx="12.5" ry="12.5" style="stroke:#181818;stroke-width:0.5;" width="197.3809" x="59.3096" y="1137.9375"/><text fill="#000000" font-family="sans-serif" font-size="12" lengthAdjust="spacing" textLength="177.3809" x="69.3096" y="1160.3945">&#26356;&#26032; GitHub Mapping &#30340;&#26144;&#23556;&#25991;&#20214;</text><rect fill="#F1F1F1" height="35.0938" rx="12.5" ry="12.5" style="stroke:#181818;stroke-width:0.5;" width="85.0156" x="115.4922" y="1193.0313"/><text fill="#000000" font-family="sans-serif" font-size="12" lengthAdjust="spacing" textLength="65.0156" x="125.4922" y="1215.4883">&#36951;&#24536;&#35760;&#24405; +1</text><rect fill="#F1F1F1" height="35.0938" rx="12.5" ry="12.5" style="stroke:#181818;stroke-width:0.5;" width="80" x="118" y="1248.125"/><text fill="#000000" font-family="sans-serif" font-size="12" lengthAdjust="spacing" textLength="60" x="128" y="1270.582">&#35760;&#24405;&#26102;&#38388;&#28857;</text><rect fill="#F1F1F1" height="35.0938" rx="12.5" ry="12.5" style="stroke:#181818;stroke-width:0.5;" width="116" x="100" y="1303.2188"/><text fill="#000000" font-family="sans-serif" font-size="12" lengthAdjust="spacing" textLength="96" x="110" y="1325.6758">&#35760;&#24405;&#21407;&#26377;&#27169;&#31946;&#20449;&#24687;</text><rect fill="#F1F1F1" height="35.0938" rx="12.5" ry="12.5" style="stroke:#181818;stroke-width:0.5;" width="140" x="88" y="1358.3125"/><text fill="#000000" font-family="sans-serif" font-size="12" lengthAdjust="spacing" textLength="120" x="98" y="1380.7695">&#35760;&#24405;&#26412;&#27425;&#20462;&#27491;&#21518;&#30340;&#29702;&#35299;</text><ellipse cx="158" cy="1424.4063" fill="none" rx="11" ry="11" style="stroke:#222222;stroke-width:1;"/><ellipse cx="158" cy="1424.4063" fill="#222222" rx="6" ry="6" style="stroke:#222222;stroke-width:1;"/><line style="stroke:#181818;stroke-width:1;" x1="158" x2="158" y1="68.6094" y2="88.6094"/><polygon fill="#181818" points="154,78.6094,158,88.6094,162,78.6094,158,82.6094" style="stroke:#181818;stroke-width:1;"/><line style="stroke:#181818;stroke-width:1;" x1="158" x2="158" y1="123.7031" y2="143.7031"/><polygon fill="#181818" points="154,133.7031,158,143.7031,162,133.7031,158,137.7031" style="stroke:#181818;stroke-width:1;"/><line style="stroke:#181818;stroke-width:1;" x1="158" x2="158" y1="239.1719" y2="259.1719"/><polygon fill="#181818" points="154,249.1719,158,259.1719,162,249.1719,158,253.1719" style="stroke:#181818;stroke-width:1;"/><line style="stroke:#181818;stroke-width:1;" x1="158" x2="158" y1="294.2656" y2="314.2656"/><polygon fill="#181818" points="154,304.2656,158,314.2656,162,304.2656,158,308.2656" style="stroke:#181818;stroke-width:1;"/><line style="stroke:#181818;stroke-width:1;" x1="158" x2="158" y1="448.4531" y2="468.4531"/><polygon fill="#181818" points="154,458.4531,158,468.4531,162,458.4531,158,462.4531" style="stroke:#181818;stroke-width:1;"/><line style="stroke:#181818;stroke-width:1;" x1="158" x2="158" y1="503.5469" y2="523.5469"/><polygon fill="#181818" points="154,513.5469,158,523.5469,162,513.5469,158,517.5469" style="stroke:#181818;stroke-width:1;"/><line style="stroke:#181818;stroke-width:1;" x1="158" x2="158" y1="558.6406" y2="578.6406"/><polygon fill="#181818" points="154,568.6406,158,578.6406,162,568.6406,158,572.6406" style="stroke:#181818;stroke-width:1;"/><line style="stroke:#181818;stroke-width:1;" x1="158" x2="158" y1="613.7344" y2="633.7344"/><polygon fill="#181818" points="154,623.7344,158,633.7344,162,623.7344,158,627.7344" style="stroke:#181818;stroke-width:1;"/><line style="stroke:#181818;stroke-width:1;" x1="158" x2="158" y1="668.8281" y2="699.375"/><polygon fill="#181818" points="154,689.375,158,699.375,162,689.375,158,693.375" style="stroke:#181818;stroke-width:1;"/><line style="stroke:#181818;stroke-width:1;" x1="158" x2="158" y1="734.4688" y2="754.4688"/><polygon fill="#181818" points="154,744.4688,158,754.4688,162,744.4688,158,748.4688" style="stroke:#181818;stroke-width:1;"/><line style="stroke:#181818;stroke-width:1;" x1="81" x2="81" y1="878.6563" y2="898.6563"/><polygon fill="#181818" points="77,888.6563,81,898.6563,85,888.6563,81,892.6563" style="stroke:#181818;stroke-width:1;"/><line style="stroke:#181818;stroke-width:1;" x1="109.9412" x2="81" y1="821.5625" y2="821.5625"/><line style="stroke:#181818;stroke-width:1;" x1="81" x2="81" y1="821.5625" y2="843.5625"/><polygon fill="#181818" points="77,833.5625,81,843.5625,85,833.5625,81,837.5625" style="stroke:#181818;stroke-width:1;"/><line style="stroke:#181818;stroke-width:1;" x1="206.0588" x2="235" y1="821.5625" y2="821.5625"/><line style="stroke:#181818;stroke-width:1;" x1="235" x2="235" y1="821.5625" y2="843.5625"/><polygon fill="#181818" points="231,833.5625,235,843.5625,239,833.5625,235,837.5625" style="stroke:#181818;stroke-width:1;"/><line style="stroke:#181818;stroke-width:1;" x1="81" x2="81" y1="933.75" y2="951.75"/><line style="stroke:#181818;stroke-width:1;" x1="81" x2="146" y1="951.75" y2="951.75"/><polygon fill="#181818" points="136,947.75,146,951.75,136,955.75,140,951.75" style="stroke:#181818;stroke-width:1;"/><line style="stroke:#181818;stroke-width:1;" x1="235" x2="235" y1="878.6563" y2="951.75"/><line style="stroke:#181818;stroke-width:1;" x1="235" x2="170" y1="951.75" y2="951.75"/><polygon fill="#181818" points="180,947.75,170,951.75,180,955.75,176,951.75" style="stroke:#181818;stroke-width:1;"/><line style="stroke:#181818;stroke-width:1;" x1="158" x2="158" y1="789.5625" y2="809.5625"/><polygon fill="#181818" points="154,799.5625,158,809.5625,162,799.5625,158,803.5625" style="stroke:#181818;stroke-width:1;"/><line style="stroke:#181818;stroke-width:1;" x1="158" x2="158" y1="393.3594" y2="413.3594"/><polygon fill="#181818" points="154,403.3594,158,413.3594,162,403.3594,158,407.3594" style="stroke:#181818;stroke-width:1;"/><line style="stroke:#181818;stroke-width:1;" x1="200.5588" x2="313" y1="995.75" y2="995.75"/><polygon fill="#181818" points="309,688.8281,313,678.8281,317,688.8281,313,684.8281" style="stroke:#181818;stroke-width:1;"/><line style="stroke:#181818;stroke-width:1;" x1="313" x2="313" y1="381.3594" y2="995.75"/><line style="stroke:#181818;stroke-width:1;" x1="313" x2="170" y1="381.3594" y2="381.3594"/><polygon fill="#181818" points="180,377.3594,170,381.3594,180,385.3594,176,381.3594" style="stroke:#181818;stroke-width:1;"/><line style="stroke:#181818;stroke-width:1;" x1="158" x2="158" y1="963.75" y2="983.75"/><polygon fill="#181818" points="154,973.75,158,983.75,162,973.75,158,977.75" style="stroke:#181818;stroke-width:1;"/><line style="stroke:#181818;stroke-width:1;" x1="158" x2="158" y1="349.3594" y2="369.3594"/><polygon fill="#181818" points="154,359.3594,158,369.3594,162,359.3594,158,363.3594" style="stroke:#181818;stroke-width:1;"/><line style="stroke:#181818;stroke-width:1;" x1="158" x2="158" y1="1007.75" y2="1027.75"/><polygon fill="#181818" points="154,1017.75,158,1027.75,162,1017.75,158,1021.75" style="stroke:#181818;stroke-width:1;"/><line style="stroke:#181818;stroke-width:1;" x1="158" x2="158" y1="1062.8438" y2="1082.8438"/><polygon fill="#181818" points="154,1072.8438,158,1082.8438,162,1072.8438,158,1076.8438" style="stroke:#181818;stroke-width:1;"/><line style="stroke:#181818;stroke-width:1;" x1="158" x2="158" y1="1117.9375" y2="1137.9375"/><polygon fill="#181818" points="154,1127.9375,158,1137.9375,162,1127.9375,158,1131.9375" style="stroke:#181818;stroke-width:1;"/><line style="stroke:#181818;stroke-width:1;" x1="158" x2="158" y1="1173.0313" y2="1193.0313"/><polygon fill="#181818" points="154,1183.0313,158,1193.0313,162,1183.0313,158,1187.0313" style="stroke:#181818;stroke-width:1;"/><line style="stroke:#181818;stroke-width:1;" x1="158" x2="158" y1="1228.125" y2="1248.125"/><polygon fill="#181818" points="154,1238.125,158,1248.125,162,1238.125,158,1242.125" style="stroke:#181818;stroke-width:1;"/><line style="stroke:#181818;stroke-width:1;" x1="158" x2="158" y1="1283.2188" y2="1303.2188"/><polygon fill="#181818" points="154,1293.2188,158,1303.2188,162,1293.2188,158,1297.2188" style="stroke:#181818;stroke-width:1;"/><line style="stroke:#181818;stroke-width:1;" x1="158" x2="158" y1="1338.3125" y2="1358.3125"/><polygon fill="#181818" points="154,1348.3125,158,1358.3125,162,1348.3125,158,1352.3125" style="stroke:#181818;stroke-width:1;"/><line style="stroke:#181818;stroke-width:1;" x1="158" x2="158" y1="1393.4063" y2="1413.4063"/><polygon fill="#181818" points="154,1403.4063,158,1413.4063,162,1403.4063,158,1407.4063" style="stroke:#181818;stroke-width:1;"/><!--SRC=[NLFBJjjG4DtxA-uogAggRicYGghKRhhhifkqDM0Ht2WnQfS4uRmW3uayIG8r48WWiTEIKXCJ_2_8C_VwBpgnauBmmhgUENVcd3FZr8QY9cB9s2PxAw_6jkBQH_c7jX9NrjHDMTNO5th9IKbJjBZCe7ta6_Vyk2UiZ2Ibj5XIawHbpocnTuhsVkip-n1B91HrZO5vw4sBODt2f8fTWxVDgBICvGgKww1VYtGLCZgOjv_KbooindU23_-aITW8dE_WKGSx-QKWM6rH_5aGIiTqv9MCk3WLvWYcjIXHWTmPreT-kW5ka_VtO78UNGI9ExWPJ9_0MN6Haf9oGevf4gE7P5Iva_6Rkh0Sx_OSEmFsQjO6BlR4drsijw8X3a-tyRY7JGig1CfJCxmhptCBtNSYEvwpEDmbnNxL_A-JsWPOuRP1xpriTx3M0Zk7VGFkoW_RtKMfKLTODImKGgk4-PixBSXTUPC9L0OBKAVFdHo_iZnxo9q3FDg5_Je95Exe2M9YUtO1ytkGQM6fJ-ncmkQW0AMiiaXefUSKFRi8vZxMnc-McBOkgon2MfS2N52HEnVS6GftwZTCaRs4lx_WuDBFxi-CFxYFFWA5GOeTthR9W514c9JZAPb5oBqdHM5wWZbQ3ujqegrZxv2C8pv-jZ2_f7vLLXS3Oz_N5Lh72B6b2P1p_Bf0pX9X9JMdAytQWww73AbOg6-sXkqnraTiHTrG61GDdiy-1f-jCLt3vayOqVIpddD3k72euSAn5wyf4fwnSUCtni5qvv5mGKDkdcjWsde4TmOuC3pNnE4fL4fFoD4_zItn3m00]--></g></svg>