<svg xmlns="http://www.w3.org/2000/svg" xmlns:xlink="http://www.w3.org/1999/xlink" contentStyleType="text/css" data-diagram-type="ACTIVITY" height="1384px" preserveAspectRatio="none" style="width:416px;height:1384px;background:#FFFFFF;" version="1.1" viewBox="0 0 416 1384" width="416px" zoomAndPan="magnify"><title>&#29702;&#35299;&#30693;&#35782;</title><defs/><g><g class="title" data-source-line="2"><text fill="#000000" font-family="sans-serif" font-size="14" font-weight="bold" lengthAdjust="spacing" textLength="57.75" x="177.6838" y="34.5332">&#29702;&#35299;&#30693;&#35782;</text></g><ellipse cx="184.9468" cy="58.6094" fill="#222222" rx="10" ry="10" style="stroke:#222222;stroke-width:1;"/><rect fill="#F1F1F1" height="35.0938" rx="12.5" ry="12.5" style="stroke:#181818;stroke-width:0.5;" width="114.002" x="127.9458" y="88.6094"/><text fill="#000000" font-family="sans-serif" font-size="12" lengthAdjust="spacing" textLength="94.002" x="137.9458" y="111.0664">&#35835;&#21462;&#27010;&#24565; / &#30693;&#35782;&#28857;</text><polygon fill="#F1F1F1" points="137.8879,143.7031,232.0056,143.7031,244.0056,155.7031,232.0056,167.7031,137.8879,167.7031,125.8879,155.7031,137.8879,143.7031" style="stroke:#181818;stroke-width:0.5;"/><text fill="#000000" font-family="sans-serif" font-size="11" lengthAdjust="spacing" textLength="94.1177" x="137.8879" y="160.2041">&#26159;&#21542;&#20026;&#20851;&#38190;&#35789;&#30097;&#24785;?</text><text fill="#000000" font-family="sans-serif" font-size="11" lengthAdjust="spacing" textLength="11" x="114.8879" y="153.2861">&#26159;</text><text fill="#000000" font-family="sans-serif" font-size="11" lengthAdjust="spacing" textLength="11" x="244.0056" y="153.2861">&#21542;</text><rect fill="#F1F1F1" height="35.0938" rx="12.5" ry="12.5" style="stroke:#181818;stroke-width:0.5;" width="128" x="40.9468" y="177.7031"/><text fill="#000000" font-family="sans-serif" font-size="12" lengthAdjust="spacing" textLength="108" x="50.9468" y="200.1602">&#35782;&#21035;&#20026;&#20851;&#38190;&#26415;&#35821;&#38382;&#39064;</text><rect fill="#F1F1F1" height="35.0938" rx="12.5" ry="12.5" style="stroke:#181818;stroke-width:0.5;" width="152" x="188.9468" y="177.7031"/><text fill="#000000" font-family="sans-serif" font-size="12" lengthAdjust="spacing" textLength="132" x="198.9468" y="200.1602">&#35782;&#21035;&#20026;&#23436;&#25972;&#27010;&#24565;&#29702;&#35299;&#38382;&#39064;</text><polygon fill="#F1F1F1" points="184.9468,218.7969,196.9468,230.7969,184.9468,242.7969,172.9468,230.7969,184.9468,218.7969" style="stroke:#181818;stroke-width:0.5;"/><path d="M250.9468,252.7969 L250.9468,278.3242 L230.9468,282.3242 L250.9468,286.3242 L250.9468,311.8516 A0,0 0 0 0 250.9468,311.8516 L404.1177,311.8516 A0,0 0 0 0 404.1177,311.8516 L404.1177,262.7969 L394.1177,252.7969 L250.9468,252.7969 A0,0 0 0 0 250.9468,252.7969" fill="#FEFFDD" style="stroke:#181818;stroke-width:0.5;"/><path d="M394.1177,252.7969 L394.1177,262.7969 L404.1177,262.7969 L394.1177,252.7969" fill="#FEFFDD" style="stroke:#181818;stroke-width:0.5;"/><text fill="#000000" font-family="sans-serif" font-size="13" lengthAdjust="spacing" textLength="106.1709" x="269.9468" y="271.292">- &#20316;&#32773;&#23450;&#20041;&#30340;&#27010;&#24565;?</text><text fill="#000000" font-family="sans-serif" font-size="13" lengthAdjust="spacing" textLength="93.1709" x="276.4468" y="287.6436">- &#19987;&#19994;&#36890;&#29992;&#26415;&#35821;?</text><text fill="#000000" font-family="sans-serif" font-size="13" lengthAdjust="spacing" textLength="132.1709" x="256.9468" y="303.9951">- &#31532;&#19968;&#27425;&#25509;&#35302;&#30340;&#26032;&#27010;&#24565;?</text><rect fill="#F1F1F1" height="35.0938" rx="12.5" ry="12.5" style="stroke:#181818;stroke-width:0.5;" width="92" x="138.9468" y="264.7773"/><text fill="#000000" font-family="sans-serif" font-size="12" lengthAdjust="spacing" textLength="72" x="148.9468" y="287.2344">&#21028;&#26029;&#30693;&#35782;&#23646;&#24615;</text><rect fill="#F1F1F1" height="35.0938" rx="12.5" ry="12.5" style="stroke:#181818;stroke-width:0.5;" width="140" x="114.9468" y="331.8516"/><text fill="#000000" font-family="sans-serif" font-size="12" lengthAdjust="spacing" textLength="120" x="124.9468" y="354.3086">&#23581;&#35797;&#24314;&#31435;&#24050;&#26377;&#35748;&#30693;&#26144;&#23556;</text><polygon fill="#F1F1F1" points="137.8879,386.9453,232.0056,386.9453,244.0056,398.9453,232.0056,410.9453,137.8879,410.9453,125.8879,398.9453,137.8879,386.9453" style="stroke:#181818;stroke-width:0.5;"/><text fill="#000000" font-family="sans-serif" font-size="11" lengthAdjust="spacing" textLength="94.1177" x="137.8879" y="403.4463">&#26159;&#21542;&#24050;&#26377;&#31867;&#20284;&#35748;&#30693;?</text><text fill="#000000" font-family="sans-serif" font-size="11" lengthAdjust="spacing" textLength="11" x="114.8879" y="396.5283">&#26159;</text><text fill="#000000" font-family="sans-serif" font-size="11" lengthAdjust="spacing" textLength="11" x="244.0056" y="396.5283">&#21542;</text><rect fill="#F1F1F1" height="35.0938" rx="12.5" ry="12.5" style="stroke:#181818;stroke-width:0.5;" width="92" x="69.8879" y="420.9453"/><text fill="#000000" font-family="sans-serif" font-size="12" lengthAdjust="spacing" textLength="72" x="79.8879" y="443.4023">&#36827;&#34892;&#31867;&#27604;&#26144;&#23556;</text><rect fill="#F1F1F1" height="35.0938" rx="12.5" ry="12.5" style="stroke:#181818;stroke-width:0.5;" width="104" x="202.0056" y="420.9453"/><text fill="#000000" font-family="sans-serif" font-size="12" lengthAdjust="spacing" textLength="84" x="212.0056" y="443.4023">&#26500;&#24314;&#26032;&#35748;&#30693;&#33410;&#28857;</text><polygon fill="#F1F1F1" points="184.9468,462.0391,196.9468,474.0391,184.9468,486.0391,172.9468,474.0391,184.9468,462.0391" style="stroke:#181818;stroke-width:0.5;"/><rect fill="#F1F1F1" height="35.0938" rx="12.5" ry="12.5" style="stroke:#181818;stroke-width:0.5;" width="164.6738" x="102.6099" y="506.0391"/><text fill="#000000" font-family="sans-serif" font-size="12" lengthAdjust="spacing" textLength="144.6738" x="112.6099" y="528.4961">&#35831;&#27714; AI / &#22806;&#37096;&#36164;&#26009;&#36741;&#21161;&#35299;&#37322;</text><path d="M256.9468,551.1328 L256.9468,576.6602 L236.9468,580.6602 L256.9468,584.6602 L256.9468,610.1875 A0,0 0 0 0 256.9468,610.1875 L337.8877,610.1875 A0,0 0 0 0 337.8877,610.1875 L337.8877,561.1328 L327.8877,551.1328 L256.9468,551.1328 A0,0 0 0 0 256.9468,551.1328" fill="#FEFFDD" style="stroke:#181818;stroke-width:0.5;"/><path d="M327.8877,551.1328 L327.8877,561.1328 L337.8877,561.1328 L327.8877,551.1328" fill="#FEFFDD" style="stroke:#181818;stroke-width:0.5;"/><text fill="#000000" font-family="sans-serif" font-size="13" lengthAdjust="spacing" textLength="33.9409" x="275.9468" y="569.6279">- &#27604;&#21947;</text><text fill="#000000" font-family="sans-serif" font-size="13" lengthAdjust="spacing" textLength="59.9409" x="262.9468" y="585.9795">- &#20855;&#20307;&#23454;&#20363;</text><text fill="#000000" font-family="sans-serif" font-size="13" lengthAdjust="spacing" textLength="59.9409" x="262.9468" y="602.3311">- &#24515;&#26234;&#22270;&#20687;</text><rect fill="#F1F1F1" height="35.0938" rx="12.5" ry="12.5" style="stroke:#181818;stroke-width:0.5;" width="104" x="132.9468" y="563.1133"/><text fill="#000000" font-family="sans-serif" font-size="12" lengthAdjust="spacing" textLength="84" x="142.9468" y="585.5703">&#26500;&#24314;&#24418;&#35937;&#21270;&#27169;&#22411;</text><rect fill="#F1F1F1" height="35.0938" rx="12.5" ry="12.5" style="stroke:#181818;stroke-width:0.5;" width="147.9922" x="110.9507" y="630.1875"/><text fill="#000000" font-family="sans-serif" font-size="12" lengthAdjust="spacing" textLength="127.9922" x="120.9507" y="652.6445">&#22312;&#33041;&#20013;&#24314;&#31435;&#8220;&#21487;&#36816;&#34892;&#27169;&#22411;&#8221;</text><rect fill="#F1F1F1" height="35.0938" rx="12.5" ry="12.5" style="stroke:#181818;stroke-width:0.5;" width="92" x="138.9468" y="729.2813"/><text fill="#000000" font-family="sans-serif" font-size="12" lengthAdjust="spacing" textLength="72" x="148.9468" y="751.7383">&#20027;&#21160;&#22797;&#36848;&#29702;&#35299;</text><rect fill="#F1F1F1" height="35.0938" rx="12.5" ry="12.5" style="stroke:#181818;stroke-width:0.5;" width="128" x="120.9468" y="784.375"/><text fill="#000000" font-family="sans-serif" font-size="12" lengthAdjust="spacing" textLength="108" x="130.9468" y="806.832">&#23581;&#35797;&#29992;&#33258;&#24049;&#30340;&#35805;&#35299;&#37322;</text><rect fill="#F1F1F1" height="35.0938" rx="12.5" ry="12.5" style="stroke:#181818;stroke-width:0.5;" width="116" x="126.9468" y="839.4688"/><text fill="#000000" font-family="sans-serif" font-size="12" lengthAdjust="spacing" textLength="96" x="136.9468" y="861.9258">&#26816;&#26597;&#26159;&#21542;&#33021;&#35762;&#28165;&#26970;</text><rect fill="#F1F1F1" height="35.0938" rx="12.5" ry="12.5" style="stroke:#181818;stroke-width:0.5;" width="102.002" x="133.9458" y="943.4805"/><text fill="#000000" font-family="sans-serif" font-size="12" lengthAdjust="spacing" textLength="82.002" x="143.9458" y="965.9375">&#34917;&#20805;&#20363;&#23376; / &#27604;&#21947;</text><rect fill="#F1F1F1" height="35.0938" rx="12.5" ry="12.5" style="stroke:#181818;stroke-width:0.5;" width="92" x="138.9468" y="1013.5742"/><text fill="#000000" font-family="sans-serif" font-size="12" lengthAdjust="spacing" textLength="72" x="148.9468" y="1036.0313">&#37325;&#26032;&#26500;&#24314;&#27169;&#22411;</text><polygon fill="#F1F1F1" points="154.3879,894.5625,215.5056,894.5625,227.5056,906.5625,215.5056,918.5625,154.3879,918.5625,142.3879,906.5625,154.3879,894.5625" style="stroke:#181818;stroke-width:0.5;"/><text fill="#000000" font-family="sans-serif" font-size="11" lengthAdjust="spacing" textLength="11" x="188.9468" y="929.9814">&#26159;</text><text fill="#000000" font-family="sans-serif" font-size="11" lengthAdjust="spacing" textLength="61.1177" x="154.3879" y="911.0635">&#29702;&#35299;&#19981;&#31283;&#23450;?</text><polygon fill="#F1F1F1" points="184.9468,1068.668,196.9468,1080.668,184.9468,1092.668,172.9468,1080.668,184.9468,1068.668" style="stroke:#181818;stroke-width:0.5;"/><polygon fill="#F1F1F1" points="184.9468,685.2813,196.9468,697.2813,184.9468,709.2813,172.9468,697.2813,184.9468,685.2813" style="stroke:#181818;stroke-width:0.5;"/><polygon fill="#F1F1F1" points="154.3879,1112.668,215.5056,1112.668,227.5056,1124.668,215.5056,1136.668,154.3879,1136.668,142.3879,1124.668,154.3879,1112.668" style="stroke:#181818;stroke-width:0.5;"/><text fill="#000000" font-family="sans-serif" font-size="11" lengthAdjust="spacing" textLength="61.1177" x="154.3879" y="1129.1689">&#29702;&#35299;&#19981;&#29282;&#22266;?</text><text fill="#000000" font-family="sans-serif" font-size="11" lengthAdjust="spacing" textLength="11" x="227.5056" y="1122.251">&#26159;</text><rect fill="#F1F1F1" height="35.0938" rx="12.5" ry="12.5" style="stroke:#181818;stroke-width:0.5;" width="169.6719" x="100.1108" y="1156.668"/><text fill="#000000" font-family="sans-serif" font-size="12" lengthAdjust="spacing" textLength="149.6719" x="110.1108" y="1179.125">&#24378;&#21270;&#29702;&#35299; -&gt; &#36716;&#25442;&#20026;&#35760;&#24518;&#32467;&#26500;</text><path d="M10,1201.7617 L10,1260.8164 A0,0 0 0 0 10,1260.8164 L103.9409,1260.8164 A0,0 0 0 0 103.9409,1260.8164 L103.9409,1235.2891 L123.9409,1231.2891 L103.9409,1227.2891 L103.9409,1211.7617 L93.9409,1201.7617 L10,1201.7617 A0,0 0 0 0 10,1201.7617" fill="#FEFFDD" style="stroke:#181818;stroke-width:0.5;"/><path d="M93.9409,1201.7617 L93.9409,1211.7617 L103.9409,1211.7617 L93.9409,1201.7617" fill="#FEFFDD" style="stroke:#181818;stroke-width:0.5;"/><text fill="#000000" font-family="sans-serif" font-size="13" lengthAdjust="spacing" textLength="39" x="32.9705" y="1220.2568">&#29992;&#20110;&#65306;</text><text fill="#000000" font-family="sans-serif" font-size="13" lengthAdjust="spacing" textLength="59.9409" x="22.5" y="1236.6084">- &#20027;&#21160;&#22238;&#24518;</text><text fill="#000000" font-family="sans-serif" font-size="13" lengthAdjust="spacing" textLength="72.9409" x="16" y="1252.96">- &#38450;&#36951;&#24536;&#24378;&#21270;</text><rect fill="#F1F1F1" height="35.0938" rx="12.5" ry="12.5" style="stroke:#181818;stroke-width:0.5;" width="122.0117" x="123.9409" y="1213.7422"/><text fill="#000000" font-family="sans-serif" font-size="12" lengthAdjust="spacing" textLength="102.0117" x="133.9409" y="1236.1992">&#29983;&#25104; Anki &#24378;&#21270;&#21345;&#29255;</text><rect fill="#F1F1F1" height="50.1875" rx="12.5" ry="12.5" style="stroke:#181818;stroke-width:0.5;" width="170" x="99.9468" y="1280.8164"/><text fill="#000000" font-family="sans-serif" font-size="12" lengthAdjust="spacing" textLength="150" x="109.9468" y="1303.2734">&#21450;&#26102;&#24041;&#22266;(&#30701;&#21608;&#26399;&#22797;&#20064;&#35302;&#21457;)\n</text><text fill="#000000" font-family="sans-serif" font-size="12" lengthAdjust="spacing" textLength="126.668" x="121.6128" y="1318.3672">&#24403;&#20570;&#32769;&#24072;, &#22914;&#20309;&#35762;&#26126;&#30333;&#31561;</text><ellipse cx="184.9468" cy="1362.0039" fill="none" rx="11" ry="11" style="stroke:#222222;stroke-width:1;"/><ellipse cx="184.9468" cy="1362.0039" fill="#222222" rx="6" ry="6" style="stroke:#222222;stroke-width:1;"/><line style="stroke:#181818;stroke-width:1;" x1="184.9468" x2="184.9468" y1="68.6094" y2="88.6094"/><polygon fill="#181818" points="180.9468,78.6094,184.9468,88.6094,188.9468,78.6094,184.9468,82.6094" style="stroke:#181818;stroke-width:1;"/><line style="stroke:#181818;stroke-width:1;" x1="125.8879" x2="104.9468" y1="155.7031" y2="155.7031"/><line style="stroke:#181818;stroke-width:1;" x1="104.9468" x2="104.9468" y1="155.7031" y2="177.7031"/><polygon fill="#181818" points="100.9468,167.7031,104.9468,177.7031,108.9468,167.7031,104.9468,171.7031" style="stroke:#181818;stroke-width:1;"/><line style="stroke:#181818;stroke-width:1;" x1="244.0056" x2="264.9468" y1="155.7031" y2="155.7031"/><line style="stroke:#181818;stroke-width:1;" x1="264.9468" x2="264.9468" y1="155.7031" y2="177.7031"/><polygon fill="#181818" points="260.9468,167.7031,264.9468,177.7031,268.9468,167.7031,264.9468,171.7031" style="stroke:#181818;stroke-width:1;"/><line style="stroke:#181818;stroke-width:1;" x1="104.9468" x2="104.9468" y1="212.7969" y2="230.7969"/><line style="stroke:#181818;stroke-width:1;" x1="104.9468" x2="172.9468" y1="230.7969" y2="230.7969"/><polygon fill="#181818" points="162.9468,226.7969,172.9468,230.7969,162.9468,234.7969,166.9468,230.7969" style="stroke:#181818;stroke-width:1;"/><line style="stroke:#181818;stroke-width:1;" x1="264.9468" x2="264.9468" y1="212.7969" y2="230.7969"/><line style="stroke:#181818;stroke-width:1;" x1="264.9468" x2="196.9468" y1="230.7969" y2="230.7969"/><polygon fill="#181818" points="206.9468,226.7969,196.9468,230.7969,206.9468,234.7969,202.9468,230.7969" style="stroke:#181818;stroke-width:1;"/><line style="stroke:#181818;stroke-width:1;" x1="184.9468" x2="184.9468" y1="123.7031" y2="143.7031"/><polygon fill="#181818" points="180.9468,133.7031,184.9468,143.7031,188.9468,133.7031,184.9468,137.7031" style="stroke:#181818;stroke-width:1;"/><line style="stroke:#181818;stroke-width:1;" x1="184.9468" x2="184.9468" y1="242.7969" y2="264.7773"/><polygon fill="#181818" points="180.9468,254.7773,184.9468,264.7773,188.9468,254.7773,184.9468,258.7773" style="stroke:#181818;stroke-width:1;"/><line style="stroke:#181818;stroke-width:1;" x1="184.9468" x2="184.9468" y1="299.8711" y2="331.8516"/><polygon fill="#181818" points="180.9468,321.8516,184.9468,331.8516,188.9468,321.8516,184.9468,325.8516" style="stroke:#181818;stroke-width:1;"/><line style="stroke:#181818;stroke-width:1;" x1="125.8879" x2="115.8879" y1="398.9453" y2="398.9453"/><line style="stroke:#181818;stroke-width:1;" x1="115.8879" x2="115.8879" y1="398.9453" y2="420.9453"/><polygon fill="#181818" points="111.8879,410.9453,115.8879,420.9453,119.8879,410.9453,115.8879,414.9453" style="stroke:#181818;stroke-width:1;"/><line style="stroke:#181818;stroke-width:1;" x1="244.0056" x2="254.0056" y1="398.9453" y2="398.9453"/><line style="stroke:#181818;stroke-width:1;" x1="254.0056" x2="254.0056" y1="398.9453" y2="420.9453"/><polygon fill="#181818" points="250.0056,410.9453,254.0056,420.9453,258.0056,410.9453,254.0056,414.9453" style="stroke:#181818;stroke-width:1;"/><line style="stroke:#181818;stroke-width:1;" x1="115.8879" x2="115.8879" y1="456.0391" y2="474.0391"/><line style="stroke:#181818;stroke-width:1;" x1="115.8879" x2="172.9468" y1="474.0391" y2="474.0391"/><polygon fill="#181818" points="162.9468,470.0391,172.9468,474.0391,162.9468,478.0391,166.9468,474.0391" style="stroke:#181818;stroke-width:1;"/><line style="stroke:#181818;stroke-width:1;" x1="254.0056" x2="254.0056" y1="456.0391" y2="474.0391"/><line style="stroke:#181818;stroke-width:1;" x1="254.0056" x2="196.9468" y1="474.0391" y2="474.0391"/><polygon fill="#181818" points="206.9468,470.0391,196.9468,474.0391,206.9468,478.0391,202.9468,474.0391" style="stroke:#181818;stroke-width:1;"/><line style="stroke:#181818;stroke-width:1;" x1="184.9468" x2="184.9468" y1="366.9453" y2="386.9453"/><polygon fill="#181818" points="180.9468,376.9453,184.9468,386.9453,188.9468,376.9453,184.9468,380.9453" style="stroke:#181818;stroke-width:1;"/><line style="stroke:#181818;stroke-width:1;" x1="184.9468" x2="184.9468" y1="486.0391" y2="506.0391"/><polygon fill="#181818" points="180.9468,496.0391,184.9468,506.0391,188.9468,496.0391,184.9468,500.0391" style="stroke:#181818;stroke-width:1;"/><line style="stroke:#181818;stroke-width:1;" x1="184.9468" x2="184.9468" y1="541.1328" y2="563.1133"/><polygon fill="#181818" points="180.9468,553.1133,184.9468,563.1133,188.9468,553.1133,184.9468,557.1133" style="stroke:#181818;stroke-width:1;"/><line style="stroke:#181818;stroke-width:1;" x1="184.9468" x2="184.9468" y1="598.207" y2="630.1875"/><polygon fill="#181818" points="180.9468,620.1875,184.9468,630.1875,188.9468,620.1875,184.9468,624.1875" style="stroke:#181818;stroke-width:1;"/><line style="stroke:#181818;stroke-width:1;" x1="184.9468" x2="184.9468" y1="764.375" y2="784.375"/><polygon fill="#181818" points="180.9468,774.375,184.9468,784.375,188.9468,774.375,184.9468,778.375" style="stroke:#181818;stroke-width:1;"/><line style="stroke:#181818;stroke-width:1;" x1="184.9468" x2="184.9468" y1="819.4688" y2="839.4688"/><polygon fill="#181818" points="180.9468,829.4688,184.9468,839.4688,188.9468,829.4688,184.9468,833.4688" style="stroke:#181818;stroke-width:1;"/><line style="stroke:#181818;stroke-width:1;" x1="184.9468" x2="184.9468" y1="978.5742" y2="1013.5742"/><polygon fill="#181818" points="180.9468,1003.5742,184.9468,1013.5742,188.9468,1003.5742,184.9468,1007.5742" style="stroke:#181818;stroke-width:1;"/><line style="stroke:#181818;stroke-width:1;" x1="184.9468" x2="184.9468" y1="918.5625" y2="943.4805"/><polygon fill="#181818" points="180.9468,933.4805,184.9468,943.4805,188.9468,933.4805,184.9468,937.4805" style="stroke:#181818;stroke-width:1;"/><line style="stroke:#181818;stroke-width:1;" x1="227.5056" x2="245.9478" y1="906.5625" y2="906.5625"/><polygon fill="#181818" points="241.9478,986.0742,245.9478,996.0742,249.9478,986.0742,245.9478,990.0742" style="stroke:#181818;stroke-width:1;"/><line style="stroke:#181818;stroke-width:1;" x1="245.9478" x2="245.9478" y1="906.5625" y2="1080.668"/><line style="stroke:#181818;stroke-width:1;" x1="245.9478" x2="196.9468" y1="1080.668" y2="1080.668"/><polygon fill="#181818" points="206.9468,1076.668,196.9468,1080.668,206.9468,1084.668,202.9468,1080.668" style="stroke:#181818;stroke-width:1;"/><line style="stroke:#181818;stroke-width:1;" x1="184.9468" x2="184.9468" y1="1048.668" y2="1068.668"/><polygon fill="#181818" points="180.9468,1058.668,184.9468,1068.668,188.9468,1058.668,184.9468,1062.668" style="stroke:#181818;stroke-width:1;"/><line style="stroke:#181818;stroke-width:1;" x1="184.9468" x2="184.9468" y1="874.5625" y2="894.5625"/><polygon fill="#181818" points="180.9468,884.5625,184.9468,894.5625,188.9468,884.5625,184.9468,888.5625" style="stroke:#181818;stroke-width:1;"/><line style="stroke:#181818;stroke-width:1;" x1="184.9468" x2="184.9468" y1="709.2813" y2="729.2813"/><polygon fill="#181818" points="180.9468,719.2813,184.9468,729.2813,188.9468,719.2813,184.9468,723.2813" style="stroke:#181818;stroke-width:1;"/><line style="stroke:#181818;stroke-width:1;" x1="227.5056" x2="269.9478" y1="1124.668" y2="1124.668"/><polygon fill="#181818" points="265.9478,900.9336,269.9478,890.9336,273.9478,900.9336,269.9478,896.9336" style="stroke:#181818;stroke-width:1;"/><line style="stroke:#181818;stroke-width:1;" x1="269.9478" x2="269.9478" y1="697.2813" y2="1124.668"/><line style="stroke:#181818;stroke-width:1;" x1="269.9478" x2="196.9468" y1="697.2813" y2="697.2813"/><polygon fill="#181818" points="206.9468,693.2813,196.9468,697.2813,206.9468,701.2813,202.9468,697.2813" style="stroke:#181818;stroke-width:1;"/><line style="stroke:#181818;stroke-width:1;" x1="184.9468" x2="184.9468" y1="1092.668" y2="1112.668"/><polygon fill="#181818" points="180.9468,1102.668,184.9468,1112.668,188.9468,1102.668,184.9468,1106.668" style="stroke:#181818;stroke-width:1;"/><line style="stroke:#181818;stroke-width:1;" x1="184.9468" x2="184.9468" y1="665.2813" y2="685.2813"/><polygon fill="#181818" points="180.9468,675.2813,184.9468,685.2813,188.9468,675.2813,184.9468,679.2813" style="stroke:#181818;stroke-width:1;"/><line style="stroke:#181818;stroke-width:1;" x1="184.9468" x2="184.9468" y1="1136.668" y2="1156.668"/><polygon fill="#181818" points="180.9468,1146.668,184.9468,1156.668,188.9468,1146.668,184.9468,1150.668" style="stroke:#181818;stroke-width:1;"/><line style="stroke:#181818;stroke-width:1;" x1="184.9468" x2="184.9468" y1="1191.7617" y2="1213.7422"/><polygon fill="#181818" points="180.9468,1203.7422,184.9468,1213.7422,188.9468,1203.7422,184.9468,1207.7422" style="stroke:#181818;stroke-width:1;"/><line style="stroke:#181818;stroke-width:1;" x1="184.9468" x2="184.9468" y1="1248.8359" y2="1280.8164"/><polygon fill="#181818" points="180.9468,1270.8164,184.9468,1280.8164,188.9468,1270.8164,184.9468,1274.8164" style="stroke:#181818;stroke-width:1;"/><line style="stroke:#181818;stroke-width:1;" x1="184.9468" x2="184.9468" y1="1331.0039" y2="1351.0039"/><polygon fill="#181818" points="180.9468,1341.0039,184.9468,1351.0039,188.9468,1341.0039,184.9468,1345.0039" style="stroke:#181818;stroke-width:1;"/><!--SRC=[RPHFJnf16CRl-odcg4bDxvBKcFJIUu-za7RHZOW6jccFA_z14OY820Y2W5XX5xIMbJ_oNSo-CxEdVeM-ou2jrJsGxBxlFEyplsU6m9RYstNxtTlalUnnV_Mg7-NlwhfNsV1jopwLVCOVsI-fYkgL2Sj4-UK5gpQv4PMaWEhsgvAqoeqHfFEq5OJf7NbBH9a5xrsIf7Z84YqOa6bPvX0YjtPEvqQAvRCqb5rR9kgcx9irB4i47rIAGlpwgPMM3MvqxHFThXTSakmDo6G9fLuqwmVq-AUOBnm-BV5zKJpe4E8DckyAOz2lKEtI9VbsL9dubOrDTIQtGgn9cMiHq8lMVO8Lmq9lRL4qZoopQ6j5bciBMuiAwtGiKwET6ZriyikMipBVMon60yGPv7ZedN7Z64P3ThqFWnjQJd2zWPPeuHnwuMUiH9drHzPuB9fUOpKjyTe1Db4Zjz3u7n6jX74W-X4gF1cSnRB0meq1xGV9-WTC3HfvEzJcT-Z-b3z487dbS8mbqTXS1YPrtg_1GPwsQr3PVuKWEe7yQFu2aO4rEGAzOZtiBpvDG_Hq2AK72AMVeIctUJXhcLr1vr4hGzhWqmpkJynwrCxGXr_UbTrYrgfbZY3PXaQAJtiYSvSe2CoO4e_zW44Vu-36sM8h0ig5HXti3caUcd3zXfeHsYpY1AVkn20KBJF5shTu85xI5mdKcX29uFQWcq62OlUkltKxbdAEWiXWpimfpF6BxP1lcmhUh7z69kfG6k989J0VY836G-GkMiZAEy8d7Pgguz7dUW-cKJOwmYbEKYnNfV4CMVTjAKGiWbID9MBpiBooH_13FjRmyFUu-7IyPpXB5LIRVx8BD_RU2KmBGkTPNkaaFVa5WoiqkiIgNSZYdQXY6DRzELu1I6UNF_aamFJtYbpR0pF-Xa0hQ4sE7TY5GtOwOTs4o_a7sTdz0m00]--></g></svg>