<svg xmlns="http://www.w3.org/2000/svg" xmlns:xlink="http://www.w3.org/1999/xlink" contentStyleType="text/css" data-diagram-type="CLASS" height="311px" preserveAspectRatio="none" style="width:1186px;height:311px;background:#FFFFFF;" version="1.1" viewBox="0 0 1186 311" width="1186px" zoomAndPan="magnify"><defs/><g><!--class ??--><g class="entity" data-entity="&#22797;&#25968;" data-source-line="4" data-uid="ent0002" id="entity_&#22797;&#25968;"><rect fill="#F1F1F1" height="100.8281" rx="2.5" ry="2.5" style="stroke:#181818;stroke-width:0.5;" width="100.3066" x="73" y="7"/><ellipse cx="106.138" cy="23" fill="#ADD1B2" rx="11" ry="11" style="stroke:#181818;stroke-width:1;"/><path d="M108.9036,18.875 Q109.0599,18.6563 109.2474,18.5469 Q109.4349,18.4375 109.6536,18.4375 Q110.0286,18.4375 110.263,18.7031 Q110.4974,18.9531 110.4974,19.5625 L110.4974,21.0156 Q110.4974,21.625 110.263,21.8906 Q110.0286,22.1563 109.6536,22.1563 Q109.3099,22.1563 109.1067,21.9531 Q108.9036,21.7656 108.7942,21.25 Q108.7474,20.8906 108.5599,20.7031 Q108.2317,20.3281 107.6224,20.1094 Q107.013,19.8906 106.388,19.8906 Q105.6224,19.8906 104.9817,20.2188 Q104.3567,20.5469 103.8567,21.2969 Q103.3724,22.0469 103.3724,23.0781 L103.3724,24.1719 Q103.3724,25.4063 104.263,26.2344 Q105.1536,27.0469 106.7474,27.0469 Q107.6849,27.0469 108.3411,26.7969 Q108.7317,26.6406 109.1536,26.2031 Q109.4192,25.9375 109.5599,25.8594 Q109.7161,25.7813 109.9192,25.7813 Q110.2474,25.7813 110.4974,26.0469 Q110.763,26.2969 110.763,26.6406 Q110.763,26.9844 110.4192,27.3906 Q109.9192,27.9688 109.1224,28.2969 Q108.0442,28.75 106.7474,28.75 Q105.2317,28.75 104.0286,28.125 Q103.0442,27.625 102.3567,26.5625 Q101.6692,25.4844 101.6692,24.2031 L101.6692,23.0469 Q101.6692,21.7188 102.2786,20.5781 Q102.9036,19.4219 103.9974,18.8125 Q105.0911,18.1875 106.3255,18.1875 Q107.0599,18.1875 107.7005,18.3594 Q108.3567,18.5156 108.9036,18.875 Z " fill="#000000"/><text fill="#000000" font-family="sans-serif" font-size="14" lengthAdjust="spacing" textLength="28" x="124.1687" y="28.7285">&#22797;&#25968;</text><line style="stroke:#181818;stroke-width:0.5;" x1="74" x2="172.3066" y1="39" y2="39"/><ellipse cx="84" cy="53.3047" fill="none" rx="3" ry="3" style="stroke:#038048;stroke-width:1;"/><text fill="#000000" font-family="sans-serif" font-size="14" lengthAdjust="spacing" textLength="74.3066" x="93" y="57.5332">a + bi : &#20803;&#32032;</text><line style="stroke:#181818;stroke-width:0.5;" x1="74" x2="172.3066" y1="64.6094" y2="64.6094"/><ellipse cx="84" cy="78.9141" fill="#84BE84" rx="3" ry="3" style="stroke:#038048;stroke-width:1;"/><text fill="#000000" font-family="sans-serif" font-size="14" lengthAdjust="spacing" textLength="37.3242" x="93" y="83.1426">&#21152;&#27861;()</text><ellipse cx="84" cy="96.5234" fill="#84BE84" rx="3" ry="3" style="stroke:#038048;stroke-width:1;"/><text fill="#000000" font-family="sans-serif" font-size="14" lengthAdjust="spacing" textLength="37.3242" x="93" y="100.752">&#20056;&#27861;()</text></g><!--class R2--><g class="entity" data-entity="R2" data-source-line="10" data-uid="ent0003" id="entity_R2"><rect fill="#F1F1F1" height="100.8281" rx="2.5" ry="2.5" style="stroke:#181818;stroke-width:0.5;" width="88.9932" x="241.5" y="7"/><ellipse cx="274.0935" cy="23" fill="#ADD1B2" rx="11" ry="11" style="stroke:#181818;stroke-width:1;"/><path d="M276.8591,18.875 Q277.0154,18.6563 277.2029,18.5469 Q277.3904,18.4375 277.6091,18.4375 Q277.9841,18.4375 278.2185,18.7031 Q278.4529,18.9531 278.4529,19.5625 L278.4529,21.0156 Q278.4529,21.625 278.2185,21.8906 Q277.9841,22.1563 277.6091,22.1563 Q277.2654,22.1563 277.0623,21.9531 Q276.8591,21.7656 276.7498,21.25 Q276.7029,20.8906 276.5154,20.7031 Q276.1873,20.3281 275.5779,20.1094 Q274.9685,19.8906 274.3435,19.8906 Q273.5779,19.8906 272.9373,20.2188 Q272.3123,20.5469 271.8123,21.2969 Q271.3279,22.0469 271.3279,23.0781 L271.3279,24.1719 Q271.3279,25.4063 272.2185,26.2344 Q273.1091,27.0469 274.7029,27.0469 Q275.6404,27.0469 276.2966,26.7969 Q276.6873,26.6406 277.1091,26.2031 Q277.3748,25.9375 277.5154,25.8594 Q277.6716,25.7813 277.8748,25.7813 Q278.2029,25.7813 278.4529,26.0469 Q278.7185,26.2969 278.7185,26.6406 Q278.7185,26.9844 278.3748,27.3906 Q277.8748,27.9688 277.0779,28.2969 Q275.9998,28.75 274.7029,28.75 Q273.1873,28.75 271.9841,28.125 Q270.9998,27.625 270.3123,26.5625 Q269.6248,25.4844 269.6248,24.2031 L269.6248,23.0469 Q269.6248,21.7188 270.2341,20.5781 Q270.8591,19.4219 271.9529,18.8125 Q273.0466,18.1875 274.281,18.1875 Q275.0154,18.1875 275.656,18.3594 Q276.3123,18.5156 276.8591,18.875 Z " fill="#000000"/><text fill="#000000" font-family="sans-serif" font-size="14" lengthAdjust="spacing" textLength="17.8965" x="292.0032" y="28.7285">R2</text><line style="stroke:#181818;stroke-width:0.5;" x1="242.5" x2="329.4932" y1="39" y2="39"/><ellipse cx="252.5" cy="53.3047" fill="#84BE84" rx="3" ry="3" style="stroke:#038048;stroke-width:1;"/><text fill="#000000" font-family="sans-serif" font-size="14" lengthAdjust="spacing" textLength="62.9932" x="261.5" y="57.5332">(x, y):&#20803;&#32032;</text><line style="stroke:#181818;stroke-width:1;" x1="242.5" x2="329.4932" y1="64.6094" y2="64.6094"/><ellipse cx="265.3345" cy="78.9141" fill="#84BE84" rx="3" ry="3" style="stroke:#038048;stroke-width:1;"/><text fill="#000000" font-family="sans-serif" font-size="14" lengthAdjust="spacing" textLength="37.3242" x="274.3345" y="83.1426">&#21152;&#27861;()</text><ellipse cx="265.3345" cy="96.5234" fill="#84BE84" rx="3" ry="3" style="stroke:#038048;stroke-width:1;"/><text fill="#000000" font-family="sans-serif" font-size="14" lengthAdjust="spacing" textLength="37.3242" x="274.3345" y="100.752">&#25968;&#20056;()</text></g><!--class Rn--><g class="entity" data-entity="Rn" data-source-line="17" data-uid="ent0004" id="entity_Rn"><rect fill="#F1F1F1" height="100.8281" rx="2.5" ry="2.5" style="stroke:#181818;stroke-width:0.5;" width="146.5791" x="370.5" y="7"/><ellipse cx="430.5913" cy="23" fill="#ADD1B2" rx="11" ry="11" style="stroke:#181818;stroke-width:1;"/><path d="M433.3569,18.875 Q433.5132,18.6563 433.7007,18.5469 Q433.8882,18.4375 434.1069,18.4375 Q434.4819,18.4375 434.7163,18.7031 Q434.9507,18.9531 434.9507,19.5625 L434.9507,21.0156 Q434.9507,21.625 434.7163,21.8906 Q434.4819,22.1563 434.1069,22.1563 Q433.7632,22.1563 433.5601,21.9531 Q433.3569,21.7656 433.2476,21.25 Q433.2007,20.8906 433.0132,20.7031 Q432.6851,20.3281 432.0757,20.1094 Q431.4663,19.8906 430.8413,19.8906 Q430.0757,19.8906 429.4351,20.2188 Q428.8101,20.5469 428.3101,21.2969 Q427.8257,22.0469 427.8257,23.0781 L427.8257,24.1719 Q427.8257,25.4063 428.7163,26.2344 Q429.6069,27.0469 431.2007,27.0469 Q432.1382,27.0469 432.7944,26.7969 Q433.1851,26.6406 433.6069,26.2031 Q433.8726,25.9375 434.0132,25.8594 Q434.1694,25.7813 434.3726,25.7813 Q434.7007,25.7813 434.9507,26.0469 Q435.2163,26.2969 435.2163,26.6406 Q435.2163,26.9844 434.8726,27.3906 Q434.3726,27.9688 433.5757,28.2969 Q432.4976,28.75 431.2007,28.75 Q429.6851,28.75 428.4819,28.125 Q427.4976,27.625 426.8101,26.5625 Q426.1226,25.4844 426.1226,24.2031 L426.1226,23.0469 Q426.1226,21.7188 426.7319,20.5781 Q427.3569,19.4219 428.4507,18.8125 Q429.5444,18.1875 430.7788,18.1875 Q431.5132,18.1875 432.1538,18.3594 Q432.8101,18.5156 433.3569,18.875 Z " fill="#000000"/><text fill="#000000" font-family="sans-serif" font-size="14" lengthAdjust="spacing" textLength="17.8965" x="451.0913" y="28.7285">Rn</text><line style="stroke:#181818;stroke-width:0.5;" x1="371.5" x2="516.0791" y1="39" y2="39"/><ellipse cx="381.5" cy="53.3047" fill="#84BE84" rx="3" ry="3" style="stroke:#038048;stroke-width:1;"/><text fill="#000000" font-family="sans-serif" font-size="14" lengthAdjust="spacing" textLength="120.5791" x="390.5" y="57.5332">(x1, x2, ..., xn):&#20803;&#32032;</text><line style="stroke:#181818;stroke-width:1;" x1="371.5" x2="516.0791" y1="64.6094" y2="64.6094"/><ellipse cx="423.1274" cy="78.9141" fill="#84BE84" rx="3" ry="3" style="stroke:#038048;stroke-width:1;"/><text fill="#000000" font-family="sans-serif" font-size="14" lengthAdjust="spacing" textLength="37.3242" x="432.1274" y="83.1426">&#21152;&#27861;()</text><ellipse cx="423.1274" cy="96.5234" fill="#84BE84" rx="3" ry="3" style="stroke:#038048;stroke-width:1;"/><text fill="#000000" font-family="sans-serif" font-size="14" lengthAdjust="spacing" textLength="37.3242" x="432.1274" y="100.752">&#25968;&#20056;()</text></g><!--class ????--><g class="entity" data-entity="&#20989;&#25968;&#31354;&#38388;" data-source-line="24" data-uid="ent0005" id="entity_&#20989;&#25968;&#31354;&#38388;"><rect fill="#F1F1F1" height="100.8281" rx="2.5" ry="2.5" style="stroke:#181818;stroke-width:0.5;" width="88" x="998" y="7"/><ellipse cx="1013" cy="23" fill="#ADD1B2" rx="11" ry="11" style="stroke:#181818;stroke-width:1;"/><path d="M1015.7656,18.875 Q1015.9219,18.6563 1016.1094,18.5469 Q1016.2969,18.4375 1016.5156,18.4375 Q1016.8906,18.4375 1017.125,18.7031 Q1017.3594,18.9531 1017.3594,19.5625 L1017.3594,21.0156 Q1017.3594,21.625 1017.125,21.8906 Q1016.8906,22.1563 1016.5156,22.1563 Q1016.1719,22.1563 1015.9688,21.9531 Q1015.7656,21.7656 1015.6563,21.25 Q1015.6094,20.8906 1015.4219,20.7031 Q1015.0938,20.3281 1014.4844,20.1094 Q1013.875,19.8906 1013.25,19.8906 Q1012.4844,19.8906 1011.8438,20.2188 Q1011.2188,20.5469 1010.7188,21.2969 Q1010.2344,22.0469 1010.2344,23.0781 L1010.2344,24.1719 Q1010.2344,25.4063 1011.125,26.2344 Q1012.0156,27.0469 1013.6094,27.0469 Q1014.5469,27.0469 1015.2031,26.7969 Q1015.5938,26.6406 1016.0156,26.2031 Q1016.2813,25.9375 1016.4219,25.8594 Q1016.5781,25.7813 1016.7813,25.7813 Q1017.1094,25.7813 1017.3594,26.0469 Q1017.625,26.2969 1017.625,26.6406 Q1017.625,26.9844 1017.2813,27.3906 Q1016.7813,27.9688 1015.9844,28.2969 Q1014.9063,28.75 1013.6094,28.75 Q1012.0938,28.75 1010.8906,28.125 Q1009.9063,27.625 1009.2188,26.5625 Q1008.5313,25.4844 1008.5313,24.2031 L1008.5313,23.0469 Q1008.5313,21.7188 1009.1406,20.5781 Q1009.7656,19.4219 1010.8594,18.8125 Q1011.9531,18.1875 1013.1875,18.1875 Q1013.9219,18.1875 1014.5625,18.3594 Q1015.2188,18.5156 1015.7656,18.875 Z " fill="#000000"/><text fill="#000000" font-family="sans-serif" font-size="14" lengthAdjust="spacing" textLength="56" x="1027" y="28.7285">&#20989;&#25968;&#31354;&#38388;</text><line style="stroke:#181818;stroke-width:0.5;" x1="999" x2="1085" y1="39" y2="39"/><ellipse cx="1009" cy="53.3047" fill="#84BE84" rx="3" ry="3" style="stroke:#038048;stroke-width:1;"/><text fill="#000000" font-family="sans-serif" font-size="14" lengthAdjust="spacing" textLength="52.1035" x="1018" y="57.5332">f(x):&#20803;&#32032;</text><line style="stroke:#181818;stroke-width:1;" x1="999" x2="1085" y1="64.6094" y2="64.6094"/><ellipse cx="1016.3896" cy="78.9141" fill="#84BE84" rx="3" ry="3" style="stroke:#038048;stroke-width:1;"/><text fill="#000000" font-family="sans-serif" font-size="14" lengthAdjust="spacing" textLength="37.3242" x="1025.3896" y="83.1426">&#21152;&#27861;()</text><ellipse cx="1016.3896" cy="96.5234" fill="#84BE84" rx="3" ry="3" style="stroke:#038048;stroke-width:1;"/><text fill="#000000" font-family="sans-serif" font-size="14" lengthAdjust="spacing" textLength="37.3242" x="1025.3896" y="100.752">&#25968;&#20056;()</text></g><!--class ?????--><g class="entity" data-entity="&#22810;&#39033;&#24335;&#31354;&#38388;" data-source-line="31" data-uid="ent0006" id="entity_&#22810;&#39033;&#24335;&#31354;&#38388;"><rect fill="#F1F1F1" height="100.8281" rx="2.5" ry="2.5" style="stroke:#181818;stroke-width:0.5;" width="102" x="723" y="7"/><ellipse cx="738" cy="23" fill="#ADD1B2" rx="11" ry="11" style="stroke:#181818;stroke-width:1;"/><path d="M740.7656,18.875 Q740.9219,18.6563 741.1094,18.5469 Q741.2969,18.4375 741.5156,18.4375 Q741.8906,18.4375 742.125,18.7031 Q742.3594,18.9531 742.3594,19.5625 L742.3594,21.0156 Q742.3594,21.625 742.125,21.8906 Q741.8906,22.1563 741.5156,22.1563 Q741.1719,22.1563 740.9688,21.9531 Q740.7656,21.7656 740.6563,21.25 Q740.6094,20.8906 740.4219,20.7031 Q740.0938,20.3281 739.4844,20.1094 Q738.875,19.8906 738.25,19.8906 Q737.4844,19.8906 736.8438,20.2188 Q736.2188,20.5469 735.7188,21.2969 Q735.2344,22.0469 735.2344,23.0781 L735.2344,24.1719 Q735.2344,25.4063 736.125,26.2344 Q737.0156,27.0469 738.6094,27.0469 Q739.5469,27.0469 740.2031,26.7969 Q740.5938,26.6406 741.0156,26.2031 Q741.2813,25.9375 741.4219,25.8594 Q741.5781,25.7813 741.7813,25.7813 Q742.1094,25.7813 742.3594,26.0469 Q742.625,26.2969 742.625,26.6406 Q742.625,26.9844 742.2813,27.3906 Q741.7813,27.9688 740.9844,28.2969 Q739.9063,28.75 738.6094,28.75 Q737.0938,28.75 735.8906,28.125 Q734.9063,27.625 734.2188,26.5625 Q733.5313,25.4844 733.5313,24.2031 L733.5313,23.0469 Q733.5313,21.7188 734.1406,20.5781 Q734.7656,19.4219 735.8594,18.8125 Q736.9531,18.1875 738.1875,18.1875 Q738.9219,18.1875 739.5625,18.3594 Q740.2188,18.5156 740.7656,18.875 Z " fill="#000000"/><text fill="#000000" font-family="sans-serif" font-size="14" lengthAdjust="spacing" textLength="70" x="752" y="28.7285">&#22810;&#39033;&#24335;&#31354;&#38388;</text><line style="stroke:#181818;stroke-width:0.5;" x1="724" x2="824" y1="39" y2="39"/><ellipse cx="734" cy="53.3047" fill="#84BE84" rx="3" ry="3" style="stroke:#038048;stroke-width:1;"/><text fill="#000000" font-family="sans-serif" font-size="14" lengthAdjust="spacing" textLength="56" x="743" y="57.5332">p(x):&#20803;&#32032;</text><line style="stroke:#181818;stroke-width:1;" x1="724" x2="824" y1="64.6094" y2="64.6094"/><ellipse cx="743.3379" cy="78.9141" fill="#84BE84" rx="3" ry="3" style="stroke:#038048;stroke-width:1;"/><text fill="#000000" font-family="sans-serif" font-size="14" lengthAdjust="spacing" textLength="37.3242" x="752.3379" y="83.1426">&#21152;&#27861;()</text><ellipse cx="743.3379" cy="96.5234" fill="#84BE84" rx="3" ry="3" style="stroke:#038048;stroke-width:1;"/><text fill="#000000" font-family="sans-serif" font-size="14" lengthAdjust="spacing" textLength="37.3242" x="752.3379" y="100.752">&#25968;&#20056;()</text></g><!--class ????--><g class="entity" data-entity="&#21521;&#37327;&#31354;&#38388;" data-source-line="38" data-uid="ent0007" id="entity_&#21521;&#37327;&#31354;&#38388;"><rect fill="#F1F1F1" height="118.4375" rx="2.5" ry="2.5" style="stroke:#181818;stroke-width:0.5;" width="91.3242" x="398.5" y="186"/><ellipse cx="414.9959" cy="202" fill="#ADD1B2" rx="11" ry="11" style="stroke:#181818;stroke-width:1;"/><path d="M417.7615,197.875 Q417.9178,197.6563 418.1053,197.5469 Q418.2928,197.4375 418.5115,197.4375 Q418.8865,197.4375 419.1209,197.7031 Q419.3553,197.9531 419.3553,198.5625 L419.3553,200.0156 Q419.3553,200.625 419.1209,200.8906 Q418.8865,201.1563 418.5115,201.1563 Q418.1678,201.1563 417.9646,200.9531 Q417.7615,200.7656 417.6521,200.25 Q417.6053,199.8906 417.4178,199.7031 Q417.0896,199.3281 416.4803,199.1094 Q415.8709,198.8906 415.2459,198.8906 Q414.4803,198.8906 413.8396,199.2188 Q413.2146,199.5469 412.7146,200.2969 Q412.2303,201.0469 412.2303,202.0781 L412.2303,203.1719 Q412.2303,204.4063 413.1209,205.2344 Q414.0115,206.0469 415.6053,206.0469 Q416.5428,206.0469 417.199,205.7969 Q417.5896,205.6406 418.0115,205.2031 Q418.2771,204.9375 418.4178,204.8594 Q418.574,204.7813 418.7771,204.7813 Q419.1053,204.7813 419.3553,205.0469 Q419.6209,205.2969 419.6209,205.6406 Q419.6209,205.9844 419.2771,206.3906 Q418.7771,206.9688 417.9803,207.2969 Q416.9021,207.75 415.6053,207.75 Q414.0896,207.75 412.8865,207.125 Q411.9021,206.625 411.2146,205.5625 Q410.5271,204.4844 410.5271,203.2031 L410.5271,202.0469 Q410.5271,200.7188 411.1365,199.5781 Q411.7615,198.4219 412.8553,197.8125 Q413.949,197.1875 415.1834,197.1875 Q415.9178,197.1875 416.5584,197.3594 Q417.2146,197.5156 417.7615,197.875 Z " fill="#000000"/><text fill="#000000" font-family="sans-serif" font-size="14" lengthAdjust="spacing" textLength="56" x="429.3283" y="207.7285">&#21521;&#37327;&#31354;&#38388;</text><line style="stroke:#181818;stroke-width:0.5;" x1="399.5" x2="488.8242" y1="218" y2="218"/><ellipse cx="409.5" cy="232.3047" fill="none" rx="3" ry="3" style="stroke:#038048;stroke-width:1;"/><text fill="#000000" font-family="sans-serif" font-size="14" lengthAdjust="spacing" textLength="28" x="418.5" y="236.5332">&#20803;&#32032;</text><line style="stroke:#181818;stroke-width:0.5;" x1="399.5" x2="488.8242" y1="243.6094" y2="243.6094"/><ellipse cx="409.5" cy="257.9141" fill="#84BE84" rx="3" ry="3" style="stroke:#038048;stroke-width:1;"/><text fill="#000000" font-family="sans-serif" font-size="14" lengthAdjust="spacing" textLength="65.3242" x="418.5" y="262.1426">&#21521;&#37327;&#21152;&#27861;()</text><ellipse cx="409.5" cy="275.5234" fill="#84BE84" rx="3" ry="3" style="stroke:#038048;stroke-width:1;"/><text fill="#000000" font-family="sans-serif" font-size="14" lengthAdjust="spacing" textLength="37.3242" x="418.5" y="279.752">&#25968;&#20056;()</text><ellipse cx="409.5" cy="293.1328" fill="#84BE84" rx="3" ry="3" style="stroke:#038048;stroke-width:1;"/><text fill="#000000" font-family="sans-serif" font-size="14" lengthAdjust="spacing" textLength="37.3242" x="418.5" y="297.3613">&#20844;&#29702;()</text></g><g class="entity" data-entity="GMN13" data-source-line="52" data-uid="ent0014" id="entity_GMN13"><path d="M524.5,191 L524.5,241 L489.75,245 L524.5,249 L524.5,299.1094 A0,0 0 0 0 524.5,299.1094 L747.7236,299.1094 A0,0 0 0 0 747.7236,299.1094 L747.7236,201 L737.7236,191 L524.5,191 A0,0 0 0 0 524.5,191" fill="#FEFFDD" style="stroke:#181818;stroke-width:0.5;"/><path d="M737.7236,191 L737.7236,201 L747.7236,201 L737.7236,191" fill="#FEFFDD" style="stroke:#181818;stroke-width:0.5;"/><text fill="#000000" font-family="sans-serif" font-size="13" lengthAdjust="spacing" textLength="29.6118" x="616.8059" y="209.4951">&#21160;&#26426;:</text><text fill="#000000" font-family="sans-serif" font-size="13" lengthAdjust="spacing" textLength="143" x="560.1118" y="225.8467">&#32479;&#19968;&#19981;&#21516;&#25968;&#23398;&#31995;&#32479;&#30340;&#32467;&#26500;</text><text fill="#000000" font-family="sans-serif" font-size="13" lengthAdjust="spacing" textLength="94.6118" x="584.3059" y="242.1982">&#21482;&#20851;&#27880;&#20004;&#31181;&#36816;&#31639;:</text><text fill="#000000" font-family="sans-serif" font-size="13" lengthAdjust="spacing" textLength="33.9409" x="614.6414" y="258.5498">- &#21152;&#27861;</text><text fill="#000000" font-family="sans-serif" font-size="13" lengthAdjust="spacing" textLength="33.9409" x="614.6414" y="274.9014">- &#25968;&#20056;</text><text fill="#000000" font-family="sans-serif" font-size="13" lengthAdjust="spacing" textLength="202.2236" x="530.5" y="291.2529">&#26680;&#24515;&#24605;&#24819;:&#24573;&#30053;&#23545;&#35937;&#26412;&#36523;,&#21482;&#20851;&#27880;&#32467;&#26500;</text></g><g class="entity" data-entity="GMN16" data-source-line="61" data-uid="ent0017" id="entity_GMN16"><path d="M6,215.5 L6,274.5547 A0,0 0 0 0 6,274.5547 L163.5317,274.5547 A0,0 0 0 0 163.5317,274.5547 L163.5317,225.5 L153.5317,215.5 L94.89,215.5 L112.82,108.21 L86.89,215.5 L6,215.5 A0,0 0 0 0 6,215.5" fill="#FEFFDD" style="stroke:#181818;stroke-width:0.5;"/><path d="M153.5317,215.5 L153.5317,225.5 L163.5317,225.5 L153.5317,215.5" fill="#FEFFDD" style="stroke:#181818;stroke-width:0.5;"/><text fill="#000000" font-family="sans-serif" font-size="13" lengthAdjust="spacing" textLength="29.6118" x="65.46" y="233.9951">&#21160;&#26426;:</text><text fill="#000000" font-family="sans-serif" font-size="13" lengthAdjust="spacing" textLength="136.5317" x="12" y="250.3467">&#20026;&#20102;&#35299;&#20915;&#26041;&#31243; x&#178; + 1 = 0</text><text fill="#000000" font-family="sans-serif" font-size="13" lengthAdjust="spacing" textLength="63.2036" x="48.6641" y="266.6982">&#24341;&#20837; i&#178; = -1</text></g><g class="entity" data-entity="GMN19" data-source-line="67" data-uid="ent0020" id="entity_GMN19"><path d="M199,215.5 L199,274.5547 A0,0 0 0 0 199,274.5547 L363,274.5547 A0,0 0 0 0 363,274.5547 L363,225.5 L353,215.5 L285.77,215.5 L284.66,108.21 L277.77,215.5 L199,215.5 A0,0 0 0 0 199,215.5" fill="#FEFFDD" style="stroke:#181818;stroke-width:0.5;"/><path d="M353,215.5 L353,225.5 L363,225.5 L353,215.5" fill="#FEFFDD" style="stroke:#181818;stroke-width:0.5;"/><text fill="#000000" font-family="sans-serif" font-size="13" lengthAdjust="spacing" textLength="29.6118" x="261.6941" y="233.9951">&#21160;&#26426;:</text><text fill="#000000" font-family="sans-serif" font-size="13" lengthAdjust="spacing" textLength="143" x="205" y="250.3467">&#25551;&#36848;&#20108;&#32500;&#20960;&#20309;&#31354;&#38388;&#20013;&#30340;&#28857;</text><text fill="#000000" font-family="sans-serif" font-size="13" lengthAdjust="spacing" textLength="73.6582" x="239.6709" y="266.6982">(&#20301;&#32622;&#12289;&#24179;&#31227;)</text></g><g class="entity" data-entity="GMN22" data-source-line="73" data-uid="ent0023" id="entity_GMN22"><path d="M1008.5,223.5 L1008.5,266.2031 A0,0 0 0 0 1008.5,266.2031 L1179.7236,266.2031 A0,0 0 0 0 1179.7236,266.2031 L1179.7236,233.5 L1169.7236,223.5 L1092.14,223.5 L1055.94,108.21 L1084.14,223.5 L1008.5,223.5 A0,0 0 0 0 1008.5,223.5" fill="#FEFFDD" style="stroke:#181818;stroke-width:0.5;"/><path d="M1169.7236,223.5 L1169.7236,233.5 L1179.7236,233.5 L1169.7236,223.5" fill="#FEFFDD" style="stroke:#181818;stroke-width:0.5;"/><text fill="#000000" font-family="sans-serif" font-size="13" lengthAdjust="spacing" textLength="29.6118" x="1074.8059" y="241.9951">&#21160;&#26426;:</text><text fill="#000000" font-family="sans-serif" font-size="13" lengthAdjust="spacing" textLength="150.2236" x="1014.5" y="258.3467">&#30740;&#31350;&#20989;&#25968;,&#26041;&#31243;&#35299;,&#20449;&#21495;&#21464;&#25442;</text></g><g class="entity" data-entity="GMN25" data-source-line="78" data-uid="ent0026" id="entity_GMN25"><path d="M783,223.5 L783,266.2031 A0,0 0 0 0 783,266.2031 L973,266.2031 A0,0 0 0 0 973,266.2031 L973,233.5 L963,223.5 L870.28,223.5 L801.87,108.21 L862.28,223.5 L783,223.5 A0,0 0 0 0 783,223.5" fill="#FEFFDD" style="stroke:#181818;stroke-width:0.5;"/><path d="M963,223.5 L963,233.5 L973,233.5 L963,223.5" fill="#FEFFDD" style="stroke:#181818;stroke-width:0.5;"/><text fill="#000000" font-family="sans-serif" font-size="13" lengthAdjust="spacing" textLength="29.6118" x="858.6941" y="241.9951">&#21160;&#26426;:</text><text fill="#000000" font-family="sans-serif" font-size="13" lengthAdjust="spacing" textLength="169" x="789" y="258.3467">&#30740;&#31350;&#20195;&#25968;&#34920;&#36798;&#24335;&#21450;&#20854;&#36816;&#31639;&#32467;&#26500;</text></g><!--link ?? to ????--><g class="link" data-entity-1="&#22797;&#25968;" data-entity-2="&#21521;&#37327;&#31354;&#38388;" data-source-line="45" data-uid="lnk8" id="link_&#22797;&#25968;_&#21521;&#37327;&#31354;&#38388;"><path codeLine="45" d="M173.35,90.45 C206.75,110.83 252.01,136.9 294,156 C330.85,172.76 345.19,165.33 380,186 C386.19,189.68 378.184,182.8541 384.034,187.4741" fill="none" id="&#22797;&#25968;-to-&#21521;&#37327;&#31354;&#38388;" style="stroke:#181818;stroke-width:1;"/><polygon fill="none" points="398.16,198.63,387.7526,182.7654,380.3153,192.1827,398.16,198.63" style="stroke:#181818;stroke-width:1;"/><text fill="#000000" font-family="sans-serif" font-size="13" lengthAdjust="spacing" textLength="52" x="295" y="152.4951">&#28385;&#36275;&#32467;&#26500;</text></g><!--link R2 to ????--><g class="link" data-entity-1="R2" data-entity-2="&#21521;&#37327;&#31354;&#38388;" data-source-line="46" data-uid="lnk9" id="link_R2_&#21521;&#37327;&#31354;&#38388;"><path codeLine="46" d="M328.34,108.21 C350.01,133.65 364.7167,150.9284 386.8167,176.8684" fill="none" id="R2-to-&#21521;&#37327;&#31354;&#38388;" style="stroke:#181818;stroke-width:1;"/><polygon fill="none" points="398.49,190.57,391.3839,172.9773,382.2495,180.7595,398.49,190.57" style="stroke:#181818;stroke-width:1;"/><text fill="#000000" font-family="sans-serif" font-size="13" lengthAdjust="spacing" textLength="26" x="366" y="152.4951">&#23454;&#20363;</text></g><!--link Rn to ????--><g class="link" data-entity-1="Rn" data-entity-2="&#21521;&#37327;&#31354;&#38388;" data-source-line="47" data-uid="lnk10" id="link_Rn_&#21521;&#37327;&#31354;&#38388;"><path codeLine="47" d="M444,108.21 C444,132.14 444,142.99 444,167.92" fill="none" id="Rn-to-&#21521;&#37327;&#31354;&#38388;" style="stroke:#181818;stroke-width:1;"/><polygon fill="none" points="444,185.92,450,167.92,438,167.92,444,185.92" style="stroke:#181818;stroke-width:1;"/><text fill="#000000" font-family="sans-serif" font-size="13" lengthAdjust="spacing" textLength="26" x="445" y="152.4951">&#23454;&#20363;</text></g><!--link ???? to ????--><g class="link" data-entity-1="&#20989;&#25968;&#31354;&#38388;" data-entity-2="&#21521;&#37327;&#31354;&#38388;" data-source-line="48" data-uid="lnk11" id="link_&#20989;&#25968;&#31354;&#38388;_&#21521;&#37327;&#31354;&#38388;"><path codeLine="48" d="M997.95,69.59 C957.46,79.74 895.74,95.09 842,108 C823.42,112.46 523.89,177.07 507,186 C501.09,189.13 509.653,182.0876 504.143,186.2576" fill="none" id="&#20989;&#25968;&#31354;&#38388;-to-&#21521;&#37327;&#31354;&#38388;" style="stroke:#181818;stroke-width:1;"/><polygon fill="none" points="489.79,197.12,507.7638,191.0419,500.5222,181.4733,489.79,197.12" style="stroke:#181818;stroke-width:1;"/><text fill="#000000" font-family="sans-serif" font-size="13" lengthAdjust="spacing" textLength="26" x="704" y="152.4951">&#23454;&#20363;</text></g><!--link ????? to ????--><g class="link" data-entity-1="&#22810;&#39033;&#24335;&#31354;&#38388;" data-entity-2="&#21521;&#37327;&#31354;&#38388;" data-source-line="49" data-uid="lnk12" id="link_&#22810;&#39033;&#24335;&#31354;&#38388;_&#21521;&#37327;&#31354;&#38388;"><path codeLine="49" d="M722.88,77.57 C667.28,99.51 576.99,138.65 507,186 C501.21,189.92 509.2925,182.8682 503.7025,187.4982" fill="none" id="&#22810;&#39033;&#24335;&#31354;&#38388;-to-&#21521;&#37327;&#31354;&#38388;" style="stroke:#181818;stroke-width:1;"/><polygon fill="none" points="489.84,198.98,507.5297,192.119,499.8752,182.8774,489.84,198.98" style="stroke:#181818;stroke-width:1;"/><text fill="#000000" font-family="sans-serif" font-size="13" lengthAdjust="spacing" textLength="26" x="585" y="152.4951">&#23454;&#20363;</text></g><!--SRC=[dP7VRX915CRlvodE9SI529URrCJ49sXy0LgNIeIbWJN1g0bAWOIMB4QnJTDMi5IejbXTWlkdGEAhE6TcUGkdx8fTh5nqazdCdFdERyxvJlv9IjrCv18PUA0a4q_JsaEbeDrFfpRKZA9gi2v-IewGzNGYdmVir5dp0fuJW3kG46ij1J9WkSG7hLaCQorcD4FXsO5QUzxXvP_yrRYV6of8y2mippCZuliN8DuIZ010dGDY4XJY4aIZKR5HRy72waW4-QaztHtur6IeS1jGPt_Qjl1I3x0sRyTgl9bMWw3hzivkRqPuqZFUg7WyVrQHo8jxGQeCp6cxGuCxRzdH5X4pkKc3_ICwtYR2y2Mt0GkNwHOSMY8bQbPJ89VQUAn1DXaG4Qprs84j4-vye6QHcdLix8ZtyVmJDnmHvFjRVbEeVyQomOmUDJkyMtSd3TxVbKd4jrziFDy8QvauAR7Y8IiPCav6l7c2NottMviTdBds5saEyi6A-WYkAlJhNCjgMZOpAtHczxn4QjhKhhZTOwmOxBt5UzjG-FbTZ2W6At2Nu6KJooUG4g4LYCJ-ZrsDpv5Crzt91RLtk3F0QekEcfujr3o_QlorHK9qLEUZ_g_YAxGCtdN2IygzDhc_lhRUyTEXToLvLOiE93ffe_u3zJrM_xZCWC2C5w3KEHPGjzrpnsEXGRs6vQ4tbaLdVmC0]--></g></svg>