<svg xmlns="http://www.w3.org/2000/svg" xmlns:xlink="http://www.w3.org/1999/xlink" contentStyleType="text/css" data-diagram-type="CLASS" height="579px" preserveAspectRatio="none" style="width:710px;height:579px;background:#FFFFFF;" version="1.1" viewBox="0 0 710 579" width="710px" zoomAndPan="magnify"><defs/><g><!--class ?????--><g class="entity" data-entity="&#21333;&#20301;&#20803;&#21160;&#26426;" data-source-line="4" data-uid="ent0002" id="entity_&#21333;&#20301;&#20803;&#21160;&#26426;"><rect fill="#F1F1F1" height="83.2188" rx="2.5" ry="2.5" style="stroke:#181818;stroke-width:0.5;" width="141.8896" x="207.5" y="7"/><ellipse cx="240.4503" cy="23" fill="#ADD1B2" rx="11" ry="11" style="stroke:#181818;stroke-width:1;"/><path d="M243.216,18.875 Q243.3722,18.6563 243.5597,18.5469 Q243.7472,18.4375 243.966,18.4375 Q244.341,18.4375 244.5753,18.7031 Q244.8097,18.9531 244.8097,19.5625 L244.8097,21.0156 Q244.8097,21.625 244.5753,21.8906 Q244.341,22.1563 243.966,22.1563 Q243.6222,22.1563 243.4191,21.9531 Q243.216,21.7656 243.1066,21.25 Q243.0597,20.8906 242.8722,20.7031 Q242.5441,20.3281 241.9347,20.1094 Q241.3253,19.8906 240.7003,19.8906 Q239.9347,19.8906 239.2941,20.2188 Q238.6691,20.5469 238.1691,21.2969 Q237.6847,22.0469 237.6847,23.0781 L237.6847,24.1719 Q237.6847,25.4063 238.5753,26.2344 Q239.466,27.0469 241.0597,27.0469 Q241.9972,27.0469 242.6535,26.7969 Q243.0441,26.6406 243.466,26.2031 Q243.7316,25.9375 243.8722,25.8594 Q244.0285,25.7813 244.2316,25.7813 Q244.5597,25.7813 244.8097,26.0469 Q245.0753,26.2969 245.0753,26.6406 Q245.0753,26.9844 244.7316,27.3906 Q244.2316,27.9688 243.4347,28.2969 Q242.3566,28.75 241.0597,28.75 Q239.5441,28.75 238.341,28.125 Q237.3566,27.625 236.6691,26.5625 Q235.9816,25.4844 235.9816,24.2031 L235.9816,23.0469 Q235.9816,21.7188 236.591,20.5781 Q237.216,19.4219 238.3097,18.8125 Q239.4035,18.1875 240.6378,18.1875 Q241.3722,18.1875 242.0128,18.3594 Q242.6691,18.5156 243.216,18.875 Z " fill="#000000"/><text fill="#000000" font-family="sans-serif" font-size="14" lengthAdjust="spacing" textLength="70" x="258.4393" y="28.7285">&#21333;&#20301;&#20803;&#21160;&#26426;</text><line style="stroke:#181818;stroke-width:0.5;" x1="208.5" x2="348.3896" y1="39" y2="39"/><ellipse cx="218.5" cy="53.3047" fill="none" rx="3" ry="3" style="stroke:#038048;stroke-width:1;"/><text fill="#000000" font-family="sans-serif" font-size="14" lengthAdjust="spacing" textLength="112" x="227.5" y="57.5332">&#24819;&#25551;&#36848;&#23545;&#35937;&#30340;&#21464;&#21270;</text><ellipse cx="218.5" cy="70.9141" fill="none" rx="3" ry="3" style="stroke:#038048;stroke-width:1;"/><text fill="#000000" font-family="sans-serif" font-size="14" lengthAdjust="spacing" textLength="115.8896" x="227.5" y="75.1426">&#27604;&#22914;&#21521;&#37327;&#24179;&#31227;,&#25918;&#32553;</text><line style="stroke:#181818;stroke-width:0.5;" x1="208.5" x2="348.3896" y1="82.2188" y2="82.2188"/></g><!--class ????--><g class="entity" data-entity="&#22522;&#20934;&#21442;&#32771;" data-source-line="9" data-uid="ent0003" id="entity_&#22522;&#20934;&#21442;&#32771;"><rect fill="#F1F1F1" height="100.8281" rx="2.5" ry="2.5" style="stroke:#181818;stroke-width:0.5;" width="110" x="223.5" y="150"/><ellipse cx="248.4" cy="166" fill="#ADD1B2" rx="11" ry="11" style="stroke:#181818;stroke-width:1;"/><path d="M251.1656,161.875 Q251.3219,161.6563 251.5094,161.5469 Q251.6969,161.4375 251.9156,161.4375 Q252.2906,161.4375 252.525,161.7031 Q252.7594,161.9531 252.7594,162.5625 L252.7594,164.0156 Q252.7594,164.625 252.525,164.8906 Q252.2906,165.1563 251.9156,165.1563 Q251.5719,165.1563 251.3688,164.9531 Q251.1656,164.7656 251.0563,164.25 Q251.0094,163.8906 250.8219,163.7031 Q250.4938,163.3281 249.8844,163.1094 Q249.275,162.8906 248.65,162.8906 Q247.8844,162.8906 247.2438,163.2188 Q246.6188,163.5469 246.1188,164.2969 Q245.6344,165.0469 245.6344,166.0781 L245.6344,167.1719 Q245.6344,168.4063 246.525,169.2344 Q247.4156,170.0469 249.0094,170.0469 Q249.9469,170.0469 250.6031,169.7969 Q250.9938,169.6406 251.4156,169.2031 Q251.6813,168.9375 251.8219,168.8594 Q251.9781,168.7813 252.1813,168.7813 Q252.5094,168.7813 252.7594,169.0469 Q253.025,169.2969 253.025,169.6406 Q253.025,169.9844 252.6813,170.3906 Q252.1813,170.9688 251.3844,171.2969 Q250.3063,171.75 249.0094,171.75 Q247.4938,171.75 246.2906,171.125 Q245.3063,170.625 244.6188,169.5625 Q243.9313,168.4844 243.9313,167.2031 L243.9313,166.0469 Q243.9313,164.7188 244.5406,163.5781 Q245.1656,162.4219 246.2594,161.8125 Q247.3531,161.1875 248.5875,161.1875 Q249.3219,161.1875 249.9625,161.3594 Q250.6188,161.5156 251.1656,161.875 Z " fill="#000000"/><text fill="#000000" font-family="sans-serif" font-size="14" lengthAdjust="spacing" textLength="56" x="264.6" y="171.7285">&#22522;&#20934;&#21442;&#32771;</text><line style="stroke:#181818;stroke-width:0.5;" x1="224.5" x2="332.5" y1="182" y2="182"/><ellipse cx="234.5" cy="196.3047" fill="none" rx="3" ry="3" style="stroke:#038048;stroke-width:1;"/><text fill="#000000" font-family="sans-serif" font-size="14" lengthAdjust="spacing" textLength="63.7861" x="243.5" y="200.5332">&#24179;&#31227;&#37327;&#20026;0</text><ellipse cx="234.5" cy="213.9141" fill="none" rx="3" ry="3" style="stroke:#038048;stroke-width:1;"/><text fill="#000000" font-family="sans-serif" font-size="14" lengthAdjust="spacing" textLength="63.7861" x="243.5" y="218.1426">&#25918;&#32553;&#24577;&#20026;1</text><ellipse cx="234.5" cy="231.5234" fill="none" rx="3" ry="3" style="stroke:#038048;stroke-width:1;"/><text fill="#000000" font-family="sans-serif" font-size="14" lengthAdjust="spacing" textLength="84" x="243.5" y="235.752">&#34920;&#31034;&#27809;&#26377;&#21464;&#21270;</text><line style="stroke:#181818;stroke-width:0.5;" x1="224.5" x2="332.5" y1="242.8281" y2="242.8281"/></g><!--class ???--><g class="entity" data-entity="&#21333;&#20301;&#20803;" data-source-line="15" data-uid="ent0004" id="entity_&#21333;&#20301;&#20803;"><rect fill="#F1F1F1" height="118.4375" rx="2.5" ry="2.5" style="stroke:#181818;stroke-width:0.5;" width="79.6963" x="238.5" y="311"/><ellipse cx="256.0633" cy="327" fill="#ADD1B2" rx="11" ry="11" style="stroke:#181818;stroke-width:1;"/><path d="M258.829,322.875 Q258.9852,322.6563 259.1727,322.5469 Q259.3602,322.4375 259.579,322.4375 Q259.954,322.4375 260.1883,322.7031 Q260.4227,322.9531 260.4227,323.5625 L260.4227,325.0156 Q260.4227,325.625 260.1883,325.8906 Q259.954,326.1563 259.579,326.1563 Q259.2352,326.1563 259.0321,325.9531 Q258.829,325.7656 258.7196,325.25 Q258.6727,324.8906 258.4852,324.7031 Q258.1571,324.3281 257.5477,324.1094 Q256.9383,323.8906 256.3133,323.8906 Q255.5477,323.8906 254.9071,324.2188 Q254.2821,324.5469 253.7821,325.2969 Q253.2977,326.0469 253.2977,327.0781 L253.2977,328.1719 Q253.2977,329.4063 254.1883,330.2344 Q255.079,331.0469 256.6727,331.0469 Q257.6102,331.0469 258.2665,330.7969 Q258.6571,330.6406 259.079,330.2031 Q259.3446,329.9375 259.4852,329.8594 Q259.6415,329.7813 259.8446,329.7813 Q260.1727,329.7813 260.4227,330.0469 Q260.6883,330.2969 260.6883,330.6406 Q260.6883,330.9844 260.3446,331.3906 Q259.8446,331.9688 259.0477,332.2969 Q257.9696,332.75 256.6727,332.75 Q255.1571,332.75 253.954,332.125 Q252.9696,331.625 252.2821,330.5625 Q251.5946,329.4844 251.5946,328.2031 L251.5946,327.0469 Q251.5946,325.7188 252.204,324.5781 Q252.829,323.4219 253.9227,322.8125 Q255.0165,322.1875 256.2508,322.1875 Q256.9852,322.1875 257.6258,322.3594 Q258.2821,322.5156 258.829,322.875 Z " fill="#000000"/><text fill="#000000" font-family="sans-serif" font-size="14" lengthAdjust="spacing" textLength="42" x="270.633" y="332.7285">&#21333;&#20301;&#20803;</text><line style="stroke:#181818;stroke-width:0.5;" x1="239.5" x2="317.1963" y1="343" y2="343"/><ellipse cx="249.5" cy="378.9141" fill="none" rx="3" ry="3" style="stroke:#038048;stroke-width:1;"/><text fill="#000000" font-family="sans-serif" font-size="14" lengthAdjust="spacing" textLength="53.6963" x="258.5" y="383.1426">x + 0 = x</text><line style="stroke:#181818;stroke-width:1;" x1="239.5" x2="264.3481" y1="359.8047" y2="359.8047"/><text fill="#000000" font-family="sans-serif" font-size="14" lengthAdjust="spacing" textLength="28" x="264.3481" y="365.0332">&#21152;&#27861;</text><line style="stroke:#181818;stroke-width:1;" x1="292.3481" x2="317.1963" y1="359.8047" y2="359.8047"/><ellipse cx="257.4775" cy="418.1328" fill="none" rx="3" ry="3" style="stroke:#038048;stroke-width:1;"/><text fill="#000000" font-family="sans-serif" font-size="14" lengthAdjust="spacing" textLength="37.7412" x="266.4775" y="422.3613">1x = x</text><line style="stroke:#181818;stroke-width:1;" x1="239.5" x2="264.3481" y1="399.0234" y2="399.0234"/><text fill="#000000" font-family="sans-serif" font-size="14" lengthAdjust="spacing" textLength="28" x="264.3481" y="404.252">&#20056;&#27861;</text><line style="stroke:#181818;stroke-width:1;" x1="292.3481" x2="317.1963" y1="399.0234" y2="399.0234"/></g><!--class ??(Move)--><g class="entity" data-entity="&#21464;&#21270;(Move)" data-source-line="22" data-uid="ent0005" id="entity_&#21464;&#21270;(Move)"><rect fill="#F1F1F1" height="83.2188" rx="2.5" ry="2.5" style="stroke:#181818;stroke-width:0.5;" width="197.8896" x="164.5" y="489"/><ellipse cx="223.4155" cy="505" fill="#ADD1B2" rx="11" ry="11" style="stroke:#181818;stroke-width:1;"/><path d="M226.1812,500.875 Q226.3374,500.6563 226.5249,500.5469 Q226.7124,500.4375 226.9312,500.4375 Q227.3062,500.4375 227.5405,500.7031 Q227.7749,500.9531 227.7749,501.5625 L227.7749,503.0156 Q227.7749,503.625 227.5405,503.8906 Q227.3062,504.1563 226.9312,504.1563 Q226.5874,504.1563 226.3843,503.9531 Q226.1812,503.7656 226.0718,503.25 Q226.0249,502.8906 225.8374,502.7031 Q225.5093,502.3281 224.8999,502.1094 Q224.2905,501.8906 223.6655,501.8906 Q222.8999,501.8906 222.2593,502.2188 Q221.6343,502.5469 221.1343,503.2969 Q220.6499,504.0469 220.6499,505.0781 L220.6499,506.1719 Q220.6499,507.4063 221.5405,508.2344 Q222.4312,509.0469 224.0249,509.0469 Q224.9624,509.0469 225.6187,508.7969 Q226.0093,508.6406 226.4312,508.2031 Q226.6968,507.9375 226.8374,507.8594 Q226.9937,507.7813 227.1968,507.7813 Q227.5249,507.7813 227.7749,508.0469 Q228.0405,508.2969 228.0405,508.6406 Q228.0405,508.9844 227.6968,509.3906 Q227.1968,509.9688 226.3999,510.2969 Q225.3218,510.75 224.0249,510.75 Q222.5093,510.75 221.3062,510.125 Q220.3218,509.625 219.6343,508.5625 Q218.9468,507.4844 218.9468,506.2031 L218.9468,505.0469 Q218.9468,503.7188 219.5562,502.5781 Q220.1812,501.4219 221.2749,500.8125 Q222.3687,500.1875 223.603,500.1875 Q224.3374,500.1875 224.978,500.3594 Q225.6343,500.5156 226.1812,500.875 Z " fill="#000000"/><text fill="#000000" font-family="sans-serif" font-size="14" lengthAdjust="spacing" textLength="71.5586" x="243.9155" y="510.7285">&#21464;&#21270;(Move)</text><line style="stroke:#181818;stroke-width:0.5;" x1="165.5" x2="361.3896" y1="521" y2="521"/><ellipse cx="175.5" cy="535.3047" fill="none" rx="3" ry="3" style="stroke:#038048;stroke-width:1;"/><text fill="#000000" font-family="sans-serif" font-size="14" lengthAdjust="spacing" textLength="171.8896" x="184.5" y="539.5332">&#24179;&#31227;:&#30456;&#23545;&#21021;&#22987;&#24577;&#20301;&#32622;&#30340;&#21464;&#21270;</text><ellipse cx="175.5" cy="552.9141" fill="none" rx="3" ry="3" style="stroke:#038048;stroke-width:1;"/><text fill="#000000" font-family="sans-serif" font-size="14" lengthAdjust="spacing" textLength="171.8896" x="184.5" y="557.1426">&#25918;&#32553;:&#30456;&#23545;&#21021;&#22987;&#24577;&#24418;&#29366;&#30340;&#21464;&#21270;</text><line style="stroke:#181818;stroke-width:0.5;" x1="165.5" x2="361.3896" y1="564.2188" y2="564.2188"/></g><!--class ????--><g class="entity" data-entity="&#36870;&#20803;&#21160;&#26426;" data-source-line="27" data-uid="ent0006" id="entity_&#36870;&#20803;&#21160;&#26426;"><rect fill="#F1F1F1" height="83.2188" rx="2.5" ry="2.5" style="stroke:#181818;stroke-width:0.5;" width="138" x="383.5" y="159"/><ellipse cx="421" cy="175" fill="#ADD1B2" rx="11" ry="11" style="stroke:#181818;stroke-width:1;"/><path d="M423.7656,170.875 Q423.9219,170.6563 424.1094,170.5469 Q424.2969,170.4375 424.5156,170.4375 Q424.8906,170.4375 425.125,170.7031 Q425.3594,170.9531 425.3594,171.5625 L425.3594,173.0156 Q425.3594,173.625 425.125,173.8906 Q424.8906,174.1563 424.5156,174.1563 Q424.1719,174.1563 423.9688,173.9531 Q423.7656,173.7656 423.6563,173.25 Q423.6094,172.8906 423.4219,172.7031 Q423.0938,172.3281 422.4844,172.1094 Q421.875,171.8906 421.25,171.8906 Q420.4844,171.8906 419.8438,172.2188 Q419.2188,172.5469 418.7188,173.2969 Q418.2344,174.0469 418.2344,175.0781 L418.2344,176.1719 Q418.2344,177.4063 419.125,178.2344 Q420.0156,179.0469 421.6094,179.0469 Q422.5469,179.0469 423.2031,178.7969 Q423.5938,178.6406 424.0156,178.2031 Q424.2813,177.9375 424.4219,177.8594 Q424.5781,177.7813 424.7813,177.7813 Q425.1094,177.7813 425.3594,178.0469 Q425.625,178.2969 425.625,178.6406 Q425.625,178.9844 425.2813,179.3906 Q424.7813,179.9688 423.9844,180.2969 Q422.9063,180.75 421.6094,180.75 Q420.0938,180.75 418.8906,180.125 Q417.9063,179.625 417.2188,178.5625 Q416.5313,177.4844 416.5313,176.2031 L416.5313,175.0469 Q416.5313,173.7188 417.1406,172.5781 Q417.7656,171.4219 418.8594,170.8125 Q419.9531,170.1875 421.1875,170.1875 Q421.9219,170.1875 422.5625,170.3594 Q423.2188,170.5156 423.7656,170.875 Z " fill="#000000"/><text fill="#000000" font-family="sans-serif" font-size="14" lengthAdjust="spacing" textLength="56" x="440" y="180.7285">&#36870;&#20803;&#21160;&#26426;</text><line style="stroke:#181818;stroke-width:0.5;" x1="384.5" x2="520.5" y1="191" y2="191"/><ellipse cx="394.5" cy="205.3047" fill="none" rx="3" ry="3" style="stroke:#038048;stroke-width:1;"/><text fill="#000000" font-family="sans-serif" font-size="14" lengthAdjust="spacing" textLength="112" x="403.5" y="209.5332">&#24819;&#23558;&#21464;&#21270;&#21518;&#30340;&#23545;&#35937;</text><ellipse cx="394.5" cy="222.9141" fill="none" rx="3" ry="3" style="stroke:#038048;stroke-width:1;"/><text fill="#000000" font-family="sans-serif" font-size="14" lengthAdjust="spacing" textLength="84" x="403.5" y="227.1426">&#24674;&#22797;&#20026;&#21021;&#22987;&#24577;</text><line style="stroke:#181818;stroke-width:0.5;" x1="384.5" x2="520.5" y1="234.2188" y2="234.2188"/></g><!--class ??--><g class="entity" data-entity="&#36870;&#20803;" data-source-line="32" data-uid="ent0007" id="entity_&#36870;&#20803;"><rect fill="#F1F1F1" height="118.4375" rx="2.5" ry="2.5" style="stroke:#181818;stroke-width:0.5;" width="95.2549" x="405" y="311"/><ellipse cx="435.8647" cy="327" fill="#ADD1B2" rx="11" ry="11" style="stroke:#181818;stroke-width:1;"/><path d="M438.6303,322.875 Q438.7866,322.6563 438.9741,322.5469 Q439.1616,322.4375 439.3803,322.4375 Q439.7553,322.4375 439.9897,322.7031 Q440.2241,322.9531 440.2241,323.5625 L440.2241,325.0156 Q440.2241,325.625 439.9897,325.8906 Q439.7553,326.1563 439.3803,326.1563 Q439.0366,326.1563 438.8334,325.9531 Q438.6303,325.7656 438.5209,325.25 Q438.4741,324.8906 438.2866,324.7031 Q437.9584,324.3281 437.3491,324.1094 Q436.7397,323.8906 436.1147,323.8906 Q435.3491,323.8906 434.7084,324.2188 Q434.0834,324.5469 433.5834,325.2969 Q433.0991,326.0469 433.0991,327.0781 L433.0991,328.1719 Q433.0991,329.4063 433.9897,330.2344 Q434.8803,331.0469 436.4741,331.0469 Q437.4116,331.0469 438.0678,330.7969 Q438.4584,330.6406 438.8803,330.2031 Q439.1459,329.9375 439.2866,329.8594 Q439.4428,329.7813 439.6459,329.7813 Q439.9741,329.7813 440.2241,330.0469 Q440.4897,330.2969 440.4897,330.6406 Q440.4897,330.9844 440.1459,331.3906 Q439.6459,331.9688 438.8491,332.2969 Q437.7709,332.75 436.4741,332.75 Q434.9584,332.75 433.7553,332.125 Q432.7709,331.625 432.0834,330.5625 Q431.3959,329.4844 431.3959,328.2031 L431.3959,327.0469 Q431.3959,325.7188 432.0053,324.5781 Q432.6303,323.4219 433.7241,322.8125 Q434.8178,322.1875 436.0522,322.1875 Q436.7866,322.1875 437.4272,322.3594 Q438.0834,322.5156 438.6303,322.875 Z " fill="#000000"/><text fill="#000000" font-family="sans-serif" font-size="14" lengthAdjust="spacing" textLength="28" x="453.3902" y="332.7285">&#36870;&#20803;</text><line style="stroke:#181818;stroke-width:0.5;" x1="406" x2="499.2549" y1="343" y2="343"/><ellipse cx="416" cy="378.9141" fill="#84BE84" rx="3" ry="3" style="stroke:#038048;stroke-width:1;"/><text fill="#000000" font-family="sans-serif" font-size="14" lengthAdjust="spacing" textLength="69.2549" x="425" y="383.1426">a + (-a) = 0</text><line style="stroke:#181818;stroke-width:1;" x1="406" x2="424.6274" y1="359.8047" y2="359.8047"/><text fill="#000000" font-family="sans-serif" font-size="14" lengthAdjust="spacing" textLength="56" x="424.6274" y="365.0332">&#21152;&#27861;&#36870;&#20803;</text><line style="stroke:#181818;stroke-width:1;" x1="480.6274" x2="499.2549" y1="359.8047" y2="359.8047"/><ellipse cx="418.7378" cy="418.1328" fill="none" rx="3" ry="3" style="stroke:#038048;stroke-width:1;"/><text fill="#000000" font-family="sans-serif" font-size="14" lengthAdjust="spacing" textLength="63.7793" x="427.7378" y="422.3613">a*a^-1 = 1</text><line style="stroke:#181818;stroke-width:1;" x1="406" x2="424.6274" y1="399.0234" y2="399.0234"/><text fill="#000000" font-family="sans-serif" font-size="14" lengthAdjust="spacing" textLength="56" x="424.6274" y="404.252">&#20056;&#27861;&#36870;&#20803;</text><line style="stroke:#181818;stroke-width:1;" x1="480.6274" x2="499.2549" y1="399.0234" y2="399.0234"/></g><!--class ??--><g class="entity" data-entity="&#25299;&#23637;" data-source-line="39" data-uid="ent0008" id="entity_&#25299;&#23637;"><rect fill="#F1F1F1" height="65.6094" rx="2.5" ry="2.5" style="stroke:#181818;stroke-width:0.5;" width="110" x="397.5" y="497.5"/><ellipse cx="435" cy="513.5" fill="#ADD1B2" rx="11" ry="11" style="stroke:#181818;stroke-width:1;"/><path d="M437.7656,509.375 Q437.9219,509.1563 438.1094,509.0469 Q438.2969,508.9375 438.5156,508.9375 Q438.8906,508.9375 439.125,509.2031 Q439.3594,509.4531 439.3594,510.0625 L439.3594,511.5156 Q439.3594,512.125 439.125,512.3906 Q438.8906,512.6563 438.5156,512.6563 Q438.1719,512.6563 437.9688,512.4531 Q437.7656,512.2656 437.6563,511.75 Q437.6094,511.3906 437.4219,511.2031 Q437.0938,510.8281 436.4844,510.6094 Q435.875,510.3906 435.25,510.3906 Q434.4844,510.3906 433.8438,510.7188 Q433.2188,511.0469 432.7188,511.7969 Q432.2344,512.5469 432.2344,513.5781 L432.2344,514.6719 Q432.2344,515.9063 433.125,516.7344 Q434.0156,517.5469 435.6094,517.5469 Q436.5469,517.5469 437.2031,517.2969 Q437.5938,517.1406 438.0156,516.7031 Q438.2813,516.4375 438.4219,516.3594 Q438.5781,516.2813 438.7813,516.2813 Q439.1094,516.2813 439.3594,516.5469 Q439.625,516.7969 439.625,517.1406 Q439.625,517.4844 439.2813,517.8906 Q438.7813,518.4688 437.9844,518.7969 Q436.9063,519.25 435.6094,519.25 Q434.0938,519.25 432.8906,518.625 Q431.9063,518.125 431.2188,517.0625 Q430.5313,515.9844 430.5313,514.7031 L430.5313,513.5469 Q430.5313,512.2188 431.1406,511.0781 Q431.7656,509.9219 432.8594,509.3125 Q433.9531,508.6875 435.1875,508.6875 Q435.9219,508.6875 436.5625,508.8594 Q437.2188,509.0156 437.7656,509.375 Z " fill="#000000"/><text fill="#000000" font-family="sans-serif" font-size="14" lengthAdjust="spacing" textLength="28" x="454" y="519.2285">&#25299;&#23637;</text><line style="stroke:#181818;stroke-width:0.5;" x1="398.5" x2="506.5" y1="529.5" y2="529.5"/><ellipse cx="408.5" cy="543.8047" fill="none" rx="3" ry="3" style="stroke:#038048;stroke-width:1;"/><text fill="#000000" font-family="sans-serif" font-size="14" lengthAdjust="spacing" textLength="84" x="417.5" y="548.0332">&#35299;&#26041;&#31243;&#30340;&#22522;&#30784;</text><line style="stroke:#181818;stroke-width:0.5;" x1="398.5" x2="506.5" y1="555.1094" y2="555.1094"/></g><g class="entity" data-entity="GMN15" data-source-line="53" data-uid="ent0016" id="entity_GMN15"><path d="M535.5,348.5 L535.5,366 L500.12,370 L535.5,374 L535.5,391.2031 A0,0 0 0 0 535.5,391.2031 L703.1118,391.2031 A0,0 0 0 0 703.1118,391.2031 L703.1118,358.5 L693.1118,348.5 L535.5,348.5 A0,0 0 0 0 535.5,348.5" fill="#FEFFDD" style="stroke:#181818;stroke-width:0.5;"/><path d="M693.1118,348.5 L693.1118,358.5 L703.1118,358.5 L693.1118,348.5" fill="#FEFFDD" style="stroke:#181818;stroke-width:0.5;"/><text fill="#000000" font-family="sans-serif" font-size="13" lengthAdjust="spacing" textLength="146.6118" x="541.5" y="366.9951">&#20851;&#38190;&#28857;&#26159;&#23558;&#21464;&#21270;&#21518;&#30340;&#23545;&#35937;,</text><text fill="#000000" font-family="sans-serif" font-size="13" lengthAdjust="spacing" textLength="138.6582" x="545.4768" y="383.3467">&#24674;&#22797;&#25104;&#21021;&#22987;&#24577;(&#21333;&#20301;&#29366;&#24577;)</text></g><g class="entity" data-entity="GMN18" data-source-line="58" data-uid="ent0019" id="entity_GMN18"><path d="M6,348.5 L6,391.2031 A0,0 0 0 0 6,391.2031 L203.2236,391.2031 A0,0 0 0 0 203.2236,391.2031 L203.2236,374 L238.42,370 L203.2236,366 L203.2236,358.5 L193.2236,348.5 L6,348.5 A0,0 0 0 0 6,348.5" fill="#FEFFDD" style="stroke:#181818;stroke-width:0.5;"/><path d="M193.2236,348.5 L193.2236,358.5 L203.2236,358.5 L193.2236,348.5" fill="#FEFFDD" style="stroke:#181818;stroke-width:0.5;"/><text fill="#000000" font-family="sans-serif" font-size="13" lengthAdjust="spacing" textLength="159.6118" x="20.3059" y="366.9951">&#20851;&#38190;&#26159;&#20026;&#20102;&#25551;&#36848;&#23545;&#35937;&#30340;&#21464;&#21270;,</text><text fill="#000000" font-family="sans-serif" font-size="13" lengthAdjust="spacing" textLength="176.2236" x="12" y="383.3467">&#38656;&#35201;&#23450;&#20041;&#19968;&#20010;&#21021;&#22987;&#24577;, &#26041;&#20415;&#25551;&#36848;</text></g><!--link ????? to ????--><g class="link" data-entity-1="&#21333;&#20301;&#20803;&#21160;&#26426;" data-entity-2="&#22522;&#20934;&#21442;&#32771;" data-source-line="43" data-uid="lnk9" id="link_&#21333;&#20301;&#20803;&#21160;&#26426;_&#22522;&#20934;&#21442;&#32771;"><path codeLine="43" d="M278.5,90.09 C278.5,108.49 278.5,112.41 278.5,131.78" fill="none" id="&#21333;&#20301;&#20803;&#21160;&#26426;-to-&#22522;&#20934;&#21442;&#32771;" style="stroke:#181818;stroke-width:1;"/><polygon fill="none" points="278.5,149.78,284.5,131.78,272.5,131.78,278.5,149.78" style="stroke:#181818;stroke-width:1;"/></g><!--link ???? to ???--><g class="link" data-entity-1="&#22522;&#20934;&#21442;&#32771;" data-entity-2="&#21333;&#20301;&#20803;" data-source-line="44" data-uid="lnk10" id="link_&#22522;&#20934;&#21442;&#32771;_&#21333;&#20301;&#20803;"><path codeLine="44" d="M278.5,251.3 C278.5,270.01 278.5,273.44 278.5,292.84" fill="none" id="&#22522;&#20934;&#21442;&#32771;-to-&#21333;&#20301;&#20803;" style="stroke:#181818;stroke-width:1;"/><polygon fill="none" points="278.5,310.84,284.5,292.84,272.5,292.84,278.5,310.84" style="stroke:#181818;stroke-width:1;"/></g><!--link ??? to ??(Move)--><g class="link" data-entity-1="&#21333;&#20301;&#20803;" data-entity-2="&#21464;&#21270;(Move)" data-source-line="45" data-uid="lnk11" id="link_&#21333;&#20301;&#20803;_&#21464;&#21270;(Move)"><path codeLine="45" d="M273,429.12 C271.13,448.91 270.7602,452.6795 269.0502,470.8095" fill="none" id="&#21333;&#20301;&#20803;-to-&#21464;&#21270;(Move)" style="stroke:#181818;stroke-width:1;"/><polygon fill="none" points="267.36,488.73,275.0237,471.3729,263.0767,470.2461,267.36,488.73" style="stroke:#181818;stroke-width:1;"/></g><!--link ???? to ??--><g class="link" data-entity-1="&#36870;&#20803;&#21160;&#26426;" data-entity-2="&#36870;&#20803;" data-source-line="47" data-uid="lnk12" id="link_&#36870;&#20803;&#21160;&#26426;_&#36870;&#20803;"><path codeLine="47" d="M452.5,242.05 C452.5,262.67 452.5,270.11 452.5,292.78" fill="none" id="&#36870;&#20803;&#21160;&#26426;-to-&#36870;&#20803;" style="stroke:#181818;stroke-width:1;"/><polygon fill="none" points="452.5,310.78,458.5,292.78,446.5,292.78,452.5,310.78" style="stroke:#181818;stroke-width:1;"/></g><!--link ??? to ??--><g class="link" data-entity-1="&#21333;&#20301;&#20803;" data-entity-2="&#25299;&#23637;" data-source-line="49" data-uid="lnk13" id="link_&#21333;&#20301;&#20803;_&#25299;&#23637;"><path codeLine="49" d="M318.86,407.76 C348.67,434.92 375.5629,459.4189 404.0629,485.3789" fill="none" id="&#21333;&#20301;&#20803;-to-&#25299;&#23637;" style="stroke:#181818;stroke-width:1;"/><polygon fill="none" points="417.37,497.5,408.1033,480.9432,400.0225,489.8146,417.37,497.5" style="stroke:#181818;stroke-width:1;"/></g><!--link ?? to ??--><g class="link" data-entity-1="&#36870;&#20803;" data-entity-2="&#25299;&#23637;" data-source-line="50" data-uid="lnk14" id="link_&#36870;&#20803;_&#25299;&#23637;"><path codeLine="50" d="M452.5,429.12 C452.5,452.09 452.5,459.62 452.5,479.18" fill="none" id="&#36870;&#20803;-to-&#25299;&#23637;" style="stroke:#181818;stroke-width:1;"/><polygon fill="none" points="452.5,497.18,458.5,479.18,446.5,479.18,452.5,497.18" style="stroke:#181818;stroke-width:1;"/></g><!--SRC=[RLDVJzfG57-_d-B69zXe0gycMxB4rxtjsQJHecHO3DI5n9aKK5GOAyl04CKub03w03eIGwleb-cvjtmBRtlRGYjDsgJd_FwSyxjjxdjAtXMpuWvUavBYNbhv9kMLB-dKbhmZoGhUO0yfYz16MipbCDIQvhG6HoMe34ZRs4UONHynAOs9fbclzp3IhOSEFJy4hGM_phpsg06z8jJ_p8urqCUq_nGZZHVwV8iEVE4h0uxBe1KjjUIfSYZZc1CZxaavFA8MM2tXrgpEW7ODyhz3sgUkxy6xWRce843b7nat1S7bvjaTnvzmtcsRUckndSWxFLzkXUj7lcP-ID6LuA2hz6B2zeUJI-XNxGcdDJeTlil2MI2CXUarhJpEiRxXJ2qlInlkonm9zTysoudTQnUkeLjZ-VZgORbW5hpchoooEoA8KRPuF11A6FT1N1SI39MOovFgNtXeUdDQ_HjofjD1rPxmog0TrKQ6FY4c__DpuFZHuelRzZXpDcy4pmEXnRWuWbTGcCWdTV614f8pYeIpgQrj1MUI7X-EnhF6a1PrqXej3J-6UExafExd7k6cx6JPInH9yYQsnLsBj9Hq71QMSqoO0piyqoWl_QLYQDPMhLu1XkUcVcfEL7Dovnl6C0lSV7dbJD_m3G00]--></g></svg>