<svg xmlns="http://www.w3.org/2000/svg" xmlns:xlink="http://www.w3.org/1999/xlink" contentStyleType="text/css" data-diagram-type="ACTIVITY" height="1141px" preserveAspectRatio="none" style="width:443px;height:1141px;background:#FFFFFF;" version="1.1" viewBox="0 0 443 1141" width="443px" zoomAndPan="magnify"><title>&#20013;&#21320;&#20241;&#24687;&#25511;&#21046;&#31995;&#32479;(12:40 - 13:40)</title><defs/><g><g class="title" data-source-line="2"><text fill="#000000" font-family="sans-serif" font-size="14" font-weight="bold" lengthAdjust="spacing" textLength="208.8789" x="115.9933" y="34.5332">&#20013;&#21320;&#20241;&#24687;&#25511;&#21046;&#31995;&#32479;(12:40 - 13:40)</text></g><ellipse cx="218.6355" cy="58.6094" fill="#222222" rx="10" ry="10" style="stroke:#222222;stroke-width:1;"/><rect fill="#F1F1F1" height="35.0938" rx="12.5" ry="12.5" style="stroke:#181818;stroke-width:0.5;" width="104" x="166.6355" y="88.6094"/><text fill="#000000" font-family="sans-serif" font-size="12" lengthAdjust="spacing" textLength="84" x="176.6355" y="111.0664">&#36827;&#20837;&#20013;&#21320;&#26102;&#38388;&#27573;</text><rect fill="#F1F1F1" height="35.0938" rx="12.5" ry="12.5" style="stroke:#181818;stroke-width:0.5;" width="116" x="160.6355" y="143.7031"/><text fill="#000000" font-family="sans-serif" font-size="12" lengthAdjust="spacing" textLength="96" x="170.6355" y="166.1602">&#26816;&#26597;&#24403;&#21069;&#20219;&#21153;&#24773;&#20917;</text><polygon fill="#F1F1F1" points="166.0767,198.7969,271.1943,198.7969,283.1943,210.7969,271.1943,222.7969,166.0767,222.7969,154.0767,210.7969,166.0767,198.7969" style="stroke:#181818;stroke-width:0.5;"/><text fill="#000000" font-family="sans-serif" font-size="11" lengthAdjust="spacing" textLength="105.1177" x="166.0767" y="215.2979">&#26159;&#21542;&#26377;&#39640;&#20248;&#20808;&#32423;&#20219;&#21153;?</text><text fill="#000000" font-family="sans-serif" font-size="11" lengthAdjust="spacing" textLength="11" x="143.0767" y="208.3799">&#26377;</text><text fill="#000000" font-family="sans-serif" font-size="11" lengthAdjust="spacing" textLength="11" x="283.1943" y="208.3799">&#26080;</text><rect fill="#F1F1F1" height="35.0938" rx="12.5" ry="12.5" style="stroke:#181818;stroke-width:0.5;" width="116" x="54.0903" y="232.7969"/><text fill="#000000" font-family="sans-serif" font-size="12" lengthAdjust="spacing" textLength="96" x="64.0903" y="255.2539">&#25191;&#34892;&#39640;&#20248;&#20808;&#32423;&#20219;&#21153;</text><polygon fill="#F1F1F1" points="67,287.8906,157.1807,287.8906,169.1807,299.8906,157.1807,311.8906,67,311.8906,55,299.8906,67,287.8906" style="stroke:#181818;stroke-width:0.5;"/><text fill="#000000" font-family="sans-serif" font-size="11" lengthAdjust="spacing" textLength="90.1807" x="67" y="304.3916">&#24403;&#21069;&#26102;&#38388; &lt; 13:30?</text><text fill="#000000" font-family="sans-serif" font-size="11" lengthAdjust="spacing" textLength="11" x="44" y="297.4736">&#26159;</text><text fill="#000000" font-family="sans-serif" font-size="11" lengthAdjust="spacing" textLength="11" x="169.1807" y="297.4736">&#21542;</text><rect fill="#F1F1F1" height="35.0938" rx="12.5" ry="12.5" style="stroke:#181818;stroke-width:0.5;" width="68" x="11" y="321.8906"/><text fill="#000000" font-family="sans-serif" font-size="12" lengthAdjust="spacing" textLength="48" x="21" y="344.3477">&#20801;&#35768;&#19978;&#24202;</text><rect fill="#F1F1F1" height="35.0938" rx="12.5" ry="12.5" style="stroke:#181818;stroke-width:0.5;" width="80" x="139.1807" y="321.8906"/><text fill="#000000" font-family="sans-serif" font-size="12" lengthAdjust="spacing" textLength="60" x="149.1807" y="344.3477">&#19981;&#20801;&#35768;&#19978;&#24202;</text><rect fill="#F1F1F1" height="35.0938" rx="12.5" ry="12.5" style="stroke:#181818;stroke-width:0.5;" width="116" x="121.1807" y="376.9844"/><text fill="#000000" font-family="sans-serif" font-size="12" lengthAdjust="spacing" textLength="96" x="131.1807" y="399.4414">&#32487;&#32493;&#20445;&#25345;&#28165;&#37266;&#29366;&#24577;</text><ellipse cx="179.1807" cy="443.0781" fill="none" rx="11" ry="11" style="stroke:#222222;stroke-width:1;"/><ellipse cx="179.1807" cy="443.0781" fill="#222222" rx="6" ry="6" style="stroke:#222222;stroke-width:1;"/><rect fill="#F1F1F1" height="35.0938" rx="12.5" ry="12.5" style="stroke:#181818;stroke-width:0.5;" width="116" x="267.1807" y="232.7969"/><text fill="#000000" font-family="sans-serif" font-size="12" lengthAdjust="spacing" textLength="96" x="277.1807" y="255.2539">&#30452;&#25509;&#36827;&#20837;&#19978;&#24202;&#21028;&#26029;</text><polygon fill="#F1F1F1" points="218.6355,464.0781,230.6355,476.0781,218.6355,488.0781,206.6355,476.0781,218.6355,464.0781" style="stroke:#181818;stroke-width:0.5;"/><path d="M260.6355,498.0781 L260.6355,523.6055 L240.6355,527.6055 L260.6355,531.6055 L260.6355,557.1328 A0,0 0 0 0 260.6355,557.1328 L431.8655,557.1328 A0,0 0 0 0 431.8655,557.1328 L431.8655,508.0781 L421.8655,498.0781 L260.6355,498.0781 A0,0 0 0 0 260.6355,498.0781" fill="#FEFFDD" style="stroke:#181818;stroke-width:0.5;"/><path d="M421.8655,498.0781 L421.8655,508.0781 L431.8655,508.0781 L421.8655,498.0781" fill="#FEFFDD" style="stroke:#181818;stroke-width:0.5;"/><text fill="#000000" font-family="sans-serif" font-size="13" lengthAdjust="spacing" textLength="65" x="309.2505" y="516.5732">&#19978;&#24202;&#35268;&#21017;&#65306;</text><text fill="#000000" font-family="sans-serif" font-size="13" lengthAdjust="spacing" textLength="98.9409" x="292.28" y="532.9248">- &#19981;&#20801;&#35768;&#30452;&#25509;&#30561;&#35273;</text><text fill="#000000" font-family="sans-serif" font-size="13" lengthAdjust="spacing" textLength="150.23" x="266.6355" y="549.2764">- &#20248;&#20808;&#36827;&#34892;&#36731;&#20219;&#21153;&#65288;Anki&#65289;</text><rect fill="#F1F1F1" height="35.0938" rx="12.5" ry="12.5" style="stroke:#181818;stroke-width:0.5;" width="44" x="196.6355" y="510.0586"/><text fill="#000000" font-family="sans-serif" font-size="12" lengthAdjust="spacing" textLength="24" x="206.6355" y="532.5156">&#19978;&#24202;</text><rect fill="#F1F1F1" height="35.0938" rx="12.5" ry="12.5" style="stroke:#181818;stroke-width:0.5;" width="135.3359" x="150.9675" y="621.1328"/><text fill="#000000" font-family="sans-serif" font-size="12" lengthAdjust="spacing" textLength="115.3359" x="160.9675" y="643.5898">&#25191;&#34892;&#36731;&#20219;&#21153;(Anki&#22797;&#20064;)</text><rect fill="#F1F1F1" height="35.0938" rx="12.5" ry="12.5" style="stroke:#181818;stroke-width:0.5;" width="104" x="166.6355" y="725.1445"/><text fill="#000000" font-family="sans-serif" font-size="12" lengthAdjust="spacing" textLength="84" x="176.6355" y="747.6016">&#20801;&#35768;&#30701;&#26242;&#30511;&#19968;&#20250;</text><polygon fill="#F1F1F1" points="182.5767,676.2266,254.6943,676.2266,266.6943,688.2266,254.6943,700.2266,182.5767,700.2266,170.5767,688.2266,182.5767,676.2266" style="stroke:#181818;stroke-width:0.5;"/><text fill="#000000" font-family="sans-serif" font-size="11" lengthAdjust="spacing" textLength="11" x="222.6355" y="711.6455">&#26159;</text><text fill="#000000" font-family="sans-serif" font-size="11" lengthAdjust="spacing" textLength="72.1177" x="182.5767" y="692.7275">&#26159;&#21542;&#24378;&#28872;&#22256;&#24847;?</text><polygon fill="#F1F1F1" points="218.6355,780.2383,230.6355,792.2383,218.6355,804.2383,206.6355,792.2383,218.6355,780.2383" style="stroke:#181818;stroke-width:0.5;"/><rect fill="#F1F1F1" height="35.0938" rx="12.5" ry="12.5" style="stroke:#181818;stroke-width:0.5;" width="92" x="172.6355" y="874.1094"/><text fill="#000000" font-family="sans-serif" font-size="12" lengthAdjust="spacing" textLength="72" x="182.6355" y="896.5664">&#24378;&#21046;&#32467;&#26463;&#20241;&#24687;</text><polygon fill="#F1F1F1" points="170.3333,825.1914,266.9377,825.1914,278.9377,837.1914,266.9377,849.1914,170.3333,849.1914,158.3333,837.1914,170.3333,825.1914" style="stroke:#181818;stroke-width:0.5;"/><text fill="#000000" font-family="sans-serif" font-size="11" lengthAdjust="spacing" textLength="11" x="222.6355" y="860.6104">&#26159;</text><text fill="#000000" font-family="sans-serif" font-size="11" lengthAdjust="spacing" textLength="96.6045" x="170.3333" y="841.6924">&#24403;&#21069;&#26102;&#38388; &gt;= 13:40?</text><polygon fill="#F1F1F1" points="218.6355,577.1328,230.6355,589.1328,218.6355,601.1328,206.6355,589.1328,218.6355,577.1328" style="stroke:#181818;stroke-width:0.5;"/><polygon fill="#F1F1F1" points="193.5767,951.2031,243.6943,951.2031,255.6943,963.2031,243.6943,975.2031,193.5767,975.2031,181.5767,963.2031,193.5767,951.2031" style="stroke:#181818;stroke-width:0.5;"/><text fill="#000000" font-family="sans-serif" font-size="11" lengthAdjust="spacing" textLength="50.1177" x="193.5767" y="967.7041">&#20173;&#22312;&#24202;&#19978;?</text><text fill="#000000" font-family="sans-serif" font-size="11" lengthAdjust="spacing" textLength="11" x="255.6943" y="960.7861">&#26159;</text><polygon fill="#F1F1F1" points="218.6355,995.2031,230.6355,1007.2031,218.6355,1019.2031,206.6355,1007.2031,218.6355,995.2031" style="stroke:#181818;stroke-width:0.5;"/><path d="M260.6355,1029.2031 L260.6355,1054.7305 L240.6355,1058.7305 L260.6355,1062.7305 L260.6355,1088.2578 A0,0 0 0 0 260.6355,1088.2578 L380.5764,1088.2578 A0,0 0 0 0 380.5764,1088.2578 L380.5764,1039.2031 L370.5764,1029.2031 L260.6355,1029.2031 A0,0 0 0 0 260.6355,1029.2031" fill="#FEFFDD" style="stroke:#181818;stroke-width:0.5;"/><path d="M370.5764,1029.2031 L370.5764,1039.2031 L380.5764,1039.2031 L370.5764,1029.2031" fill="#FEFFDD" style="stroke:#181818;stroke-width:0.5;"/><text fill="#000000" font-family="sans-serif" font-size="13" lengthAdjust="spacing" textLength="65" x="283.606" y="1047.6982">&#24378;&#21046;&#35268;&#21017;&#65306;</text><text fill="#000000" font-family="sans-serif" font-size="13" lengthAdjust="spacing" textLength="72.9409" x="279.6355" y="1064.0498">- &#19981;&#20801;&#35768;&#36182;&#24202;</text><text fill="#000000" font-family="sans-serif" font-size="13" lengthAdjust="spacing" textLength="98.9409" x="266.6355" y="1080.4014">- &#31435;&#21363;&#31163;&#24320;&#24202;&#29615;&#22659;</text><rect fill="#F1F1F1" height="35.0938" rx="12.5" ry="12.5" style="stroke:#181818;stroke-width:0.5;" width="44" x="196.6355" y="1041.1836"/><text fill="#000000" font-family="sans-serif" font-size="12" lengthAdjust="spacing" textLength="24" x="206.6355" y="1063.6406">&#36215;&#24202;</text><ellipse cx="218.6355" cy="1119.2578" fill="none" rx="11" ry="11" style="stroke:#222222;stroke-width:1;"/><ellipse cx="218.6355" cy="1119.2578" fill="#222222" rx="6" ry="6" style="stroke:#222222;stroke-width:1;"/><line style="stroke:#181818;stroke-width:1;" x1="218.6355" x2="218.6355" y1="68.6094" y2="88.6094"/><polygon fill="#181818" points="214.6355,78.6094,218.6355,88.6094,222.6355,78.6094,218.6355,82.6094" style="stroke:#181818;stroke-width:1;"/><line style="stroke:#181818;stroke-width:1;" x1="218.6355" x2="218.6355" y1="123.7031" y2="143.7031"/><polygon fill="#181818" points="214.6355,133.7031,218.6355,143.7031,222.6355,133.7031,218.6355,137.7031" style="stroke:#181818;stroke-width:1;"/><line style="stroke:#181818;stroke-width:1;" x1="179.1807" x2="179.1807" y1="356.9844" y2="376.9844"/><polygon fill="#181818" points="175.1807,366.9844,179.1807,376.9844,183.1807,366.9844,179.1807,370.9844" style="stroke:#181818;stroke-width:1;"/><line style="stroke:#181818;stroke-width:1;" x1="179.1807" x2="179.1807" y1="412.0781" y2="432.0781"/><polygon fill="#181818" points="175.1807,422.0781,179.1807,432.0781,183.1807,422.0781,179.1807,426.0781" style="stroke:#181818;stroke-width:1;"/><line style="stroke:#181818;stroke-width:1;" x1="55" x2="45" y1="299.8906" y2="299.8906"/><line style="stroke:#181818;stroke-width:1;" x1="45" x2="45" y1="299.8906" y2="321.8906"/><polygon fill="#181818" points="41,311.8906,45,321.8906,49,311.8906,45,315.8906" style="stroke:#181818;stroke-width:1;"/><line style="stroke:#181818;stroke-width:1;" x1="169.1807" x2="179.1807" y1="299.8906" y2="299.8906"/><line style="stroke:#181818;stroke-width:1;" x1="179.1807" x2="179.1807" y1="299.8906" y2="321.8906"/><polygon fill="#181818" points="175.1807,311.8906,179.1807,321.8906,183.1807,311.8906,179.1807,315.8906" style="stroke:#181818;stroke-width:1;"/><line style="stroke:#181818;stroke-width:1;" x1="45" x2="45" y1="356.9844" y2="476.0781"/><line style="stroke:#181818;stroke-width:1;" x1="45" x2="206.6355" y1="476.0781" y2="476.0781"/><polygon fill="#181818" points="196.6355,472.0781,206.6355,476.0781,196.6355,480.0781,200.6355,476.0781" style="stroke:#181818;stroke-width:1;"/><line style="stroke:#181818;stroke-width:1;" x1="112.0903" x2="112.0903" y1="267.8906" y2="287.8906"/><polygon fill="#181818" points="108.0903,277.8906,112.0903,287.8906,116.0903,277.8906,112.0903,281.8906" style="stroke:#181818;stroke-width:1;"/><line style="stroke:#181818;stroke-width:1;" x1="154.0767" x2="112.0903" y1="210.7969" y2="210.7969"/><line style="stroke:#181818;stroke-width:1;" x1="112.0903" x2="112.0903" y1="210.7969" y2="232.7969"/><polygon fill="#181818" points="108.0903,222.7969,112.0903,232.7969,116.0903,222.7969,112.0903,226.7969" style="stroke:#181818;stroke-width:1;"/><line style="stroke:#181818;stroke-width:1;" x1="283.1943" x2="325.1807" y1="210.7969" y2="210.7969"/><line style="stroke:#181818;stroke-width:1;" x1="325.1807" x2="325.1807" y1="210.7969" y2="232.7969"/><polygon fill="#181818" points="321.1807,222.7969,325.1807,232.7969,329.1807,222.7969,325.1807,226.7969" style="stroke:#181818;stroke-width:1;"/><line style="stroke:#181818;stroke-width:1;" x1="325.1807" x2="325.1807" y1="267.8906" y2="476.0781"/><line style="stroke:#181818;stroke-width:1;" x1="325.1807" x2="230.6355" y1="476.0781" y2="476.0781"/><polygon fill="#181818" points="240.6355,472.0781,230.6355,476.0781,240.6355,480.0781,236.6355,476.0781" style="stroke:#181818;stroke-width:1;"/><line style="stroke:#181818;stroke-width:1;" x1="218.6355" x2="218.6355" y1="178.7969" y2="198.7969"/><polygon fill="#181818" points="214.6355,188.7969,218.6355,198.7969,222.6355,188.7969,218.6355,192.7969" style="stroke:#181818;stroke-width:1;"/><line style="stroke:#181818;stroke-width:1;" x1="218.6355" x2="218.6355" y1="488.0781" y2="510.0586"/><polygon fill="#181818" points="214.6355,500.0586,218.6355,510.0586,222.6355,500.0586,218.6355,504.0586" style="stroke:#181818;stroke-width:1;"/><line style="stroke:#181818;stroke-width:1;" x1="218.6355" x2="218.6355" y1="700.2266" y2="725.1445"/><polygon fill="#181818" points="214.6355,715.1445,218.6355,725.1445,222.6355,715.1445,218.6355,719.1445" style="stroke:#181818;stroke-width:1;"/><line style="stroke:#181818;stroke-width:1;" x1="266.6943" x2="280.6355" y1="688.2266" y2="688.2266"/><polygon fill="#181818" points="276.6355,732.6914,280.6355,742.6914,284.6355,732.6914,280.6355,736.6914" style="stroke:#181818;stroke-width:1;"/><line style="stroke:#181818;stroke-width:1;" x1="280.6355" x2="280.6355" y1="688.2266" y2="792.2383"/><line style="stroke:#181818;stroke-width:1;" x1="280.6355" x2="230.6355" y1="792.2383" y2="792.2383"/><polygon fill="#181818" points="240.6355,788.2383,230.6355,792.2383,240.6355,796.2383,236.6355,792.2383" style="stroke:#181818;stroke-width:1;"/><line style="stroke:#181818;stroke-width:1;" x1="218.6355" x2="218.6355" y1="760.2383" y2="780.2383"/><polygon fill="#181818" points="214.6355,770.2383,218.6355,780.2383,222.6355,770.2383,218.6355,774.2383" style="stroke:#181818;stroke-width:1;"/><line style="stroke:#181818;stroke-width:1;" x1="218.6355" x2="218.6355" y1="656.2266" y2="676.2266"/><polygon fill="#181818" points="214.6355,666.2266,218.6355,676.2266,222.6355,666.2266,218.6355,670.2266" style="stroke:#181818;stroke-width:1;"/><line style="stroke:#181818;stroke-width:1;" x1="218.6355" x2="218.6355" y1="909.2031" y2="914.2031"/><line style="stroke:#181818;stroke-width:1;" x1="218.6355" x2="140.9675" y1="914.2031" y2="914.2031"/><line style="stroke:#181818;stroke-width:1;" x1="140.9675" x2="140.9675" y1="914.2031" y2="1007.2031"/><line style="stroke:#181818;stroke-width:1;" x1="140.9675" x2="206.6355" y1="1007.2031" y2="1007.2031"/><polygon fill="#181818" points="196.6355,1003.2031,206.6355,1007.2031,196.6355,1011.2031,200.6355,1007.2031" style="stroke:#181818;stroke-width:1;"/><line style="stroke:#181818;stroke-width:1;" x1="218.6355" x2="218.6355" y1="849.1914" y2="874.1094"/><polygon fill="#181818" points="214.6355,864.1094,218.6355,874.1094,222.6355,864.1094,218.6355,868.1094" style="stroke:#181818;stroke-width:1;"/><line style="stroke:#181818;stroke-width:1;" x1="278.9377" x2="290.9377" y1="837.1914" y2="837.1914"/><polygon fill="#181818" points="286.9377,896.1563,290.9377,906.1563,294.9377,896.1563,290.9377,900.1563" style="stroke:#181818;stroke-width:1;"/><line style="stroke:#181818;stroke-width:1;" x1="290.9377" x2="290.9377" y1="837.1914" y2="931.2031"/><line style="stroke:#181818;stroke-width:1;" x1="290.9377" x2="218.6355" y1="931.2031" y2="931.2031"/><line style="stroke:#181818;stroke-width:1;" x1="218.6355" x2="218.6355" y1="931.2031" y2="951.2031"/><polygon fill="#181818" points="214.6355,941.2031,218.6355,951.2031,222.6355,941.2031,218.6355,945.2031" style="stroke:#181818;stroke-width:1;"/><line style="stroke:#181818;stroke-width:1;" x1="218.6355" x2="218.6355" y1="804.2383" y2="825.1914"/><polygon fill="#181818" points="214.6355,815.1914,218.6355,825.1914,222.6355,815.1914,218.6355,819.1914" style="stroke:#181818;stroke-width:1;"/><line style="stroke:#181818;stroke-width:1;" x1="218.6355" x2="218.6355" y1="601.1328" y2="621.1328"/><polygon fill="#181818" points="214.6355,611.1328,218.6355,621.1328,222.6355,611.1328,218.6355,615.1328" style="stroke:#181818;stroke-width:1;"/><line style="stroke:#181818;stroke-width:1;" x1="255.6943" x2="304.6355" y1="963.2031" y2="963.2031"/><polygon fill="#181818" points="300.6355,805.1914,304.6355,795.1914,308.6355,805.1914,304.6355,801.1914" style="stroke:#181818;stroke-width:1;"/><line style="stroke:#181818;stroke-width:1;" x1="304.6355" x2="304.6355" y1="589.1328" y2="963.2031"/><line style="stroke:#181818;stroke-width:1;" x1="304.6355" x2="230.6355" y1="589.1328" y2="589.1328"/><polygon fill="#181818" points="240.6355,585.1328,230.6355,589.1328,240.6355,593.1328,236.6355,589.1328" style="stroke:#181818;stroke-width:1;"/><line style="stroke:#181818;stroke-width:1;" x1="218.6355" x2="218.6355" y1="975.2031" y2="995.2031"/><polygon fill="#181818" points="214.6355,985.2031,218.6355,995.2031,222.6355,985.2031,218.6355,989.2031" style="stroke:#181818;stroke-width:1;"/><line style="stroke:#181818;stroke-width:1;" x1="218.6355" x2="218.6355" y1="545.1523" y2="577.1328"/><polygon fill="#181818" points="214.6355,567.1328,218.6355,577.1328,222.6355,567.1328,218.6355,571.1328" style="stroke:#181818;stroke-width:1;"/><line style="stroke:#181818;stroke-width:1;" x1="218.6355" x2="218.6355" y1="1019.2031" y2="1041.1836"/><polygon fill="#181818" points="214.6355,1031.1836,218.6355,1041.1836,222.6355,1031.1836,218.6355,1035.1836" style="stroke:#181818;stroke-width:1;"/><line style="stroke:#181818;stroke-width:1;" x1="218.6355" x2="218.6355" y1="1076.2773" y2="1108.2578"/><polygon fill="#181818" points="214.6355,1098.2578,218.6355,1108.2578,222.6355,1098.2578,218.6355,1102.2578" style="stroke:#181818;stroke-width:1;"/><!--SRC=[VPBBRjf058RtynIpX4MafEaAUb6aFa9Vm6s7O44SP4_LBg74aKrZcZPIe5n4Q0Ek514g9L0NEyhBpCMiU8MEFH0i9QaNjdJEV_v__Cqn2gfMKdHb3xv2EULz4Rz67_5EKTtLzf26uLlnGZh0AYuYIBmHTImIV6MLCQkxr9hoAv_xlTJMaypJJRW1jxR5Dms0WHKT0v09RzlK7CWnrfZE6zViSf8L3VQpp7e3UdD2ROVuFgtrMTMaXr5FpS4KQuxfyP1rxFb5amHDQbfyvahTopJ4UQG9JSTE0oYU3BFTi7zqNohCedvaA9Fa4U2pw9pRcskdvbWwnMxKh8IN7l5gT5RBncLKD92mE1ucLCHpxWlZ3lTTxe_8RPSTLPXdpW-_yTgKbIjhYO7tIz9OUwVc093-h76s_1_UlcRrmOfTP4-jStOwoeBbG6OL2hHzZA2kxkPnF2hheNj0hU-Be1NNDk3TMQKnx_P3rrxrOcGYIn0CRtm9RX5OErf1NGHsb0YZ401qL48AJXA_qwSYDJrtoD-pT0Awl4KQp7ZLektVxE3BVv7pteYrFl7Ec7Xb4hIoIKGFtkEBvtBX7dCDPj66-YUisvCxkxw2DpfI2ia0-NVmGruLUvuYlaCxlmHA0LIugyRIMspqvC-3v6NOe-J3oQaOMrRvnMVgNF6XJuEogFBwcFwe9aX7-_4F]--></g></svg>