<svg xmlns="http://www.w3.org/2000/svg" xmlns:xlink="http://www.w3.org/1999/xlink" contentStyleType="text/css" data-diagram-type="ACTIVITY" height="632px" preserveAspectRatio="none" style="width:532px;height:632px;background:#FFFFFF;" version="1.1" viewBox="0 0 532 632" width="532px" zoomAndPan="magnify"><title>&#24202;&#22495;&#38548;&#31163;&#21327;&#35758;</title><defs/><g><g class="title" data-source-line="2"><text fill="#000000" font-family="sans-serif" font-size="14" font-weight="bold" lengthAdjust="spacing" textLength="86.625" x="221.5952" y="34.5332">&#24202;&#22495;&#38548;&#31163;&#21327;&#35758;</text></g><ellipse cx="199.7039" cy="58.6094" fill="#222222" rx="10" ry="10" style="stroke:#222222;stroke-width:1;"/><rect fill="#F1F1F1" height="35.0938" rx="12.5" ry="12.5" style="stroke:#181818;stroke-width:0.5;" width="92" x="153.7039" y="88.6094"/><text fill="#000000" font-family="sans-serif" font-size="12" lengthAdjust="spacing" textLength="72" x="163.7039" y="111.0664">&#24403;&#21069;&#26102;&#38388;&#26816;&#27979;</text><polygon fill="#F1F1F1" points="150.7866,143.7031,248.6211,143.7031,260.6211,155.7031,248.6211,167.7031,150.7866,167.7031,138.7866,155.7031,150.7866,143.7031" style="stroke:#181818;stroke-width:0.5;"/><text fill="#000000" font-family="sans-serif" font-size="11" lengthAdjust="spacing" textLength="97.8345" x="150.7866" y="160.2041">&#26159;&#21542;&#22312;12:40-13:40?</text><text fill="#000000" font-family="sans-serif" font-size="11" lengthAdjust="spacing" textLength="11" x="127.7866" y="153.2861">&#26159;</text><text fill="#000000" font-family="sans-serif" font-size="11" lengthAdjust="spacing" textLength="11" x="260.6211" y="153.2861">&#21542;</text><rect fill="#F1F1F1" height="35.0938" rx="12.5" ry="12.5" style="stroke:#181818;stroke-width:0.5;" width="92" x="23" y="177.7031"/><text fill="#000000" font-family="sans-serif" font-size="12" lengthAdjust="spacing" textLength="72" x="33" y="200.1602">&#20801;&#35768;&#36827;&#20837;&#24202;&#22495;</text><rect fill="#F1F1F1" height="35.0938" rx="12.5" ry="12.5" style="stroke:#181818;stroke-width:0.5;" width="116" x="11" y="247.7969"/><text fill="#000000" font-family="sans-serif" font-size="12" lengthAdjust="spacing" textLength="96" x="21" y="270.2539">&#25191;&#34892;&#21320;&#38388;&#20241;&#24687;&#31574;&#30053;</text><polygon fill="#F1F1F1" points="294.3489,177.7031,366.4666,177.7031,378.4666,189.7031,366.4666,201.7031,294.3489,201.7031,282.3489,189.7031,294.3489,177.7031" style="stroke:#181818;stroke-width:0.5;"/><text fill="#000000" font-family="sans-serif" font-size="11" lengthAdjust="spacing" textLength="72.1177" x="294.3489" y="194.2041">&#26159;&#21542;&#23581;&#35797;&#19978;&#24202;?</text><text fill="#000000" font-family="sans-serif" font-size="11" lengthAdjust="spacing" textLength="11" x="271.3489" y="187.2861">&#26159;</text><text fill="#000000" font-family="sans-serif" font-size="11" lengthAdjust="spacing" textLength="11" x="378.4666" y="187.2861">&#21542;</text><rect fill="#F1F1F1" height="35.0938" rx="12.5" ry="12.5" style="stroke:#181818;stroke-width:0.5;" width="68" x="157" y="211.7031"/><text fill="#000000" font-family="sans-serif" font-size="12" lengthAdjust="spacing" textLength="48" x="167" y="234.1602">&#31105;&#27490;&#34892;&#20026;</text><path d="M245,286.168 L245,295.3438 L225,299.3438 L245,303.3438 L245,312.5195 A0,0 0 0 0 245,312.5195 L397.8154,312.5195 A0,0 0 0 0 397.8154,312.5195 L397.8154,296.168 L387.8154,286.168 L245,286.168 A0,0 0 0 0 245,286.168" fill="#FEFFDD" style="stroke:#181818;stroke-width:0.5;"/><path d="M387.8154,286.168 L387.8154,296.168 L397.8154,296.168 L387.8154,286.168" fill="#FEFFDD" style="stroke:#181818;stroke-width:0.5;"/><text fill="#000000" font-family="sans-serif" font-size="13" lengthAdjust="spacing" textLength="131.8154" x="251" y="304.6631">&#19979;&#21320;&#19978;&#24202; = &#39640;&#39118;&#38505;&#34892;&#20026;</text><rect fill="#F1F1F1" height="35.0938" rx="12.5" ry="12.5" style="stroke:#181818;stroke-width:0.5;" width="68" x="157" y="281.7969"/><text fill="#000000" font-family="sans-serif" font-size="12" lengthAdjust="spacing" textLength="48" x="167" y="304.2539">&#26631;&#35760;&#36829;&#35268;</text><rect fill="#F1F1F1" height="35.0938" rx="12.5" ry="12.5" style="stroke:#181818;stroke-width:0.5;" width="104" x="417.8154" y="211.7031"/><text fill="#000000" font-family="sans-serif" font-size="12" lengthAdjust="spacing" textLength="84" x="427.8154" y="234.1602">&#27491;&#24120;&#27963;&#21160;&#25110;&#20219;&#21153;</text><polygon fill="#F1F1F1" points="330.4077,322.8906,342.4077,334.8906,330.4077,346.8906,318.4077,334.8906,330.4077,322.8906" style="stroke:#181818;stroke-width:0.5;"/><polygon fill="#F1F1F1" points="199.7039,352.8906,211.7039,364.8906,199.7039,376.8906,187.7039,364.8906,199.7039,352.8906" style="stroke:#181818;stroke-width:0.5;"/><path d="M265.7039,443.8096 L265.7039,485.6885 L245.7039,489.6885 L265.7039,493.6885 L265.7039,535.5674 A0,0 0 0 0 265.7039,535.5674 L414.5393,535.5674 A0,0 0 0 0 414.5393,535.5674 L414.5393,453.8096 L404.5393,443.8096 L265.7039,443.8096 A0,0 0 0 0 265.7039,443.8096" fill="#FEFFDD" style="stroke:#181818;stroke-width:0.5;"/><path d="M404.5393,443.8096 L404.5393,453.8096 L414.5393,453.8096 L404.5393,443.8096" fill="#FEFFDD" style="stroke:#181818;stroke-width:0.5;"/><text fill="#000000" font-family="sans-serif" font-size="13" lengthAdjust="spacing" textLength="107.6118" x="281.8157" y="462.3047">&#20854;&#23454;&#20063;&#27809;&#20160;&#20040;&#24809;&#32602;,</text><text fill="#000000" font-family="sans-serif" font-size="13" lengthAdjust="spacing" textLength="98.2236" x="286.5098" y="478.6563">&#36824;&#26159;&#24515;&#19981;&#35802;, &#20855;&#20307;</text><text fill="#000000" font-family="sans-serif" font-size="13" lengthAdjust="spacing" textLength="127.8354" x="271.7039" y="495.0078">&#35831;&#30475;./&#36138;&#24515;&#19982;&#21160;&#24577;&#35268;&#21010;/</text><text fill="#000000" font-family="sans-serif" font-size="13" lengthAdjust="spacing" textLength="87.4009" x="290.1152" y="511.3594">&#21160;&#24577;&#35268;&#21010;.puml,</text><text fill="#000000" font-family="sans-serif" font-size="13" lengthAdjust="spacing" textLength="57.7891" x="306.7271" y="527.7109">&#36138;&#24515;.puml</text><rect fill="#F1F1F1" height="35.0938" rx="12.5" ry="12.5" style="stroke:#181818;stroke-width:0.5;" width="92" x="153.7039" y="472.1416"/><text fill="#000000" font-family="sans-serif" font-size="12" lengthAdjust="spacing" textLength="72" x="163.7039" y="494.5986">&#35302;&#21457;&#24809;&#32602;&#26426;&#21046;</text><polygon fill="#F1F1F1" points="163.645,396.8906,235.7627,396.8906,247.7627,408.8906,235.7627,420.8906,163.645,420.8906,151.645,408.8906,163.645,396.8906" style="stroke:#181818;stroke-width:0.5;"/><text fill="#000000" font-family="sans-serif" font-size="11" lengthAdjust="spacing" textLength="11" x="203.7039" y="432.3096">&#26159;</text><text fill="#000000" font-family="sans-serif" font-size="11" lengthAdjust="spacing" textLength="72.1177" x="163.645" y="413.3916">&#26159;&#21542;&#21457;&#29983;&#36829;&#35268;?</text><polygon fill="#F1F1F1" points="199.7039,555.5674,211.7039,567.5674,199.7039,579.5674,187.7039,567.5674,199.7039,555.5674" style="stroke:#181818;stroke-width:0.5;"/><ellipse cx="199.7039" cy="610.5674" fill="none" rx="11" ry="11" style="stroke:#222222;stroke-width:1;"/><ellipse cx="199.7039" cy="610.5674" fill="#222222" rx="6" ry="6" style="stroke:#222222;stroke-width:1;"/><line style="stroke:#181818;stroke-width:1;" x1="199.7039" x2="199.7039" y1="68.6094" y2="88.6094"/><polygon fill="#181818" points="195.7039,78.6094,199.7039,88.6094,203.7039,78.6094,199.7039,82.6094" style="stroke:#181818;stroke-width:1;"/><line style="stroke:#181818;stroke-width:1;" x1="69" x2="69" y1="212.7969" y2="247.7969"/><polygon fill="#181818" points="65,237.7969,69,247.7969,73,237.7969,69,241.7969" style="stroke:#181818;stroke-width:1;"/><line style="stroke:#181818;stroke-width:1;" x1="191" x2="191" y1="246.7969" y2="281.7969"/><polygon fill="#181818" points="187,271.7969,191,281.7969,195,271.7969,191,275.7969" style="stroke:#181818;stroke-width:1;"/><line style="stroke:#181818;stroke-width:1;" x1="282.3489" x2="191" y1="189.7031" y2="189.7031"/><line style="stroke:#181818;stroke-width:1;" x1="191" x2="191" y1="189.7031" y2="211.7031"/><polygon fill="#181818" points="187,201.7031,191,211.7031,195,201.7031,191,205.7031" style="stroke:#181818;stroke-width:1;"/><line style="stroke:#181818;stroke-width:1;" x1="378.4666" x2="469.8154" y1="189.7031" y2="189.7031"/><line style="stroke:#181818;stroke-width:1;" x1="469.8154" x2="469.8154" y1="189.7031" y2="211.7031"/><polygon fill="#181818" points="465.8154,201.7031,469.8154,211.7031,473.8154,201.7031,469.8154,205.7031" style="stroke:#181818;stroke-width:1;"/><line style="stroke:#181818;stroke-width:1;" x1="191" x2="191" y1="316.8906" y2="334.8906"/><line style="stroke:#181818;stroke-width:1;" x1="191" x2="318.4077" y1="334.8906" y2="334.8906"/><polygon fill="#181818" points="308.4077,330.8906,318.4077,334.8906,308.4077,338.8906,312.4077,334.8906" style="stroke:#181818;stroke-width:1;"/><line style="stroke:#181818;stroke-width:1;" x1="469.8154" x2="469.8154" y1="246.7969" y2="334.8906"/><line style="stroke:#181818;stroke-width:1;" x1="469.8154" x2="342.4077" y1="334.8906" y2="334.8906"/><polygon fill="#181818" points="352.4077,330.8906,342.4077,334.8906,352.4077,338.8906,348.4077,334.8906" style="stroke:#181818;stroke-width:1;"/><line style="stroke:#181818;stroke-width:1;" x1="138.7866" x2="69" y1="155.7031" y2="155.7031"/><line style="stroke:#181818;stroke-width:1;" x1="69" x2="69" y1="155.7031" y2="177.7031"/><polygon fill="#181818" points="65,167.7031,69,177.7031,73,167.7031,69,171.7031" style="stroke:#181818;stroke-width:1;"/><line style="stroke:#181818;stroke-width:1;" x1="260.6211" x2="330.4077" y1="155.7031" y2="155.7031"/><line style="stroke:#181818;stroke-width:1;" x1="330.4077" x2="330.4077" y1="155.7031" y2="177.7031"/><polygon fill="#181818" points="326.4077,167.7031,330.4077,177.7031,334.4077,167.7031,330.4077,171.7031" style="stroke:#181818;stroke-width:1;"/><line style="stroke:#181818;stroke-width:1;" x1="69" x2="69" y1="282.8906" y2="364.8906"/><line style="stroke:#181818;stroke-width:1;" x1="69" x2="187.7039" y1="364.8906" y2="364.8906"/><polygon fill="#181818" points="177.7039,360.8906,187.7039,364.8906,177.7039,368.8906,181.7039,364.8906" style="stroke:#181818;stroke-width:1;"/><line style="stroke:#181818;stroke-width:1;" x1="330.4077" x2="330.4077" y1="346.8906" y2="364.8906"/><line style="stroke:#181818;stroke-width:1;" x1="330.4077" x2="211.7039" y1="364.8906" y2="364.8906"/><polygon fill="#181818" points="221.7039,360.8906,211.7039,364.8906,221.7039,368.8906,217.7039,364.8906" style="stroke:#181818;stroke-width:1;"/><line style="stroke:#181818;stroke-width:1;" x1="199.7039" x2="199.7039" y1="123.7031" y2="143.7031"/><polygon fill="#181818" points="195.7039,133.7031,199.7039,143.7031,203.7039,133.7031,199.7039,137.7031" style="stroke:#181818;stroke-width:1;"/><line style="stroke:#181818;stroke-width:1;" x1="199.7039" x2="199.7039" y1="420.8906" y2="472.1416"/><polygon fill="#181818" points="195.7039,462.1416,199.7039,472.1416,203.7039,462.1416,199.7039,466.1416" style="stroke:#181818;stroke-width:1;"/><line style="stroke:#181818;stroke-width:1;" x1="247.7627" x2="424.5393" y1="408.8906" y2="408.8906"/><polygon fill="#181818" points="420.5393,479.6885,424.5393,489.6885,428.5393,479.6885,424.5393,483.6885" style="stroke:#181818;stroke-width:1;"/><line style="stroke:#181818;stroke-width:1;" x1="424.5393" x2="424.5393" y1="408.8906" y2="567.5674"/><line style="stroke:#181818;stroke-width:1;" x1="424.5393" x2="211.7039" y1="567.5674" y2="567.5674"/><polygon fill="#181818" points="221.7039,563.5674,211.7039,567.5674,221.7039,571.5674,217.7039,567.5674" style="stroke:#181818;stroke-width:1;"/><line style="stroke:#181818;stroke-width:1;" x1="199.7039" x2="199.7039" y1="507.2354" y2="555.5674"/><polygon fill="#181818" points="195.7039,545.5674,199.7039,555.5674,203.7039,545.5674,199.7039,549.5674" style="stroke:#181818;stroke-width:1;"/><line style="stroke:#181818;stroke-width:1;" x1="199.7039" x2="199.7039" y1="376.8906" y2="396.8906"/><polygon fill="#181818" points="195.7039,386.8906,199.7039,396.8906,203.7039,386.8906,199.7039,390.8906" style="stroke:#181818;stroke-width:1;"/><line style="stroke:#181818;stroke-width:1;" x1="199.7039" x2="199.7039" y1="579.5674" y2="599.5674"/><polygon fill="#181818" points="195.7039,589.5674,199.7039,599.5674,203.7039,589.5674,199.7039,593.5674" style="stroke:#181818;stroke-width:1;"/><!--SRC=[RP3BJW8n58RtVOek9S6xAuWn9Zw2Bq2qwCHX950Ibn0bZY3UBuWW8X54mumnY2D8U9csqtaBIsiGBrrq9lyvv_l_q_Y6PaH3iL04Bg5mAA7ZPRI55tLjpOWW0yCLSQ4Om1hM4QIT32sNlSAPM-lIt26tB03YE1J300HexvJkvTXbsxjiiMgIlMQ306XXECRoDZsgqUB3z4nWRcfyUbRS2pw8rv4XYpu0nGdGT8fR3kzVq_IzyWcg0jkhyye-pPa2J3wEMSfscnVk-Rt08psEu9YW-u3i7R5xBd7xd3WPWVfh9hbkBSMQTm9Dd4xmMsQtkznwvlqIh-y4mL0tDZ62CMrj7G-bmI5ELYHJFd0UUazvhthWNJKKTjYAZ5L9aC98wc_NPfKw3cjrQUQ1cHUaAtugAfMOrS9YL_KPMV7ms3qhgw3_l2Ul3phOTiFj5LYnGyssmlrQXARRrBeXxsNsKY7T97atrOXVLda_Fp3hRnCdn-s2NxI_aTwfgjblRZ4xCSbRZxBXO10zcH9fg7aogU0ZoaGq4T7zK8tA4Qc07y_pjMGSRqO_0G00]--></g></svg>