<svg xmlns="http://www.w3.org/2000/svg" xmlns:xlink="http://www.w3.org/1999/xlink" contentStyleType="text/css" data-diagram-type="ACTIVITY" height="1090px" preserveAspectRatio="none" style="width:376px;height:1090px;background:#FFFFFF;" version="1.1" viewBox="0 0 376 1090" width="376px" zoomAndPan="magnify"><title>&#26202;&#38388;&#27490;&#25439;&#25191;&#34892;&#27969;&#31243;&#65288;&#21453;&#25302;&#24310;/&#21453;&#25918;&#39134;&#65289;</title><defs/><g><g class="title" data-source-line="3"><text fill="#000000" font-family="sans-serif" font-size="14" font-weight="bold" lengthAdjust="spacing" textLength="234.8896" x="69.3892" y="34.5332">&#26202;&#38388;&#27490;&#25439;&#25191;&#34892;&#27969;&#31243;&#65288;&#21453;&#25302;&#24310;/&#21453;&#25918;&#39134;&#65289;</text></g><ellipse cx="208.001" cy="58.6094" fill="#222222" rx="10" ry="10" style="stroke:#222222;stroke-width:1;"/><rect fill="#F1F1F1" height="35.0938" rx="12.5" ry="12.5" style="stroke:#181818;stroke-width:0.5;" width="200" x="108.001" y="88.6094"/><text fill="#000000" font-family="sans-serif" font-size="12" lengthAdjust="spacing" textLength="180" x="118.001" y="111.0664">&#24403;&#21069;&#26102;&#38388;&#25509;&#36817;&#25110;&#36229;&#36807;&#35745;&#21010;&#20837;&#30561;&#26102;&#38388;</text><polygon fill="#F1F1F1" points="157.2791,143.7031,258.7229,143.7031,270.7229,157.5391,258.7229,171.375,157.2791,171.375,145.2791,157.5391,157.2791,143.7031" style="stroke:#181818;stroke-width:0.5;"/><text fill="#000000" font-family="sans-serif" font-size="11" lengthAdjust="spacing" textLength="44" x="186.001" y="155.1221">&#26159;&#21542;&#20986;&#29616;</text><text fill="#000000" font-family="sans-serif" font-size="11" lengthAdjust="spacing" textLength="101.4438" x="157.2791" y="168.958">&#8220;&#21453;&#27491;&#24050;&#32463;&#26202;&#20102;&#8221;&#24819;&#27861;?</text><text fill="#000000" font-family="sans-serif" font-size="11" lengthAdjust="spacing" textLength="11" x="134.2791" y="155.1221">&#26159;</text><text fill="#000000" font-family="sans-serif" font-size="11" lengthAdjust="spacing" textLength="11" x="270.7229" y="155.1221">&#21542;</text><rect fill="#F1F1F1" height="35.0938" rx="12.5" ry="12.5" style="stroke:#181818;stroke-width:0.5;" width="92" x="68.334" y="181.375"/><text fill="#000000" font-family="sans-serif" font-size="12" lengthAdjust="spacing" textLength="72" x="78.334" y="203.832">&#35302;&#21457;&#27490;&#25439;&#35268;&#21017;</text><rect fill="#F1F1F1" height="35.0938" rx="12.5" ry="12.5" style="stroke:#181818;stroke-width:0.5;" width="206.668" x="11" y="236.4688"/><text fill="#000000" font-family="sans-serif" font-size="12" lengthAdjust="spacing" textLength="186.668" x="21" y="258.9258">&#20572;&#27490;&#24403;&#21069;&#34892;&#20026;&#65288;&#21047;&#25163;&#26426;/&#21457;&#21574;/&#25302;&#24310;&#65289;</text><rect fill="#F1F1F1" height="35.0938" rx="12.5" ry="12.5" style="stroke:#181818;stroke-width:0.5;" width="119.334" x="54.667" y="340.4805"/><text fill="#000000" font-family="sans-serif" font-size="12" lengthAdjust="spacing" textLength="99.334" x="64.667" y="362.9375">&#31435;&#21051;&#20851;&#38381;&#25163;&#26426;/&#30005;&#33041;</text><polygon fill="#F1F1F1" points="56.2751,291.5625,172.3928,291.5625,184.3928,303.5625,172.3928,315.5625,56.2751,315.5625,44.2751,303.5625,56.2751,291.5625" style="stroke:#181818;stroke-width:0.5;"/><text fill="#000000" font-family="sans-serif" font-size="11" lengthAdjust="spacing" textLength="11" x="118.334" y="326.9814">&#26159;</text><text fill="#000000" font-family="sans-serif" font-size="11" lengthAdjust="spacing" textLength="116.1177" x="56.2751" y="308.0635">&#26159;&#21542;&#36824;&#22312;&#20570;&#39640;&#21050;&#28608;&#34892;&#20026;?</text><text fill="#000000" font-family="sans-serif" font-size="11" lengthAdjust="spacing" textLength="11" x="184.3928" y="301.1455">&#21542;</text><polygon fill="#F1F1F1" points="114.334,395.5742,126.334,407.5742,114.334,419.5742,102.334,407.5742,114.334,395.5742" style="stroke:#181818;stroke-width:0.5;"/><rect fill="#F1F1F1" height="35.0938" rx="12.5" ry="12.5" style="stroke:#181818;stroke-width:0.5;" width="123.9922" x="52.3379" y="439.5742"/><text fill="#000000" font-family="sans-serif" font-size="12" lengthAdjust="spacing" textLength="103.9922" x="62.3379" y="462.0313">&#36827;&#20837;&#8220;&#26368;&#23567;&#30561;&#35273;&#29256;&#26412;&#8221;</text><rect fill="none" height="194.8906" style="stroke:#000000;stroke-width:1.5;" width="196" x="16.334" y="484.668"/><path d="M110.334,484.668 L110.334,495.2773 L100.334,505.2773 L16.334,505.2773" fill="none" style="stroke:#000000;stroke-width:1.5;"/><text fill="#000000" font-family="sans-serif" font-size="14" lengthAdjust="spacing" textLength="84" x="19.334" y="500.2012">&#26368;&#23567;&#30561;&#35273;&#29256;&#26412;</text><rect fill="#F1F1F1" height="35.0938" rx="12.5" ry="12.5" style="stroke:#181818;stroke-width:0.5;" width="176" x="26.334" y="522.2773"/><text fill="#000000" font-family="sans-serif" font-size="12" lengthAdjust="spacing" textLength="156" x="36.334" y="544.7344">&#31616;&#21333;&#27927;&#28465;&#65288;&#21487;&#36339;&#36807;&#22797;&#26434;&#27493;&#39588;&#65289;</text><rect fill="#F1F1F1" height="35.0938" rx="12.5" ry="12.5" style="stroke:#181818;stroke-width:0.5;" width="152" x="38.334" y="577.3711"/><text fill="#000000" font-family="sans-serif" font-size="12" lengthAdjust="spacing" textLength="132" x="48.334" y="599.8281">&#20851;&#38381;&#28783;&#20809;&#25110;&#38477;&#20302;&#29615;&#22659;&#21050;&#28608;</text><rect fill="#F1F1F1" height="35.0938" rx="12.5" ry="12.5" style="stroke:#181818;stroke-width:0.5;" width="68" x="80.334" y="632.4648"/><text fill="#000000" font-family="sans-serif" font-size="12" lengthAdjust="spacing" textLength="48" x="90.334" y="654.9219">&#30452;&#25509;&#19978;&#24202;</text><rect fill="#F1F1F1" height="35.0938" rx="12.5" ry="12.5" style="stroke:#181818;stroke-width:0.5;" width="95.334" x="66.667" y="748.4766"/><text fill="#000000" font-family="sans-serif" font-size="12" lengthAdjust="spacing" textLength="75.334" x="76.667" y="770.9336">&#20351;&#29992;&#32819;&#22622;/&#30524;&#32617;</text><rect fill="#F1F1F1" height="35.0938" rx="12.5" ry="12.5" style="stroke:#181818;stroke-width:0.5;" width="104" x="62.334" y="818.5703"/><text fill="#000000" font-family="sans-serif" font-size="12" lengthAdjust="spacing" textLength="84" x="72.334" y="841.0273">&#20801;&#35768;&#29615;&#22659;&#19981;&#23436;&#32654;</text><polygon fill="#F1F1F1" points="83.7751,699.5586,144.8928,699.5586,156.8928,711.5586,144.8928,723.5586,83.7751,723.5586,71.7751,711.5586,83.7751,699.5586" style="stroke:#181818;stroke-width:0.5;"/><text fill="#000000" font-family="sans-serif" font-size="11" lengthAdjust="spacing" textLength="11" x="118.334" y="734.9775">&#26159;</text><text fill="#000000" font-family="sans-serif" font-size="11" lengthAdjust="spacing" textLength="61.1177" x="83.7751" y="716.0596">&#33293;&#21451;&#20173;&#26410;&#30561;?</text><text fill="#000000" font-family="sans-serif" font-size="11" lengthAdjust="spacing" textLength="11" x="156.8928" y="709.1416">&#21542;</text><polygon fill="#F1F1F1" points="114.334,873.6641,126.334,885.6641,114.334,897.6641,102.334,885.6641,114.334,873.6641" style="stroke:#181818;stroke-width:0.5;"/><rect fill="#F1F1F1" height="35.0938" rx="12.5" ry="12.5" style="stroke:#181818;stroke-width:0.5;" width="159.9922" x="34.3379" y="917.6641"/><text fill="#000000" font-family="sans-serif" font-size="12" lengthAdjust="spacing" textLength="139.9922" x="44.3379" y="940.1211">&#36538;&#19979;&#20241;&#24687;(&#19981;&#36861;&#27714;&#31435;&#21051;&#20837;&#30561;)</text><rect fill="#F1F1F1" height="35.0938" rx="12.5" ry="12.5" style="stroke:#181818;stroke-width:0.5;" width="128" x="237.668" y="181.375"/><text fill="#000000" font-family="sans-serif" font-size="12" lengthAdjust="spacing" textLength="108" x="247.668" y="203.832">&#25353;&#27491;&#24120;&#27969;&#31243;&#20934;&#22791;&#30561;&#35273;</text><polygon fill="#F1F1F1" points="208.001,958.7578,220.001,970.7578,208.001,982.7578,196.001,970.7578,208.001,958.7578" style="stroke:#181818;stroke-width:0.5;"/><rect fill="#F1F1F1" height="35.0938" rx="12.5" ry="12.5" style="stroke:#181818;stroke-width:0.5;" width="159.9922" x="128.0049" y="1002.7578"/><text fill="#000000" font-family="sans-serif" font-size="12" lengthAdjust="spacing" textLength="139.9922" x="138.0049" y="1025.2148">&#35760;&#24405;&#20170;&#26085;&#25191;&#34892;(&#21542;&#25104;&#21151;&#27490;&#25439;)</text><ellipse cx="208.001" cy="1068.8516" fill="none" rx="11" ry="11" style="stroke:#222222;stroke-width:1;"/><ellipse cx="208.001" cy="1068.8516" fill="#222222" rx="6" ry="6" style="stroke:#222222;stroke-width:1;"/><line style="stroke:#181818;stroke-width:1;" x1="208.001" x2="208.001" y1="68.6094" y2="88.6094"/><polygon fill="#181818" points="204.001,78.6094,208.001,88.6094,212.001,78.6094,208.001,82.6094" style="stroke:#181818;stroke-width:1;"/><line style="stroke:#181818;stroke-width:1;" x1="114.334" x2="114.334" y1="216.4688" y2="236.4688"/><polygon fill="#181818" points="110.334,226.4688,114.334,236.4688,118.334,226.4688,114.334,230.4688" style="stroke:#181818;stroke-width:1;"/><line style="stroke:#181818;stroke-width:1;" x1="114.334" x2="114.334" y1="315.5625" y2="340.4805"/><polygon fill="#181818" points="110.334,330.4805,114.334,340.4805,118.334,330.4805,114.334,334.4805" style="stroke:#181818;stroke-width:1;"/><line style="stroke:#181818;stroke-width:1;" x1="184.3928" x2="196.3928" y1="303.5625" y2="303.5625"/><polygon fill="#181818" points="192.3928,348.0273,196.3928,358.0273,200.3928,348.0273,196.3928,352.0273" style="stroke:#181818;stroke-width:1;"/><line style="stroke:#181818;stroke-width:1;" x1="196.3928" x2="196.3928" y1="303.5625" y2="407.5742"/><line style="stroke:#181818;stroke-width:1;" x1="196.3928" x2="126.334" y1="407.5742" y2="407.5742"/><polygon fill="#181818" points="136.334,403.5742,126.334,407.5742,136.334,411.5742,132.334,407.5742" style="stroke:#181818;stroke-width:1;"/><line style="stroke:#181818;stroke-width:1;" x1="114.334" x2="114.334" y1="375.5742" y2="395.5742"/><polygon fill="#181818" points="110.334,385.5742,114.334,395.5742,118.334,385.5742,114.334,389.5742" style="stroke:#181818;stroke-width:1;"/><line style="stroke:#181818;stroke-width:1;" x1="114.334" x2="114.334" y1="271.5625" y2="291.5625"/><polygon fill="#181818" points="110.334,281.5625,114.334,291.5625,118.334,281.5625,114.334,285.5625" style="stroke:#181818;stroke-width:1;"/><line style="stroke:#181818;stroke-width:1;" x1="114.334" x2="114.334" y1="419.5742" y2="439.5742"/><polygon fill="#181818" points="110.334,429.5742,114.334,439.5742,118.334,429.5742,114.334,433.5742" style="stroke:#181818;stroke-width:1;"/><line style="stroke:#181818;stroke-width:1;" x1="114.334" x2="114.334" y1="557.3711" y2="577.3711"/><polygon fill="#181818" points="110.334,567.3711,114.334,577.3711,118.334,567.3711,114.334,571.3711" style="stroke:#181818;stroke-width:1;"/><line style="stroke:#181818;stroke-width:1;" x1="114.334" x2="114.334" y1="612.4648" y2="632.4648"/><polygon fill="#181818" points="110.334,622.4648,114.334,632.4648,118.334,622.4648,114.334,626.4648" style="stroke:#181818;stroke-width:1;"/><line style="stroke:#181818;stroke-width:1;" x1="114.334" x2="114.334" y1="474.668" y2="522.2773"/><polygon fill="#181818" points="110.334,512.2773,114.334,522.2773,118.334,512.2773,114.334,516.2773" style="stroke:#181818;stroke-width:1;"/><line style="stroke:#181818;stroke-width:1;" x1="114.334" x2="114.334" y1="783.5703" y2="818.5703"/><polygon fill="#181818" points="110.334,808.5703,114.334,818.5703,118.334,808.5703,114.334,812.5703" style="stroke:#181818;stroke-width:1;"/><line style="stroke:#181818;stroke-width:1;" x1="114.334" x2="114.334" y1="723.5586" y2="748.4766"/><polygon fill="#181818" points="110.334,738.4766,114.334,748.4766,118.334,738.4766,114.334,742.4766" style="stroke:#181818;stroke-width:1;"/><line style="stroke:#181818;stroke-width:1;" x1="156.8928" x2="176.334" y1="711.5586" y2="711.5586"/><polygon fill="#181818" points="172.334,791.0703,176.334,801.0703,180.334,791.0703,176.334,795.0703" style="stroke:#181818;stroke-width:1;"/><line style="stroke:#181818;stroke-width:1;" x1="176.334" x2="176.334" y1="711.5586" y2="885.6641"/><line style="stroke:#181818;stroke-width:1;" x1="176.334" x2="126.334" y1="885.6641" y2="885.6641"/><polygon fill="#181818" points="136.334,881.6641,126.334,885.6641,136.334,889.6641,132.334,885.6641" style="stroke:#181818;stroke-width:1;"/><line style="stroke:#181818;stroke-width:1;" x1="114.334" x2="114.334" y1="853.6641" y2="873.6641"/><polygon fill="#181818" points="110.334,863.6641,114.334,873.6641,118.334,863.6641,114.334,867.6641" style="stroke:#181818;stroke-width:1;"/><line style="stroke:#181818;stroke-width:1;" x1="114.334" x2="114.334" y1="667.5586" y2="699.5586"/><polygon fill="#181818" points="110.334,689.5586,114.334,699.5586,118.334,689.5586,114.334,693.5586" style="stroke:#181818;stroke-width:1;"/><line style="stroke:#181818;stroke-width:1;" x1="114.334" x2="114.334" y1="897.6641" y2="917.6641"/><polygon fill="#181818" points="110.334,907.6641,114.334,917.6641,118.334,907.6641,114.334,911.6641" style="stroke:#181818;stroke-width:1;"/><line style="stroke:#181818;stroke-width:1;" x1="145.2791" x2="114.334" y1="157.5391" y2="157.5391"/><line style="stroke:#181818;stroke-width:1;" x1="114.334" x2="114.334" y1="157.5391" y2="181.375"/><polygon fill="#181818" points="110.334,171.375,114.334,181.375,118.334,171.375,114.334,175.375" style="stroke:#181818;stroke-width:1;"/><line style="stroke:#181818;stroke-width:1;" x1="270.7229" x2="301.668" y1="157.5391" y2="157.5391"/><line style="stroke:#181818;stroke-width:1;" x1="301.668" x2="301.668" y1="157.5391" y2="181.375"/><polygon fill="#181818" points="297.668,171.375,301.668,181.375,305.668,171.375,301.668,175.375" style="stroke:#181818;stroke-width:1;"/><line style="stroke:#181818;stroke-width:1;" x1="114.334" x2="114.334" y1="952.7578" y2="970.7578"/><line style="stroke:#181818;stroke-width:1;" x1="114.334" x2="196.001" y1="970.7578" y2="970.7578"/><polygon fill="#181818" points="186.001,966.7578,196.001,970.7578,186.001,974.7578,190.001,970.7578" style="stroke:#181818;stroke-width:1;"/><line style="stroke:#181818;stroke-width:1;" x1="301.668" x2="301.668" y1="216.4688" y2="970.7578"/><line style="stroke:#181818;stroke-width:1;" x1="301.668" x2="220.001" y1="970.7578" y2="970.7578"/><polygon fill="#181818" points="230.001,966.7578,220.001,970.7578,230.001,974.7578,226.001,970.7578" style="stroke:#181818;stroke-width:1;"/><line style="stroke:#181818;stroke-width:1;" x1="208.001" x2="208.001" y1="123.7031" y2="143.7031"/><polygon fill="#181818" points="204.001,133.7031,208.001,143.7031,212.001,133.7031,208.001,137.7031" style="stroke:#181818;stroke-width:1;"/><line style="stroke:#181818;stroke-width:1;" x1="208.001" x2="208.001" y1="982.7578" y2="1002.7578"/><polygon fill="#181818" points="204.001,992.7578,208.001,1002.7578,212.001,992.7578,208.001,996.7578" style="stroke:#181818;stroke-width:1;"/><line style="stroke:#181818;stroke-width:1;" x1="208.001" x2="208.001" y1="1037.8516" y2="1057.8516"/><polygon fill="#181818" points="204.001,1047.8516,208.001,1057.8516,212.001,1047.8516,208.001,1051.8516" style="stroke:#181818;stroke-width:1;"/><!--SRC=[VPBDRjf04CVlVWeVuSGT3bMbFaAFlQ3MjAZ4YS2LAaMLJ1B01WoXXG29IKG2WIRb8oK1oq3yBf5dTdtAAtJN9gtweLvMgz7CVtxpdycyJyexyNHyItmX9U8VKifBwQFoF9LyAsz9iYA-Pe-K5WGbgQGa4Tl7NlCMH-TedA4-eDqotcN9iFIuqg1gOEa8blC8_zNllOlJnvKkP9HuMX64AAo_W6vWSyxhAttgr50xelCSTGfqt0NjC-JwfDCD4cA2a4o88MnDuF0I2ZQfJ5_93wh9bKSNiFXEbbM6ujhv1xM3-pESDPw5HUMT9Fj5OK4KetHm2TLQW4e71w2rOpmCMPF50Xg6xresPzSMg9VGj1bx3MhvI309usSaelYBXJejC8UGFVQkMw3PwAY1nf_TMIDoNG9j2RcPrnnjn4dzZXxKE8QKoaXYY0doP4b-aqm8FhDpmcnWWwAfmhJA_A03dUWQcj_Oe3uBMnLRHN9R5l_E4NSthSSg60syRUBgnj_CX2vcp6Ze6TZPmr7Vk-hvi_dP0IB9JY2divruRSDTLqXb0kVxmOYRF7B25-TQHR2BFFJfoHgg6L0jkKi3pIk6ymyltBL3waEgpg1x6Y7cYgo__coUfMChwEPQ1epBvBxoFuTisxLAxgg6sKc85L1dZJTxJrxp2mepctuhZc9PvrTZMS6jGY4FlKBWMqpOI4VfU0hhXhiiOhCVN3QlH-qGYcV14N7XZBAzymC0]--></g></svg>