<svg xmlns="http://www.w3.org/2000/svg" xmlns:xlink="http://www.w3.org/1999/xlink" contentStyleType="text/css" data-diagram-type="ACTIVITY" height="1019px" preserveAspectRatio="none" style="width:987px;height:1019px;background:#FFFFFF;" version="1.1" viewBox="0 0 987 1019" width="987px" zoomAndPan="magnify"><title>&#30561;&#21069;&#34892;&#20026;&#25511;&#21046; + Anki&#22797;&#20064;&#31995;&#32479;</title><defs/><g><g class="title" data-source-line="2"><text fill="#000000" font-family="sans-serif" font-size="14" font-weight="bold" lengthAdjust="spacing" textLength="190.668" x="396.76" y="34.5332">&#30561;&#21069;&#34892;&#20026;&#25511;&#21046; + Anki&#22797;&#20064;&#31995;&#32479;</text></g><ellipse cx="573.7754" cy="58.6094" fill="#222222" rx="10" ry="10" style="stroke:#222222;stroke-width:1;"/><rect fill="#F1F1F1" height="35.0938" rx="12.5" ry="12.5" style="stroke:#181818;stroke-width:0.5;" width="92" x="527.7754" y="88.6094"/><text fill="#000000" font-family="sans-serif" font-size="12" lengthAdjust="spacing" textLength="72" x="537.7754" y="111.0664">&#24403;&#21069;&#26102;&#38388;&#26816;&#27979;</text><polygon fill="#F1F1F1" points="536.4731,143.7031,611.0776,143.7031,623.0776,155.7031,611.0776,167.7031,536.4731,167.7031,524.4731,155.7031,536.4731,143.7031" style="stroke:#181818;stroke-width:0.5;"/><text fill="#000000" font-family="sans-serif" font-size="11" lengthAdjust="spacing" textLength="74.6045" x="536.4731" y="160.2041">&#26159;&#21542; &gt;= 23:00?</text><text fill="#000000" font-family="sans-serif" font-size="11" lengthAdjust="spacing" textLength="11" x="513.4731" y="153.2861">&#26159;</text><text fill="#000000" font-family="sans-serif" font-size="11" lengthAdjust="spacing" textLength="11" x="623.0776" y="153.2861">&#21542;</text><path d="M394.8956,177.7031 L394.8956,244.1094 L374.8956,248.1094 L394.8956,252.1094 L394.8956,318.5156 A0,0 0 0 0 394.8956,318.5156 L527.1256,318.5156 A0,0 0 0 0 527.1256,318.5156 L527.1256,187.7031 L517.1256,177.7031 L394.8956,177.7031 A0,0 0 0 0 394.8956,177.7031" fill="#FEFFDD" style="stroke:#181818;stroke-width:0.5;"/><path d="M517.1256,177.7031 L517.1256,187.7031 L527.1256,187.7031 L517.1256,177.7031" fill="#FEFFDD" style="stroke:#181818;stroke-width:0.5;"/><text fill="#000000" font-family="sans-serif" font-size="13" lengthAdjust="spacing" textLength="55.6118" x="428.7047" y="196.1982">&#20801;&#35768;&#20219;&#21153;:</text><text fill="#000000" font-family="sans-serif" font-size="13" lengthAdjust="spacing" textLength="111.23" x="400.8956" y="212.5498">- Anki&#22797;&#20064;&#65288;&#36731;&#37327;&#65289;</text><text fill="#000000" font-family="sans-serif" font-size="13" lengthAdjust="spacing" textLength="59.9409" x="426.5402" y="228.9014">- &#21333;&#35789;&#32972;&#35829;</text><text fill="#000000" font-family="sans-serif" font-size="13" lengthAdjust="spacing" textLength="59.9409" x="426.5402" y="245.2529">- &#31616;&#21333;&#22238;&#39038;</text><text fill="#000000" font-family="sans-serif" font-size="13" lengthAdjust="spacing" textLength="3.6118" x="454.7047" y="261.6045">&#160;</text><text fill="#000000" font-family="sans-serif" font-size="13" lengthAdjust="spacing" textLength="55.6118" x="428.7047" y="277.9561">&#31105;&#27490;&#20219;&#21153;:</text><text fill="#000000" font-family="sans-serif" font-size="13" lengthAdjust="spacing" textLength="89.5527" x="411.7343" y="294.3076">- &#35270;&#39057;/&#31038;&#20132;&#23186;&#20307;</text><text fill="#000000" font-family="sans-serif" font-size="13" lengthAdjust="spacing" textLength="89.5527" x="411.7343" y="310.6592">- &#22797;&#26434;&#23398;&#20064;/&#20889;&#20316;</text><rect fill="#F1F1F1" height="35.0938" rx="12.5" ry="12.5" style="stroke:#181818;stroke-width:0.5;" width="122.668" x="252.2277" y="230.5625"/><text fill="#000000" font-family="sans-serif" font-size="12" lengthAdjust="spacing" textLength="102.668" x="262.2277" y="253.0195">&#36827;&#20837;[&#30561;&#21069;&#32531;&#20914;&#27169;&#24335;]</text><polygon fill="#F1F1F1" points="283.0028,353.5156,344.1205,353.5156,356.1205,365.5156,344.1205,377.5156,283.0028,377.5156,271.0028,365.5156,283.0028,353.5156" style="stroke:#181818;stroke-width:0.5;"/><text fill="#000000" font-family="sans-serif" font-size="11" lengthAdjust="spacing" textLength="61.1177" x="283.0028" y="370.0166">&#26159;&#21542;&#22312;&#24202;&#19978;?</text><text fill="#000000" font-family="sans-serif" font-size="11" lengthAdjust="spacing" textLength="11" x="260.0028" y="363.0986">&#26159;</text><text fill="#000000" font-family="sans-serif" font-size="11" lengthAdjust="spacing" textLength="11" x="356.1205" y="363.0986">&#21542;</text><rect fill="#F1F1F1" height="35.0938" rx="12.5" ry="12.5" style="stroke:#181818;stroke-width:0.5;" width="116" x="68.0588" y="387.5156"/><text fill="#000000" font-family="sans-serif" font-size="12" lengthAdjust="spacing" textLength="96" x="78.0588" y="409.9727">&#25163;&#26426;&#36827;&#20837;&#21247;&#25200;&#27169;&#24335;</text><rect fill="#F1F1F1" height="35.0938" rx="12.5" ry="12.5" style="stroke:#181818;stroke-width:0.5;" width="104" x="74.0588" y="454.3281"/><text fill="#000000" font-family="sans-serif" font-size="12" lengthAdjust="spacing" textLength="84" x="84.0588" y="476.7852">&#20165;&#20445;&#30041;&#38393;&#38047;&#21151;&#33021;</text><polygon fill="#F1F1F1" points="79,509.4219,173.1177,509.4219,185.1177,521.4219,173.1177,533.4219,79,533.4219,67,521.4219,79,509.4219" style="stroke:#181818;stroke-width:0.5;"/><text fill="#000000" font-family="sans-serif" font-size="11" lengthAdjust="spacing" textLength="94.1177" x="79" y="525.9229">&#26159;&#21542;&#24050;&#23436;&#25104;&#36731;&#20219;&#21153;?</text><text fill="#000000" font-family="sans-serif" font-size="11" lengthAdjust="spacing" textLength="11" x="56" y="519.0049">&#26159;</text><text fill="#000000" font-family="sans-serif" font-size="11" lengthAdjust="spacing" textLength="11" x="185.1177" y="519.0049">&#21542;</text><rect fill="#F1F1F1" height="35.0938" rx="12.5" ry="12.5" style="stroke:#181818;stroke-width:0.5;" width="92" x="11" y="543.4219"/><text fill="#000000" font-family="sans-serif" font-size="12" lengthAdjust="spacing" textLength="72" x="21" y="565.8789">&#20572;&#27490;&#20351;&#29992;&#25163;&#26426;</text><rect fill="#F1F1F1" height="35.0938" rx="12.5" ry="12.5" style="stroke:#181818;stroke-width:0.5;" width="68" x="23" y="613.5156"/><text fill="#000000" font-family="sans-serif" font-size="12" lengthAdjust="spacing" textLength="48" x="33" y="635.9727">&#20934;&#22791;&#20837;&#30561;</text><path d="M284.4526,543.4219 L284.4526,577.125 L264.4526,581.125 L284.4526,585.125 L284.4526,618.8281 A0,0 0 0 0 284.4526,618.8281 L413.0645,618.8281 A0,0 0 0 0 413.0645,618.8281 L413.0645,553.4219 L403.0645,543.4219 L284.4526,543.4219 A0,0 0 0 0 284.4526,543.4219" fill="#FEFFDD" style="stroke:#181818;stroke-width:0.5;"/><path d="M403.0645,543.4219 L403.0645,553.4219 L413.0645,553.4219 L403.0645,543.4219" fill="#FEFFDD" style="stroke:#181818;stroke-width:0.5;"/><text fill="#000000" font-family="sans-serif" font-size="13" lengthAdjust="spacing" textLength="107.6118" x="290.4526" y="561.917">&#26410;&#25191;&#34892;&#23436;&#19981;&#29992;&#25285;&#24515;,</text><text fill="#000000" font-family="sans-serif" font-size="13" lengthAdjust="spacing" textLength="104" x="292.2585" y="578.2686">&#31532;&#20108;&#22825;&#38656;&#35201;&#25191;&#34892;&#23436;</text><text fill="#000000" font-family="sans-serif" font-size="13" lengthAdjust="spacing" textLength="107.6118" x="290.4526" y="594.6201">&#20043;&#21069;&#26410;&#22797;&#20064;&#23436;&#30340;&#21345;,</text><text fill="#000000" font-family="sans-serif" font-size="13" lengthAdjust="spacing" textLength="81.6118" x="303.4526" y="610.9717">&#25165;&#33021;&#28155;&#21152;&#26032;&#21345;.</text><rect fill="#F1F1F1" height="35.0938" rx="12.5" ry="12.5" style="stroke:#181818;stroke-width:0.5;" width="138.6699" x="125.7827" y="563.5781"/><text fill="#000000" font-family="sans-serif" font-size="12" lengthAdjust="spacing" textLength="118.6699" x="135.7827" y="586.0352">&#25191;&#34892;&#36731;&#20219;&#21153;(Anki/&#21333;&#35789;)</text><polygon fill="#F1F1F1" points="126.0588,654.6094,138.0588,666.6094,126.0588,678.6094,114.0588,666.6094,126.0588,654.6094" style="stroke:#181818;stroke-width:0.5;"/><rect fill="#F1F1F1" height="35.0938" rx="12.5" ry="12.5" style="stroke:#181818;stroke-width:0.5;" width="116" x="443.0645" y="387.5156"/><text fill="#000000" font-family="sans-serif" font-size="12" lengthAdjust="spacing" textLength="96" x="453.0645" y="409.9727">&#36827;&#34892;&#30561;&#21069;&#20934;&#22791;&#27969;&#31243;</text><rect fill="#F1F1F1" height="35.0938" rx="12.5" ry="12.5" style="stroke:#181818;stroke-width:0.5;" width="98.668" x="451.7305" y="454.3281"/><text fill="#000000" font-family="sans-serif" font-size="12" lengthAdjust="spacing" textLength="78.668" x="461.7305" y="476.7852">&#21047;&#29273;/&#25972;&#29702;/&#27927;&#28465;</text><rect fill="#F1F1F1" height="35.0938" rx="12.5" ry="12.5" style="stroke:#181818;stroke-width:0.5;" width="92" x="455.0645" y="509.4219"/><text fill="#000000" font-family="sans-serif" font-size="12" lengthAdjust="spacing" textLength="72" x="465.0645" y="531.8789">&#36827;&#20837;&#24202;&#19978;&#38454;&#27573;</text><polygon fill="#F1F1F1" points="313.5616,684.6094,325.5616,696.6094,313.5616,708.6094,301.5616,696.6094,313.5616,684.6094" style="stroke:#181818;stroke-width:0.5;"/><rect fill="#F1F1F1" height="35.0938" rx="12.5" ry="12.5" style="stroke:#181818;stroke-width:0.5;" width="126.002" x="770.9882" y="177.7031"/><text fill="#000000" font-family="sans-serif" font-size="12" lengthAdjust="spacing" textLength="106.002" x="780.9882" y="200.1602">&#36827;&#20837;[&#30333;&#22825;/&#27491;&#24120;&#27169;&#24335;]</text><polygon fill="#F1F1F1" points="797.9303,247.7969,870.048,247.7969,882.048,259.7969,870.048,271.7969,797.9303,271.7969,785.9303,259.7969,797.9303,247.7969" style="stroke:#181818;stroke-width:0.5;"/><text fill="#000000" font-family="sans-serif" font-size="11" lengthAdjust="spacing" textLength="72.1177" x="797.9303" y="264.2979">&#26159;&#21542;&#31354;&#20313;&#26102;&#38388;?</text><text fill="#000000" font-family="sans-serif" font-size="11" lengthAdjust="spacing" textLength="11" x="774.9303" y="257.3799">&#26159;</text><text fill="#000000" font-family="sans-serif" font-size="11" lengthAdjust="spacing" textLength="11" x="882.048" y="257.3799">&#21542;</text><polygon fill="#F1F1F1" points="690.7314,281.7969,784.8491,281.7969,796.8491,293.7969,784.8491,305.7969,690.7314,305.7969,678.7314,293.7969,690.7314,281.7969" style="stroke:#181818;stroke-width:0.5;"/><text fill="#000000" font-family="sans-serif" font-size="11" lengthAdjust="spacing" textLength="94.1177" x="690.7314" y="298.2979">&#26159;&#21542;&#39640;&#20248;&#20808;&#32423;&#20219;&#21153;?</text><text fill="#000000" font-family="sans-serif" font-size="11" lengthAdjust="spacing" textLength="11" x="667.7314" y="291.3799">&#26159;</text><text fill="#000000" font-family="sans-serif" font-size="11" lengthAdjust="spacing" textLength="11" x="796.8491" y="291.3799">&#21542;</text><rect fill="#F1F1F1" height="35.0938" rx="12.5" ry="12.5" style="stroke:#181818;stroke-width:0.5;" width="119.334" x="609.0645" y="315.7969"/><text fill="#000000" font-family="sans-serif" font-size="12" lengthAdjust="spacing" textLength="99.334" x="619.0645" y="338.2539">&#25191;&#34892;&#20316;&#19994;/&#23398;&#20064;&#20219;&#21153;</text><rect fill="#F1F1F1" height="35.0938" rx="12.5" ry="12.5" style="stroke:#181818;stroke-width:0.5;" width="94.6777" x="759.5103" y="315.7969"/><text fill="#000000" font-family="sans-serif" font-size="12" lengthAdjust="spacing" textLength="74.6777" x="769.5103" y="338.2539">Anki&#22797;&#20064;/&#23398;&#20064;</text><polygon fill="#F1F1F1" points="737.7903,356.8906,749.7903,368.8906,737.7903,380.8906,725.7903,368.8906,737.7903,356.8906" style="stroke:#181818;stroke-width:0.5;"/><rect fill="#F1F1F1" height="35.0938" rx="12.5" ry="12.5" style="stroke:#181818;stroke-width:0.5;" width="92" x="884.188" y="281.7969"/><text fill="#000000" font-family="sans-serif" font-size="12" lengthAdjust="spacing" textLength="72" x="894.188" y="304.2539">&#19987;&#27880;&#24403;&#21069;&#20219;&#21153;</text><polygon fill="#F1F1F1" points="833.9891,386.8906,845.9891,398.8906,833.9891,410.8906,821.9891,398.8906,833.9891,386.8906" style="stroke:#181818;stroke-width:0.5;"/><ellipse cx="833.9891" cy="453.6094" fill="none" rx="11" ry="11" style="stroke:#222222;stroke-width:1;"/><ellipse cx="833.9891" cy="453.6094" fill="#222222" rx="6" ry="6" style="stroke:#222222;stroke-width:1;"/><rect fill="#F1F1F1" height="35.0938" rx="12.5" ry="12.5" style="stroke:#181818;stroke-width:0.5;" width="116" x="515.7754" y="777.5273"/><text fill="#000000" font-family="sans-serif" font-size="12" lengthAdjust="spacing" textLength="96" x="525.7754" y="799.9844">&#24378;&#21046;&#36827;&#20837;&#30561;&#30496;&#29366;&#24577;</text><rect fill="#F1F1F1" height="35.0938" rx="12.5" ry="12.5" style="stroke:#181818;stroke-width:0.5;" width="116" x="515.7754" y="832.6211"/><text fill="#000000" font-family="sans-serif" font-size="12" lengthAdjust="spacing" textLength="96" x="525.7754" y="855.0781">&#20572;&#27490;&#25152;&#26377;&#23631;&#24149;&#27963;&#21160;</text><rect fill="#F1F1F1" height="35.0938" rx="12.5" ry="12.5" style="stroke:#181818;stroke-width:0.5;" width="104" x="521.7754" y="887.7148"/><text fill="#000000" font-family="sans-serif" font-size="12" lengthAdjust="spacing" textLength="84" x="531.7754" y="910.1719">&#25163;&#26426;&#20165;&#20445;&#30041;&#38393;&#38047;</text><polygon fill="#F1F1F1" points="539.532,728.6094,608.0188,728.6094,620.0188,740.6094,608.0188,752.6094,539.532,752.6094,527.532,740.6094,539.532,728.6094" style="stroke:#181818;stroke-width:0.5;"/><text fill="#000000" font-family="sans-serif" font-size="11" lengthAdjust="spacing" textLength="11" x="577.7754" y="764.0283">&#26159;</text><text fill="#000000" font-family="sans-serif" font-size="11" lengthAdjust="spacing" textLength="68.4868" x="539.532" y="745.1104">&#26102;&#38388; == 23:30</text><polygon fill="#F1F1F1" points="573.7754,942.8086,585.7754,954.8086,573.7754,966.8086,561.7754,954.8086,573.7754,942.8086" style="stroke:#181818;stroke-width:0.5;"/><ellipse cx="573.7754" cy="997.8086" fill="none" rx="11" ry="11" style="stroke:#222222;stroke-width:1;"/><ellipse cx="573.7754" cy="997.8086" fill="#222222" rx="6" ry="6" style="stroke:#222222;stroke-width:1;"/><line style="stroke:#181818;stroke-width:1;" x1="573.7754" x2="573.7754" y1="68.6094" y2="88.6094"/><polygon fill="#181818" points="569.7754,78.6094,573.7754,88.6094,577.7754,78.6094,573.7754,82.6094" style="stroke:#181818;stroke-width:1;"/><line style="stroke:#181818;stroke-width:1;" x1="126.0588" x2="126.0588" y1="422.6094" y2="454.3281"/><polygon fill="#181818" points="122.0588,444.3281,126.0588,454.3281,130.0588,444.3281,126.0588,448.3281" style="stroke:#181818;stroke-width:1;"/><line style="stroke:#181818;stroke-width:1;" x1="57" x2="57" y1="578.5156" y2="613.5156"/><polygon fill="#181818" points="53,603.5156,57,613.5156,61,603.5156,57,607.5156" style="stroke:#181818;stroke-width:1;"/><line style="stroke:#181818;stroke-width:1;" x1="67" x2="57" y1="521.4219" y2="521.4219"/><line style="stroke:#181818;stroke-width:1;" x1="57" x2="57" y1="521.4219" y2="543.4219"/><polygon fill="#181818" points="53,533.4219,57,543.4219,61,533.4219,57,537.4219" style="stroke:#181818;stroke-width:1;"/><line style="stroke:#181818;stroke-width:1;" x1="185.1177" x2="195.1177" y1="521.4219" y2="521.4219"/><line style="stroke:#181818;stroke-width:1;" x1="195.1177" x2="195.1177" y1="521.4219" y2="563.5781"/><polygon fill="#181818" points="191.1177,553.5781,195.1177,563.5781,199.1177,553.5781,195.1177,557.5781" style="stroke:#181818;stroke-width:1;"/><line style="stroke:#181818;stroke-width:1;" x1="57" x2="57" y1="648.6094" y2="666.6094"/><line style="stroke:#181818;stroke-width:1;" x1="57" x2="114.0588" y1="666.6094" y2="666.6094"/><polygon fill="#181818" points="104.0588,662.6094,114.0588,666.6094,104.0588,670.6094,108.0588,666.6094" style="stroke:#181818;stroke-width:1;"/><line style="stroke:#181818;stroke-width:1;" x1="195.1177" x2="195.1177" y1="598.6719" y2="666.6094"/><line style="stroke:#181818;stroke-width:1;" x1="195.1177" x2="138.0588" y1="666.6094" y2="666.6094"/><polygon fill="#181818" points="148.0588,662.6094,138.0588,666.6094,148.0588,670.6094,144.0588,666.6094" style="stroke:#181818;stroke-width:1;"/><line style="stroke:#181818;stroke-width:1;" x1="126.0588" x2="126.0588" y1="489.4219" y2="509.4219"/><polygon fill="#181818" points="122.0588,499.4219,126.0588,509.4219,130.0588,499.4219,126.0588,503.4219" style="stroke:#181818;stroke-width:1;"/><line style="stroke:#181818;stroke-width:1;" x1="501.0645" x2="501.0645" y1="422.6094" y2="454.3281"/><polygon fill="#181818" points="497.0645,444.3281,501.0645,454.3281,505.0645,444.3281,501.0645,448.3281" style="stroke:#181818;stroke-width:1;"/><line style="stroke:#181818;stroke-width:1;" x1="501.0645" x2="501.0645" y1="489.4219" y2="509.4219"/><polygon fill="#181818" points="497.0645,499.4219,501.0645,509.4219,505.0645,499.4219,501.0645,503.4219" style="stroke:#181818;stroke-width:1;"/><line style="stroke:#181818;stroke-width:1;" x1="271.0028" x2="126.0588" y1="365.5156" y2="365.5156"/><line style="stroke:#181818;stroke-width:1;" x1="126.0588" x2="126.0588" y1="365.5156" y2="387.5156"/><polygon fill="#181818" points="122.0588,377.5156,126.0588,387.5156,130.0588,377.5156,126.0588,381.5156" style="stroke:#181818;stroke-width:1;"/><line style="stroke:#181818;stroke-width:1;" x1="356.1205" x2="501.0645" y1="365.5156" y2="365.5156"/><line style="stroke:#181818;stroke-width:1;" x1="501.0645" x2="501.0645" y1="365.5156" y2="387.5156"/><polygon fill="#181818" points="497.0645,377.5156,501.0645,387.5156,505.0645,377.5156,501.0645,381.5156" style="stroke:#181818;stroke-width:1;"/><line style="stroke:#181818;stroke-width:1;" x1="126.0588" x2="126.0588" y1="678.6094" y2="696.6094"/><line style="stroke:#181818;stroke-width:1;" x1="126.0588" x2="301.5616" y1="696.6094" y2="696.6094"/><polygon fill="#181818" points="291.5616,692.6094,301.5616,696.6094,291.5616,700.6094,295.5616,696.6094" style="stroke:#181818;stroke-width:1;"/><line style="stroke:#181818;stroke-width:1;" x1="501.0645" x2="501.0645" y1="544.5156" y2="696.6094"/><line style="stroke:#181818;stroke-width:1;" x1="501.0645" x2="325.5616" y1="696.6094" y2="696.6094"/><polygon fill="#181818" points="335.5616,692.6094,325.5616,696.6094,335.5616,700.6094,331.5616,696.6094" style="stroke:#181818;stroke-width:1;"/><line style="stroke:#181818;stroke-width:1;" x1="313.5616" x2="313.5616" y1="265.6563" y2="353.5156"/><polygon fill="#181818" points="309.5616,343.5156,313.5616,353.5156,317.5616,343.5156,313.5616,347.5156" style="stroke:#181818;stroke-width:1;"/><line style="stroke:#181818;stroke-width:1;" x1="678.7314" x2="668.7314" y1="293.7969" y2="293.7969"/><line style="stroke:#181818;stroke-width:1;" x1="668.7314" x2="668.7314" y1="293.7969" y2="315.7969"/><polygon fill="#181818" points="664.7314,305.7969,668.7314,315.7969,672.7314,305.7969,668.7314,309.7969" style="stroke:#181818;stroke-width:1;"/><line style="stroke:#181818;stroke-width:1;" x1="796.8491" x2="806.8491" y1="293.7969" y2="293.7969"/><line style="stroke:#181818;stroke-width:1;" x1="806.8491" x2="806.8491" y1="293.7969" y2="315.7969"/><polygon fill="#181818" points="802.8491,305.7969,806.8491,315.7969,810.8491,305.7969,806.8491,309.7969" style="stroke:#181818;stroke-width:1;"/><line style="stroke:#181818;stroke-width:1;" x1="668.7314" x2="668.7314" y1="350.8906" y2="368.8906"/><line style="stroke:#181818;stroke-width:1;" x1="668.7314" x2="725.7903" y1="368.8906" y2="368.8906"/><polygon fill="#181818" points="715.7903,364.8906,725.7903,368.8906,715.7903,372.8906,719.7903,368.8906" style="stroke:#181818;stroke-width:1;"/><line style="stroke:#181818;stroke-width:1;" x1="806.8491" x2="806.8491" y1="350.8906" y2="368.8906"/><line style="stroke:#181818;stroke-width:1;" x1="806.8491" x2="749.7903" y1="368.8906" y2="368.8906"/><polygon fill="#181818" points="759.7903,364.8906,749.7903,368.8906,759.7903,372.8906,755.7903,368.8906" style="stroke:#181818;stroke-width:1;"/><line style="stroke:#181818;stroke-width:1;" x1="785.9303" x2="737.7903" y1="259.7969" y2="259.7969"/><line style="stroke:#181818;stroke-width:1;" x1="737.7903" x2="737.7903" y1="259.7969" y2="281.7969"/><polygon fill="#181818" points="733.7903,271.7969,737.7903,281.7969,741.7903,271.7969,737.7903,275.7969" style="stroke:#181818;stroke-width:1;"/><line style="stroke:#181818;stroke-width:1;" x1="882.048" x2="930.188" y1="259.7969" y2="259.7969"/><line style="stroke:#181818;stroke-width:1;" x1="930.188" x2="930.188" y1="259.7969" y2="281.7969"/><polygon fill="#181818" points="926.188,271.7969,930.188,281.7969,934.188,271.7969,930.188,275.7969" style="stroke:#181818;stroke-width:1;"/><line style="stroke:#181818;stroke-width:1;" x1="737.7903" x2="737.7903" y1="380.8906" y2="398.8906"/><line style="stroke:#181818;stroke-width:1;" x1="737.7903" x2="821.9891" y1="398.8906" y2="398.8906"/><polygon fill="#181818" points="811.9891,394.8906,821.9891,398.8906,811.9891,402.8906,815.9891,398.8906" style="stroke:#181818;stroke-width:1;"/><line style="stroke:#181818;stroke-width:1;" x1="930.188" x2="930.188" y1="316.8906" y2="398.8906"/><line style="stroke:#181818;stroke-width:1;" x1="930.188" x2="845.9891" y1="398.8906" y2="398.8906"/><polygon fill="#181818" points="855.9891,394.8906,845.9891,398.8906,855.9891,402.8906,851.9891,398.8906" style="stroke:#181818;stroke-width:1;"/><line style="stroke:#181818;stroke-width:1;" x1="833.9891" x2="833.9891" y1="212.7969" y2="247.7969"/><polygon fill="#181818" points="829.9891,237.7969,833.9891,247.7969,837.9891,237.7969,833.9891,241.7969" style="stroke:#181818;stroke-width:1;"/><line style="stroke:#181818;stroke-width:1;" x1="833.9891" x2="833.9891" y1="410.8906" y2="442.6094"/><polygon fill="#181818" points="829.9891,432.6094,833.9891,442.6094,837.9891,432.6094,833.9891,436.6094" style="stroke:#181818;stroke-width:1;"/><line style="stroke:#181818;stroke-width:1;" x1="524.4731" x2="313.5616" y1="155.7031" y2="155.7031"/><line style="stroke:#181818;stroke-width:1;" x1="313.5616" x2="313.5616" y1="155.7031" y2="230.5625"/><polygon fill="#181818" points="309.5616,220.5625,313.5616,230.5625,317.5616,220.5625,313.5616,224.5625" style="stroke:#181818;stroke-width:1;"/><line style="stroke:#181818;stroke-width:1;" x1="623.0776" x2="833.9891" y1="155.7031" y2="155.7031"/><line style="stroke:#181818;stroke-width:1;" x1="833.9891" x2="833.9891" y1="155.7031" y2="177.7031"/><polygon fill="#181818" points="829.9891,167.7031,833.9891,177.7031,837.9891,167.7031,833.9891,171.7031" style="stroke:#181818;stroke-width:1;"/><line style="stroke:#181818;stroke-width:1;" x1="313.5616" x2="313.5616" y1="708.6094" y2="713.6094"/><line style="stroke:#181818;stroke-width:1;" x1="313.5616" x2="573.7754" y1="713.6094" y2="713.6094"/><line style="stroke:#181818;stroke-width:1;" x1="573.7754" x2="573.7754" y1="713.6094" y2="728.6094"/><polygon fill="#181818" points="569.7754,718.6094,573.7754,728.6094,577.7754,718.6094,573.7754,722.6094" style="stroke:#181818;stroke-width:1;"/><line style="stroke:#181818;stroke-width:1;" x1="573.7754" x2="573.7754" y1="123.7031" y2="143.7031"/><polygon fill="#181818" points="569.7754,133.7031,573.7754,143.7031,577.7754,133.7031,573.7754,137.7031" style="stroke:#181818;stroke-width:1;"/><line style="stroke:#181818;stroke-width:1;" x1="573.7754" x2="573.7754" y1="812.6211" y2="832.6211"/><polygon fill="#181818" points="569.7754,822.6211,573.7754,832.6211,577.7754,822.6211,573.7754,826.6211" style="stroke:#181818;stroke-width:1;"/><line style="stroke:#181818;stroke-width:1;" x1="573.7754" x2="573.7754" y1="867.7148" y2="887.7148"/><polygon fill="#181818" points="569.7754,877.7148,573.7754,887.7148,577.7754,877.7148,573.7754,881.7148" style="stroke:#181818;stroke-width:1;"/><line style="stroke:#181818;stroke-width:1;" x1="573.7754" x2="573.7754" y1="752.6094" y2="777.5273"/><polygon fill="#181818" points="569.7754,767.5273,573.7754,777.5273,577.7754,767.5273,573.7754,771.5273" style="stroke:#181818;stroke-width:1;"/><line style="stroke:#181818;stroke-width:1;" x1="620.0188" x2="641.7754" y1="740.6094" y2="740.6094"/><polygon fill="#181818" points="637.7754,840.168,641.7754,850.168,645.7754,840.168,641.7754,844.168" style="stroke:#181818;stroke-width:1;"/><line style="stroke:#181818;stroke-width:1;" x1="641.7754" x2="641.7754" y1="740.6094" y2="954.8086"/><line style="stroke:#181818;stroke-width:1;" x1="641.7754" x2="585.7754" y1="954.8086" y2="954.8086"/><polygon fill="#181818" points="595.7754,950.8086,585.7754,954.8086,595.7754,958.8086,591.7754,954.8086" style="stroke:#181818;stroke-width:1;"/><line style="stroke:#181818;stroke-width:1;" x1="573.7754" x2="573.7754" y1="922.8086" y2="942.8086"/><polygon fill="#181818" points="569.7754,932.8086,573.7754,942.8086,577.7754,932.8086,573.7754,936.8086" style="stroke:#181818;stroke-width:1;"/><line style="stroke:#181818;stroke-width:1;" x1="573.7754" x2="573.7754" y1="966.8086" y2="986.8086"/><polygon fill="#181818" points="569.7754,976.8086,573.7754,986.8086,577.7754,976.8086,573.7754,980.8086" style="stroke:#181818;stroke-width:1;"/><!--SRC=[XLJTKjfG4BxFK-HIfpyuzOvCst6cZz2xJY-ODYeZeWFfJ2-X52H0gfLIG6CLfO9MyGym128lS_QSvCfNw4aEaWHrF1SCsTspt-wttvxuKZYw6eg5blbtudpeIqHwBtwLvYBXXUYo69NuJ_H7Z75IM8g8FDcfWQoOjGBITFoZ0Tak_uoVYow5eQwWtXwvwfF-BiV5fL1CuhWW64KQZijTgzp61mdSoGiS5vxdft3b33OE-JUl-LUpmPcPjzEyj2X67Viqn_7q1CtXDgJ_Vc28P524p2Lkrc2m_b5W4T4LIUHZuOL5oVcq3wIJPaj3_JxaQi6nzOMdmjj1rZJwrjhwxK3s181ICiyKCrKmppeUCsabg0Us_rYrcx5v_8SS9l7f_dqqiv6nzdy6IFq6wNKutaH6qGjLL_3EDpWzfDK485D5XkfunUXdfoNMd4iIg4tGSqZB-KcwInZ4SXwhEcCByaCidpEQ13S4zTDek4DALQlSipPt8RThfemHYnDWrvVGAk3i1YM9DVOmgfCMaghTlp4alvgi2c4YO2q3zJLQ5nsYwn8ZSP6Vec0JwR3SeC8Q0q_PGmkmmKnxYdrazFR1wZ5BGdj0ccANbK_3CFNS5qLEJf1UWFgHfIPCEiAx6xuWrClRobMFcMoecsnz1wNcJuNfBgGCV4thtSE_pwd_fSy_dgd749vdlJn0WwrvMWkJF2CFTvAacVVC4hBNHAu6SAbDDZ81t2xZmONWos3hm16CLUdYLaVWFC0UKF-MLGrAI02V7e2c-TVC5GSvqf5HPTlyi2pSMEjV1GqgaCuIlV6aaDW8w28WRIl0DeFTULeqxcQFBWeJN3z6DTAA-Ah97YWlc7ihBgsiKiOOSKvdJkVyQ-VHcfsvrqyG1Zfz4HcbT8X4tIEvBaua1SwpBrXEO5M6YtNebN2R0ZT7RhP24xigZ0fmYlaF]--></g></svg>