<svg xmlns="http://www.w3.org/2000/svg" xmlns:xlink="http://www.w3.org/1999/xlink" contentStyleType="text/css" data-diagram-type="ACTIVITY" height="809px" preserveAspectRatio="none" style="width:1019px;height:809px;background:#FFFFFF;" version="1.1" viewBox="0 0 1019 809" width="1019px" zoomAndPan="magnify"><title>&#36215;&#24202;&#34892;&#20026;&#25511;&#21046; + &#36816;&#21160;&#25191;&#34892;&#31995;&#32479;(6:30&#36215;&#24202;)</title><defs/><g><g class="title" data-source-line="2"><text fill="#000000" font-family="sans-serif" font-size="14" font-weight="bold" lengthAdjust="spacing" textLength="255.4248" x="380.6216" y="34.5332">&#36215;&#24202;&#34892;&#20026;&#25511;&#21046; + &#36816;&#21160;&#25191;&#34892;&#31995;&#32479;(6:30&#36215;&#24202;)</text></g><ellipse cx="246.2924" cy="58.6094" fill="#222222" rx="10" ry="10" style="stroke:#222222;stroke-width:1;"/><rect fill="#F1F1F1" height="35.0938" rx="12.5" ry="12.5" style="stroke:#181818;stroke-width:0.5;" width="81.0313" x="205.7767" y="88.6094"/><text fill="#000000" font-family="sans-serif" font-size="12" lengthAdjust="spacing" textLength="61.0313" x="215.7767" y="111.0664">&#26102;&#38388; = 6:30</text><rect fill="#F1F1F1" height="35.0938" rx="12.5" ry="12.5" style="stroke:#181818;stroke-width:0.5;" width="56" x="218.2924" y="143.7031"/><text fill="#000000" font-family="sans-serif" font-size="12" lengthAdjust="spacing" textLength="36" x="228.2924" y="166.1602">&#38393;&#38047;&#21709;</text><polygon fill="#F1F1F1" points="210.2335,198.7969,282.3512,198.7969,294.3512,210.7969,282.3512,222.7969,210.2335,222.7969,198.2335,210.7969,210.2335,198.7969" style="stroke:#181818;stroke-width:0.5;"/><text fill="#000000" font-family="sans-serif" font-size="11" lengthAdjust="spacing" textLength="72.1177" x="210.2335" y="215.2979">&#26159;&#21542;&#25104;&#21151;&#36215;&#24202;?</text><text fill="#000000" font-family="sans-serif" font-size="11" lengthAdjust="spacing" textLength="11" x="187.2335" y="208.3799">&#26159;</text><text fill="#000000" font-family="sans-serif" font-size="11" lengthAdjust="spacing" textLength="11" x="294.3512" y="208.3799">&#21542;</text><rect fill="#F1F1F1" height="35.0938" rx="12.5" ry="12.5" style="stroke:#181818;stroke-width:0.5;" width="56" x="42.667" y="232.7969"/><text fill="#000000" font-family="sans-serif" font-size="12" lengthAdjust="spacing" textLength="36" x="52.667" y="255.2539">&#31163;&#24320;&#24202;</text><rect fill="#F1F1F1" height="35.0938" rx="12.5" ry="12.5" style="stroke:#181818;stroke-width:0.5;" width="116" x="12.667" y="287.8906"/><text fill="#000000" font-family="sans-serif" font-size="12" lengthAdjust="spacing" textLength="96" x="22.667" y="310.3477">&#36827;&#20837;&#26216;&#38388;&#36816;&#21160;&#38454;&#27573;</text><rect fill="#F1F1F1" height="35.0938" rx="12.5" ry="12.5" style="stroke:#181818;stroke-width:0.5;" width="44" x="48.667" y="342.9844"/><text fill="#000000" font-family="sans-serif" font-size="12" lengthAdjust="spacing" textLength="24" x="58.667" y="365.4414">&#36305;&#27493;</text><rect fill="#F1F1F1" height="35.0938" rx="12.5" ry="12.5" style="stroke:#181818;stroke-width:0.5;" width="44" x="48.667" y="413.0781"/><text fill="#000000" font-family="sans-serif" font-size="12" lengthAdjust="spacing" textLength="24" x="58.667" y="435.5352">&#36339;&#32499;</text><rect fill="#F1F1F1" height="35.0938" rx="12.5" ry="12.5" style="stroke:#181818;stroke-width:0.5;" width="68" x="36.667" y="483.1719"/><text fill="#000000" font-family="sans-serif" font-size="12" lengthAdjust="spacing" textLength="48" x="46.667" y="505.6289">&#22522;&#30784;&#38203;&#28860;</text><rect fill="#F1F1F1" height="35.0938" rx="12.5" ry="12.5" style="stroke:#181818;stroke-width:0.5;" width="56" x="42.667" y="553.2656"/><text fill="#000000" font-family="sans-serif" font-size="12" lengthAdjust="spacing" textLength="36" x="52.667" y="575.7227">&#21507;&#26089;&#39277;</text><rect fill="#F1F1F1" height="35.0938" rx="12.5" ry="12.5" style="stroke:#181818;stroke-width:0.5;" width="119.334" x="11" y="623.3594"/><text fill="#000000" font-family="sans-serif" font-size="12" lengthAdjust="spacing" textLength="99.334" x="21" y="645.8164">&#36827;&#20837;&#23398;&#20064;/&#19978;&#35838;&#20934;&#22791;</text><ellipse cx="70.667" cy="704.4531" fill="none" rx="11" ry="11" style="stroke:#222222;stroke-width:1;"/><ellipse cx="70.667" cy="704.4531" fill="#222222" rx="6" ry="6" style="stroke:#222222;stroke-width:1;"/><rect fill="#F1F1F1" height="35.0938" rx="12.5" ry="12.5" style="stroke:#181818;stroke-width:0.5;" width="68" x="407.9177" y="232.7969"/><text fill="#000000" font-family="sans-serif" font-size="12" lengthAdjust="spacing" textLength="48" x="417.9177" y="255.2539">&#36215;&#24202;&#22833;&#36133;</text><rect fill="#F1F1F1" height="35.0938" rx="12.5" ry="12.5" style="stroke:#181818;stroke-width:0.5;" width="68" x="407.9177" y="287.8906"/><text fill="#000000" font-family="sans-serif" font-size="12" lengthAdjust="spacing" textLength="48" x="417.9177" y="310.3477">&#20998;&#26512;&#21407;&#22240;</text><polygon fill="#F1F1F1" points="389.3589,342.9844,494.4766,342.9844,506.4766,354.9844,494.4766,366.9844,389.3589,366.9844,377.3589,354.9844,389.3589,342.9844" style="stroke:#181818;stroke-width:0.5;"/><text fill="#000000" font-family="sans-serif" font-size="11" lengthAdjust="spacing" textLength="105.1177" x="389.3589" y="359.4854">&#26159;&#21542;&#22240;&#20026;&#21069;&#19968;&#26202;&#26202;&#30561;?</text><text fill="#000000" font-family="sans-serif" font-size="11" lengthAdjust="spacing" textLength="11" x="366.3589" y="352.5674">&#26159;</text><text fill="#000000" font-family="sans-serif" font-size="11" lengthAdjust="spacing" textLength="11" x="506.4766" y="352.5674">&#21542;</text><rect fill="#F1F1F1" height="35.0938" rx="12.5" ry="12.5" style="stroke:#181818;stroke-width:0.5;" width="92" x="178.001" y="376.9844"/><text fill="#000000" font-family="sans-serif" font-size="12" lengthAdjust="spacing" textLength="72" x="188.001" y="399.4414">&#35760;&#24405;&#26202;&#30561;&#21407;&#22240;</text><rect fill="#F1F1F1" height="35.0938" rx="12.5" ry="12.5" style="stroke:#181818;stroke-width:0.5;" width="167.334" x="140.334" y="447.0781"/><text fill="#000000" font-family="sans-serif" font-size="12" lengthAdjust="spacing" textLength="147.334" x="150.334" y="469.5352">&#20998;&#26512;&#38382;&#39064;&#65288;&#22914;&#25302;&#24310;/&#25163;&#26426;&#31561;&#65289;</text><path d="M290.001,517.1719 L290.001,559.0508 L270.001,563.0508 L290.001,567.0508 L290.001,608.9297 A0,0 0 0 0 290.001,608.9297 L438.8364,608.9297 A0,0 0 0 0 438.8364,608.9297 L438.8364,527.1719 L428.8364,517.1719 L290.001,517.1719 A0,0 0 0 0 290.001,517.1719" fill="#FEFFDD" style="stroke:#181818;stroke-width:0.5;"/><path d="M428.8364,517.1719 L428.8364,527.1719 L438.8364,527.1719 L428.8364,517.1719" fill="#FEFFDD" style="stroke:#181818;stroke-width:0.5;"/><text fill="#000000" font-family="sans-serif" font-size="13" lengthAdjust="spacing" textLength="107.6118" x="306.1128" y="535.667">&#20854;&#23454;&#20063;&#27809;&#20160;&#20040;&#24809;&#32602;,</text><text fill="#000000" font-family="sans-serif" font-size="13" lengthAdjust="spacing" textLength="98.2236" x="310.8069" y="552.0186">&#36824;&#26159;&#24515;&#19981;&#35802;, &#20855;&#20307;</text><text fill="#000000" font-family="sans-serif" font-size="13" lengthAdjust="spacing" textLength="127.8354" x="296.001" y="568.3701">&#35831;&#30475;./&#36138;&#24515;&#19982;&#21160;&#24577;&#35268;&#21010;/</text><text fill="#000000" font-family="sans-serif" font-size="13" lengthAdjust="spacing" textLength="87.4009" x="316.2183" y="584.7217">&#21160;&#24577;&#35268;&#21010;.puml,</text><text fill="#000000" font-family="sans-serif" font-size="13" lengthAdjust="spacing" textLength="57.7891" x="331.0242" y="601.0732">&#36138;&#24515;.puml</text><rect fill="#F1F1F1" height="35.0938" rx="12.5" ry="12.5" style="stroke:#181818;stroke-width:0.5;" width="92" x="178.001" y="545.5039"/><text fill="#000000" font-family="sans-serif" font-size="12" lengthAdjust="spacing" textLength="72" x="188.001" y="567.9609">&#35302;&#21457;&#24809;&#32602;&#26426;&#21046;</text><polygon fill="#F1F1F1" points="607.2756,376.9844,712.3933,376.9844,724.3933,388.9844,712.3933,400.9844,607.2756,400.9844,595.2756,388.9844,607.2756,376.9844" style="stroke:#181818;stroke-width:0.5;"/><text fill="#000000" font-family="sans-serif" font-size="11" lengthAdjust="spacing" textLength="105.1177" x="607.2756" y="393.4854">&#26159;&#21542;&#20026;&#36816;&#21160;&#38459;&#21147;&#36807;&#22823;?</text><text fill="#000000" font-family="sans-serif" font-size="11" lengthAdjust="spacing" textLength="11" x="584.2756" y="386.5674">&#26159;</text><text fill="#000000" font-family="sans-serif" font-size="11" lengthAdjust="spacing" textLength="11" x="724.3933" y="386.5674">&#21542;</text><path d="M592.8364,410.9844 L592.8364,444.6875 L572.8364,448.6875 L592.8364,452.6875 L592.8364,486.3906 A0,0 0 0 0 592.8364,486.3906 L704.8364,486.3906 A0,0 0 0 0 704.8364,486.3906 L704.8364,420.9844 L694.8364,410.9844 L592.8364,410.9844 A0,0 0 0 0 592.8364,410.9844" fill="#FEFFDD" style="stroke:#181818;stroke-width:0.5;"/><path d="M694.8364,410.9844 L694.8364,420.9844 L704.8364,420.9844 L694.8364,410.9844" fill="#FEFFDD" style="stroke:#181818;stroke-width:0.5;"/><text fill="#000000" font-family="sans-serif" font-size="13" lengthAdjust="spacing" textLength="91" x="598.8364" y="429.4795">&#26368;&#23567;&#25191;&#34892;&#31574;&#30053;&#65306;</text><text fill="#000000" font-family="sans-serif" font-size="13" lengthAdjust="spacing" textLength="59.9409" x="614.366" y="445.8311">- &#36305;&#19968;&#23567;&#22280;</text><text fill="#000000" font-family="sans-serif" font-size="13" lengthAdjust="spacing" textLength="68.6309" x="610.021" y="462.1826">- &#36339;&#32499;100&#19979;</text><text fill="#000000" font-family="sans-serif" font-size="13" lengthAdjust="spacing" textLength="85.9409" x="601.366" y="478.5342">- &#25110;&#32773;&#26356;&#23567;&#38459;&#21147;</text><rect fill="#F1F1F1" height="35.0938" rx="12.5" ry="12.5" style="stroke:#181818;stroke-width:0.5;" width="92" x="480.8364" y="431.1406"/><text fill="#000000" font-family="sans-serif" font-size="12" lengthAdjust="spacing" textLength="72" x="490.8364" y="453.5977">&#38477;&#20302;&#36816;&#21160;&#24378;&#24230;</text><rect fill="#F1F1F1" height="35.0938" rx="12.5" ry="12.5" style="stroke:#181818;stroke-width:0.5;" width="116" x="468.8364" y="521.3906"/><text fill="#000000" font-family="sans-serif" font-size="12" lengthAdjust="spacing" textLength="96" x="478.8364" y="543.8477">&#23436;&#25104;&#26368;&#20302;&#36816;&#21160;&#20219;&#21153;</text><rect fill="#F1F1F1" height="35.0938" rx="12.5" ry="12.5" style="stroke:#181818;stroke-width:0.5;" width="56" x="498.8364" y="591.4844"/><text fill="#000000" font-family="sans-serif" font-size="12" lengthAdjust="spacing" textLength="36" x="508.8364" y="613.9414">&#21507;&#26089;&#39277;</text><rect fill="#F1F1F1" height="35.0938" rx="12.5" ry="12.5" style="stroke:#181818;stroke-width:0.5;" width="92" x="480.8364" y="661.5781"/><text fill="#000000" font-family="sans-serif" font-size="12" lengthAdjust="spacing" textLength="72" x="490.8364" y="684.0352">&#36827;&#20837;&#23398;&#20064;&#29366;&#24577;</text><rect fill="#F1F1F1" height="35.0938" rx="12.5" ry="12.5" style="stroke:#181818;stroke-width:0.5;" width="135.9922" x="724.8364" y="410.9844"/><text fill="#000000" font-family="sans-serif" font-size="12" lengthAdjust="spacing" textLength="115.9922" x="734.8364" y="433.4414">&#21028;&#23450;&#20026;&#8220;&#32431;&#31929;&#19981;&#24819;&#36215;&#24202;&#8221;</text><path d="M858.8325,481.0781 L858.8325,522.957 L838.8325,526.957 L858.8325,530.957 L858.8325,572.8359 A0,0 0 0 0 858.8325,572.8359 L1007.668,572.8359 A0,0 0 0 0 1007.668,572.8359 L1007.668,491.0781 L997.668,481.0781 L858.8325,481.0781 A0,0 0 0 0 858.8325,481.0781" fill="#FEFFDD" style="stroke:#181818;stroke-width:0.5;"/><path d="M997.668,481.0781 L997.668,491.0781 L1007.668,491.0781 L997.668,481.0781" fill="#FEFFDD" style="stroke:#181818;stroke-width:0.5;"/><text fill="#000000" font-family="sans-serif" font-size="13" lengthAdjust="spacing" textLength="107.6118" x="874.9443" y="499.5732">&#20854;&#23454;&#20063;&#27809;&#20160;&#20040;&#24809;&#32602;,</text><text fill="#000000" font-family="sans-serif" font-size="13" lengthAdjust="spacing" textLength="98.2236" x="879.6384" y="515.9248">&#36824;&#26159;&#24515;&#19981;&#35802;, &#20855;&#20307;</text><text fill="#000000" font-family="sans-serif" font-size="13" lengthAdjust="spacing" textLength="127.8354" x="864.8325" y="532.2764">&#35831;&#30475;./&#36138;&#24515;&#19982;&#21160;&#24577;&#35268;&#21010;/</text><text fill="#000000" font-family="sans-serif" font-size="13" lengthAdjust="spacing" textLength="87.4009" x="885.0498" y="548.6279">&#21160;&#24577;&#35268;&#21010;.puml,</text><text fill="#000000" font-family="sans-serif" font-size="13" lengthAdjust="spacing" textLength="57.7891" x="899.8557" y="564.9795">&#36138;&#24515;.puml</text><rect fill="#F1F1F1" height="35.0938" rx="12.5" ry="12.5" style="stroke:#181818;stroke-width:0.5;" width="92" x="746.8325" y="509.4102"/><text fill="#000000" font-family="sans-serif" font-size="12" lengthAdjust="spacing" textLength="72" x="756.8325" y="531.8672">&#35302;&#21457;&#24809;&#32602;&#26426;&#21046;</text><polygon fill="#F1F1F1" points="659.8345,702.6719,671.8345,714.6719,659.8345,726.6719,647.8345,714.6719,659.8345,702.6719" style="stroke:#181818;stroke-width:0.5;"/><polygon fill="#F1F1F1" points="441.9177,732.6719,453.9177,744.6719,441.9177,756.6719,429.9177,744.6719,441.9177,732.6719" style="stroke:#181818;stroke-width:0.5;"/><ellipse cx="246.2924" cy="787.6719" fill="none" rx="11" ry="11" style="stroke:#222222;stroke-width:1;"/><ellipse cx="246.2924" cy="787.6719" fill="#222222" rx="6" ry="6" style="stroke:#222222;stroke-width:1;"/><line style="stroke:#181818;stroke-width:1;" x1="246.2924" x2="246.2924" y1="68.6094" y2="88.6094"/><polygon fill="#181818" points="242.2924,78.6094,246.2924,88.6094,250.2924,78.6094,246.2924,82.6094" style="stroke:#181818;stroke-width:1;"/><line style="stroke:#181818;stroke-width:1;" x1="246.2924" x2="246.2924" y1="123.7031" y2="143.7031"/><polygon fill="#181818" points="242.2924,133.7031,246.2924,143.7031,250.2924,133.7031,246.2924,137.7031" style="stroke:#181818;stroke-width:1;"/><line style="stroke:#181818;stroke-width:1;" x1="70.667" x2="70.667" y1="267.8906" y2="287.8906"/><polygon fill="#181818" points="66.667,277.8906,70.667,287.8906,74.667,277.8906,70.667,281.8906" style="stroke:#181818;stroke-width:1;"/><line style="stroke:#181818;stroke-width:1;" x1="70.667" x2="70.667" y1="322.9844" y2="342.9844"/><polygon fill="#181818" points="66.667,332.9844,70.667,342.9844,74.667,332.9844,70.667,336.9844" style="stroke:#181818;stroke-width:1;"/><line style="stroke:#181818;stroke-width:1;" x1="70.667" x2="70.667" y1="378.0781" y2="413.0781"/><polygon fill="#181818" points="66.667,403.0781,70.667,413.0781,74.667,403.0781,70.667,407.0781" style="stroke:#181818;stroke-width:1;"/><line style="stroke:#181818;stroke-width:1;" x1="70.667" x2="70.667" y1="448.1719" y2="483.1719"/><polygon fill="#181818" points="66.667,473.1719,70.667,483.1719,74.667,473.1719,70.667,477.1719" style="stroke:#181818;stroke-width:1;"/><line style="stroke:#181818;stroke-width:1;" x1="70.667" x2="70.667" y1="518.2656" y2="553.2656"/><polygon fill="#181818" points="66.667,543.2656,70.667,553.2656,74.667,543.2656,70.667,547.2656" style="stroke:#181818;stroke-width:1;"/><line style="stroke:#181818;stroke-width:1;" x1="70.667" x2="70.667" y1="588.3594" y2="623.3594"/><polygon fill="#181818" points="66.667,613.3594,70.667,623.3594,74.667,613.3594,70.667,617.3594" style="stroke:#181818;stroke-width:1;"/><line style="stroke:#181818;stroke-width:1;" x1="70.667" x2="70.667" y1="658.4531" y2="693.4531"/><polygon fill="#181818" points="66.667,683.4531,70.667,693.4531,74.667,683.4531,70.667,687.4531" style="stroke:#181818;stroke-width:1;"/><line style="stroke:#181818;stroke-width:1;" x1="441.9177" x2="441.9177" y1="267.8906" y2="287.8906"/><polygon fill="#181818" points="437.9177,277.8906,441.9177,287.8906,445.9177,277.8906,441.9177,281.8906" style="stroke:#181818;stroke-width:1;"/><line style="stroke:#181818;stroke-width:1;" x1="224.001" x2="224.001" y1="412.0781" y2="447.0781"/><polygon fill="#181818" points="220.001,437.0781,224.001,447.0781,228.001,437.0781,224.001,441.0781" style="stroke:#181818;stroke-width:1;"/><line style="stroke:#181818;stroke-width:1;" x1="224.001" x2="224.001" y1="482.1719" y2="545.5039"/><polygon fill="#181818" points="220.001,535.5039,224.001,545.5039,228.001,535.5039,224.001,539.5039" style="stroke:#181818;stroke-width:1;"/><line style="stroke:#181818;stroke-width:1;" x1="526.8364" x2="526.8364" y1="466.2344" y2="521.3906"/><polygon fill="#181818" points="522.8364,511.3906,526.8364,521.3906,530.8364,511.3906,526.8364,515.3906" style="stroke:#181818;stroke-width:1;"/><line style="stroke:#181818;stroke-width:1;" x1="526.8364" x2="526.8364" y1="556.4844" y2="591.4844"/><polygon fill="#181818" points="522.8364,581.4844,526.8364,591.4844,530.8364,581.4844,526.8364,585.4844" style="stroke:#181818;stroke-width:1;"/><line style="stroke:#181818;stroke-width:1;" x1="526.8364" x2="526.8364" y1="626.5781" y2="661.5781"/><polygon fill="#181818" points="522.8364,651.5781,526.8364,661.5781,530.8364,651.5781,526.8364,655.5781" style="stroke:#181818;stroke-width:1;"/><line style="stroke:#181818;stroke-width:1;" x1="792.8325" x2="792.8325" y1="446.0781" y2="509.4102"/><polygon fill="#181818" points="788.8325,499.4102,792.8325,509.4102,796.8325,499.4102,792.8325,503.4102" style="stroke:#181818;stroke-width:1;"/><line style="stroke:#181818;stroke-width:1;" x1="595.2756" x2="526.8364" y1="388.9844" y2="388.9844"/><line style="stroke:#181818;stroke-width:1;" x1="526.8364" x2="526.8364" y1="388.9844" y2="431.1406"/><polygon fill="#181818" points="522.8364,421.1406,526.8364,431.1406,530.8364,421.1406,526.8364,425.1406" style="stroke:#181818;stroke-width:1;"/><line style="stroke:#181818;stroke-width:1;" x1="724.3933" x2="792.8325" y1="388.9844" y2="388.9844"/><line style="stroke:#181818;stroke-width:1;" x1="792.8325" x2="792.8325" y1="388.9844" y2="410.9844"/><polygon fill="#181818" points="788.8325,400.9844,792.8325,410.9844,796.8325,400.9844,792.8325,404.9844" style="stroke:#181818;stroke-width:1;"/><line style="stroke:#181818;stroke-width:1;" x1="526.8364" x2="526.8364" y1="696.6719" y2="714.6719"/><line style="stroke:#181818;stroke-width:1;" x1="526.8364" x2="647.8345" y1="714.6719" y2="714.6719"/><polygon fill="#181818" points="637.8345,710.6719,647.8345,714.6719,637.8345,718.6719,641.8345,714.6719" style="stroke:#181818;stroke-width:1;"/><line style="stroke:#181818;stroke-width:1;" x1="792.8325" x2="792.8325" y1="544.5039" y2="714.6719"/><line style="stroke:#181818;stroke-width:1;" x1="792.8325" x2="671.8345" y1="714.6719" y2="714.6719"/><polygon fill="#181818" points="681.8345,710.6719,671.8345,714.6719,681.8345,718.6719,677.8345,714.6719" style="stroke:#181818;stroke-width:1;"/><line style="stroke:#181818;stroke-width:1;" x1="377.3589" x2="224.001" y1="354.9844" y2="354.9844"/><line style="stroke:#181818;stroke-width:1;" x1="224.001" x2="224.001" y1="354.9844" y2="376.9844"/><polygon fill="#181818" points="220.001,366.9844,224.001,376.9844,228.001,366.9844,224.001,370.9844" style="stroke:#181818;stroke-width:1;"/><line style="stroke:#181818;stroke-width:1;" x1="506.4766" x2="659.8345" y1="354.9844" y2="354.9844"/><line style="stroke:#181818;stroke-width:1;" x1="659.8345" x2="659.8345" y1="354.9844" y2="376.9844"/><polygon fill="#181818" points="655.8345,366.9844,659.8345,376.9844,663.8345,366.9844,659.8345,370.9844" style="stroke:#181818;stroke-width:1;"/><line style="stroke:#181818;stroke-width:1;" x1="224.001" x2="224.001" y1="580.5977" y2="744.6719"/><line style="stroke:#181818;stroke-width:1;" x1="224.001" x2="429.9177" y1="744.6719" y2="744.6719"/><polygon fill="#181818" points="419.9177,740.6719,429.9177,744.6719,419.9177,748.6719,423.9177,744.6719" style="stroke:#181818;stroke-width:1;"/><line style="stroke:#181818;stroke-width:1;" x1="659.8345" x2="659.8345" y1="726.6719" y2="744.6719"/><line style="stroke:#181818;stroke-width:1;" x1="659.8345" x2="453.9177" y1="744.6719" y2="744.6719"/><polygon fill="#181818" points="463.9177,740.6719,453.9177,744.6719,463.9177,748.6719,459.9177,744.6719" style="stroke:#181818;stroke-width:1;"/><line style="stroke:#181818;stroke-width:1;" x1="441.9177" x2="441.9177" y1="322.9844" y2="342.9844"/><polygon fill="#181818" points="437.9177,332.9844,441.9177,342.9844,445.9177,332.9844,441.9177,336.9844" style="stroke:#181818;stroke-width:1;"/><line style="stroke:#181818;stroke-width:1;" x1="198.2335" x2="70.667" y1="210.7969" y2="210.7969"/><line style="stroke:#181818;stroke-width:1;" x1="70.667" x2="70.667" y1="210.7969" y2="232.7969"/><polygon fill="#181818" points="66.667,222.7969,70.667,232.7969,74.667,222.7969,70.667,226.7969" style="stroke:#181818;stroke-width:1;"/><line style="stroke:#181818;stroke-width:1;" x1="294.3512" x2="441.9177" y1="210.7969" y2="210.7969"/><line style="stroke:#181818;stroke-width:1;" x1="441.9177" x2="441.9177" y1="210.7969" y2="232.7969"/><polygon fill="#181818" points="437.9177,222.7969,441.9177,232.7969,445.9177,222.7969,441.9177,226.7969" style="stroke:#181818;stroke-width:1;"/><line style="stroke:#181818;stroke-width:1;" x1="441.9177" x2="441.9177" y1="756.6719" y2="761.6719"/><line style="stroke:#181818;stroke-width:1;" x1="441.9177" x2="246.2924" y1="761.6719" y2="761.6719"/><line style="stroke:#181818;stroke-width:1;" x1="246.2924" x2="246.2924" y1="761.6719" y2="776.6719"/><polygon fill="#181818" points="242.2924,766.6719,246.2924,776.6719,250.2924,766.6719,246.2924,770.6719" style="stroke:#181818;stroke-width:1;"/><line style="stroke:#181818;stroke-width:1;" x1="246.2924" x2="246.2924" y1="178.7969" y2="198.7969"/><polygon fill="#181818" points="242.2924,188.7969,246.2924,198.7969,250.2924,188.7969,246.2924,192.7969" style="stroke:#181818;stroke-width:1;"/><!--SRC=[bLJRJXfH57sVhpYFcbgnQT879atJf9_G7o3jgAI81iQaZrEfEe0WQfMh8WqNRG9OGIupKFx5p3vdvibVw1vck0p5rfuGOFPUUvrzMNk2dxp-BK_0iq7U2QkURP_uNlWillLvr_mRWbya7_1B272YL_G9HBzhWnBH2mTQHw7n2iWjyepeWmH4hcYuWdRMK9cQNtZbVhbYOHSvBYXw0YB7kMcoPIIRv3KnlJpdDf9TupWF9p6UuxohP86cwf0eKndPybRmcqKYhWl-eGk921utAwlGaz39smPza8NT4arV8RcLYf5gqTeTRxlRHxHQ6ZyqcDgm7o2li89aV5FPJcz41eaGJLuRfQgJ7QfbhNlfqZeHlVuBzlUWk6y3WkBc5iS9lg105Z3xKPPM_b3ygJTBOsvvZrua89w7xALjcvIDDkmfX6DQHwBf37xOUM5E_HPxxGRwfnPcn3TsMjSOoPhnFVNGaw6yGwDdeBPSD1obEOLLmm-zC3_DLYd3uH4DNRD-1W4ur0cRVrCKIC2xjYwEJUQ1tHRKBhHkdjuMD5NIkh8LlkH0wOEKMTmWf7LYUZspX65jhN_YnDJRB1TTTkdD7qDWt9IIz4MlV0NvsEMyTCgplBMzuPkvRSWmT8pjWl_Zi0IhsjafEIU0xH_9HuL8LX_iGx7oo0I6VJFICQqVjsAWfu1IvXs0Htfd7fgJuERGNfdg6JijFVGoVw2U4nGlwW6Xa9FdkaqvlrXPqJhHEMugd-dIBiqsaS0goW5oDcUYdze1xY1cE2vEKp6smC_09flYi4yl38kqS69JMfit0LkqHQXbS0JtKeufTNRRHStGKCFQetlfd9y9-9je_z7yfudtgGB-Jn4_GSYFYNd-pD3YNRNrRVsrVymtqsy0]--></g></svg>